<svg xmlns="http://www.w3.org/2000/svg" viewBox="0 0 7.312 8.949" preserveAspectRatio="xMidYMin meet"><path fill="#FFFFFF" d="M6.669 4.592c-.426-.456-1.121-.788-2.084-.995l-.715-.154c-.412-.088-.714-.197-.906-.328s-.282-.3-.271-.507a.585.585 0 0 1 .255-.477c.169-.125.436-.188.802-.188.384 0 .67.08.859.239.189.159.294.38.317.665h2.267c-.003-.571-.144-1.071-.424-1.498C6.489.921 6.092.59 5.578.354S4.455 0 3.75 0c-.69 0-1.302.117-1.834.35S.967.907.667 1.323s-.448.902-.445 1.455c-.003.682.217 1.22.662 1.614s1.054.673 1.826.841l.87.187c.486.105.825.224 1.019.356.193.132.291.298.294.497a.633.633 0 0 1-.297.528c-.195.137-.482.205-.863.205-.455 0-.81-.104-1.067-.313-.258-.209-.396-.514-.416-.915H0c.003.73.16 1.329.471 1.796.311.468.749.814 1.313 1.039.563.225 1.225.336 1.983.336 1.105 0 1.972-.23 2.6-.692.627-.463.943-1.123.945-1.984-.002-.665-.217-1.225-.643-1.681z"/></svg>