<svg xmlns="http://www.w3.org/2000/svg" viewBox="0 0 7.33 8.966" preserveAspectRatio="xMidYMin meet"><path fill="#FFFFFF" d="M7.057 5.489a2.294 2.294 0 0 0-.733-.744 2.578 2.578 0 0 0-1.023-.381v-.069a2.086 2.086 0 0 0 1.219-.66c.324-.355.486-.777.486-1.265 0-.455-.145-.86-.435-1.217-.29-.356-.686-.638-1.189-.844S4.307 0 3.665 0 2.451.103 1.948.307c-.503.204-.9.485-1.189.841-.29.357-.435.764-.435 1.222 0 .485.16.907.479 1.263.32.356.728.577 1.226.662v.068c-.378.057-.72.185-1.028.382-.307.197-.55.445-.73.744A1.869 1.869 0 0 0 0 6.478c0 .472.159.895.476 1.27.316.375.751.672 1.304.891s1.18.327 1.885.327 1.333-.109 1.886-.328c.552-.219.987-.516 1.304-.891s.475-.798.475-1.269c0-.361-.091-.691-.273-.989zm-4.125-3.52c.193-.176.438-.264.733-.264s.54.089.733.267c.193.177.29.401.29.671a.893.893 0 0 1-.29.684c-.193.179-.438.27-.733.27s-.54-.091-.733-.273a.899.899 0 0 1-.29-.682c0-.272.097-.497.29-.673zm1.564 5.06c-.219.2-.496.301-.831.301-.335 0-.612-.102-.831-.303s-.328-.453-.328-.754c0-.304.109-.553.328-.748.219-.194.496-.292.831-.292.335 0 .612.098.831.294a.957.957 0 0 1 .328.746.98.98 0 0 1-.328.756z"/></svg>