<svg xmlns="http://www.w3.org/2000/svg" viewBox="0 0 7.176 8.728" preserveAspectRatio="xMidYMin meet"><path fill="#FFFFFF" d="M6.903 5.18a1.973 1.973 0 0 0-.733-.721 2.203 2.203 0 0 0-1.022-.283v-.085c.505-.1.913-.323 1.223-.669.31-.347.465-.76.465-1.24 0-.665-.259-1.195-.778-1.589C5.539.197 4.781 0 3.784 0H0v8.728h4.108c.633 0 1.179-.106 1.636-.32.458-.214.811-.506 1.059-.878s.373-.797.373-1.275c0-.411-.091-.77-.273-1.075zM2.369 1.858h1.006c.295 0 .54.072.733.215.193.144.29.351.29.62 0 .267-.098.473-.294.618-.196.145-.45.217-.763.217h-.972v-1.67zm1.108 4.977H2.369V4.994h1.142c.361 0 .644.083.85.247.206.165.309.4.309.708 0 .591-.398.886-1.193.886z"/></svg>