<svg xmlns="http://www.w3.org/2000/svg" viewBox="0 0 8.506 9.495" preserveAspectRatio="xMidYMin meet"><path fill="#FFFFFF" d="M7.181 7.892c.403-.38.722-.855.957-1.425s.352-1.231.352-1.984c0-.972-.189-1.791-.567-2.457S7.035.856 6.393.513 5.034 0 4.245 0C3.449 0 2.731.171 2.09.514S.941 1.36.565 2.026C.188 2.692 0 3.511 0 4.483c0 .966.188 1.782.565 2.448A3.807 3.807 0 0 0 2.09 8.449c.641.345 1.358.518 2.154.518a4.74 4.74 0 0 0 1.508-.234l.656.763h2.097L7.181 7.892zm-1.5-1.743l-.431-.541H3.409L4.385 6.9a2.16 2.16 0 0 1-.14.004c-.588 0-1.037-.208-1.345-.623-.308-.414-.462-1.014-.462-1.798S2.592 3.1 2.9 2.685c.308-.415.756-.623 1.345-.623.588 0 1.036.208 1.344.622.308.416.462 1.015.462 1.799 0 .702-.123 1.257-.37 1.666z"/></svg>