<svg xmlns="http://www.w3.org/2000/svg" viewBox="0 0 8.182 8.966" preserveAspectRatio="xMidYMin meet"><path fill="#FFFFFF" d="M5.301 6.578c-.259.218-.605.326-1.04.326-.577 0-1.024-.203-1.344-.61-.32-.406-.479-1.01-.479-1.811 0-.758.158-1.352.473-1.779.315-.428.771-.642 1.368-.642.458 0 .813.122 1.068.367.253.244.398.566.431.963h2.404c-.063-.722-.27-1.335-.62-1.841A3.373 3.373 0 0 0 6.173.396C5.597.132 4.943 0 4.21 0c-.784 0-1.494.171-2.13.514S.938 1.36.562 2.026 0 3.511 0 4.483c0 .966.184 1.783.552 2.45.368.668.87 1.174 1.504 1.518s1.353.515 2.154.515c.639 0 1.2-.098 1.683-.294s.889-.455 1.217-.778c.328-.322.582-.674.76-1.057a3.22 3.22 0 0 0 .312-1.127l-2.404-.017c-.059.372-.218.667-.477.885z"/></svg>