<svg xmlns="http://www.w3.org/2000/svg" viewBox="0 0 5.892 8.957"><path fill="#FFFFFF" d="M2.963 8.957C1.277 8.957 0 8.105 0 6.437c0-.966.52-1.689 1.328-2.09C.621 3.955.188 3.286.188 2.452.188.852 1.346 0 2.945 0 4.58 0 5.722.852 5.722 2.452c0 .839-.431 1.507-1.137 1.898.804.4 1.307 1.12 1.307 2.086 0 1.669-1.244 2.521-2.929 2.521zm-.018-3.814c-.613 0-1.055.426-1.055 1.141 0 .698.441 1.107 1.072 1.107.63 0 1.039-.409 1.039-1.107.001-.716-.425-1.141-1.056-1.141zm0-3.577c-.562 0-.868.357-.868.988 0 .63.307 1.038.886 1.038s.868-.408.868-1.038c0-.613-.306-.988-.886-.988z"/></svg>