<svg xmlns="http://www.w3.org/2000/svg" viewBox="0 0 8.488 8.966" preserveAspectRatio="xMidYMin meet"><path fill="#FFFFFF" d="M7.922 2.026C7.544 1.36 7.034.856 6.392.513S5.034 0 4.245 0C3.449 0 2.731.171 2.09.514S.941 1.36.565 2.026C.188 2.692 0 3.511 0 4.483c0 .966.188 1.782.565 2.449A3.796 3.796 0 0 0 2.09 8.448c.641.346 1.358.518 2.154.518.79 0 1.505-.171 2.147-.513A3.79 3.79 0 0 0 7.922 6.94c.378-.667.566-1.485.566-2.457S8.3 2.692 7.922 2.026zM5.589 6.281c-.308.415-.756.622-1.344.622-.588 0-1.037-.207-1.345-.622-.308-.414-.462-1.014-.462-1.798S2.592 3.1 2.9 2.685c.308-.415.756-.623 1.345-.623.588 0 1.036.208 1.344.622.308.416.462 1.015.462 1.799s-.154 1.384-.462 1.798z"/></svg>