<svg xmlns="http://www.w3.org/2000/svg" viewBox="0 0 6.869 8.847" preserveAspectRatio="xMidYMin meet"><path fill="#FFFFFF" d="M3.46 6.955v-.051l.818-.682c.665-.555 1.178-1.032 1.539-1.432.36-.401.61-.767.75-1.098a2.56 2.56 0 0 0 .208-.999c0-.542-.14-1.016-.419-1.419-.28-.403-.676-.717-1.189-.94C4.654.112 4.048 0 3.349 0c-.676 0-1.266.12-1.768.358C1.078.597.689.938.413 1.381.138 1.824 0 2.353 0 2.966h2.25c-.003-.366.098-.649.302-.846.205-.197.47-.296.797-.296s.595.095.804.286c.208.19.313.452.313.788 0 .31-.093.579-.279.808-.187.228-.44.476-.761.743L.17 7.142v1.705h6.699V6.955H3.46z"/></svg>