<svg xmlns="http://www.w3.org/2000/svg" viewBox="0 0 7.278 9" preserveAspectRatio="xMidYMin meet"><path fill="#FFFFFF" d="M6.95 4.458a2.499 2.499 0 0 0-.927-.98c-.396-.239-.858-.358-1.387-.358a2.79 2.79 0 0 0-1.364.339 1.886 1.886 0 0 0-.869.939h-.051c.006-.722.125-1.3.356-1.734s.596-.652 1.093-.652c.25 0 .473.059.667.177.195.118.319.309.373.573h2.335a2.866 2.866 0 0 0-.509-1.389 3.123 3.123 0 0 0-1.169-1C5.008.125 4.443 0 3.801 0 3.04 0 2.374.187 1.805.559 1.235.931.793 1.462.477 2.153.162 2.842.002 3.665 0 4.62c.002.792.104 1.467.305 2.024.2.557.476 1.009.827 1.355.351.346.753.6 1.208.76.454.161.935.241 1.444.241.688 0 1.294-.129 1.82-.388a2.98 2.98 0 0 0 1.233-1.091c.296-.469.444-1.016.441-1.641.003-.533-.106-1.007-.328-1.422zM4.643 6.859a1.173 1.173 0 0 1-.876.351c-.344 0-.63-.117-.859-.351s-.346-.532-.351-.893c.005-.361.123-.658.351-.893s.515-.352.859-.352c.355 0 .647.117.875.352s.34.532.334.893c.007.361-.105.659-.333.893z"/></svg>