<svg xmlns="http://www.w3.org/2000/svg" viewBox="0 0 8.199 8.966" preserveAspectRatio="xMidYMin meet"><path fill="#FFFFFF" d="M4.33 3.972V5.66h1.585c-.012.38-.151.682-.42.907s-.668.336-1.2.336c-.613 0-1.077-.214-1.389-.643-.312-.429-.468-1.027-.468-1.794 0-.755.164-1.345.49-1.768s.788-.635 1.385-.635c.372 0 .679.082.92.245.242.163.398.394.469.692h2.395a2.992 2.992 0 0 0-.611-1.553A3.582 3.582 0 0 0 6.129.386 4.411 4.411 0 0 0 4.261 0c-.783 0-1.498.175-2.143.524a3.893 3.893 0 0 0-1.543 1.53C.192 2.725 0 3.54 0 4.5c0 .92.18 1.715.539 2.382s.86 1.182 1.502 1.542c.642.361 1.388.541 2.237.541.762 0 1.437-.149 2.026-.449s1.053-.731 1.389-1.295c.337-.564.505-1.244.505-2.04v-1.21H4.33z"/></svg>