<svg xmlns="http://www.w3.org/2000/svg" viewBox="0 0 7.279 9" preserveAspectRatio="xMidYMin meet"><path fill="#FFFFFF" d="M6.974 2.357c-.201-.557-.476-1.009-.827-1.356A3.245 3.245 0 0 0 4.939.24 4.345 4.345 0 0 0 3.495 0C2.804 0 2.196.13 1.67.39 1.145.65.734 1.014.439 1.481S-.003 2.495 0 3.12a2.955 2.955 0 0 0 .328 1.425c.222.416.531.743.929.98.397.237.859.356 1.385.356.5 0 .956-.113 1.368-.339.412-.226.7-.539.865-.939h.051c-.003.724-.12 1.303-.352 1.736-.231.434-.597.65-1.097.65a1.25 1.25 0 0 1-.665-.177c-.192-.118-.317-.309-.374-.573H.103c.048.511.217.975.506 1.393.29.418.679.75 1.168.997.489.247 1.056.371 1.701.371.764 0 1.43-.186 1.999-.558.568-.372 1.01-.903 1.325-1.594s.475-1.513.478-2.467c-.004-.793-.106-1.467-.306-2.024zM4.375 3.925a1.153 1.153 0 0 1-.863.354c-.353 0-.643-.118-.872-.354a1.212 1.212 0 0 1-.339-.891c-.003-.358.11-.655.339-.89.229-.236.519-.354.872-.354.346 0 .634.118.863.354.229.236.344.533.347.891a1.246 1.246 0 0 1-.347.89z"/></svg>