<svg xmlns="http://www.w3.org/2000/svg" viewBox="0 0 7.705 8.728" preserveAspectRatio="xMidYMin meet"><path fill="#FFFFFF" d="M7.17 2.022a3.644 3.644 0 0 0-1.517-1.5C4.998.174 4.222 0 3.324 0H0v8.728h3.358c.886 0 1.655-.174 2.306-.522a3.651 3.651 0 0 0 1.508-1.5c.355-.652.533-1.433.533-2.342s-.179-1.69-.535-2.342zM5.078 5.787c-.161.341-.394.581-.699.72-.306.139-.674.209-1.106.209h-.904V2.011h.835c.455 0 .839.069 1.153.208.313.14.552.379.716.72.163.341.245.815.245 1.423s-.08 1.084-.24 1.425z"/></svg>