<svg xmlns="http://www.w3.org/2000/svg" viewBox="0 0 7.176 8.966" preserveAspectRatio="xMidYMin meet"><path fill="#FFFFFF" d="M6.652 5.009c-.355-.353-.885-.569-1.59-.645v-.069c.52-.057.949-.241 1.289-.554.339-.312.506-.713.5-1.202a2.14 2.14 0 0 0-.416-1.311C6.155.846 5.768.545 5.272.327 4.777.109 4.207 0 3.562 0c-.659 0-1.243.117-1.751.35-.509.233-.909.554-1.2.963s-.438.88-.441 1.415h2.267a.822.822 0 0 1 .322-.65c.208-.169.476-.254.803-.254.298 0 .542.082.73.245a.76.76 0 0 1 .276.624.759.759 0 0 1-.326.65c-.223.169-.512.254-.867.254h-.887v1.636h.887c.383 0 .697.084.939.254.243.169.362.385.356.649.006.27-.095.492-.302.664s-.476.258-.806.258c-.341 0-.621-.082-.84-.246a.776.776 0 0 1-.336-.624H0c.002.542.156 1.022.46 1.44.304.418.722.745 1.255.982.533.236 1.143.355 1.831.355.713 0 1.343-.112 1.89-.336.546-.224.974-.534 1.282-.929s.461-.848.458-1.359c.006-.534-.169-.978-.524-1.332z"/></svg>