<svg xmlns="http://www.w3.org/2000/svg" viewBox="0 0 6.972 8.846" preserveAspectRatio="xMidYMin meet"><path fill="#FFFFFF" d="M6.62 4.259c-.237-.425-.56-.758-.968-.999s-.871-.363-1.391-.363c-.443 0-.833.087-1.167.262-.336.175-.572.395-.708.659h-.051l.17-1.926h3.92V0H.562l-.34 4.807 2.079.409c.1-.213.255-.38.467-.501.211-.121.442-.181.692-.181.364 0 .66.115.889.345.229.23.341.536.339.917.002.38-.11.686-.339.916-.229.229-.525.345-.889.345-.312 0-.582-.09-.808-.269a.91.91 0 0 1-.351-.72H0a2.46 2.46 0 0 0 .454 1.44c.296.418.704.745 1.223.982s1.113.356 1.783.356c.71 0 1.328-.133 1.854-.398a2.991 2.991 0 0 0 1.225-1.104c.291-.47.435-1.009.433-1.617.002-.554-.115-1.043-.352-1.468z"/></svg>