<svg xmlns="http://www.w3.org/2000/svg" viewBox="0 0 7.705 9.085" preserveAspectRatio="xMidYMin meet"><path fill="#FFFFFF" d="M7.24 2.058C6.928 1.388 6.483.877 5.906.526 5.33.176 4.645 0 3.853 0 3.06 0 2.376.175 1.8.524 1.225.873.782 1.383.471 2.054.16 2.725.003 3.54 0 4.5c-.003.958.152 1.778.464 2.463.312.685.757 1.209 1.334 1.572s1.261.547 2.054.55c.792 0 1.477-.181 2.052-.544.576-.361 1.019-.884 1.332-1.569.312-.685.469-1.509.469-2.472.003-.957-.152-1.771-.465-2.442zm-2.38 4.46c-.263.427-.599.641-1.007.641-.409 0-.745-.214-1.008-.641-.263-.428-.393-1.1-.39-2.018.005-.897.137-1.554.396-1.969.258-.415.592-.622 1.001-.622.409 0 .744.208 1.003.622.261.415.392 1.072.395 1.969.003.918-.127 1.59-.39 2.018z"/></svg>