<?xml version="1.0" encoding="utf-8"?>
<!-- Generator: Adobe Illustrator 16.0.4, SVG Export Plug-In . SVG Version: 6.00 Build 0)  -->
<!DOCTYPE svg PUBLIC "-//W3C//DTD SVG 1.1//EN" "http://www.w3.org/Graphics/SVG/1.1/DTD/svg11.dtd">
<svg version="1.1" id="Layer_1" xmlns="http://www.w3.org/2000/svg" xmlns:xlink="http://www.w3.org/1999/xlink" x="0px" y="0px"
	 width="15.969px" height="15.969px" viewBox="0 0 15.969 15.969" enable-background="new 0 0 15.969 15.969" xml:space="preserve">
<path fill="#999999" d="M2.163,15.982c-1.179,0-2.132-0.952-2.132-2.131c0-1.173,0.952-2.126,2.132-2.126
	c1.172,0,2.125,0.953,2.125,2.126C4.288,15.03,3.335,15.982,2.163,15.982z"/>
<path fill="#999999" d="M7.5,16c0-2.007-0.779-3.897-2.187-5.316C3.902,9.267,2.04,8.486,0.032,8.486V5.414
	c5.687,0,10.542,4.899,10.542,10.586H7.5L7.5,16z"/>
<path fill="#999999" d="M12.908,15.969c0-7.117-5.853-12.908-12.846-12.908V0c8.662,0,15.906,7.163,15.906,15.969H12.908z"/>
</svg>
