<?xml version="1.0" encoding="utf-8"?>
<!-- Generator: Adobe Illustrator 16.0.4, SVG Export Plug-In . SVG Version: 6.00 Build 0)  -->
<!DOCTYPE svg PUBLIC "-//W3C//DTD SVG 1.1//EN" "http://www.w3.org/Graphics/SVG/1.1/DTD/svg11.dtd">
<svg version="1.1" id="Layer_1" xmlns="http://www.w3.org/2000/svg" xmlns:xlink="http://www.w3.org/1999/xlink" x="0px" y="0px"
	 width="24px" height="24px" viewBox="0 0 24 24" enable-background="new 0 0 24 24" xml:space="preserve">
<path fill="#7eaabc" d="M3.203,23.782c-1.754,0-3.172-1.417-3.172-3.171c0-1.745,1.417-3.163,3.172-3.163c1.744,0,3.163,1.418,3.163,3.163
	C6.366,22.365,4.947,23.782,3.203,23.782z"/>
<path fill="#7eaabc" d="M11.145,23.809c0-2.987-1.159-5.8-3.254-7.91c-2.1-2.109-4.871-3.271-7.859-3.271V8.056c8.462,0,15.686,7.291,15.686,15.752
	H11.145z"/>
<path fill="#7eaabc" d="M19.193,23.762c0-10.59-8.709-19.208-19.115-19.208V0c12.89,0,23.669,10.658,23.669,23.762H19.193z"/>
</svg>
