<?xml version="1.0" encoding="utf-8"?>
<!-- Generator: Adobe Illustrator 18.1.0, SVG Export Plug-In . SVG Version: 6.00 Build 0)  -->
<svg version="1.1" id="Layer_1" xmlns="http://www.w3.org/2000/svg" xmlns:xlink="http://www.w3.org/1999/xlink" x="0px" y="0px"
	 viewBox="-296 389 16 32" enable-background="new -296 389 16 32" xml:space="preserve">
<g>
	<path fill="#0867E2" d="M-288,391c3.3,0,6,2.7,6,6s-2.7,6-6,6s-6-2.7-6-6S-291.3,391-288,391 M-288,389c-4.4,0-8,3.6-8,8s3.6,8,8,8
		s8-3.6,8-8S-283.6,389-288,389L-288,389z"/>
</g>
<polyline fill="none" stroke="#0867E2" stroke-width="2" stroke-miterlimit="10" points="-288,391.9 -288,396.8 -284.7,400.1 "/>
<g>
	<path fill="#9e9e9e" d="M-288,407c3.3,0,6,2.7,6,6s-2.7,6-6,6s-6-2.7-6-6S-291.3,407-288,407 M-288,405c-4.4,0-8,3.6-8,8s3.6,8,8,8
		s8-3.6,8-8S-283.6,405-288,405L-288,405z"/>
</g>
<polyline fill="none" stroke="#9e9e9e" stroke-width="2" stroke-miterlimit="10" points="-288,407.9 -288,412.8 -284.7,416.1 "/>
</svg>
