<?xml version="1.0" encoding="utf-8"?>
<!-- Generator: Adobe Illustrator 16.0.4, SVG Export Plug-In . SVG Version: 6.00 Build 0)  -->
<!DOCTYPE svg PUBLIC "-//W3C//DTD SVG 1.1//EN" "http://www.w3.org/Graphics/SVG/1.1/DTD/svg11.dtd">
<svg version="1.1" id="Layer_1" xmlns="http://www.w3.org/2000/svg" xmlns:xlink="http://www.w3.org/1999/xlink" x="0px" y="0px"
	 width="19px" height="12px" viewBox="0 0 19 12" enable-background="new 0 0 19 12" xml:space="preserve">
<g>
	<path fill="#3399ff" d="M17,1c0.552,0,1,0.449,1,1v8c0,0.552-0.448,1-1,1H3c-0.551,0-1-0.448-1-1V2c0-0.551,0.449-1,1-1H17 M17,0H3
		C1.895,0,1,0.896,1,2v8c0,1.104,0.896,2,2,2h14c1.104,0,2-0.896,2-2V2C19,0.896,18.104,0,17,0L17,0z"/>
</g>
<rect x="2" y="2" fill="#3399ff" width="16" height="3"/>
</svg>
