<?xml version="1.0" encoding="utf-8"?>
<!-- Generator: Adobe Illustrator 16.0.4, SVG Export Plug-In . SVG Version: 6.00 Build 0)  -->
<!DOCTYPE svg PUBLIC "-//W3C//DTD SVG 1.1//EN" "http://www.w3.org/Graphics/SVG/1.1/DTD/svg11.dtd">
<svg version="1.1" id="Layer_1" xmlns="http://www.w3.org/2000/svg" xmlns:xlink="http://www.w3.org/1999/xlink" x="0px" y="0px"
	 width="23px" height="16px" viewBox="0 0 23 16" enable-background="new 0 0 23 16" xml:space="preserve">
<path fill="#7eaabc" d="M6,15.309C6,15.686,5.391,16,5.014,16H3.868C3.491,16,3,15.686,3,15.309v-1.717l-1.446-2.849
	C1.08,10.312,0.851,9.688,0.851,9.019c0-1.325,1.25-2.401,2.575-2.401C4.749,6.618,6,7.694,6,9.019V15.309z"/>
<path fill="#7eaabc" d="M16,11.305V15H7v-4.211c1-1.246,2.778-1.885,4.494-1.885c1.717,0,3.277,0.639,4.56,1.8L16,11.305z"/>
<path fill="#7eaabc" d="M16,9.019v0.884L15.804,9.73c-1.245-1.123-2.845-1.742-4.5-1.742c-1.654,0-3.06,0.619-4.305,1.742L7,9.902V9.019
	c0-1.282-0.951-2.46-2.126-3.003L4.688,5.974L4.668,5.879C5.543,2.947,8.267,0.9,11.325,0.9c3.06,0,5.796,2.047,6.671,4.979
	l0.021,0.095L17.93,6.016C16.756,6.558,16,7.736,16,9.019z"/>
<path fill="#7eaabc" d="M20.949,10.773l-1.744,2.872L19,14.307v1.002C19,15.686,19.112,16,18.735,16h-1.146C17.212,16,17,15.686,17,15.309v-6.29
	c0-1.325,1.029-2.401,2.354-2.401s2.377,1.076,2.377,2.401C21.73,9.688,21.447,10.312,20.949,10.773z"/>
</svg>
