<svg xmlns="http://www.w3.org/2000/svg" width="24" height="20"><g><path fill="#7eaabc" d="M8.382 2.082c-.144-.144-.435-.266-.644-.266h-6.688c-.208 0-.376.171-.376.377v6.693c0 .204.117.494.266.64l10.066 10.07c.146.144.384.144.532 0l6.911-6.914c.148-.143.148-.383 0-.533l-10.067-10.067zm-2.959 4.487c-.587.587-1.537.587-2.124 0-.588-.587-.588-1.542 0-2.128.587-.587 1.537-.587 2.124 0 .589.586.589 1.541 0 2.128z"/><path fill="#7eaabc" d="M22.698 12.949l-6.383 6.381c-.144.144-.496.378-.602.336-.109-.039-.314-.192-.46-.336l-.521-.519c-.144-.149-.144-.389 0-.532l5.331-5.33c.149-.146.38-.498.341-.605-.04-.108-.191-.312-.341-.459l-9.534-9.536c-.147-.146-.354-.338-.395-.362l-.141-.107c-.033-.034.105-.063.315-.063h1.567c.21 0 .683.062.801.133.119.075.337.255.481.4l9.541 9.536c.143.146.295.351.335.459.042.106-.192.458-.335.604z"/></g></svg>