<svg version="1.1" id="Layer_1" xmlns="http://www.w3.org/2000/svg" xmlns:xlink="http://www.w3.org/1999/xlink" x="0px" y="0px"
	 width="12px" height="12px" viewBox="0 0 12 12" enable-background="new 0 0 12 12" xml:space="preserve">
<path opacity="0.3" d="M11.998,7.004v-1.99l-1.614,0c-0.113-0.506-0.314-0.976-0.582-1.401l1.144-1.144L9.539,1.062L8.397,2.205
	c-0.419-0.266-0.884-0.464-1.382-0.58V0H4.984v1.625C4.487,1.74,4.023,1.938,3.605,2.203L2.461,1.06l-1.41,1.41l1.146,1.146
	C1.931,4.039,1.73,4.507,1.617,5.01h-1.618v1.994h1.623c0.114,0.501,0.314,0.968,0.58,1.39l-1.15,1.15l1.41,1.41l1.152-1.152
	c0.424,0.267,0.893,0.468,1.397,0.581V12h1.995v-1.622c0.497-0.113,0.96-0.312,1.38-0.575l1.15,1.151l1.408-1.407L9.795,8.399
	c0.269-0.423,0.469-0.892,0.584-1.396H11.998z M6,7.801c-0.994,0-1.8-0.807-1.8-1.8c0-0.995,0.806-1.8,1.8-1.8
	c0.993,0,1.799,0.806,1.799,1.8C7.799,6.994,6.993,7.801,6,7.801z"/>
<g>
</g>
<g>
</g>
<g>
</g>
<g>
</g>
<g>
</g>
<g>
</g>
</svg>
