<?xml version="1.0" encoding="utf-8"?>
<!-- Generator: Adobe Illustrator 16.0.4, SVG Export Plug-In . SVG Version: 6.00 Build 0)  -->
<!DOCTYPE svg PUBLIC "-//W3C//DTD SVG 1.1//EN" "http://www.w3.org/Graphics/SVG/1.1/DTD/svg11.dtd">
<svg version="1.1" id="Layer_1" xmlns="http://www.w3.org/2000/svg" xmlns:xlink="http://www.w3.org/1999/xlink" x="0px" y="0px"
	 width="12px" height="12px" viewBox="0 0 12 12" enable-background="new 0 0 12 12" xml:space="preserve">
<g opacity="0.4">
	<g>
		<path d="M6,1.371c-2.564,0-4.643,2.079-4.643,4.643S3.436,10.656,6,10.656c2.563,0,4.643-2.078,4.643-4.643
			C10.643,3.448,8.563,1.371,6,1.371z M6,7.873c-1.025,0-1.857-0.832-1.857-1.858S4.975,4.156,6,4.156s1.855,0.833,1.855,1.858
			C7.855,7.039,7.025,7.873,6,7.873z M4.637,0.018h2.727v2.045H4.637V0.018z M4.674,9.993h2.652v1.989H4.674V9.993z M0.203,4.918
			h1.645V7.11H0.203V4.918z M10.151,4.918h1.646V7.11h-1.646V4.918z M2.718,2.73c-1.813,1.814-1.813,4.754,0,6.566
			c1.814,1.812,4.752,1.812,6.565,0s1.812-4.752,0-6.566C7.471,0.918,4.529,0.918,2.718,2.73z M7.313,7.328
			c-0.726,0.725-1.901,0.725-2.626,0c-0.725-0.725-0.725-1.902,0-2.627c0.725-0.725,1.9-0.724,2.625,0
			C8.038,5.426,8.039,6.604,7.313,7.328z M4.125,2.262L2.249,4.138L0.843,2.731l1.875-1.875L4.125,2.262z M11.158,9.297
			l-1.875,1.876L7.875,9.765L9.751,7.89L11.158,9.297z M2.248,7.889l1.875,1.878l-1.408,1.405L0.841,9.294L2.248,7.889z
			 M9.281,0.856l1.875,1.877L9.75,4.138L7.875,2.261L9.281,0.856z"/>
	</g>
</g>
</svg>
