<svg xmlns="http://www.w3.org/2000/svg" width="24" height="24"><path fill="#7eaabc" d="M3.203 23.782c-1.754 0-3.172-1.417-3.172-3.171 0-1.745 1.417-3.163 3.172-3.163 1.744 0 3.163 1.418 3.163 3.163 0 1.754-1.419 3.171-3.163 3.171z"/><path fill="#7eaabc" d="M11.145 23.809c0-2.987-1.159-5.8-3.254-7.91-2.1-2.109-4.871-3.271-7.859-3.271v-4.572c8.462 0 15.686 7.291 15.686 15.752h-4.573z"/><path fill="#7eaabc" d="M19.193 23.762c0-10.59-8.709-19.208-19.115-19.208v-4.554c12.89 0 23.669 10.658 23.669 23.762h-4.554z"/></svg>