<?xml version="1.0" encoding="utf-8"?>
<!-- Generator: Adobe Illustrator 16.0.4, SVG Export Plug-In . SVG Version: 6.00 Build 0)  -->
<!DOCTYPE svg PUBLIC "-//W3C//DTD SVG 1.1//EN" "http://www.w3.org/Graphics/SVG/1.1/DTD/svg11.dtd">
<svg version="1.1" id="Layer_1" xmlns="http://www.w3.org/2000/svg" xmlns:xlink="http://www.w3.org/1999/xlink" x="0px" y="0px"
	 width="34px" height="52px" viewBox="0 0 34 52" enable-background="new 0 0 34 52" xml:space="preserve">
<g>
	<polygon points="0.002,0 0.002,1 0.002,6 1.002,6 1.002,1 6.002,1 6.002,0 1.002,0 	"/>
	<polygon points="32.998,24.998 27.998,24.998 27.998,25.998 32.998,25.998 33.998,25.998 33.998,24.998 33.998,19.998 
		32.998,19.998 	"/>
	<polygon points="1.002,19.998 0.002,19.998 0.002,24.998 0.002,25.998 1.002,25.998 6.002,25.998 6.002,24.998 1.002,24.998 	"/>
	<polygon points="32.998,0 27.998,0 27.998,1 32.998,1 32.998,6 33.998,6 33.998,1 33.998,0 	"/>
</g>
<rect x="8.002" y="6" width="17.996" height="2"/>
<rect x="8.002" y="10" width="17.996" height="2"/>
<rect x="8.002" y="13.998" width="17.996" height="2"/>
<rect x="8.002" y="17.998" width="17.996" height="2"/>
<g>
	<polygon points="5.002,31 0.002,31 0.002,32 5.002,32 6.002,32 6.002,31 6.002,26 5.002,26 	"/>
	<polygon points="27.998,46 27.998,47 27.998,52 28.998,52 28.998,47 33.998,47 33.998,46 28.998,46 	"/>
	<polygon points="0.002,46 0.002,47 5.002,47 5.002,52 6.002,52 6.002,47 6.002,46 5.002,46 	"/>
	<polygon points="28.998,31 28.998,26 27.998,26 27.998,31 27.998,32 28.998,32 33.998,32 33.998,31 	"/>
</g>
<rect x="8.002" y="32" width="17.996" height="2"/>
<rect x="8.002" y="36" width="17.996" height="2"/>
<rect x="8.002" y="40" width="17.996" height="2"/>
<rect x="8.002" y="44" width="17.996" height="2"/>
<g>
</g>
<g>
</g>
<g>
</g>
<g>
</g>
<g>
</g>
<g>
</g>
</svg>
