<?xml version="1.0" encoding="iso-8859-1"?>
<!-- Generator: Adobe Illustrator 22.1.0, SVG Export Plug-In . SVG Version: 6.00 Build 0)  -->
<svg version="1.1" id="Layer_1" xmlns="http://www.w3.org/2000/svg" xmlns:xlink="http://www.w3.org/1999/xlink" x="0px" y="0px"
	 viewBox="0 0 33.253 38.907" enable-background="new 0 0 33.253 38.907" xml:space="preserve">
<path fill="#39404B" d="M10.419,8.742c0,0.387-0.032,1.032-0.419,1.452c-0.419,0.387-1.065,0.419-1.452,0.419H4.419
	c-1.194,0-1.903,0-2.387,0.065c-0.258,0.032-0.581,0.161-0.742,0.226c-0.065,0.032-0.065,0-0.032-0.032l9.419-9.581
	c0.032-0.032,0.065-0.032,0.032,0.032c-0.065,0.161-0.194,0.484-0.226,0.742c-0.065,0.484-0.065,1.194-0.065,2.387V8.742z
	 M19.194,37.71c-1.097-0.71-1.677-1.645-1.903-2.226c-0.226-0.548-0.355-1.161-0.355-1.774c0-2.677,2.194-4.871,4.903-4.871
	c0.806,0,1.452,0.645,1.452,1.452c0,0.548-0.29,1-0.742,1.258c-0.161,0.097-0.387,0.161-0.548,0.194
	c-0.161,0.032-0.774,0.097-1.065,0.355c-0.323,0.258-0.581,0.677-0.581,1.129c0,0.484,0.194,0.935,0.516,1.258
	c0.581,0.581,1.355,0.903,2.194,0.903c2.194,0,3.968-1.774,3.968-3.968c0-1.968-1.323-3.71-3.065-4.484
	c-0.258-0.129-0.677-0.226-1.065-0.323c-0.484-0.097-0.935-0.161-0.968-0.161c-1.355-0.161-4.742-1.226-4.968-4.226
	c0,0-1,4.516-3,5.742c-0.194,0.097-0.452,0.194-0.742,0.258c-0.29,0.065-0.613,0.097-0.71,0.097c-3.258,0.194-6.71-0.839-9.097-3.29
	c0,0-1.613-1.323-2.452-5.032c-0.194-0.903-0.581-2.516-0.806-4.032C0.065,15.419,0.032,15,0,14.613
	c0-1.581,0.968-2.645,2.194-2.806c0.032,0,0.129,0,0.194,0c0.742,0,6.387,0,6.387,0c1.129,0,1.774-0.29,2.194-0.677
	c0.548-0.516,0.677-1.258,0.677-2.129c0,0,0-5.871,0-6.613c0-0.032,0-0.161,0-0.194C11.806,1,12.871,0,14.452,0c0,0,0.484,0,0.774,0
	c0.323,0,0.71,0.032,1.065,0.065c0.258,0.032,0.484,0.097,0.871,0.194c1.968,0.484,2.387,2.484,2.387,2.484s3.71,0.645,5.581,0.968
	c1.774,0.323,6.161,0.613,7,5.032c1.968,10.516,0.774,20.71,0.677,20.71c-1.387,9.935-9.645,9.452-9.645,9.452
	C21.387,38.903,20.065,38.323,19.194,37.71z M26.613,16.581c-1.065-0.097-1.968,0.323-2.29,1.129
	c-0.065,0.161-0.129,0.355-0.097,0.452c0.032,0.097,0.097,0.129,0.161,0.161c0.387,0.194,1.032,0.29,1.968,0.387
	c0.935,0.097,1.581,0.161,2,0.097c0.065,0,0.129-0.032,0.194-0.129c0.065-0.097,0.032-0.29,0.032-0.452
	C28.452,17.323,27.677,16.71,26.613,16.581z"/>
<g>
</g>
<g>
</g>
<g>
</g>
<g>
</g>
<g>
</g>
<g>
</g>
</svg>
