<?xml version="1.0" encoding="utf-8"?>
<!-- Generator: Adobe Illustrator 16.0.4, SVG Export Plug-In . SVG Version: 6.00 Build 0)  -->
<!DOCTYPE svg PUBLIC "-//W3C//DTD SVG 1.1//EN" "http://www.w3.org/Graphics/SVG/1.1/DTD/svg11.dtd">
<svg version="1.1" id="Layer_1" xmlns="http://www.w3.org/2000/svg" xmlns:xlink="http://www.w3.org/1999/xlink" x="0px" y="0px"
	 width="24px" height="24px" viewBox="0 0 24 24" enable-background="new 0 0 24 24" xml:space="preserve">
<path fill="#7eaabc" d="M11.439,14.812H7.879v8.837C7.878,23.838,7.716,24,7.525,24l-3.421-0.001c-0.188,0-0.352-0.16-0.352-0.352l0.002-8.835
	H0.191c-0.188,0-0.248-0.127-0.133-0.276l5.547-7.167C5.722,7.22,5.91,7.221,6.026,7.37l5.547,7.165
	C11.688,14.686,11.628,14.814,11.439,14.812z"/>
<path fill="#7eaabc" d="M12.427,8.723l5.546,7.165c0.116,0.149,0.306,0.15,0.422,0.002l5.546-7.168c0.116-0.149,0.056-0.276-0.133-0.276h-3.562
	l0.001-8.093c0-0.19-0.162-0.352-0.351-0.351L16.475,0c-0.189,0.002-0.354,0.163-0.353,0.353l-0.001,8.093h-3.561
	C12.373,8.445,12.312,8.572,12.427,8.723z"/>
</svg>
