<?xml version="1.0" encoding="utf-8"?>
<!-- Generator: Adobe Illustrator 16.0.4, SVG Export Plug-In . SVG Version: 6.00 Build 0)  -->
<!DOCTYPE svg PUBLIC "-//W3C//DTD SVG 1.1//EN" "http://www.w3.org/Graphics/SVG/1.1/DTD/svg11.dtd">
<svg version="1.1" id="Layer_1" xmlns="http://www.w3.org/2000/svg" xmlns:xlink="http://www.w3.org/1999/xlink" x="0px" y="0px"
	 width="17px" height="16px" viewBox="0 0 17 16" enable-background="new 0 0 17 16" xml:space="preserve">
<g>
	<path fill="#3399ff" d="M15,3c0.552,0,1,0.449,1,1v10c0,0.552-0.448,1-1,1H3c-0.551,0-1-0.448-1-1V4c0-0.551,0.449-1,1-1H15 M15,2
		H3C1.896,2,1,2.896,1,4v10c0,1.104,0.896,2,2,2h12c1.104,0,2-0.896,2-2V4C17,2.896,16.104,2,15,2L15,2z"/>
</g>
<rect x="2" y="3" fill="#3399ff" width="14" height="3"/>
<rect x="5" fill="#3399ff" width="2" height="2"/>
<rect x="11" fill="#3399ff" width="2" height="2"/>
</svg>
