<?xml version="1.0" encoding="utf-8"?>
<!-- Generator: Adobe Illustrator 16.0.4, SVG Export Plug-In . SVG Version: 6.00 Build 0)  -->
<!DOCTYPE svg PUBLIC "-//W3C//DTD SVG 1.1//EN" "http://www.w3.org/Graphics/SVG/1.1/DTD/svg11.dtd">
<svg version="1.1" id="Layer_1" xmlns="http://www.w3.org/2000/svg" xmlns:xlink="http://www.w3.org/1999/xlink" x="0px" y="0px"
	 width="21px" height="25px" viewBox="0 0 21 25" enable-background="new 0 0 21 25" xml:space="preserve">
<path fill="#C8CACC" d="M2.089,4.842c0,0,0,0,0.001,0h2.347c0.134,0,0.242-0.109,0.242-0.243c0-0.001-0.028-2.012-0.028-2.571V2.021
	c0-0.459,0.097-0.859,0.265-1.195l0.08-0.15C4.986,0.677,4.979,0.682,4.969,0.69L0.41,5.211C0.401,5.219,0.396,5.228,0.393,5.238
	c0.094-0.047,0.223-0.11,0.241-0.119C1.031,4.94,1.513,4.842,2.089,4.842z M20.346,4.35C20.16,3.352,19.566,2.86,19.03,2.667
	c-0.579-0.209-1.752-0.426-3.226-0.6c-1.187-0.14-2.58-0.128-3.422-0.102c-0.102-0.692-0.587-1.325-1.131-1.543
	C9.805-0.161,7.569-0.02,6.995,0.141C6.539,0.269,6.033,0.53,5.752,0.932c-0.188,0.269-0.31,0.614-0.311,1.095
	c0,0.272,0.008,0.915,0.015,1.484c0.007,0.572,0.015,1.084,0.015,1.087C5.47,5.108,5.057,5.523,4.545,5.523H2.199
	c-0.501,0-0.883,0.084-1.175,0.217c-0.292,0.133-0.5,0.312-0.657,0.524C0.053,6.685-0.001,7.204,0,7.734
	c0,0,0.004,0.433,0.109,1.271c0.087,0.648,0.79,5.179,1.458,6.556c0.259,0.537,0.432,0.76,0.94,0.996
	c1.133,0.485,3.723,1.025,4.936,1.18c1.212,0.155,1.973,0.48,2.426-0.469c0.001-0.002,0.09-0.236,0.213-0.58
	c0.394-1.191,0.448-2.25,0.448-3.015c0-0.078,0.114-0.081,0.114,0c0,0.54-0.104,2.452,1.342,2.966
	c0.569,0.201,1.752,0.383,2.955,0.523c1.086,0.125,1.875,0.553,1.875,3.34c0,1.697-0.356,1.93-2.219,1.93
	c-1.51,0-2.086,0.039-2.086-1.16c0-0.97,0.959-0.868,1.67-0.868c0.317,0,0.087-0.236,0.087-0.835c0-0.595,0.372-0.938,0.021-0.947
	c-2.458-0.067-3.904-0.003-3.904,3.07c0,2.791,1.068,3.309,4.557,3.309c2.734,0,3.697-0.09,4.827-3.594
	c0.224-0.691,0.764-2.802,1.091-6.346C21.066,12.82,20.664,6.057,20.346,4.35z M15.579,11.825c-0.338-0.012-0.663,0.01-0.966,0.058
	c0.085-0.688,0.369-1.533,1.377-1.498c1.114,0.039,1.271,1.092,1.274,1.806C16.795,11.98,16.213,11.848,15.579,11.825z"/>
</svg>
