<svg xmlns="http://www.w3.org/2000/svg" viewBox="0 0 22.71 23.16"><title>Asset 2</title><g id="5dbf1d59-98c9-43fd-ad11-3309c184a6a2" data-name="Layer 2"><g id="67c8fcce-c8fe-4335-a080-673c5644502e" data-name="Layer 6"><path d="M19.13,18.47a10.37,10.37,0,0,0,3.58-7.78C22.71,4.79,17.63,0,11.36,0S0,4.79,0,10.69,5.08,21.38,11.36,21.38a12,12,0,0,0,3.9-.65,12.32,12.32,0,0,0,4.33,2.43C20.29,23.16,18.7,20,19.13,18.47ZM14,11.89l.68,4L11.13,14,7.56,15.87l.68-4L5.34,9.06l4-.58,1.79-3.62,1.79,3.62,4,.58Z" fill="#39404B"/></g></g></svg>