<?xml version="1.0" encoding="utf-8"?>
<!-- Generator: Adobe Illustrator 16.0.4, SVG Export Plug-In . SVG Version: 6.00 Build 0)  -->
<!DOCTYPE svg PUBLIC "-//W3C//DTD SVG 1.1//EN" "http://www.w3.org/Graphics/SVG/1.1/DTD/svg11.dtd">
<svg version="1.1" id="Layer_1" xmlns="http://www.w3.org/2000/svg" xmlns:xlink="http://www.w3.org/1999/xlink" x="0px" y="0px"
	 width="24px" height="20px" viewBox="0 0 24 20" enable-background="new 0 0 24 20" xml:space="preserve">
<g id="tags">
	<g id="tag">
		<path fill="#7eaabc" d="M8.382,2.082C8.238,1.938,7.947,1.816,7.738,1.816H1.05c-0.208,0-0.376,0.171-0.376,0.377v6.693
			c0,0.204,0.117,0.494,0.266,0.64l10.066,10.07c0.146,0.144,0.384,0.144,0.532,0l6.911-6.914c0.148-0.143,0.148-0.383,0-0.533
			L8.382,2.082z M5.423,6.569c-0.587,0.587-1.537,0.587-2.124,0c-0.588-0.587-0.588-1.542,0-2.128c0.587-0.587,1.537-0.587,2.124,0
			C6.012,5.027,6.012,5.982,5.423,6.569z"/>
	</g>
	<g id="second_x5F_tag">
		<path fill="#7eaabc" d="M22.698,12.949l-6.383,6.381c-0.144,0.144-0.496,0.378-0.602,0.336c-0.109-0.039-0.314-0.192-0.46-0.336l-0.521-0.519
			c-0.144-0.149-0.144-0.389,0-0.532l5.331-5.33c0.149-0.146,0.38-0.498,0.341-0.605c-0.04-0.108-0.191-0.312-0.341-0.459
			l-9.534-9.536c-0.147-0.146-0.354-0.338-0.395-0.362c-0.041-0.023-0.103-0.072-0.141-0.107c-0.033-0.034,0.105-0.063,0.315-0.063
			h1.567c0.21,0,0.683,0.062,0.801,0.133c0.119,0.075,0.337,0.255,0.481,0.4l9.541,9.536c0.143,0.146,0.295,0.351,0.335,0.459
			C23.075,12.451,22.841,12.803,22.698,12.949z"/>
	</g>
</g>
</svg>
