<svg width="144" height="144" viewBox="0 0 144 144" fill="none" xmlns="http://www.w3.org/2000/svg">
<rect width="144" height="144" fill="#0867E2"/>
<path d="M98.2242 84.4236C87.7191 84.4236 52.9436 84.4236 45.6987 84.4236C43.3441 84.4236 43.5252 73.9185 45.6987 73.5562C52.9436 72.4695 73.9538 73.5562 73.9538 73.5562C73.9538 73.5562 81.5609 81.1634 83.7344 81.1634C85.9079 81.1634 91.1604 73.5562 91.1604 73.5562C91.1604 73.5562 97.1375 72.4695 98.2242 73.5562C100.035 75.3675 100.579 84.4236 98.2242 84.4236Z" fill="white"/>
<path d="M95.6886 94.3852C86.8136 95.653 56.7472 95.2908 47.6911 94.3852C45.6988 94.2041 46.9666 88.0459 46.9666 88.0459H97.4998C97.3187 88.0459 98.2243 94.0229 95.6886 94.3852Z" fill="white"/>
<path d="M71.0559 48.1992C58.1962 46.3879 47.6911 57.2553 47.6911 67.5793L95.6885 68.1226C95.5074 57.6175 83.7344 50.0104 71.0559 48.1992Z" fill="white"/>
</svg>
