<?xml version="1.0" encoding="utf-8"?>
<!-- Generator: Adobe Illustrator 16.0.4, SVG Export Plug-In . SVG Version: 6.00 Build 0)  -->
<!DOCTYPE svg PUBLIC "-//W3C//DTD SVG 1.1//EN" "http://www.w3.org/Graphics/SVG/1.1/DTD/svg11.dtd">
<svg version="1.1" id="Layer_1" xmlns="http://www.w3.org/2000/svg" xmlns:xlink="http://www.w3.org/1999/xlink" x="0px" y="0px"
	 width="34px" height="48px" viewBox="0 0 34 48" enable-background="new 0 0 34 48" xml:space="preserve">
<rect width="1" height="24"/>
<rect x="33" width="1" height="24"/>
<rect x="6" y="8" width="22" height="2"/>
<rect x="6" y="12" width="22" height="2"/>
<rect x="6" y="16" width="22" height="2"/>
<rect x="6" y="20" width="22" height="2"/>
<polygon points="12,0 16,2.31 12,4.621 "/>
<polygon points="22,4.761 18,2.451 22,0.141 "/>
<rect x="7" y="1.95" width="6" height="1"/>
<rect x="21" y="1.95" width="6" height="1"/>
<rect y="24" width="1" height="24"/>
<rect x="33" y="24" width="1" height="24"/>
<rect x="4" y="32" width="26" height="2"/>
<rect x="4" y="36" width="26" height="2"/>
<rect x="4" y="40" width="26" height="2"/>
<rect x="4" y="44" width="26" height="2"/>
<polygon points="9,28.621 5,26.311 9,24 "/>
<polygon points="25,24.142 29,26.452 25,28.762 "/>
<rect x="7" y="25.951" width="20" height="1"/>
</svg>
