<?xml version="1.0" encoding="utf-8"?>
<!-- Generator: Adobe Illustrator 16.0.4, SVG Export Plug-In . SVG Version: 6.00 Build 0)  -->
<!DOCTYPE svg PUBLIC "-//W3C//DTD SVG 1.1//EN" "http://www.w3.org/Graphics/SVG/1.1/DTD/svg11.dtd">
<svg version="1.1" id="Layer_1" xmlns="http://www.w3.org/2000/svg" xmlns:xlink="http://www.w3.org/1999/xlink" x="0px" y="0px"
	 width="24px" height="24px" viewBox="0 0 24 24" enable-background="new 0 0 24 24" xml:space="preserve">
<g id="pencil_1_">
	<g id="pencil">
		<path fill="#7eaabc" d="M7.713,20.367l-4.08-4.081l12.839-12.84l4.08,4.08L7.713,20.367z M6.006,21.781c0.262-0.101,0.313-0.345,0.115-0.543
			l-3.36-3.361c-0.198-0.197-0.441-0.146-0.542,0.116l-2.186,5.681c-0.101,0.262,0.03,0.393,0.292,0.292L6.006,21.781z
			 M23.824,3.233l-3.059-3.059c-0.281-0.281-0.74-0.281-1.021,0l-0.51,0.509l-1.02,1.021l-0.51,0.51l0.51,0.511l3.061,3.061
			l0.51,0.51l0.51-0.51l1.021-1.02l0.508-0.511C24.105,3.975,24.105,3.516,23.824,3.233z"/>
	</g>
</g>
</svg>
