<?xml version="1.0" encoding="utf-8"?>
<!-- Generator: Adobe Illustrator 16.0.4, SVG Export Plug-In . SVG Version: 6.00 Build 0)  -->
<svg version="1.2" baseProfile="tiny" id="Layer_1" xmlns="http://www.w3.org/2000/svg" xmlns:xlink="http://www.w3.org/1999/xlink"
	 x="0px" y="0px" width="26px" height="23px" viewBox="0 0 26 23" xml:space="preserve">
<path fill="#39404B" d="M12.992,0.674c0.462,0.077,0.929,0.133,1.386,0.233c1.123,0.246,2.155,0.675,2.991,1.503
	c0.715,0.708,1.101,1.574,1.226,2.552c0.079,0.606,0.11,1.223,0.114,1.834c0.014,2.023,0.023,4.045-0.002,6.068
	c-0.013,1.047,0.274,1.969,0.917,2.788c0.145,0.186,0.288,0.376,0.401,0.582c0.179,0.325,0.121,0.557-0.159,0.799
	c-0.764,0.662-1.528,1.323-2.291,1.986c-0.451,0.392-0.766,0.418-1.183-0.006c-0.474-0.482-0.9-1.012-1.341-1.527
	c-0.108-0.126-0.191-0.274-0.293-0.424c-0.303,0.278-0.584,0.54-0.871,0.796c-1.122,1.006-2.44,1.497-3.943,1.551
	c-0.857,0.03-1.697-0.015-2.508-0.308c-1.319-0.476-2.222-1.379-2.66-2.707c-0.52-1.572-0.483-3.146,0.208-4.663
	c0.762-1.671,2.137-2.647,3.862-3.103c1.116-0.294,2.272-0.443,3.415-0.628c0.585-0.095,1.182-0.128,1.825-0.195
	c0-0.112,0.004-0.229,0-0.347c-0.02-0.518,0.001-1.042-0.07-1.553c-0.135-0.954-0.675-1.498-1.628-1.667
	c-0.965-0.172-1.838,0.026-2.552,0.743C9.526,5.292,9.36,5.68,9.255,6.097c-0.14,0.554-0.356,0.69-0.915,0.622
	c-0.908-0.111-1.819-0.2-2.728-0.31C5.079,6.344,4.908,6.074,5.024,5.542c0.453-2.078,1.704-3.466,3.665-4.237
	c0.839-0.33,1.713-0.513,2.613-0.576c0.092-0.006,0.182-0.036,0.272-0.055C12.047,0.674,12.519,0.674,12.992,0.674z M14.09,10.399
	c-0.731,0.086-1.413,0.143-2.087,0.251c-0.678,0.109-1.318,0.351-1.831,0.823c-0.924,0.85-1.087,1.929-0.815,3.089
	c0.301,1.286,1.46,1.865,2.687,1.373c0.906-0.365,1.413-1.1,1.74-1.977C14.203,12.832,14.059,11.653,14.09,10.399z"/>
<path fill="#39404B" d="M11.349,22.831c-3.99-0.03-7.612-1.19-10.841-3.546c-0.131-0.096-0.381-0.183-0.259-0.397
	c0.126-0.222,0.324-0.044,0.474,0.024c1.942,0.887,3.97,1.502,6.075,1.839c0.993,0.159,2.001,0.248,3.006,0.299
	c0.968,0.048,1.945,0.059,2.911-0.008c2.528-0.174,4.975-0.743,7.324-1.699c0.733-0.299,1.442-0.656,2.163-0.987
	c0.085-0.04,0.167-0.089,0.253-0.126c0.185-0.08,0.355-0.062,0.479,0.108c0.131,0.18,0.031,0.329-0.103,0.445
	c-0.256,0.223-0.516,0.444-0.789,0.646c-2.135,1.574-4.54,2.525-7.124,3.054C13.742,22.723,12.552,22.841,11.349,22.831z"/>
<path fill="#39404B" d="M25.052,17.278c-0.029,1.13-0.327,2.176-1.006,3.095c-0.078,0.106-0.162,0.214-0.264,0.294
	c-0.071,0.056-0.179,0.064-0.269,0.095c-0.005-0.087-0.03-0.178-0.011-0.258c0.133-0.54,0.292-1.073,0.409-1.616
	c0.068-0.319,0.094-0.652,0.104-0.979c0.016-0.504-0.162-0.711-0.669-0.689c-0.647,0.028-1.291,0.119-1.936,0.193
	c-0.205,0.023-0.405,0.091-0.61,0.118c-0.091,0.012-0.189-0.028-0.285-0.045c0.043-0.086,0.063-0.209,0.134-0.253
	c0.333-0.211,0.663-0.445,1.027-0.588c0.906-0.359,1.852-0.498,2.828-0.349c0.41,0.062,0.529,0.191,0.546,0.615
	C25.056,17.033,25.052,17.156,25.052,17.278z"/>
<path fill-rule="evenodd" fill="#FFFFFF" d="M14.09,10.399c-0.031,1.253,0.113,2.432-0.307,3.56
	c-0.327,0.876-0.834,1.611-1.74,1.977c-1.227,0.493-2.386-0.087-2.687-1.373c-0.272-1.16-0.108-2.239,0.815-3.089
	c0.513-0.472,1.153-0.714,1.831-0.823C12.677,10.542,13.359,10.485,14.09,10.399z"/>
</svg>
