<?xml version="1.0" encoding="utf-8"?>
<!-- Generator: Adobe Illustrator 16.0.4, SVG Export Plug-In . SVG Version: 6.00 Build 0)  -->
<svg version="1.2" baseProfile="tiny" id="Layer_1" xmlns="http://www.w3.org/2000/svg" xmlns:xlink="http://www.w3.org/1999/xlink"
	 x="0px" y="0px" width="25px" height="21px" viewBox="0 0 25 21" xml:space="preserve">
<g id="layer1" transform="translate(-282.32053,-396.30734)">
	<path id="path5" fill="#39404B" d="M307.321,399.396c-0.92,0.408-1.908,0.684-2.945,0.808
		c1.059-0.635,1.872-1.64,2.254-2.837c-0.99,0.588-2.088,1.015-3.256,1.245c-0.936-0.997-2.27-1.62-3.744-1.62
		c-2.832,0-5.129,2.296-5.129,5.129c0,0.402,0.045,0.793,0.133,1.169c-4.264-0.214-8.042-2.256-10.572-5.359
		c-0.442,0.757-0.695,1.638-0.695,2.578c0,1.78,0.906,3.35,2.282,4.269c-0.841-0.026-1.631-0.257-2.323-0.641
		c0,0.021,0,0.042,0,0.064c0,2.485,1.768,4.558,4.114,5.029c-0.43,0.117-0.883,0.18-1.351,0.18c-0.331,0-0.652-0.031-0.965-0.092
		c0.653,2.038,2.547,3.521,4.792,3.562c-1.756,1.375-3.967,2.195-6.37,2.195c-0.414,0-0.822-0.025-1.224-0.072
		c2.27,1.455,4.966,2.305,7.862,2.305c9.435,0,14.593-7.814,14.593-14.593c0-0.223-0.004-0.444-0.014-0.664
		C305.764,401.328,306.633,400.425,307.321,399.396L307.321,399.396z"/>
</g>
</svg>
