<?xml version="1.0" encoding="utf-8"?>
<!-- Generator: Adobe Illustrator 16.0.4, SVG Export Plug-In . SVG Version: 6.00 Build 0)  -->
<svg version="1.2" baseProfile="tiny" id="Layer_1" xmlns="http://www.w3.org/2000/svg" xmlns:xlink="http://www.w3.org/1999/xlink"
	 x="0px" y="0px" width="12px" height="26px" viewBox="0 0 12 26" xml:space="preserve">
<polygon fill="#0867E2" points="8,0.039 4,4.039 0,4.039 0,9.039 4,9.039 8,13.039 "/>
<rect x="11" y="2.039" fill="#0867E2" width="1" height="9"/>
<rect x="9" y="4.039" fill="#0867E2" width="1" height="5"/>
<rect x="6.499" y="12.539" transform="matrix(0.7066 -0.7076 0.7076 0.7066 -11.418 10.5386)" fill="#9E9E9E" width="1.001" height="13"/>
<g>
	<polygon fill="#9E9E9E" points="8,19.332 4.854,16.185 4.146,16.892 8,20.746 	"/>
	<polygon fill="#9E9E9E" points="8,17.917 8,13.039 5.561,15.478 	"/>
	<polygon fill="#9E9E9E" points="2.878,17.039 0,17.039 0,22.039 4,22.039 8,26.039 8,22.16 	"/>
</g>
</svg>
