<?xml version="1.0" encoding="utf-8"?>
<!-- Generator: Adobe Illustrator 16.0.4, SVG Export Plug-In . SVG Version: 6.00 Build 0)  -->
<svg version="1.2" baseProfile="tiny" id="Layer_1" xmlns="http://www.w3.org/2000/svg" xmlns:xlink="http://www.w3.org/1999/xlink"
	 x="0px" y="0px" width="25px" height="25px" viewBox="0 0 25 25" xml:space="preserve">
<path id="Blue_1_" fill="#39404B" d="M23.62,25c0.763,0,1.38-0.617,1.38-1.38V1.38C25,0.618,24.383,0,23.62,0H1.38
	C0.617,0,0,0.618,0,1.38v22.24C0,24.383,0.617,25,1.38,25H23.62z"/>
<path id="f" fill="#FFFFFF" d="M17.25,25v-9.682h3.25l0.486-3.772H17.25V9.137c0-1.092,0.303-1.836,1.869-1.836l1.998-0.001V3.925
	c-0.346-0.046-1.531-0.149-2.911-0.149c-2.88,0-4.853,1.758-4.853,4.988v2.782h-3.258v3.772h3.258V25H17.25z"/>
</svg>
