<?xml version="1.0" encoding="utf-8"?>
<!-- Generator: Adobe Illustrator 16.0.4, SVG Export Plug-In . SVG Version: 6.00 Build 0)  -->
<!DOCTYPE svg PUBLIC "-//W3C//DTD SVG 1.1//EN" "http://www.w3.org/Graphics/SVG/1.1/DTD/svg11.dtd">
<svg version="1.1" id="Layer_1" xmlns="http://www.w3.org/2000/svg" xmlns:xlink="http://www.w3.org/1999/xlink" x="0px" y="0px"
	 width="19.383px" height="24px" viewBox="0 0 19.383 24" enable-background="new 0 0 19.383 24" xml:space="preserve">
<path fill="#7eaabc" d="M17.82,9.639h-1.174V5.256C16.646,2.553,14.112,0,11.436,0H6.963C4.286,0,1.752,2.553,1.752,5.256v4.383H0.579
	C0.26,9.639,0,9.867,0,10.152v12.113c0,0.284,0.26,0.516,0.579,0.516H17.82c0.318,0,0.578-0.231,0.578-0.516V10.152
	C18.398,9.867,18.139,9.639,17.82,9.639z M5.256,5.256c0-1.227,0.551-1.752,1.752-1.752h4.383c1.201,0,1.752,0.525,1.752,1.752
	v4.383H5.256V5.256z"/>
</svg>
