<?xml version="1.0" encoding="utf-8"?>
<!-- Generator: Adobe Illustrator 16.0.4, SVG Export Plug-In . SVG Version: 6.00 Build 0)  -->
<!DOCTYPE svg PUBLIC "-//W3C//DTD SVG 1.1//EN" "http://www.w3.org/Graphics/SVG/1.1/DTD/svg11.dtd">
<svg version="1.1" id="pocket" xmlns="http://www.w3.org/2000/svg" xmlns:xlink="http://www.w3.org/1999/xlink" x="0px" y="0px"
	 width="24px" height="21.437px" viewBox="0 0 24 21.437" enable-background="new 0 0 24 21.437" xml:space="preserve">
<path fill-rule="evenodd" clip-rule="evenodd" fill="#39404B" d="M12.008,0c3.244,0,6.487,0.001,9.73,0c0.258,0,0.513,0.022,0.758,0.107
	c0.736,0.254,1.225,0.751,1.438,1.506c0.037,0.137,0.044,0.282,0.063,0.424C24.002,2.074,24,2.112,24,2.149
	c0,2.406,0.001,4.813-0.003,7.218c-0.001,0.337-0.032,0.674-0.048,1.011c-0.033,0.752-0.156,1.489-0.35,2.217
	c-0.462,1.739-1.291,3.284-2.473,4.638c-1.31,1.5-2.883,2.629-4.736,3.364c-0.535,0.211-1.086,0.374-1.643,0.513
	c-0.438,0.11-0.879,0.192-1.326,0.243c-0.666,0.073-1.332,0.107-2.002,0.065c-0.399-0.024-0.797-0.061-1.193-0.119
	c-1.018-0.151-2-0.431-2.946-0.836c-2.69-1.152-4.944-3.322-6.175-5.937C0.64,13.538,0.327,12.5,0.157,11.42
	c-0.046-0.29-0.08-0.582-0.09-0.876C0.054,10.233,0.029,9.921,0.011,9.61C0.005,9.516,0,9.422,0,9.329c0-2.368,0-4.737,0-7.105
	c0-0.349,0.064-0.686,0.225-0.996c0.357-0.692,0.923-1.099,1.698-1.205c0.13-0.018,0.262-0.021,0.393-0.021
	C5.546,0,8.777,0,12.008,0z M12.02,10.922c-0.059-0.053-0.1-0.091-0.141-0.129c-1.137-1.09-2.272-2.179-3.409-3.269
	c-0.32-0.308-0.637-0.619-0.961-0.92C7.109,6.233,6.637,6.083,6.094,6.173C5.142,6.331,4.531,7.285,4.782,8.216
	C4.868,8.533,5.039,8.795,5.274,9.02c1.661,1.59,3.319,3.182,4.979,4.773c0.212,0.204,0.422,0.409,0.637,0.609
	c0.309,0.288,0.676,0.439,1.102,0.445c0.447,0.007,0.831-0.146,1.157-0.448c0.037-0.033,0.073-0.067,0.109-0.103
	c1.62-1.552,3.237-3.104,4.856-4.657c0.234-0.225,0.475-0.443,0.701-0.676c0.439-0.452,0.598-0.99,0.434-1.603
	c-0.319-1.186-1.768-1.61-2.684-0.793c-0.053,0.046-0.102,0.094-0.15,0.142c-1.402,1.344-2.805,2.689-4.207,4.034
	C12.149,10.8,12.09,10.855,12.02,10.922z"/>
</svg>
