<svg xmlns="http://www.w3.org/2000/svg" width="23" height="16"><path fill="#7eaabc" d="M6 15.309c0 .377-.609.691-.986.691h-1.146c-.377 0-.868-.314-.868-.691v-1.717l-1.446-2.849c-.474-.431-.703-1.055-.703-1.724 0-1.325 1.25-2.401 2.575-2.401 1.323 0 2.574 1.076 2.574 2.401v6.29z"/><path fill="#7eaabc" d="M16 11.305v3.695h-9v-4.211c1-1.246 2.778-1.885 4.494-1.885 1.717 0 3.277.639 4.56 1.8l-.054.601z"/><path fill="#7eaabc" d="M16 9.019v.884l-.196-.173c-1.245-1.123-2.845-1.742-4.5-1.742-1.654 0-3.06.619-4.305 1.742l.001.172v-.883c0-1.282-.951-2.46-2.126-3.003l-.186-.042-.02-.095c.875-2.932 3.599-4.979 6.657-4.979 3.06 0 5.796 2.047 6.671 4.979l.021.095-.087.042c-1.174.542-1.93 1.72-1.93 3.003z"/><path fill="#7eaabc" d="M20.949 10.773l-1.744 2.872-.205.662v1.002c0 .377.112.691-.265.691h-1.146c-.377 0-.589-.314-.589-.691v-6.29c0-1.325 1.029-2.401 2.354-2.401s2.377 1.076 2.377 2.401c-.001.669-.284 1.293-.782 1.754z"/></svg>