<svg xmlns="http://www.w3.org/2000/svg" width="24" height="24"><path fill="#7eaabc" d="M11.439 14.812h-3.56v8.837c-.001.189-.163.351-.354.351l-3.421-.001c-.188 0-.352-.16-.352-.352l.002-8.835h-3.563c-.188 0-.248-.127-.133-.276l5.547-7.167c.117-.149.305-.148.421.001l5.547 7.165c.115.151.055.279-.134.277z"/><path fill="#7eaabc" d="M12.427 8.723l5.546 7.165c.116.149.306.15.422.002l5.546-7.168c.116-.149.056-.276-.133-.276h-3.562l.001-8.093c0-.19-.162-.352-.351-.351l-3.421-.002c-.189.002-.354.163-.353.353l-.001 8.093h-3.561c-.187-.001-.248.126-.133.277z"/></svg>