<?xml version="1.0" encoding="utf-8"?>
<!-- Generator: Adobe Illustrator 16.0.4, SVG Export Plug-In . SVG Version: 6.00 Build 0)  -->
<!DOCTYPE svg PUBLIC "-//W3C//DTD SVG 1.1//EN" "http://www.w3.org/Graphics/SVG/1.1/DTD/svg11.dtd">
<svg version="1.1" id="Layer_1" xmlns="http://www.w3.org/2000/svg" xmlns:xlink="http://www.w3.org/1999/xlink" x="0px" y="0px"
	 width="9.969px" height="24px" viewBox="0 0 9.969 24" enable-background="new 0 0 9.969 24" xml:space="preserve">
<g id="_x37_935ec95c421cee6d86eb22ecd123f54">
	<path fill="#39404B" d="M6.986,3.429V20.65c0,0,0.066,0.478,0.306,0.756c0.247,0.286,0.669,0.374,0.669,0.374h1.832V24H5H0.208v-2.22h1.831
		c0,0,0.422-0.088,0.668-0.374c0.241-0.278,0.306-0.756,0.306-0.756V3.429c0,0-0.065-0.489-0.317-0.782
		C2.46,2.375,2.039,2.298,2.039,2.298H0.208V0H5h4.793v2.298H7.961c0,0-0.422,0.077-0.656,0.349C7.053,2.94,6.986,3.429,6.986,3.429
		z"/>
</g>
</svg>
