<?xml version="1.0" encoding="utf-8"?>
<!-- Generator: Adobe Illustrator 16.0.4, SVG Export Plug-In . SVG Version: 6.00 Build 0)  -->
<!DOCTYPE svg PUBLIC "-//W3C//DTD SVG 1.1//EN" "http://www.w3.org/Graphics/SVG/1.1/DTD/svg11.dtd">
<svg version="1.1" id="Layer_1" xmlns="http://www.w3.org/2000/svg" xmlns:xlink="http://www.w3.org/1999/xlink" x="0px" y="0px"
	 width="21px" height="15px" viewBox="0 0 21 15" enable-background="new 0 0 21 15" xml:space="preserve">
<g>
	<path fill="#CCCCCC" d="M4.61,14.717c0,0.357,0.558,0.275,0.195,0.275h-1.09c-0.359,0-0.378,0.082-0.378-0.275v-1.635l-1.603-2.711
		C1.287,9.959,0.953,9.367,0.953,8.728c0-1.261,0.569-2.287,1.83-2.287C4.041,6.44,4.609,7.465,4.609,8.728L4.61,14.717L4.61,14.717
		z M16.059,10.904v2.816H5.883v-3.309C7.156,9.227,8.936,8.62,10.57,8.62c1.637,0,3.719,0.607,4.938,1.712L16.059,10.904z
		 M16.059,8.728V9.57l-0.584-0.164c-1.184-1.069-2.905-1.659-4.48-1.659c-1.574,0-3.418,0.589-4.605,1.659L5.883,9.57V8.728
		c0-1.221-0.497-2.343-1.617-2.859l0.025-0.04L4.375,5.74C5.209,2.948,7.854,1,10.765,1c2.914,0,5.542,1.948,6.375,4.741l0.037,0.09
		l0.315,0.04C16.377,6.387,16.059,7.507,16.059,8.728z M19.978,10.4l-1.42,2.732l0.046,0.629v0.953c0,0.357-0.374,0.275-0.732,0.275
		h-1.092c-0.357,0,0.553,0.082,0.553-0.275V8.728c0-1.261,0.424-2.287,1.685-2.287C20.274,6.441,21,7.466,21,8.728
		C20.998,9.367,20.451,9.959,19.978,10.4z"/>
</g>
</svg>
