<?xml version="1.0" encoding="utf-8"?>
<!-- Generator: Adobe Illustrator 16.0.4, SVG Export Plug-In . SVG Version: 6.00 Build 0)  -->
<svg version="1.2" baseProfile="tiny" id="Layer_1" xmlns="http://www.w3.org/2000/svg" xmlns:xlink="http://www.w3.org/1999/xlink"
	 x="0px" y="0px" width="25px" height="25px" viewBox="0 0 25 25" xml:space="preserve">
<g>
	<g>
		<path fill="#39404B" d="M0.563,6.259l11.209,4.951c0.429,0.146,1.004,0.127,1.383,0L24.56,6.259c0.678-0.239,0.678-1.095,0-1.383
			L13.155,0.12c-0.379-0.158-1.053-0.163-1.383,0L0.563,4.875C-0.188,5.194-0.188,5.854,0.563,6.259z M24.56,11.72l-2.512-1.047
			l-8.893,3.86c-0.476,0.185-0.923,0.172-1.383,0l-8.741-3.86L0.563,11.72c-0.751,0.319-0.751,1.034,0,1.383l11.209,4.952
			c0.435,0.146,0.899,0.17,1.383,0l11.404-4.952C25.237,12.73,25.237,12.125,24.56,11.72z M24.56,18.652l-2.512-1.048l-8.893,3.858
			c-0.476,0.185-0.924,0.17-1.383,0l-8.741-3.858l-2.468,1.048c-0.751,0.315-0.751,1.029,0,1.379l11.209,4.95
			c0.435,0.146,0.899,0.17,1.383,0l11.404-4.95C25.237,19.657,25.237,19.056,24.56,18.652z"/>
	</g>
</g>
</svg>
