<svg xmlns="http://www.w3.org/2000/svg" viewBox="0 0 8.027 9.083"><path fill="#FFFFFF" d="M6.223 2.918c-.137-.59-.471-1.002-1.002-1.236a2.46 2.46 0 0 0-.99-.193c-.695 0-1.267.262-1.714.787s-.671 1.312-.671 2.364c0 1.061.242 1.811.727 2.252.484.44 1.035.661 1.652.661.605 0 1.102-.174 1.488-.521.387-.348.625-.803.715-1.366H4.43V4.225h3.597V8.86H6.832L6.65 7.781c-.348.409-.66.696-.938.864-.477.291-1.062.438-1.758.438-1.145 0-2.082-.396-2.812-1.189C.381 7.097 0 6.008 0 4.626c0-1.397.385-2.518 1.154-3.361S2.941 0 4.207 0c1.098 0 1.979.278 2.646.835S7.9 2.086 7.998 2.918H6.223z"/></svg>