<svg xmlns="http://www.w3.org/2000/svg" viewBox="0 0 7.038 8.637"><path fill="#FFFFFF" d="M5.494.222c.318.137.587.338.809.604.182.219.327.461.433.726a2.59 2.59 0 0 1-.15 2.118c-.207.397-.549.677-1.025.841.398.16.681.388.847.683s.249.745.249 1.351v.58c0 .395.016.663.048.803a.715.715 0 0 0 .333.492v.217H5.045a4.247 4.247 0 0 1-.193-1.208l-.012-.802c-.007-.551-.103-.918-.286-1.102-.182-.184-.525-.275-1.028-.275H1.764v3.387H0V0h4.131c.59.011 1.045.086 1.363.222zM1.764 1.5v2.32h1.942c.386 0 .675-.047.868-.141.341-.164.512-.488.512-.972 0-.523-.165-.875-.495-1.055-.186-.102-.464-.152-.835-.152H1.764z"/></svg>