<svg xmlns="http://www.w3.org/2000/svg" viewBox="0 0 7.16 9.111"><path fill="#FFFFFF" d="M1.723 6.222c.056.395.165.69.329.885.299.356.811.533 1.538.533.435 0 .788-.047 1.059-.141.515-.18.772-.514.772-1.002a.738.738 0 0 0-.378-.662c-.253-.152-.653-.286-1.2-.404l-.935-.205c-.919-.203-1.55-.424-1.894-.662C.432 4.166.141 3.543.141 2.695c0-.773.285-1.416.854-1.928S2.401 0 3.504 0c.921 0 1.707.241 2.357.724.651.482.992 1.183 1.023 2.101H5.151c-.033-.521-.265-.89-.697-1.109-.289-.144-.647-.216-1.075-.216-.477 0-.857.094-1.142.281a.89.89 0 0 0-.426.785c0 .309.14.539.42.691.18.102.562.221 1.147.357l1.516.357c.665.158 1.162.367 1.494.628.515.406.772.994.772 1.764 0 .789-.305 1.444-.915 1.965s-1.472.783-2.585.783c-1.137 0-2.032-.258-2.683-.771S0 7.121 0 6.222h1.723z"/></svg>