<svg xmlns="http://www.w3.org/2000/svg" viewBox="0 0 8.278 9.141"><path fill="#FFFFFF" d="M6.972 8.133c-.652.672-1.596 1.008-2.83 1.008s-2.178-.336-2.83-1.008C.437 7.309 0 6.121 0 4.57 0 2.988.438 1.8 1.312 1.008 1.965.336 2.908 0 4.142 0s2.178.336 2.83 1.008c.871.793 1.306 1.98 1.306 3.562.001 1.551-.435 2.739-1.306 3.563zM5.845 6.82c.42-.527.63-1.277.63-2.25 0-.969-.21-1.718-.63-2.247s-.988-.794-1.703-.794-1.285.264-1.711.791-.639 1.277-.639 2.25.213 1.723.639 2.25.997.791 1.711.791 1.283-.263 1.703-.791z"/></svg>