<svg xmlns="http://www.w3.org/2000/svg" viewBox="0 0 8.318 9.524"><path fill="#FFFFFF" d="M7.997 6.375c-.151.495-.375.907-.672 1.234l.993.934-.941.981L6.34 8.54a4.346 4.346 0 0 1-.821.405c-.387.13-.851.195-1.39.195-1.126 0-2.057-.336-2.792-1.008C.446 7.324 0 6.137 0 4.57 0 2.992.457 1.799 1.371.99 2.117.33 3.045 0 4.154 0c1.117 0 2.055.35 2.812 1.049.875.809 1.312 1.939 1.312 3.393.001.769-.093 1.413-.281 1.933zm-3.274 1.16c.105-.027.24-.077.404-.147l-.873-.831.927-.968.878.826c.136-.281.232-.527.287-.738.085-.316.128-.685.128-1.107 0-.969-.198-1.717-.595-2.247s-.975-.794-1.737-.794c-.715 0-1.285.254-1.711.762s-.638 1.268-.638 2.279c0 1.184.305 2.031.915 2.543.395.332.867.498 1.418.498.207 0 .406-.025.597-.076z"/></svg>