<svg xmlns="http://www.w3.org/2000/svg" viewBox="0 0 7.599 9.041"><path fill="#FFFFFF" d="M1.2 1.066C1.896.355 2.781 0 3.855 0c1.438 0 2.489.477 3.153 1.43.368.534.564 1.072.591 1.611H5.795c-.115-.414-.262-.727-.442-.938-.322-.375-.798-.562-1.429-.562-.643 0-1.15.265-1.521.794s-.557 1.278-.557 2.247.196 1.694.587 2.177.89.723 1.493.723c.619 0 1.091-.207 1.416-.621.18-.223.329-.557.447-1.002h1.792c-.154.941-.549 1.707-1.184 2.297-.636.59-1.45.885-2.443.885-1.229 0-2.195-.398-2.898-1.195C.352 7.044 0 5.947 0 4.552c0-1.508.4-2.67 1.2-3.486z"/></svg>