<svg xmlns="http://www.w3.org/2000/svg" viewBox="0 0 7.084 8.637"><path fill="#FFFFFF" d="M6.412.92c.265.367.397.806.397 1.318 0 .527-.133.951-.4 1.271-.149.18-.369.344-.659.492.44.16.773.414.998.762.225.348.336.77.336 1.266 0 .512-.127.971-.384 1.377A2.375 2.375 0 0 1 5.113 8.52a5.987 5.987 0 0 1-1.22.117H0V0h4.174c1.053.015 1.8.322 2.238.92zm-4.689.58v1.904h2.099c.375 0 .679-.071.914-.214.233-.143.351-.396.351-.759 0-.402-.155-.668-.464-.797-.267-.09-.607-.135-1.021-.135L1.723 1.5zm0 3.334v2.303H3.82c.375 0 .666-.051.875-.152.378-.188.567-.547.567-1.078 0-.449-.184-.758-.55-.926-.205-.095-.492-.143-.863-.147H1.723z"/></svg>