<svg xmlns="http://www.w3.org/2000/svg" width="120" height="101"><path fill="#ccc" d="M116.04 77.741c-22.547-.083-96.91-.083-112.416 0-4.86.027-4.803-22.493 0-23.252 15.623-2.472 60.339 0 60.339 0s16.103 16.289 20.835 16.31c4.796.021 16.062-16.31 16.062-16.31s12.829-2.347 15.181 0c3.876 3.87 4.867 23.272-.001 23.252z"/><path fill="#ccc" d="M110.558 99.329c-19.071 2.529-83.599 1.905-102.981 0-4.327-.426-1.538-13.6-1.538-13.6h108.062c.001 0 1.893 12.878-3.543 13.6z"/><path fill="#ccc" d="M57.773.399c-27.472-3.719-50.196 19.218-50.196 41.393l102.648 1.049c0-22.176-25.197-38.751-52.452-42.442zm-32.828 28.874c-2.143 0-3.877-1.737-3.877-3.876 0-2.143 1.734-3.877 3.877-3.877 2.142 0 3.876 1.734 3.876 3.877 0 2.139-1.734 3.876-3.876 3.876zm7.752 5.829c-1.071 0-1.938-.869-1.938-1.938 0-1.071.867-1.938 1.938-1.938s1.938.867 1.938 1.938c0 1.069-.866 1.938-1.938 1.938zm1.938-15.519c-2.142 0-3.876-1.738-3.876-3.877 0-2.143 1.734-3.876 3.876-3.876 2.143 0 3.877 1.733 3.877 3.876 0 2.139-1.734 3.877-3.877 3.877zm7.753 11.629c-2.142 0-3.876-1.737-3.876-3.876 0-2.143 1.734-3.876 3.876-3.876 2.143 0 3.876 1.734 3.876 3.876.001 2.139-1.733 3.876-3.876 3.876zm7.753-15.506c-2.143 0-3.876-1.737-3.876-3.876 0-2.143 1.734-3.877 3.876-3.877s3.876 1.734 3.876 3.877c.001 2.139-1.733 3.876-3.876 3.876zm5.815 11.643c-1.072 0-1.938-.869-1.938-1.938 0-1.071.867-1.938 1.938-1.938s1.938.867 1.938 1.938c0 1.069-.867 1.938-1.938 1.938z"/></svg>