<svg xmlns:svg="http://www.w3.org/2000/svg" xmlns="http://www.w3.org/2000/svg" version="1.1" width="120" height="120"><path d="m116.37486 87.241048c-22.547003-0.083-96.910003-0.083-112.4160026 0-4.86000003 0.027-4.80300003-22.493 0-23.252 15.6229996-2.472 60.3389996 0 60.3389996 0 0 0 16.103 16.289 20.835 16.31 4.796 0.021 16.062003-16.31 16.062003-16.31 0 0 12.829-2.347 15.181 0 3.876 3.87 4.867 23.272-0.001 23.252zM110.89286 108.82905 110.89286 108.82905c-19.071003 2.529-83.599003 1.905-102.9810026 0-4.327-0.426-1.538-13.600002-1.538-13.600002H114.43586c0.001 0 1.893 12.878002-3.543 13.600002zM58.107857 9.8990481C30.635857 6.1800481 7.9118574 29.117048 7.9118574 51.292048l102.6480026 1.049c0-22.176-25.197003-38.751-52.452003-42.4419999zm-32.828 28.8739999c-2.143 0-3.877-1.737-3.877-3.876 0-2.143 1.734-3.877 3.877-3.877 2.142 0 3.876 1.734 3.876 3.877 0 2.139-1.734 3.876-3.876 3.876zm7.752 5.829c-1.071 0-1.938-0.869-1.938-1.938 0-1.071 0.867-1.938 1.938-1.938 1.071 0 1.938 0.867 1.938 1.938 0 1.069-0.866 1.938-1.938 1.938zm1.938-15.519c-2.142 0-3.876-1.738-3.876-3.877 0-2.143 1.734-3.876 3.876-3.876 2.143 0 3.877 1.733 3.877 3.876 0 2.139-1.734 3.877-3.877 3.877zm7.753 11.629c-2.142 0-3.876-1.737-3.876-3.876 0-2.143 1.734-3.876 3.876-3.876 2.143 0 3.876 1.734 3.876 3.876 0.001 2.139-1.733 3.876-3.876 3.876zm7.753-15.506c-2.143 0-3.876-1.737-3.876-3.876 0-2.143 1.734-3.877 3.876-3.877 2.142 0 3.876 1.734 3.876 3.877 0.001 2.139-1.733 3.876-3.876 3.876zm5.815 11.643c-1.072 0-1.938-0.869-1.938-1.938 0-1.071 0.867-1.938 1.938-1.938 1.071 0 1.938 0.867 1.938 1.938 0 1.069-0.867 1.938-1.938 1.938z" fill="#ccc"/></svg>
