<?xml version="1.0" encoding="utf-8"?>
<!-- Generator: Adobe Illustrator 22.0.1, SVG Export Plug-In . SVG Version: 6.00 Build 0)  -->
<svg version="1.1" id="Layer_1" xmlns:svg="http://www.w3.org/2000/svg"
	 xmlns="http://www.w3.org/2000/svg" xmlns:xlink="http://www.w3.org/1999/xlink" x="0px" y="0px" viewBox="0 0 120 120"
	 style="enable-background:new 0 0 120 120;" xml:space="preserve">
<style type="text/css">
	.st0{fill:#E3E1D9;}
</style>
<path class="st0" d="M116.4,87.2c-22.5-0.1-96.9-0.1-112.4,0c-4.9,0-4.8-22.5,0-23.3c15.6-2.5,60.3,0,60.3,0s16.1,16.3,20.8,16.3
	c4.8,0,16.1-16.3,16.1-16.3s12.8-2.3,15.2,0C120.3,67.9,121.2,87.3,116.4,87.2z"/>
<path class="st0" d="M110.9,108.8L110.9,108.8c-19.1,2.5-83.6,1.9-103,0c-4.3-0.4-1.5-13.6-1.5-13.6h108.1
	C114.4,95.2,116.3,108.1,110.9,108.8z"/>
<path class="st0" d="M58.1,9.9C30.6,6.2,7.9,29.1,7.9,51.3l102.6,1C110.6,30.2,85.4,13.6,58.1,9.9z"/>
</svg>
