<svg xmlns="http://www.w3.org/2000/svg" width="50" height="47" viewBox="0 0 50 47" preserveAspectRatio="xMidYMin meet"><g clip-path="url(#clip0)"><path d="M49.697 22.475a9.704 9.704 0 00-1.213-2.605c-.142-.218-.197-.416-.14-.683.402-1.901.297-3.786-.227-5.651-.566-2.015-1.59-3.78-2.937-5.367-1.633-1.923-3.606-3.425-5.81-4.631C35.29 1.304 30.887.242 26.263.034a32.704 32.704 0 00-6.21.307c-2.55.373-5.02 1.024-7.396 2.03-2.558 1.082-4.9 2.507-6.921 4.426C4.256 8.201 3.029 9.792 2.19 11.66c-1.268 2.825-1.555 5.726-.6 8.705.08.248.028.423-.118.623-.446.61-.838 1.254-1.119 1.96-.154.387-.278.781-.308 1.2-.051.716-.07 1.433.005 2.147.137 1.29.545 2.464 1.515 3.383.055.052.098.115.146.172v.909c-.003 1.264.05 2.522.24 3.777.412 2.728 1.674 4.976 3.748 6.78 1.09.949 2.313 1.688 3.623 2.29 1.705.782 3.49 1.312 5.323 1.696 2.593.544 5.22.807 7.863.878 3.36.092 6.717.044 10.066-.296 1.672-.17 3.33-.415 4.963-.817 1.617-.4 3.176-.955 4.63-1.784 2.17-1.237 3.771-2.987 4.753-5.288.573-1.343.937-2.745 1.149-4.188.217-1.48.255-2.967.161-4.459-.01-.167 0-.336 0-.503.082-.069.152-.133.227-.187.722-.524 1.155-1.232 1.336-2.097.286-1.368.296-2.731-.096-4.085zM5.31 13.922c.436-1.202 1.096-2.273 1.915-3.25 1.14-1.359 2.503-2.453 4.008-3.378 2.091-1.285 4.354-2.156 6.731-2.74a28.642 28.642 0 018.256-.774c3.56.172 6.986.929 10.218 2.465a12.323 12.323 0 012.753 1.77 5.88 5.88 0 011.566 2.054c.466 1.034.54 2.118.34 3.214-.43 2.377-1.661 4.259-3.604 5.684-.918.674-1.917 1.201-2.96 1.648-.59.252-1.189.48-1.78.728a5.614 5.614 0 00-.61.297 1.201 1.201 0 00-.301.25c-.123.139-.103.35.06.442.176.1.373.177.57.222.671.153 1.354.124 2.031.074a26.11 26.11 0 005.5-1.002c1.44-.427 2.793-1.033 4.008-1.928.059-.044.128-.076.194-.11.01-.005.03.008.085.024-.04.101-.071.203-.118.298-.454.928-1.093 1.714-1.866 2.395-.912.805-1.939 1.434-3.03 1.962-1.69.819-3.47 1.372-5.3 1.772-2.086.456-4.2.709-6.332.834a49.03 49.03 0 01-6.337-.039c-2.888-.204-5.734-.652-8.491-1.567-1.256-.417-2.47-.933-3.614-1.602a11.411 11.411 0 01-2.216-1.657c-1.04-1.01-1.781-2.196-2.061-3.633-.296-1.518-.142-3.004.385-4.453zm39.53 19.85c-.229 1.172-.776 2.197-1.544 3.107-.714.845-1.572 1.516-2.52 2.078-1.407.833-2.926 1.39-4.5 1.808-1.734.46-3.5.748-5.286.931A60.302 60.302 0 0123.87 42c-2.001-.031-3.997-.158-5.979-.449-2.076-.304-4.113-.771-6.06-1.575-1.28-.529-2.486-1.186-3.558-2.068-1.402-1.155-2.44-2.562-2.957-4.323a6.863 6.863 0 01-.302-2.062c.002-.109.021-.217.035-.343.176 0 .325-.015.469.003.677.082 1.357.088 2.035.04 1.763-.129 3.359.33 4.813 1.323.875.598 1.678 1.283 2.445 2.011.602.571 1.19 1.158 1.78 1.742.69.68 1.453 1.258 2.325 1.688.98.483 2.011.755 3.108.736 1.015-.019 1.973-.28 2.884-.724a9.993 9.993 0 002.025-1.339c.217-.18.434-.363.662-.53 1.13-.823 2.392-1.064 3.758-.851.766.12 1.501.36 2.244.574.706.203 1.413.412 2.131.559a5.07 5.07 0 002.301-.044c.784-.201 1.358-.653 1.666-1.4.178-.435.299-.892.439-1.341.118-.378.211-.764.341-1.137.343-.983 1.022-1.607 2.04-1.85.822-.197 1.643-.39 2.498-.593.027.116.064.203.065.29.017 1.151-.015 2.302-.236 3.436z"/></g><defs><clipPath id="clip0"><path d="M0 0h50v46.22H0z"/></clipPath></defs></svg>