<?xml version="1.0" encoding="utf-8"?>
<!-- Generator: Adobe Illustrator 16.0.4, SVG Export Plug-In . SVG Version: 6.00 Build 0)  -->
<!DOCTYPE svg PUBLIC "-//W3C//DTD SVG 1.1//EN" "http://www.w3.org/Graphics/SVG/1.1/DTD/svg11.dtd">
<svg version="1.1" id="Layer_1" xmlns="http://www.w3.org/2000/svg" xmlns:xlink="http://www.w3.org/1999/xlink" x="0px" y="0px"
	 width="347.334px" height="75.888px" viewBox="0 0 347.334 75.888" enable-background="new 0 0 347.334 75.888"
	 xml:space="preserve">
<g>
	<g>
		<path fill="#839199" d="M313.785,33.708c-2.144,0-1.921,2.54-2.01,5.25h3.571C315.347,35.903,315.347,33.708,313.785,33.708z
			 M61.214,37.249c-0.311-0.493-0.728-0.893-1.251-1.203c-0.526-0.311-1.173-0.467-1.942-0.467c-0.771,0-1.414,0.157-1.927,0.467
			c-0.515,0.311-0.926,0.71-1.236,1.203c-0.311,0.493-0.53,1.06-0.658,1.702c-0.128,0.641-0.192,1.293-0.192,1.958
			c0,0.664,0.064,1.311,0.192,1.943c0.128,0.63,0.348,1.197,0.658,1.702c0.31,0.501,0.721,0.903,1.236,1.202
			c0.513,0.3,1.156,0.451,1.927,0.451c0.77,0,1.417-0.151,1.942-0.451c0.523-0.299,0.941-0.701,1.251-1.202
			c0.311-0.505,0.53-1.072,0.659-1.702c0.128-0.633,0.192-1.279,0.192-1.943c0-0.665-0.064-1.317-0.192-1.958
			C61.745,38.309,61.525,37.742,61.214,37.249z M329.821,0H17.513C7.841,0,0,7.841,0,17.512v40.863
			c0,9.671,7.841,17.513,17.513,17.513h312.309c9.671,0,17.513-7.842,17.513-17.513V17.512C347.334,7.841,339.492,0,329.821,0z
			 M272.521,18.296c2.365,0,4.198,1.853,4.198,4.09c0,2.24-1.833,4.09-4.198,4.09c-2.369,0-4.198-1.85-4.198-4.09
			C268.322,20.149,270.151,18.296,272.521,18.296z M46.863,36.333c-0.288,0.889-0.75,1.676-1.379,2.36
			c-0.633,0.684-1.451,1.237-2.457,1.654c-1.006,0.416-2.226,0.627-3.66,0.627h-5.297v8.218h-5.041V26.269h10.338
			c1.434,0,2.654,0.208,3.66,0.625c1.006,0.419,1.824,0.969,2.457,1.653c0.63,0.687,1.092,1.468,1.379,2.346
			c0.29,0.878,0.433,1.787,0.433,2.728C47.296,34.541,47.152,35.444,46.863,36.333z M66.015,44.505
			c-0.408,1.069-0.985,1.983-1.733,2.745c-0.75,0.758-1.654,1.343-2.713,1.75c-1.061,0.404-2.243,0.61-3.547,0.61
			c-1.307,0-2.484-0.206-3.533-0.61c-1.049-0.407-1.947-0.992-2.696-1.75c-0.75-0.762-1.327-1.676-1.733-2.745
			c-0.408-1.071-0.61-2.269-0.61-3.597c0-1.326,0.202-2.532,0.61-3.612c0.406-1.081,0.983-2.001,1.733-2.762
			c0.75-0.758,1.647-1.348,2.696-1.764c1.049-0.419,2.227-0.627,3.533-0.627c1.304,0,2.487,0.208,3.547,0.627
			c1.059,0.416,1.964,1.006,2.713,1.764c0.749,0.761,1.326,1.682,1.733,2.762c0.406,1.08,0.61,2.286,0.61,3.612
			C66.625,42.237,66.42,43.434,66.015,44.505z M88.552,49.192h-4.688l-2.953-11.14h-0.064l-2.826,11.14h-4.719l-5.266-16.598h4.816
			l3.05,11.267h0.065l2.761-11.267h4.431l2.825,11.236h0.064l3.05-11.236h4.688L88.552,49.192z M111.445,42H99.469
			c0.064,1.477,0.439,2.549,1.123,3.21c0.686,0.664,1.67,0.998,2.954,0.998c0.921,0,1.712-0.231,2.376-0.693
			c0.663-0.459,1.07-0.946,1.22-1.459h4.013c-0.642,1.989-1.626,3.415-2.953,4.27c-1.328,0.855-2.933,1.286-4.817,1.286
			c-1.306,0-2.483-0.211-3.532-0.628c-1.049-0.416-1.937-1.012-2.665-1.781c-0.727-0.77-1.289-1.69-1.685-2.762
			c-0.396-1.069-0.594-2.246-0.594-3.531c0-1.24,0.204-2.397,0.61-3.466c0.406-1.072,0.985-1.999,1.734-2.779
			c0.748-0.781,1.642-1.396,2.681-1.844c1.038-0.45,2.188-0.675,3.451-0.675c1.414,0,2.644,0.273,3.692,0.818
			c1.049,0.547,1.911,1.28,2.585,2.201c0.674,0.92,1.16,1.969,1.46,3.146C111.424,39.486,111.53,40.714,111.445,42z M124.833,36.542
			c-0.214-0.043-0.472-0.08-0.771-0.111s-0.588-0.048-0.867-0.048c-0.835,0-1.542,0.14-2.119,0.416
			c-0.579,0.279-1.043,0.659-1.396,1.14c-0.354,0.482-0.604,1.043-0.754,1.688c-0.151,0.642-0.225,1.337-0.225,2.087v7.479h-4.559
			V32.594h4.334v3.081h0.064c0.214-0.513,0.503-0.989,0.867-1.428c0.365-0.439,0.782-0.812,1.252-1.123
			c0.47-0.311,0.974-0.553,1.509-0.724c0.535-0.171,1.092-0.256,1.669-0.256c0.301,0,0.631,0.054,0.996,0.16V36.542z M141.786,42
			H129.81c0.064,1.477,0.438,2.549,1.123,3.21c0.686,0.664,1.67,0.998,2.955,0.998c0.919,0,1.712-0.231,2.376-0.693
			c0.663-0.459,1.07-0.946,1.22-1.459h4.013c-0.643,1.989-1.627,3.415-2.954,4.27c-1.327,0.855-2.933,1.286-4.816,1.286
			c-1.305,0-2.482-0.211-3.531-0.628c-1.049-0.416-1.937-1.012-2.666-1.781c-0.728-0.77-1.29-1.69-1.686-2.762
			c-0.396-1.069-0.593-2.246-0.593-3.531c0-1.24,0.203-2.397,0.61-3.466c0.406-1.072,0.983-1.999,1.733-2.779
			s1.643-1.396,2.681-1.844c1.039-0.45,2.189-0.675,3.452-0.675c1.413,0,2.644,0.273,3.693,0.818c1.049,0.547,1.91,1.28,2.584,2.201
			c0.674,0.92,1.161,1.969,1.46,3.146S141.871,40.714,141.786,42z M160.664,49.192h-4.334v-2.118h-0.064
			c-0.536,0.897-1.237,1.545-2.104,1.941c-0.867,0.396-1.846,0.596-2.938,0.596c-1.241,0-2.333-0.243-3.275-0.725
			c-0.942-0.481-1.717-1.134-2.328-1.958c-0.61-0.824-1.072-1.771-1.381-2.842c-0.311-1.069-0.466-2.184-0.466-3.338
			c0-1.114,0.155-2.189,0.466-3.227c0.309-1.038,0.771-1.953,1.381-2.745c0.61-0.792,1.374-1.431,2.295-1.912
			c0.92-0.479,1.991-0.721,3.211-0.721c0.984,0,1.921,0.208,2.809,0.627c0.888,0.416,1.589,1.032,2.104,1.844h0.064v-8.346h4.559
			V49.192z M189.142,44.81c-0.407,1.104-0.938,2.007-1.588,2.711c-0.655,0.707-1.388,1.231-2.2,1.573
			c-0.815,0.345-1.636,0.517-2.475,0.517c-1.22,0-2.309-0.194-3.271-0.579c-0.964-0.385-1.693-1.037-2.184-1.958h-0.065v2.118
			h-4.334V26.269h4.559v8.346h0.063c0.559-0.855,1.311-1.482,2.263-1.878c0.952-0.394,1.944-0.593,2.97-0.593
			c0.839,0,1.659,0.171,2.475,0.513c0.812,0.342,1.545,0.867,2.2,1.574c0.65,0.707,1.181,1.61,1.588,2.713s0.61,2.414,0.61,3.933
			C189.752,42.396,189.549,43.708,189.142,44.81z M200.828,51.247c-0.493,1.348-1.177,2.312-2.056,2.891
			c-0.877,0.578-2.098,0.866-3.659,0.866c-0.471,0-0.936-0.018-1.396-0.049c-0.462-0.031-0.927-0.068-1.397-0.111v-3.757
			c0.428,0.043,0.867,0.086,1.317,0.129s0.9,0.054,1.349,0.031c0.598-0.062,1.043-0.3,1.331-0.707
			c0.29-0.404,0.433-0.855,0.433-1.348c0-0.362-0.062-0.707-0.19-1.026l-5.812-15.572h4.849l3.757,11.365h0.065l3.626-11.365h4.72
			L200.828,51.247z M223.976,52.518c-2.457,0-5.045-0.559-6.789-1.075v-5.897c1.52,0.388,4.155,0.989,5.312,0.989
			c1.297,0,2.28-0.171,2.28-1.291c0-0.86-0.627-1.248-2.012-1.85l-1.072-0.474c-2.007-0.903-4.865-2.454-4.865-6.63
			c0-6.111,4.957-7.448,9.109-7.448c3.127,0,5.18,0.689,6.251,1.077v5.727c-1.248-0.388-3.797-0.906-5.312-0.906
			c-1.026,0-1.785,0.259-1.785,1.12c0,0.903,0.622,1.206,2.099,1.85l0.892,0.388c2.098,0.904,5.003,2.369,5.003,6.672
			C233.086,51.657,227.77,52.518,223.976,52.518z M247.019,46.321c0.535,0,2.411-0.259,3.038-0.345v5.812
			c-1.297,0.3-4.155,0.73-6.031,0.73c-2.411,0-6.921-0.257-6.921-6.585v-11.45h-3.124v-5.21h3.124l1.072-5.165l7.413-1.722v6.886
			h4.467l-1.117,5.21h-3.35v9.985C245.59,46.019,246.08,46.321,247.019,46.321z M266.267,36.12c-0.85-0.217-1.964-0.43-3.127-0.43
			c-1.34,0-2.365,0.516-2.813,0.772v15.626h-8.485V29.273h6.744l1.251,2.198c0.49-1.422,1.83-2.628,3.794-2.628
			c1.34,0,2.235,0.259,2.637,0.476V36.12z M276.762,52.087h-8.485V29.273h8.485V52.087z M291.812,52.518
			c-1.071,0-2.186-0.3-2.99-0.474v8.224h-8.485V29.273h6.878l1.249,1.422c1.294-1.12,3.124-1.853,5.045-1.853
			c3.483,0,7.593,0.949,7.593,11.709C301.101,52.347,294.938,52.518,291.812,52.518z M323.251,43.394h-11.476
			c0,2.454,1.252,2.927,3.35,2.927c2.411,0,5.672-0.689,6.921-0.903v5.94c-0.98,0.345-3.974,1.16-6.921,1.16
			c-5.313,0-11.789-0.815-11.789-11.749c0-9.643,5.091-11.926,10.449-11.926c5.493,0,9.466,2.713,9.466,11.837V43.394z
			 M41.068,30.812c-0.408-0.248-0.878-0.413-1.412-0.499c-0.536-0.085-1.092-0.128-1.67-0.128h-3.917v6.87h3.917
			c0.579,0,1.134-0.043,1.67-0.128c0.534-0.085,1.004-0.251,1.412-0.496c0.406-0.245,0.733-0.596,0.979-1.043
			c0.247-0.451,0.369-1.038,0.369-1.768c0-0.727-0.122-1.316-0.369-1.764C41.801,31.405,41.474,31.057,41.068,30.812z M155.415,37.2
			c-0.311-0.481-0.712-0.872-1.204-1.171c-0.493-0.299-1.113-0.45-1.863-0.45s-1.381,0.151-1.894,0.45s-0.926,0.696-1.236,1.188
			c-0.311,0.493-0.536,1.055-0.674,1.685c-0.14,0.633-0.209,1.292-0.209,1.975c0,0.642,0.076,1.283,0.225,1.928
			c0.149,0.641,0.391,1.214,0.723,1.716c0.331,0.504,0.748,0.912,1.251,1.22c0.503,0.311,1.109,0.468,1.814,0.468
			c0.75,0,1.375-0.151,1.878-0.451c0.503-0.299,0.904-0.701,1.204-1.202c0.299-0.505,0.513-1.078,0.642-1.719
			c0.129-0.642,0.194-1.306,0.194-1.99c0-0.687-0.064-1.345-0.194-1.975C155.943,38.237,155.724,37.682,155.415,37.2z
			 M133.598,35.578c-0.729,0-1.333,0.125-1.814,0.371s-0.867,0.55-1.156,0.915c-0.29,0.365-0.492,0.75-0.61,1.154
			c-0.119,0.408-0.187,0.772-0.208,1.092h7.417c-0.215-1.155-0.594-2.033-1.14-2.631C135.541,35.88,134.711,35.578,133.598,35.578z
			 M290.828,34.871c-0.49,0-1.471,0.388-2.007,0.687v11.02c0.399,0.131,1.115,0.217,1.426,0.217c1.477,0,2.368-1.206,2.368-6.242
			C292.615,35.43,292.214,34.871,290.828,34.871z M184.262,37.183c-0.322-0.49-0.721-0.88-1.206-1.171
			c-0.479-0.288-1.062-0.433-1.75-0.433c-0.661,0-1.239,0.146-1.732,0.433c-0.49,0.291-0.898,0.681-1.221,1.171
			c-0.318,0.493-0.556,1.061-0.706,1.702c-0.148,0.645-0.223,1.317-0.223,2.024c0,0.687,0.074,1.348,0.223,1.989
			c0.15,0.644,0.388,1.211,0.706,1.701c0.322,0.493,0.73,0.884,1.221,1.175c0.493,0.288,1.071,0.434,1.732,0.434
			c0.688,0,1.271-0.146,1.75-0.434c0.485-0.291,0.884-0.682,1.206-1.175c0.322-0.49,0.556-1.058,0.704-1.701
			c0.151-0.642,0.229-1.303,0.229-1.989c0-0.707-0.077-1.38-0.229-2.024C184.817,38.243,184.584,37.676,184.262,37.183z
			 M103.257,35.578c-0.727,0-1.333,0.125-1.814,0.371c-0.48,0.245-0.866,0.55-1.156,0.915c-0.288,0.365-0.492,0.75-0.61,1.154
			c-0.117,0.408-0.187,0.772-0.208,1.092h7.417c-0.214-1.155-0.594-2.033-1.14-2.631C105.2,35.88,104.37,35.578,103.257,35.578z"/>
	</g>
</g>
<g>
</g>
<g>
</g>
<g>
</g>
<g>
</g>
<g>
</g>
<g>
</g>
</svg>
