<svg width="16" height="16" viewBox="0 0 16 16" fill="none" xmlns="http://www.w3.org/2000/svg">
<path d="M16 3.53977C15.4113 3.80029 14.7792 3.97681 14.1147 4.05629C14.7925 3.6501 15.3127 3.00646 15.558 2.23995C14.9238 2.61606 14.2215 2.88986 13.4736 3.03629C12.8751 2.39892 12.0223 2 11.078 2C9.26547 2 7.7954 3.46957 7.7954 5.28289C7.7954 5.54015 7.82499 5.78963 7.88015 6.03034C5.15088 5.89294 2.73303 4.58685 1.11352 2.60051C0.831192 3.08594 0.669467 3.6496 0.669467 4.25061C0.669467 5.38946 1.24917 6.39466 2.12976 6.98314C1.59168 6.96584 1.08544 6.8184 0.642889 6.57243C0.642387 6.58622 0.642387 6.60001 0.642387 6.61305C0.642387 8.20397 1.77396 9.53112 3.27612 9.83251C3.00006 9.90723 2.71046 9.9471 2.41133 9.9471C2.19921 9.9471 1.99336 9.92754 1.79327 9.88918C2.21125 11.193 3.4228 12.1423 4.85978 12.1684C3.73597 13.049 2.32007 13.574 0.7828 13.574C0.518273 13.574 0.257256 13.5587 0 13.5279C1.45277 14.4599 3.17834 15.0027 5.03153 15.0027C11.07 15.0027 14.3717 10.0008 14.3717 5.66301C14.3717 5.52109 14.3682 5.37868 14.3619 5.23826C15.0036 4.77515 15.5602 4.19771 16 3.53977Z" fill="#1DA1F2"/>
</svg>
