<svg width="508pt" height="514pt" viewBox="0.00 0.00 508.35 513.88" xmlns="http://www.w3.org/2000/svg"><g class="graph" transform="translate(4 509.88)"><title>controllers_diagram</title><polygon fill="#fff" stroke="#fff" points="-4,5 -4,-509.88 505.35,-509.88 505.35,5 -4,5"/><g class="node"><title>_diagram_info</title><text x="294.591" y="-110" font-family="Times,serif" font-size="13">Controllers diagram</text><text x="294.591" y="-94.4" font-family="Times,serif" font-size="13">Date: Oct 11 2012 - 09:55</text><text x="294.591" y="-78.8" font-family="Times,serif" font-size="13">Migration version: 20121011035933</text><text x="294.591" y="-63.2" font-family="Times,serif" font-size="13">Generated by RailRoady 1.1.0</text><text x="294.591" y="-47.6" font-family="Times,serif" font-size="13">http://railroady.prestonlee.com</text></g><g class="node"><title>ApplicationController</title><polyline stroke="#000" points="147.749,-181.98 326.384,-181.98" fill="none"/><path stroke="#000" d="M326.384-181.98c6 0 12-6 12-12" fill="none"/><polyline stroke="#000" points="338.384,-193.98 338.384,-301.98" fill="none"/><path stroke="#000" d="M338.384-301.98c0-6-6-12-12-12" fill="none"/><polyline stroke="#000" points="326.384,-313.98 147.749,-313.98" fill="none"/><path stroke="#000" d="M147.749-313.98c-6 0-12 6-12 12" fill="none"/><polyline stroke="#000" points="135.749,-301.98 135.749,-193.98" fill="none"/><path stroke="#000" d="M135.749-193.98c0 6 6 12 12 12" fill="none"/><text text-anchor="middle" x="237.067" y="-295.98" font-family="Times,serif" font-size="14">ApplicationController</text><polyline stroke="#000" points="135.749,-289.18 338.384,-289.18" fill="none"/><text x="143.749" y="-271.18" font-family="Times,serif" font-size="14">_one_time_conditions_valid_62?</text><text x="143.749" y="-254.38" font-family="Times,serif" font-size="14">_one_time_conditions_valid_64?</text><polyline stroke="#000" points="135.749,-247.58 338.384,-247.58" fill="none"/><polyline stroke="#000" points="135.749,-223.58 338.384,-223.58" fill="none"/><text x="143.749" y="-205.58" font-family="Times,serif" font-size="14">_layout</text><text x="143.749" y="-188.78" font-family="Times,serif" font-size="14">signed_in_user</text></g><g class="node"><title>FeedsController</title><polyline stroke="#000" points="406.195,-181.01 488.402,-181.01" fill="none"/><path stroke="#000" d="M488.402-181.01c6 0 12-6 12-12" fill="none"/><polyline stroke="#000" points="500.402,-193.01 500.402,-368.21" fill="none"/><path stroke="#000" d="M500.402-368.21c0-6-6-12-12-12" fill="none"/><polyline stroke="#000" points="488.402,-380.21 406.195,-380.21" fill="none"/><path stroke="#000" d="M406.195-380.21c-6 0-12 6-12 12" fill="none"/><polyline stroke="#000" points="394.195,-368.21 394.195,-193.01" fill="none"/><path stroke="#000" d="M394.195-193.01c0 6 6 12 12 12" fill="none"/><text text-anchor="middle" x="447.298" y="-362.21" font-family="Times,serif" font-size="14">FeedsController</text><polyline stroke="#000" points="394.195,-355.41 500.402,-355.41" fill="none"/><text x="402.195" y="-337.41" font-family="Times,serif" font-size="14">create</text><text x="402.195" y="-320.61" font-family="Times,serif" font-size="14">destroy</text><text x="402.195" y="-303.81" font-family="Times,serif" font-size="14">edit</text><text x="402.195" y="-287.01" font-family="Times,serif" font-size="14">index</text><text x="402.195" y="-270.21" font-family="Times,serif" font-size="14">new</text><text x="402.195" y="-253.41" font-family="Times,serif" font-size="14">show</text><text x="402.195" y="-236.61" font-family="Times,serif" font-size="14">update</text><polyline stroke="#000" points="394.195,-229.81 500.402,-229.81" fill="none"/><polyline stroke="#000" points="394.195,-205.81 500.402,-205.81" fill="none"/><text x="402.195" y="-187.81" font-family="Times,serif" font-size="14">_layout</text></g><g class="edge"><title>ApplicationController-&gt;FeedsController</title><path stroke="#000" d="M338.488-263.722l55.567-8.624" fill="none"/></g><g class="node"><title>SiteController</title><polyline stroke="#000" points="125.557,-0.5 196.881,-0.5" fill="none"/><path stroke="#000" d="M196.881-.5c6 0 12-6 12-12" fill="none"/><polyline stroke="#000" points="208.881,-12.5 208.881,-86.1" fill="none"/><path stroke="#000" d="M208.881-86.1c0-6-6-12-12-12" fill="none"/><polyline stroke="#000" points="196.881,-98.1 125.557,-98.1" fill="none"/><path stroke="#000" d="M125.557-98.1c-6 0-12 6-12 12" fill="none"/><polyline stroke="#000" points="113.557,-86.1 113.557,-12.5" fill="none"/><path stroke="#000" d="M113.557-12.5c0 6 6 12 12 12" fill="none"/><text text-anchor="middle" x="161.219" y="-80.1" font-family="Times,serif" font-size="14">SiteController</text><polyline stroke="#000" points="113.557,-73.3 208.881,-73.3" fill="none"/><polyline stroke="#000" points="113.557,-49.3 208.881,-49.3" fill="none"/><polyline stroke="#000" points="113.557,-25.3 208.881,-25.3" fill="none"/><text x="121.557" y="-7.3" font-family="Times,serif" font-size="14">_layout</text></g><g class="edge"><title>ApplicationController-&gt;SiteController</title><path stroke="#000" d="M211.811-181.823l-31.924 83.622" fill="none"/></g><g class="node"><title>SubscriptionsController</title><polyline stroke="#000" points="11.5913,-322.98 197.226,-322.98" fill="none"/><path stroke="#000" d="M197.226-322.98c6 0 12-6 12-12" fill="none"/><polyline stroke="#000" points="209.226,-334.98 209.226,-493.38" fill="none"/><path stroke="#000" d="M209.226-493.38c0-6-6-12-12-12" fill="none"/><polyline stroke="#000" points="197.226,-505.38 11.5913,-505.38" fill="none"/><path stroke="#000" d="M11.591-505.38c-6 0-12 6-12 12" fill="none"/><polyline stroke="#000" points="-0.408691,-493.38 -0.408691,-334.98" fill="none"/><path stroke="#000" d="M-.409-334.98c0 6 6 12 12 12" fill="none"/><text text-anchor="middle" x="104.409" y="-487.38" font-family="Times,serif" font-size="14">SubscriptionsController</text><polyline stroke="#000" points="-0.408691,-480.58 209.226,-480.58" fill="none"/><text x="7.591" y="-462.58" font-family="Times,serif" font-size="14">_one_time_conditions_valid_106?</text><text x="7.591" y="-445.78" font-family="Times,serif" font-size="14">create</text><text x="7.591" y="-428.98" font-family="Times,serif" font-size="14">destroy</text><text x="7.591" y="-412.18" font-family="Times,serif" font-size="14">index</text><text x="7.591" y="-395.38" font-family="Times,serif" font-size="14">new</text><polyline stroke="#000" points="-0.408691,-388.58 209.226,-388.58" fill="none"/><polyline stroke="#000" points="-0.408691,-364.58 209.226,-364.58" fill="none"/><text x="7.591" y="-346.58" font-family="Times,serif" font-size="14">_layout</text><text x="7.591" y="-329.78" font-family="Times,serif" font-size="14">correct_user</text></g><g class="edge"><title>ApplicationController-&gt;SubscriptionsController</title><path stroke="#000" d="M184.256-314.145c-2.313-2.896-4.648-5.822-6.994-8.761" fill="none"/></g></g></svg>