<?xml version="1.0" encoding="UTF-8" standalone="no"?>
<!DOCTYPE svg PUBLIC "-//W3C//DTD SVG 1.1//EN"
 "http://www.w3.org/Graphics/SVG/1.1/DTD/svg11.dtd">
<!-- Generated by graphviz version 2.28.0 (20121011.1653)
 -->
<!-- Title: controllers_diagram Pages: 1 -->
<svg width="508pt" height="514pt"
 viewBox="0.00 0.00 508.35 513.88" xmlns="http://www.w3.org/2000/svg" xmlns:xlink="http://www.w3.org/1999/xlink">
<g id="graph1" class="graph" transform="scale(1 1) rotate(0) translate(4 509.88)">
<title>controllers_diagram</title>
<polygon fill="white" stroke="white" points="-4,5 -4,-509.88 505.35,-509.88 505.35,5 -4,5"/>
<!-- _diagram_info -->
<g id="node1" class="node"><title>_diagram_info</title>
<text text-anchor="start" x="294.591" y="-110" font-family="Times,serif" font-size="13.00">Controllers diagram</text>
<text text-anchor="start" x="294.591" y="-94.4" font-family="Times,serif" font-size="13.00">Date: Oct 11 2012 &#45; 09:55</text>
<text text-anchor="start" x="294.591" y="-78.8" font-family="Times,serif" font-size="13.00">Migration version: 20121011035933</text>
<text text-anchor="start" x="294.591" y="-63.2" font-family="Times,serif" font-size="13.00">Generated by RailRoady 1.1.0</text>
<text text-anchor="start" x="294.591" y="-47.6" font-family="Times,serif" font-size="13.00">http://railroady.prestonlee.com</text>
</g>
<!-- ApplicationController -->
<g id="node2" class="node"><title>ApplicationController</title>
<polyline fill="none" stroke="black" points="147.749,-181.98 326.384,-181.98 "/>
<path fill="none" stroke="black" d="M326.384,-181.98C332.384,-181.98 338.384,-187.98 338.384,-193.98"/>
<polyline fill="none" stroke="black" points="338.384,-193.98 338.384,-301.98 "/>
<path fill="none" stroke="black" d="M338.384,-301.98C338.384,-307.98 332.384,-313.98 326.384,-313.98"/>
<polyline fill="none" stroke="black" points="326.384,-313.98 147.749,-313.98 "/>
<path fill="none" stroke="black" d="M147.749,-313.98C141.749,-313.98 135.749,-307.98 135.749,-301.98"/>
<polyline fill="none" stroke="black" points="135.749,-301.98 135.749,-193.98 "/>
<path fill="none" stroke="black" d="M135.749,-193.98C135.749,-187.98 141.749,-181.98 147.749,-181.98"/>
<text text-anchor="middle" x="237.067" y="-295.98" font-family="Times,serif" font-size="14.00">ApplicationController</text>
<polyline fill="none" stroke="black" points="135.749,-289.18 338.384,-289.18 "/>
<text text-anchor="start" x="143.749" y="-271.18" font-family="Times,serif" font-size="14.00">_one_time_conditions_valid_62?</text>
<text text-anchor="start" x="143.749" y="-254.38" font-family="Times,serif" font-size="14.00">_one_time_conditions_valid_64?</text>
<polyline fill="none" stroke="black" points="135.749,-247.58 338.384,-247.58 "/>
<polyline fill="none" stroke="black" points="135.749,-223.58 338.384,-223.58 "/>
<text text-anchor="start" x="143.749" y="-205.58" font-family="Times,serif" font-size="14.00">_layout</text>
<text text-anchor="start" x="143.749" y="-188.78" font-family="Times,serif" font-size="14.00">signed_in_user</text>
</g>
<!-- FeedsController -->
<g id="node3" class="node"><title>FeedsController</title>
<polyline fill="none" stroke="black" points="406.195,-181.01 488.402,-181.01 "/>
<path fill="none" stroke="black" d="M488.402,-181.01C494.402,-181.01 500.402,-187.01 500.402,-193.01"/>
<polyline fill="none" stroke="black" points="500.402,-193.01 500.402,-368.21 "/>
<path fill="none" stroke="black" d="M500.402,-368.21C500.402,-374.21 494.402,-380.21 488.402,-380.21"/>
<polyline fill="none" stroke="black" points="488.402,-380.21 406.195,-380.21 "/>
<path fill="none" stroke="black" d="M406.195,-380.21C400.195,-380.21 394.195,-374.21 394.195,-368.21"/>
<polyline fill="none" stroke="black" points="394.195,-368.21 394.195,-193.01 "/>
<path fill="none" stroke="black" d="M394.195,-193.01C394.195,-187.01 400.195,-181.01 406.195,-181.01"/>
<text text-anchor="middle" x="447.298" y="-362.21" font-family="Times,serif" font-size="14.00">FeedsController</text>
<polyline fill="none" stroke="black" points="394.195,-355.41 500.402,-355.41 "/>
<text text-anchor="start" x="402.195" y="-337.41" font-family="Times,serif" font-size="14.00">create</text>
<text text-anchor="start" x="402.195" y="-320.61" font-family="Times,serif" font-size="14.00">destroy</text>
<text text-anchor="start" x="402.195" y="-303.81" font-family="Times,serif" font-size="14.00">edit</text>
<text text-anchor="start" x="402.195" y="-287.01" font-family="Times,serif" font-size="14.00">index</text>
<text text-anchor="start" x="402.195" y="-270.21" font-family="Times,serif" font-size="14.00">new</text>
<text text-anchor="start" x="402.195" y="-253.41" font-family="Times,serif" font-size="14.00">show</text>
<text text-anchor="start" x="402.195" y="-236.61" font-family="Times,serif" font-size="14.00">update</text>
<polyline fill="none" stroke="black" points="394.195,-229.81 500.402,-229.81 "/>
<polyline fill="none" stroke="black" points="394.195,-205.81 500.402,-205.81 "/>
<text text-anchor="start" x="402.195" y="-187.81" font-family="Times,serif" font-size="14.00">_layout</text>
</g>
<!-- ApplicationController&#45;&gt;FeedsController -->
<g id="edge2" class="edge"><title>ApplicationController&#45;&gt;FeedsController</title>
<path fill="none" stroke="black" d="M338.488,-263.722C357.703,-266.704 377.083,-269.712 394.055,-272.346"/>
</g>
<!-- SiteController -->
<g id="node4" class="node"><title>SiteController</title>
<polyline fill="none" stroke="black" points="125.557,-0.5 196.881,-0.5 "/>
<path fill="none" stroke="black" d="M196.881,-0.5C202.881,-0.5 208.881,-6.5 208.881,-12.5"/>
<polyline fill="none" stroke="black" points="208.881,-12.5 208.881,-86.1 "/>
<path fill="none" stroke="black" d="M208.881,-86.1C208.881,-92.1 202.881,-98.1 196.881,-98.1"/>
<polyline fill="none" stroke="black" points="196.881,-98.1 125.557,-98.1 "/>
<path fill="none" stroke="black" d="M125.557,-98.1C119.557,-98.1 113.557,-92.1 113.557,-86.1"/>
<polyline fill="none" stroke="black" points="113.557,-86.1 113.557,-12.5 "/>
<path fill="none" stroke="black" d="M113.557,-12.5C113.557,-6.5 119.557,-0.5 125.557,-0.5"/>
<text text-anchor="middle" x="161.219" y="-80.1" font-family="Times,serif" font-size="14.00">SiteController</text>
<polyline fill="none" stroke="black" points="113.557,-73.3 208.881,-73.3 "/>
<polyline fill="none" stroke="black" points="113.557,-49.3 208.881,-49.3 "/>
<polyline fill="none" stroke="black" points="113.557,-25.3 208.881,-25.3 "/>
<text text-anchor="start" x="121.557" y="-7.3" font-family="Times,serif" font-size="14.00">_layout</text>
</g>
<!-- ApplicationController&#45;&gt;SiteController -->
<g id="edge4" class="edge"><title>ApplicationController&#45;&gt;SiteController</title>
<path fill="none" stroke="black" d="M211.811,-181.823C201.382,-154.505 189.509,-123.405 179.887,-98.2009"/>
</g>
<!-- SubscriptionsController -->
<g id="node5" class="node"><title>SubscriptionsController</title>
<polyline fill="none" stroke="black" points="11.5913,-322.98 197.226,-322.98 "/>
<path fill="none" stroke="black" d="M197.226,-322.98C203.226,-322.98 209.226,-328.98 209.226,-334.98"/>
<polyline fill="none" stroke="black" points="209.226,-334.98 209.226,-493.38 "/>
<path fill="none" stroke="black" d="M209.226,-493.38C209.226,-499.38 203.226,-505.38 197.226,-505.38"/>
<polyline fill="none" stroke="black" points="197.226,-505.38 11.5913,-505.38 "/>
<path fill="none" stroke="black" d="M11.5913,-505.38C5.59131,-505.38 -0.408691,-499.38 -0.408691,-493.38"/>
<polyline fill="none" stroke="black" points="-0.408691,-493.38 -0.408691,-334.98 "/>
<path fill="none" stroke="black" d="M-0.408691,-334.98C-0.408691,-328.98 5.59131,-322.98 11.5913,-322.98"/>
<text text-anchor="middle" x="104.409" y="-487.38" font-family="Times,serif" font-size="14.00">SubscriptionsController</text>
<polyline fill="none" stroke="black" points="-0.408691,-480.58 209.226,-480.58 "/>
<text text-anchor="start" x="7.59131" y="-462.58" font-family="Times,serif" font-size="14.00">_one_time_conditions_valid_106?</text>
<text text-anchor="start" x="7.59131" y="-445.78" font-family="Times,serif" font-size="14.00">create</text>
<text text-anchor="start" x="7.59131" y="-428.98" font-family="Times,serif" font-size="14.00">destroy</text>
<text text-anchor="start" x="7.59131" y="-412.18" font-family="Times,serif" font-size="14.00">index</text>
<text text-anchor="start" x="7.59131" y="-395.38" font-family="Times,serif" font-size="14.00">new</text>
<polyline fill="none" stroke="black" points="-0.408691,-388.58 209.226,-388.58 "/>
<polyline fill="none" stroke="black" points="-0.408691,-364.58 209.226,-364.58 "/>
<text text-anchor="start" x="7.59131" y="-346.58" font-family="Times,serif" font-size="14.00">_layout</text>
<text text-anchor="start" x="7.59131" y="-329.78" font-family="Times,serif" font-size="14.00">correct_user</text>
</g>
<!-- ApplicationController&#45;&gt;SubscriptionsController -->
<g id="edge6" class="edge"><title>ApplicationController&#45;&gt;SubscriptionsController</title>
<path fill="none" stroke="black" d="M184.256,-314.145C181.943,-317.041 179.608,-319.967 177.262,-322.906"/>
</g>
</g>
</svg>
