<svg width="487pt" height="352pt" viewBox="0.00 0.00 486.74 352.21" xmlns="http://www.w3.org/2000/svg"><g class="graph" transform="translate(4 348.214)"><title>controllers_diagram</title><polygon fill="#fff" stroke="#fff" points="-4,5 -4,-348.214 483.744,-348.214 483.744,5 -4,5"/><g class="node"><title>_diagram_info</title><text x="279.845" y="-103" font-family="Times,serif" font-size="13">Controllers diagram</text><text x="279.845" y="-87.4" font-family="Times,serif" font-size="13">Date: Oct 11 2012 - 09:55</text><text x="279.845" y="-71.8" font-family="Times,serif" font-size="13">Migration version: 20121011035933</text><text x="279.845" y="-56.2" font-family="Times,serif" font-size="13">Generated by RailRoady 1.1.0</text><text x="279.845" y="-40.6" font-family="Times,serif" font-size="13">http://railroady.prestonlee.com</text></g><g class="node"><title>ApplicationController</title><ellipse stroke="#000" cx="215.211" cy="-185.825" rx="95.984" ry="18" fill="none"/><text text-anchor="middle" x="215.211" y="-180.225" font-family="Times,serif" font-size="14">ApplicationController</text></g><g class="node"><title>FeedsController</title><ellipse stroke="#000" cx="392.793" cy="-213.387" rx="72.891" ry="18" fill="none"/><text text-anchor="middle" x="392.793" y="-207.787" font-family="Times,serif" font-size="14">FeedsController</text></g><g class="edge"><title>ApplicationController-&gt;FeedsController</title><path stroke="#000" d="M289.493-197.354c13.686-2.124 27.845-4.322 41.128-6.384" fill="none"/></g><g class="node"><title>SiteController</title><ellipse stroke="#000" cx="151.143" cy="-18" rx="65.132" ry="18" fill="none"/><text text-anchor="middle" x="151.143" y="-12.4" font-family="Times,serif" font-size="14">SiteController</text></g><g class="edge"><title>ApplicationController-&gt;SiteController</title><path stroke="#000" d="M208.355-167.865c-12.299 32.217-37.975 99.473-50.308 131.78" fill="none"/></g><g class="node"><title>SubscriptionsController</title><ellipse stroke="#000" cx="103.155" cy="-326.214" rx="102.966" ry="18" fill="none"/><text text-anchor="middle" x="103.155" y="-320.614" font-family="Times,serif" font-size="14">SubscriptionsController</text></g><g class="edge"><title>ApplicationController-&gt;SubscriptionsController</title><path stroke="#000" d="M200.791-203.891c-21.516-26.956-61.787-77.41-83.271-104.326" fill="none"/></g></g></svg>