<?xml version="1.0" encoding="UTF-8" standalone="no"?>
<!DOCTYPE svg PUBLIC "-//W3C//DTD SVG 1.1//EN"
 "http://www.w3.org/Graphics/SVG/1.1/DTD/svg11.dtd">
<!-- Generated by graphviz version 2.28.0 (20121011.1653)
 -->
<!-- Title: models_diagram Pages: 1 -->
<svg width="484pt" height="602pt"
 viewBox="0.00 0.00 484.00 602.00" xmlns="http://www.w3.org/2000/svg" xmlns:xlink="http://www.w3.org/1999/xlink">
<g id="graph1" class="graph" transform="scale(1 1) rotate(0) translate(4 598)">
<title>models_diagram</title>
<polygon fill="white" stroke="white" points="-4,5 -4,-598 481,-598 481,5 -4,5"/>
<!-- _diagram_info -->
<g id="node1" class="node"><title>_diagram_info</title>
<text text-anchor="start" x="7.55029" y="-544" font-family="Times,serif" font-size="13.00">Models diagram</text>
<text text-anchor="start" x="7.55029" y="-528.4" font-family="Times,serif" font-size="13.00">Date: Oct 11 2012 &#45; 09:55</text>
<text text-anchor="start" x="7.55029" y="-512.8" font-family="Times,serif" font-size="13.00">Migration version: 20121011035933</text>
<text text-anchor="start" x="7.55029" y="-497.2" font-family="Times,serif" font-size="13.00">Generated by RailRoady 1.1.0</text>
<text text-anchor="start" x="7.55029" y="-481.6" font-family="Times,serif" font-size="13.00">http://railroady.prestonlee.com</text>
</g>
<!-- Feed -->
<g id="node2" class="node"><title>Feed</title>
<polyline fill="none" stroke="black" points="236.495,-442.8 345.505,-442.8 "/>
<path fill="none" stroke="black" d="M345.505,-442.8C351.505,-442.8 357.505,-448.8 357.505,-454.8"/>
<polyline fill="none" stroke="black" points="357.505,-454.8 357.505,-581.2 "/>
<path fill="none" stroke="black" d="M357.505,-581.2C357.505,-587.2 351.505,-593.2 345.505,-593.2"/>
<polyline fill="none" stroke="black" points="345.505,-593.2 236.495,-593.2 "/>
<path fill="none" stroke="black" d="M236.495,-593.2C230.495,-593.2 224.495,-587.2 224.495,-581.2"/>
<polyline fill="none" stroke="black" points="224.495,-581.2 224.495,-454.8 "/>
<path fill="none" stroke="black" d="M224.495,-454.8C224.495,-448.8 230.495,-442.8 236.495,-442.8"/>
<text text-anchor="middle" x="291" y="-575.2" font-family="Times,serif" font-size="14.00">Feed</text>
<polyline fill="none" stroke="black" points="224.495,-568.4 357.505,-568.4 "/>
<text text-anchor="start" x="232.495" y="-550.4" font-family="Times,serif" font-size="14.00">id :integer</text>
<text text-anchor="start" x="232.495" y="-533.6" font-family="Times,serif" font-size="14.00">feed_title :string</text>
<text text-anchor="start" x="232.495" y="-516.8" font-family="Times,serif" font-size="14.00">feed_url :string</text>
<text text-anchor="start" x="232.495" y="-500" font-family="Times,serif" font-size="14.00">site_url :string</text>
<text text-anchor="start" x="232.495" y="-483.2" font-family="Times,serif" font-size="14.00">etag :string</text>
<text text-anchor="start" x="232.495" y="-466.4" font-family="Times,serif" font-size="14.00">created_at :datetime</text>
<text text-anchor="start" x="232.495" y="-449.6" font-family="Times,serif" font-size="14.00">updated_at :datetime</text>
</g>
<!-- Subscription -->
<g id="node3" class="node"><title>Subscription</title>
<polyline fill="none" stroke="black" points="171.495,-0.6 280.505,-0.6 "/>
<path fill="none" stroke="black" d="M280.505,-0.6C286.505,-0.6 292.505,-6.6 292.505,-12.6"/>
<polyline fill="none" stroke="black" points="292.505,-12.6 292.505,-105.4 "/>
<path fill="none" stroke="black" d="M292.505,-105.4C292.505,-111.4 286.505,-117.4 280.505,-117.4"/>
<polyline fill="none" stroke="black" points="280.505,-117.4 171.495,-117.4 "/>
<path fill="none" stroke="black" d="M171.495,-117.4C165.495,-117.4 159.495,-111.4 159.495,-105.4"/>
<polyline fill="none" stroke="black" points="159.495,-105.4 159.495,-12.6 "/>
<path fill="none" stroke="black" d="M159.495,-12.6C159.495,-6.6 165.495,-0.6 171.495,-0.6"/>
<text text-anchor="middle" x="226" y="-99.4" font-family="Times,serif" font-size="14.00">Subscription</text>
<polyline fill="none" stroke="black" points="159.495,-92.6 292.505,-92.6 "/>
<text text-anchor="start" x="167.495" y="-74.6" font-family="Times,serif" font-size="14.00">id :integer</text>
<text text-anchor="start" x="167.495" y="-57.8" font-family="Times,serif" font-size="14.00">user_id :integer</text>
<text text-anchor="start" x="167.495" y="-41" font-family="Times,serif" font-size="14.00">feed_id :integer</text>
<text text-anchor="start" x="167.495" y="-24.2" font-family="Times,serif" font-size="14.00">created_at :datetime</text>
<text text-anchor="start" x="167.495" y="-7.4" font-family="Times,serif" font-size="14.00">updated_at :datetime</text>
</g>
<!-- Feed&#45;&gt;Subscription -->
<g id="edge2" class="edge"><title>Feed&#45;&gt;Subscription</title>
<path fill="none" stroke="#716777" d="M218.547,-445.059C197.668,-424.232 180.329,-406.795 180,-406 137.139,-302.525 154.734,-263.113 180,-154 182.077,-145.031 185.134,-135.93 188.701,-127.1"/>
<ellipse fill="none" stroke="#716777" cx="221.387" cy="-447.891" rx="4.00002" ry="4.00002"/>
<polygon fill="#716777" stroke="#716777" points="188.814,-126.837 196.888,-119.416 190.783,-122.241 192.751,-117.644 192.751,-117.644 192.751,-117.644 190.783,-122.241 188.614,-115.873 188.814,-126.837 188.814,-126.837"/>
</g>
<!-- User -->
<g id="node4" class="node"><title>User</title>
<polyline fill="none" stroke="black" points="200.722,-154.4 381.278,-154.4 "/>
<path fill="none" stroke="black" d="M381.278,-154.4C387.278,-154.4 393.278,-160.4 393.278,-166.4"/>
<polyline fill="none" stroke="black" points="393.278,-166.4 393.278,-393.6 "/>
<path fill="none" stroke="black" d="M393.278,-393.6C393.278,-399.6 387.278,-405.6 381.278,-405.6"/>
<polyline fill="none" stroke="black" points="381.278,-405.6 200.722,-405.6 "/>
<path fill="none" stroke="black" d="M200.722,-405.6C194.722,-405.6 188.722,-399.6 188.722,-393.6"/>
<polyline fill="none" stroke="black" points="188.722,-393.6 188.722,-166.4 "/>
<path fill="none" stroke="black" d="M188.722,-166.4C188.722,-160.4 194.722,-154.4 200.722,-154.4"/>
<text text-anchor="middle" x="291" y="-387.6" font-family="Times,serif" font-size="14.00">User</text>
<polyline fill="none" stroke="black" points="188.722,-380.8 393.278,-380.8 "/>
<text text-anchor="start" x="196.722" y="-362.8" font-family="Times,serif" font-size="14.00">id :integer</text>
<text text-anchor="start" x="196.722" y="-346" font-family="Times,serif" font-size="14.00">email :string</text>
<text text-anchor="start" x="196.722" y="-329.2" font-family="Times,serif" font-size="14.00">encrypted_password :string</text>
<text text-anchor="start" x="196.722" y="-312.4" font-family="Times,serif" font-size="14.00">reset_password_token :string</text>
<text text-anchor="start" x="196.722" y="-295.6" font-family="Times,serif" font-size="14.00">reset_password_sent_at :datetime</text>
<text text-anchor="start" x="196.722" y="-278.8" font-family="Times,serif" font-size="14.00">remember_created_at :datetime</text>
<text text-anchor="start" x="196.722" y="-262" font-family="Times,serif" font-size="14.00">sign_in_count :integer</text>
<text text-anchor="start" x="196.722" y="-245.2" font-family="Times,serif" font-size="14.00">current_sign_in_at :datetime</text>
<text text-anchor="start" x="196.722" y="-228.4" font-family="Times,serif" font-size="14.00">last_sign_in_at :datetime</text>
<text text-anchor="start" x="196.722" y="-211.6" font-family="Times,serif" font-size="14.00">current_sign_in_ip :string</text>
<text text-anchor="start" x="196.722" y="-194.8" font-family="Times,serif" font-size="14.00">last_sign_in_ip :string</text>
<text text-anchor="start" x="196.722" y="-178" font-family="Times,serif" font-size="14.00">created_at :datetime</text>
<text text-anchor="start" x="196.722" y="-161.2" font-family="Times,serif" font-size="14.00">updated_at :datetime</text>
</g>
<!-- Feed&#45;&gt;User -->
<g id="edge6" class="edge"><title>Feed&#45;&gt;User</title>
<path fill="none" stroke="#670e15" d="M291,-432.587C291,-427.157 291,-421.623 291,-416.038"/>
<polygon fill="#670e15" stroke="#670e15" points="291,-432.652 286.5,-442.652 291,-437.652 291,-442.652 291,-442.652 291,-442.652 291,-437.652 295.5,-442.652 291,-432.652 291,-432.652"/>
<polygon fill="#670e15" stroke="#670e15" points="291,-415.938 295.5,-405.938 291,-410.938 291,-405.938 291,-405.938 291,-405.938 291,-410.938 286.5,-405.938 291,-415.938 291,-415.938"/>
</g>
<!-- Entry -->
<g id="node7" class="node"><title>Entry</title>
<ellipse fill="none" stroke="black" cx="444" cy="-280" rx="32.2368" ry="18"/>
<text text-anchor="middle" x="444" y="-274.4" font-family="Times,serif" font-size="14.00">Entry</text>
</g>
<!-- Feed&#45;&gt;Entry -->
<g id="edge4" class="edge"><title>Feed&#45;&gt;Entry</title>
<path fill="none" stroke="#654b0c" d="M363.34,-454.55C377.562,-439.719 391.354,-423.179 402,-406 421.078,-375.214 432.616,-334.74 438.648,-308.31"/>
<ellipse fill="none" stroke="#654b0c" cx="360.455" cy="-457.502" rx="4.00002" ry="4.00002"/>
<polygon fill="#654b0c" stroke="#654b0c" points="438.71,-308.02 445.23,-299.202 439.771,-303.134 440.832,-298.248 440.832,-298.248 440.832,-298.248 439.771,-303.134 436.435,-297.293 438.71,-308.02 438.71,-308.02"/>
</g>
<!-- User&#45;&gt;Subscription -->
<g id="edge8" class="edge"><title>User&#45;&gt;Subscription</title>
<path fill="none" stroke="#83955d" d="M251.662,-146.461C249.716,-139.904 247.804,-133.464 245.957,-127.238"/>
<ellipse fill="none" stroke="#83955d" cx="252.805" cy="-150.312" rx="4.00001" ry="4.00001"/>
<polygon fill="#83955d" stroke="#83955d" points="245.955,-127.234 247.424,-116.367 244.533,-122.44 243.11,-117.647 243.11,-117.647 243.11,-117.647 244.533,-122.44 238.796,-118.927 245.955,-127.234 245.955,-127.234"/>
</g>
</g>
</svg>
