<svg width="374pt" height="238pt" viewBox="0.00 0.00 374.00 238.00" xmlns="http://www.w3.org/2000/svg"><g class="graph" transform="translate(4 234)"><title>models_diagram</title><polygon fill="#fff" stroke="#fff" points="-4,5 -4,-234 371,-234 371,5 -4,5"/><g class="node"><title>_diagram_info</title><text x="7.55" y="-213" font-family="Times,serif" font-size="13">Models diagram</text><text x="7.55" y="-197.4" font-family="Times,serif" font-size="13">Date: Oct 11 2012 - 09:55</text><text x="7.55" y="-181.8" font-family="Times,serif" font-size="13">Migration version: 20121011035933</text><text x="7.55" y="-166.2" font-family="Times,serif" font-size="13">Generated by RailRoady 1.1.0</text><text x="7.55" y="-150.6" font-family="Times,serif" font-size="13">http://railroady.prestonlee.com</text></g><g class="node"><title>Feed</title><ellipse stroke="#000" cx="254" cy="-187" rx="29.216" ry="18" fill="none"/><text text-anchor="middle" x="254" y="-181.4" font-family="Times,serif" font-size="14">Feed</text></g><g class="node"><title>Subscription</title><ellipse stroke="#000" cx="225" cy="-18" rx="59.289" ry="18" fill="none"/><text text-anchor="middle" x="225" y="-12.4" font-family="Times,serif" font-size="14">Subscription</text></g><g class="edge"><title>Feed-&gt;Subscription</title><path stroke="#e85776" d="M239.438-163.162c-8.693 15.026-18.9 35.484-23.438 55.162-4.704 20.397-1.96 43.989 1.694 61.755" fill="none"/><ellipse stroke="#e85776" cx="241.506" cy="-166.637" rx="4" ry="4" fill="none"/><polygon fill="#e85776" stroke="#e85776" points="217.745,-46.0212 224.352,-37.2693 218.854,-41.1459 219.964,-36.2706 219.964,-36.2706 219.964,-36.2706 218.854,-41.1459 215.576,-35.2719 217.745,-46.0212 217.745,-46.0212"/></g><g class="node"><title>User</title><ellipse stroke="#000" cx="254" cy="-90" rx="28.909" ry="18" fill="none"/><text text-anchor="middle" x="254" y="-84.4" font-family="Times,serif" font-size="14">User</text></g><g class="edge"><title>Feed-&gt;User</title><path stroke="#274d29" d="M254-158.115v39.561" fill="none"/><polygon fill="#274d29" stroke="#274d29" points="254,-158.576 249.5,-168.575 254,-163.576 254,-168.576 254,-168.576 254,-168.576 254,-163.576 258.5,-168.576 254,-158.576 254,-158.576"/><polygon fill="#274d29" stroke="#274d29" points="254,-118.314 258.5,-108.314 254,-113.314 254,-108.314 254,-108.314 254,-108.314 254,-113.314 249.5,-108.314 254,-118.314 254,-118.314"/></g><g class="node"><title>Entry</title><ellipse stroke="#000" cx="334" cy="-90" rx="32.237" ry="18" fill="none"/><text text-anchor="middle" x="334" y="-84.4" font-family="Times,serif" font-size="14">Entry</text></g><g class="edge"><title>Feed-&gt;Entry</title><path stroke="#f1cf69" d="M272.037-164.581c12.535 14.885 29.241 34.723 42.147 50.049" fill="none"/><ellipse stroke="#f1cf69" cx="269.43" cy="-167.677" rx="4" ry="4" fill="none"/><polygon fill="#f1cf69" stroke="#f1cf69" points="314.471,-114.19 324.355,-109.44 317.692,-110.366 320.913,-106.541 320.913,-106.541 320.913,-106.541 317.692,-110.366 317.471,-103.642 314.471,-114.19 314.471,-114.19"/></g><g class="edge"><title>User-&gt;Subscription</title><path stroke="#e57a32" d="M243.965-64.778l-8.002 19.315" fill="none"/><ellipse stroke="#e57a32" cx="245.596" cy="-68.716" rx="4" ry="4" fill="none"/><polygon fill="#e57a32" stroke="#e57a32" points="235.852,-45.1948 236.182,-34.2339 233.938,-40.5755 232.025,-35.9562 232.025,-35.9562 232.025,-35.9562 233.938,-40.5755 227.867,-37.6786 235.852,-45.1948 235.852,-45.1948"/></g></g></svg>