<?xml version="1.0" encoding="UTF-8" standalone="no"?>
<!DOCTYPE svg PUBLIC "-//W3C//DTD SVG 1.1//EN"
 "http://www.w3.org/Graphics/SVG/1.1/DTD/svg11.dtd">
<!-- Generated by graphviz version 2.28.0 (20121011.1653)
 -->
<!-- Title: models_diagram Pages: 1 -->
<svg width="374pt" height="238pt"
 viewBox="0.00 0.00 374.00 238.00" xmlns="http://www.w3.org/2000/svg" xmlns:xlink="http://www.w3.org/1999/xlink">
<g id="graph1" class="graph" transform="scale(1 1) rotate(0) translate(4 234)">
<title>models_diagram</title>
<polygon fill="white" stroke="white" points="-4,5 -4,-234 371,-234 371,5 -4,5"/>
<!-- _diagram_info -->
<g id="node1" class="node"><title>_diagram_info</title>
<text text-anchor="start" x="7.55029" y="-213" font-family="Times,serif" font-size="13.00">Models diagram</text>
<text text-anchor="start" x="7.55029" y="-197.4" font-family="Times,serif" font-size="13.00">Date: Oct 11 2012 &#45; 09:55</text>
<text text-anchor="start" x="7.55029" y="-181.8" font-family="Times,serif" font-size="13.00">Migration version: 20121011035933</text>
<text text-anchor="start" x="7.55029" y="-166.2" font-family="Times,serif" font-size="13.00">Generated by RailRoady 1.1.0</text>
<text text-anchor="start" x="7.55029" y="-150.6" font-family="Times,serif" font-size="13.00">http://railroady.prestonlee.com</text>
</g>
<!-- Feed -->
<g id="node2" class="node"><title>Feed</title>
<ellipse fill="none" stroke="black" cx="254" cy="-187" rx="29.216" ry="18"/>
<text text-anchor="middle" x="254" y="-181.4" font-family="Times,serif" font-size="14.00">Feed</text>
</g>
<!-- Subscription -->
<g id="node3" class="node"><title>Subscription</title>
<ellipse fill="none" stroke="black" cx="225" cy="-18" rx="59.2895" ry="18"/>
<text text-anchor="middle" x="225" y="-12.4" font-family="Times,serif" font-size="14.00">Subscription</text>
</g>
<!-- Feed&#45;&gt;Subscription -->
<g id="edge2" class="edge"><title>Feed&#45;&gt;Subscription</title>
<path fill="none" stroke="#e85776" d="M239.438,-163.162C230.745,-148.136 220.538,-127.678 216,-108 211.296,-87.6025 214.04,-64.0115 217.694,-46.2446"/>
<ellipse fill="none" stroke="#e85776" cx="241.506" cy="-166.637" rx="4.00002" ry="4.00002"/>
<polygon fill="#e85776" stroke="#e85776" points="217.745,-46.0212 224.352,-37.2693 218.854,-41.1459 219.964,-36.2706 219.964,-36.2706 219.964,-36.2706 218.854,-41.1459 215.576,-35.2719 217.745,-46.0212 217.745,-46.0212"/>
</g>
<!-- User -->
<g id="node4" class="node"><title>User</title>
<ellipse fill="none" stroke="black" cx="254" cy="-90" rx="28.9087" ry="18"/>
<text text-anchor="middle" x="254" y="-84.4" font-family="Times,serif" font-size="14.00">User</text>
</g>
<!-- Feed&#45;&gt;User -->
<g id="edge6" class="edge"><title>Feed&#45;&gt;User</title>
<path fill="none" stroke="#274d29" d="M254,-158.115C254,-145.644 254,-130.986 254,-118.554"/>
<polygon fill="#274d29" stroke="#274d29" points="254,-158.576 249.5,-168.575 254,-163.576 254,-168.576 254,-168.576 254,-168.576 254,-163.576 258.5,-168.576 254,-158.576 254,-158.576"/>
<polygon fill="#274d29" stroke="#274d29" points="254,-118.314 258.5,-108.314 254,-113.314 254,-108.314 254,-108.314 254,-108.314 254,-113.314 249.5,-108.314 254,-118.314 254,-118.314"/>
</g>
<!-- Entry -->
<g id="node7" class="node"><title>Entry</title>
<ellipse fill="none" stroke="black" cx="334" cy="-90" rx="32.2368" ry="18"/>
<text text-anchor="middle" x="334" y="-84.4" font-family="Times,serif" font-size="14.00">Entry</text>
</g>
<!-- Feed&#45;&gt;Entry -->
<g id="edge4" class="edge"><title>Feed&#45;&gt;Entry</title>
<path fill="none" stroke="#f1cf69" d="M272.037,-164.581C284.572,-149.696 301.278,-129.858 314.184,-114.532"/>
<ellipse fill="none" stroke="#f1cf69" cx="269.43" cy="-167.677" rx="4.00002" ry="4.00002"/>
<polygon fill="#f1cf69" stroke="#f1cf69" points="314.471,-114.19 324.355,-109.44 317.692,-110.366 320.913,-106.541 320.913,-106.541 320.913,-106.541 317.692,-110.366 317.471,-103.642 314.471,-114.19 314.471,-114.19"/>
</g>
<!-- User&#45;&gt;Subscription -->
<g id="edge8" class="edge"><title>User&#45;&gt;Subscription</title>
<path fill="none" stroke="#e57a32" d="M243.965,-64.7779C241.383,-58.544 238.59,-51.8046 235.963,-45.4634"/>
<ellipse fill="none" stroke="#e57a32" cx="245.596" cy="-68.7155" rx="4.00001" ry="4.00001"/>
<polygon fill="#e57a32" stroke="#e57a32" points="235.852,-45.1948 236.182,-34.2339 233.938,-40.5755 232.025,-35.9562 232.025,-35.9562 232.025,-35.9562 233.938,-40.5755 227.867,-37.6786 235.852,-45.1948 235.852,-45.1948"/>
</g>
</g>
</svg>
