<svg width="484pt" height="602pt" viewBox="0.00 0.00 484.00 602.00" xmlns="http://www.w3.org/2000/svg"><g class="graph" transform="translate(4 598)"><title>models_diagram</title><polygon fill="#fff" stroke="#fff" points="-4,5 -4,-598 481,-598 481,5 -4,5"/><g class="node"><title>_diagram_info</title><text x="7.55" y="-544" font-family="Times,serif" font-size="13">Models diagram</text><text x="7.55" y="-528.4" font-family="Times,serif" font-size="13">Date: Oct 11 2012 - 09:55</text><text x="7.55" y="-512.8" font-family="Times,serif" font-size="13">Migration version: 20121011035933</text><text x="7.55" y="-497.2" font-family="Times,serif" font-size="13">Generated by RailRoady 1.1.0</text><text x="7.55" y="-481.6" font-family="Times,serif" font-size="13">http://railroady.prestonlee.com</text></g><g class="node"><title>Feed</title><polyline stroke="#000" points="236.495,-442.8 345.505,-442.8" fill="none"/><path stroke="#000" d="M345.505-442.8c6 0 12-6 12-12" fill="none"/><polyline stroke="#000" points="357.505,-454.8 357.505,-581.2" fill="none"/><path stroke="#000" d="M357.505-581.2c0-6-6-12-12-12" fill="none"/><polyline stroke="#000" points="345.505,-593.2 236.495,-593.2" fill="none"/><path stroke="#000" d="M236.495-593.2c-6 0-12 6-12 12" fill="none"/><polyline stroke="#000" points="224.495,-581.2 224.495,-454.8" fill="none"/><path stroke="#000" d="M224.495-454.8c0 6 6 12 12 12" fill="none"/><text text-anchor="middle" x="291" y="-575.2" font-family="Times,serif" font-size="14">Feed</text><polyline stroke="#000" points="224.495,-568.4 357.505,-568.4" fill="none"/><text x="232.495" y="-550.4" font-family="Times,serif" font-size="14">id :integer</text><text x="232.495" y="-533.6" font-family="Times,serif" font-size="14">feed_title :string</text><text x="232.495" y="-516.8" font-family="Times,serif" font-size="14">feed_url :string</text><text x="232.495" y="-500" font-family="Times,serif" font-size="14">site_url :string</text><text x="232.495" y="-483.2" font-family="Times,serif" font-size="14">etag :string</text><text x="232.495" y="-466.4" font-family="Times,serif" font-size="14">created_at :datetime</text><text x="232.495" y="-449.6" font-family="Times,serif" font-size="14">updated_at :datetime</text></g><g class="node"><title>Subscription</title><polyline stroke="#000" points="171.495,-0.6 280.505,-0.6" fill="none"/><path stroke="#000" d="M280.505-.6c6 0 12-6 12-12" fill="none"/><polyline stroke="#000" points="292.505,-12.6 292.505,-105.4" fill="none"/><path stroke="#000" d="M292.505-105.4c0-6-6-12-12-12" fill="none"/><polyline stroke="#000" points="280.505,-117.4 171.495,-117.4" fill="none"/><path stroke="#000" d="M171.495-117.4c-6 0-12 6-12 12" fill="none"/><polyline stroke="#000" points="159.495,-105.4 159.495,-12.6" fill="none"/><path stroke="#000" d="M159.495-12.6c0 6 6 12 12 12" fill="none"/><text text-anchor="middle" x="226" y="-99.4" font-family="Times,serif" font-size="14">Subscription</text><polyline stroke="#000" points="159.495,-92.6 292.505,-92.6" fill="none"/><text x="167.495" y="-74.6" font-family="Times,serif" font-size="14">id :integer</text><text x="167.495" y="-57.8" font-family="Times,serif" font-size="14">user_id :integer</text><text x="167.495" y="-41" font-family="Times,serif" font-size="14">feed_id :integer</text><text x="167.495" y="-24.2" font-family="Times,serif" font-size="14">created_at :datetime</text><text x="167.495" y="-7.4" font-family="Times,serif" font-size="14">updated_at :datetime</text></g><g class="edge"><title>Feed-&gt;Subscription</title><path stroke="#716777" d="M218.547-445.059c-20.879 20.827-38.218 38.264-38.547 39.059-42.861 103.475-25.266 142.887 0 252 2.077 8.969 5.134 18.07 8.701 26.9" fill="none"/><ellipse stroke="#716777" cx="221.387" cy="-447.891" rx="4" ry="4" fill="none"/><polygon fill="#716777" stroke="#716777" points="188.814,-126.837 196.888,-119.416 190.783,-122.241 192.751,-117.644 192.751,-117.644 192.751,-117.644 190.783,-122.241 188.614,-115.873 188.814,-126.837 188.814,-126.837"/></g><g class="node"><title>User</title><polyline stroke="#000" points="200.722,-154.4 381.278,-154.4" fill="none"/><path stroke="#000" d="M381.278-154.4c6 0 12-6 12-12" fill="none"/><polyline stroke="#000" points="393.278,-166.4 393.278,-393.6" fill="none"/><path stroke="#000" d="M393.278-393.6c0-6-6-12-12-12" fill="none"/><polyline stroke="#000" points="381.278,-405.6 200.722,-405.6" fill="none"/><path stroke="#000" d="M200.722-405.6c-6 0-12 6-12 12" fill="none"/><polyline stroke="#000" points="188.722,-393.6 188.722,-166.4" fill="none"/><path stroke="#000" d="M188.722-166.4c0 6 6 12 12 12" fill="none"/><text text-anchor="middle" x="291" y="-387.6" font-family="Times,serif" font-size="14">User</text><polyline stroke="#000" points="188.722,-380.8 393.278,-380.8" fill="none"/><text x="196.722" y="-362.8" font-family="Times,serif" font-size="14">id :integer</text><text x="196.722" y="-346" font-family="Times,serif" font-size="14">email :string</text><text x="196.722" y="-329.2" font-family="Times,serif" font-size="14">encrypted_password :string</text><text x="196.722" y="-312.4" font-family="Times,serif" font-size="14">reset_password_token :string</text><text x="196.722" y="-295.6" font-family="Times,serif" font-size="14">reset_password_sent_at :datetime</text><text x="196.722" y="-278.8" font-family="Times,serif" font-size="14">remember_created_at :datetime</text><text x="196.722" y="-262" font-family="Times,serif" font-size="14">sign_in_count :integer</text><text x="196.722" y="-245.2" font-family="Times,serif" font-size="14">current_sign_in_at :datetime</text><text x="196.722" y="-228.4" font-family="Times,serif" font-size="14">last_sign_in_at :datetime</text><text x="196.722" y="-211.6" font-family="Times,serif" font-size="14">current_sign_in_ip :string</text><text x="196.722" y="-194.8" font-family="Times,serif" font-size="14">last_sign_in_ip :string</text><text x="196.722" y="-178" font-family="Times,serif" font-size="14">created_at :datetime</text><text x="196.722" y="-161.2" font-family="Times,serif" font-size="14">updated_at :datetime</text></g><g class="edge"><title>Feed-&gt;User</title><path stroke="#670e15" d="M291-432.587v16.549" fill="none"/><polygon fill="#670e15" stroke="#670e15" points="291,-432.652 286.5,-442.652 291,-437.652 291,-442.652 291,-442.652 291,-442.652 291,-437.652 295.5,-442.652 291,-432.652 291,-432.652"/><polygon fill="#670e15" stroke="#670e15" points="291,-415.938 295.5,-405.938 291,-410.938 291,-405.938 291,-405.938 291,-405.938 291,-410.938 286.5,-405.938 291,-415.938 291,-415.938"/></g><g class="node"><title>Entry</title><ellipse stroke="#000" cx="444" cy="-280" rx="32.237" ry="18" fill="none"/><text text-anchor="middle" x="444" y="-274.4" font-family="Times,serif" font-size="14">Entry</text></g><g class="edge"><title>Feed-&gt;Entry</title><path stroke="#654b0c" d="M363.34-454.55c14.222 14.831 28.014 31.371 38.66 48.55 19.078 30.786 30.616 71.26 36.648 97.69" fill="none"/><ellipse stroke="#654b0c" cx="360.455" cy="-457.502" rx="4" ry="4" fill="none"/><polygon fill="#654b0c" stroke="#654b0c" points="438.71,-308.02 445.23,-299.202 439.771,-303.134 440.832,-298.248 440.832,-298.248 440.832,-298.248 439.771,-303.134 436.435,-297.293 438.71,-308.02 438.71,-308.02"/></g><g class="edge"><title>User-&gt;Subscription</title><path stroke="#83955d" d="M251.662-146.461c-1.946 6.557-3.858 12.997-5.705 19.223" fill="none"/><ellipse stroke="#83955d" cx="252.805" cy="-150.312" rx="4" ry="4" fill="none"/><polygon fill="#83955d" stroke="#83955d" points="245.955,-127.234 247.424,-116.367 244.533,-122.44 243.11,-117.647 243.11,-117.647 243.11,-117.647 244.533,-122.44 238.796,-118.927 245.955,-127.234 245.955,-127.234"/></g></g></svg>