<svg xmlns="http://www.w3.org/2000/svg" viewBox="0 0 15.988 15.988" preserveAspectRatio="xMidYMin meet"><path d="M15.707 14.293l-3.106-3.106A6.966 6.966 0 0014 7 6.994 6.994 0 009.678.533 7.001 7.001 0 00.533 9.679 7.001 7.001 0 007 14c1.51 0 2.98-.491 4.187-1.399l3.106 3.106a1.002 1.002 0 001.401-.012 1 1 0 00.013-1.402zM2 7c0-2.757 2.243-5 5-5s5 2.243 5 5-2.243 5-5 5-5-2.243-5-5z"/><path d="M9 6H8V5a.997.997 0 00-1-1 .997.997 0 00-1 1v1H5a.997.997 0 00-1 1 .997.997 0 001 1h1v1a.997.997 0 001 1 .997.997 0 001-1V8h1a.997.997 0 001-1 .997.997 0 00-1-1z"/></svg>