<svg xmlns="http://www.w3.org/2000/svg" preserveAspectRatio="xMidYMin meet" viewBox="0 0 14 14"><g clip-path="url(#clip0_3900_5020)"><path d="M5.203 3.788a1 1 0 1 1-1.414 1.414 1 1 0 0 1 1.414-1.414"/><path d="M6.617 1.667a.5.5 0 0 0-.307-.145l-.117.003-3.713.53a.5.5 0 0 0-.405.345l-.019.08-.53 3.712a.5.5 0 0 0 .141.425l6.01 6.01a.5.5 0 0 0 .708 0l4.243-4.243a.5.5 0 0 0 0-.707zm6.718 5.303a1.5 1.5 0 0 1 0 2.121l-4.243 4.243a1.5 1.5 0 0 1-2.121 0L.96 7.324A1.5 1.5 0 0 1 .535 6.05l.53-3.712.023-.123a1.5 1.5 0 0 1 1.25-1.15L6.052.534 6.226.52a1.5 1.5 0 0 1 1.098.44z"/></g><defs><clipPath id="clip0_3900_5020"><path d="M0 0h14v14H0z"/></clipPath></defs></svg>