<svg xmlns="http://www.w3.org/2000/svg" viewBox="0 0 18 18" preserveAspectRatio="xMidYMin meet"><path d="m13.926 11.097 1.06 1.061-2.828 2.829-1.06-1.061zm0-2.12-4.69-4.691a1.5 1.5 0 0 0-1.245-.428l-2.518.31a1.5 1.5 0 0 0-1.305 1.305l-.31 2.518a1.5 1.5 0 0 0 .428 1.245l4.69 4.69a1.5 1.5 0 0 0 2.121 0l1.06 1.06-.111.107a3 3 0 0 1-4.019 0l-.112-.107-4.69-4.69a3 3 0 0 1-.873-2.316l.017-.172.31-2.518a3 3 0 0 1 2.61-2.61l2.518-.311a3 3 0 0 1 2.49.856l4.69 4.69.106.112a3 3 0 0 1 0 4.02l-.107.111-1.06-1.06a1.5 1.5 0 0 0 0-2.122"/><path d="M8.445 6.678a1.25 1.25 0 1 1-1.768 1.767 1.25 1.25 0 0 1 1.768-1.767"/></svg>