<svg xmlns="http://www.w3.org/2000/svg" viewBox="0 0 11 15" preserveAspectRatio="xMidYMin meet"><path d="M9 5.286a3.236 3.236 0 0 0-2.608-3.174l-.305-.045-.238-.025a3.5 3.5 0 0 0-.523-.012l-.175.012-.238.025a3.235 3.235 0 0 0-2.163 5.29L3.702 8.5h3.596l.952-1.143c.484-.582.75-1.315.75-2.071m1.495.208a4.74 4.74 0 0 1-1.093 2.824L8 10H3L1.598 8.318A4.74 4.74 0 0 1 .505 5.494L.5 5.286A4.736 4.736 0 0 1 4.54.602l.225-.028.238-.024a5 5 0 0 1 .994 0l.238.024A4.736 4.736 0 0 1 10.5 5.286zM6 13v1.5H5V13zm.5-.5h-2a.5.5 0 0 0 .5.5v1.5l-.204-.01a2 2 0 0 1-1.785-1.786L3 12.5V11h5v1.5l-.01.204a2 2 0 0 1-1.786 1.785L6 14.5V13a.5.5 0 0 0 .49-.4z"/></svg>