<svg xmlns="http://www.w3.org/2000/svg" preserveAspectRatio="xMidYMin meet" viewBox="0 0 10 13"><path d="M9 4.405A3.405 3.405 0 0 0 5.595 1h-1.19A3.405 3.405 0 0 0 1.79 6.585L2.97 8h4.06l1.18-1.415c.51-.612.79-1.383.79-2.18m.996.193A4.4 4.4 0 0 1 8.98 7.226L7.5 9h-5L1.021 7.226A4.4 4.4 0 0 1 .004 4.598L0 4.405a4.405 4.405 0 0 1 4.179-4.4L4.405 0h1.19l.226.006A4.405 4.405 0 0 1 10 4.406zM5.5 12v1h-1v-1zm1-1h-3a1 1 0 0 0 1 1v1l-.204-.01a2 2 0 0 1-1.785-1.786L2.5 11v-1h5v1l-.01.204a2 2 0 0 1-1.786 1.785L5.5 13v-1a1 1 0 0 0 .995-.898z"/></svg>