<svg xmlns="http://www.w3.org/2000/svg" xmlns:xlink="http://www.w3.org/1999/xlink" viewBox="0 0 16 16" preserveAspectRatio="xMidYMin meet"><defs><path id="a" d="M0 0h16v16H0z"/></defs><clipPath id="b"><use overflow="visible" xlink:href="#a"/></clipPath><g clip-path="url(#b)"><path d="M15.707 14.293l-3.106-3.106A6.966 6.966 0 0014 7 6.994 6.994 0 009.678.533 7.001 7.001 0 00.533 9.679 7.001 7.001 0 007 14c1.51 0 2.98-.491 4.187-1.399l3.106 3.106a1.002 1.002 0 001.401-.012 1 1 0 00.013-1.402zM2 7c0-2.757 2.243-5 5-5s5 2.243 5 5-2.243 5-5 5-5-2.243-5-5z"/></g></svg>