<svg xmlns="http://www.w3.org/2000/svg" viewBox="0 0 14 16" preserveAspectRatio="xMidYMin meet"><circle cx="5" cy="5" r="1"/><circle cx="5" cy="11" r="1"/><circle cx="5" cy="8" r="1"/><circle cx="9" cy="5" r="1"/><circle cx="9" cy="11" r="1"/><circle cx="8" cy="8" r="1"/><path d="M5 4h4v2H5zM5 10h4v2H5zM5 7h3v2H5z"/><path d="M11 16H3c-1.654 0-3-1.346-3-3V3c0-1.654 1.346-3 3-3h8c1.654 0 3 1.346 3 3v10c0 1.654-1.346 3-3 3zM3 2c-.551 0-1 .449-1 1v10c0 .552.449 1 1 1h8a1 1 0 001-1V3c0-.551-.448-1-1-1H3z"/></svg>