<svg width="16" height="16" xmlns="http://www.w3.org/2000/svg"><path d="M15.398,13.522l-3.878-3.877c0.631-0.977,1.004-2.136,1.004-3.384C12.524,2.809,9.713,0,6.262,0 C2.808,0,0,2.809,0,6.262c0,3.453,2.808,6.262,6.262,6.262c1.247,0,2.406-0.371,3.384-1.003l3.876,3.878 c0.129,0.129,0.342,0.129,0.47,0l1.406-1.407C15.527,13.863,15.527,13.653,15.398,13.522z M1.988,6.262 c0-2.355,1.916-4.273,4.273-4.273c2.356,0,4.272,1.917,4.272,4.273c0,2.355-1.916,4.272-4.272,4.272 C3.904,10.535,1.988,8.617,1.988,6.262z"/></svg>