<svg xmlns="http://www.w3.org/2000/svg" viewBox="0 0 18 18" preserveAspectRatio="xMidYMin meet"><path d="m14.657 11.329 1.06 1.06-2.828 2.829-1.06-1.06zm0-2.121-4.69-4.69a1.5 1.5 0 0 0-1.244-.429l-2.519.31A1.5 1.5 0 0 0 4.9 5.704l-.31 2.519a1.5 1.5 0 0 0 .428 1.244l4.69 4.69a1.5 1.5 0 0 0 2.122 0l1.06 1.06-.112.107a3 3 0 0 1-4.018 0l-.112-.106-4.69-4.69a3 3 0 0 1-.873-2.316l.016-.173.311-2.518a3 3 0 0 1 2.61-2.61l2.518-.31a3 3 0 0 1 2.489.856l4.69 4.69.106.112a3 3 0 0 1 0 4.019l-.106.111-1.061-1.06a1.5 1.5 0 0 0 0-2.121"/><path d="M9.177 6.91a1.25 1.25 0 1 1-1.768 1.767 1.25 1.25 0 0 1 1.768-1.768"/></svg>