<svg xmlns="http://www.w3.org/2000/svg" viewBox="0 0 12 16" preserveAspectRatio="xMidYMin meet"><path fill-rule="evenodd" d="M6 2c2.481 0 4 1.833 4 3.5 0 .548-.344 1.258-.951 2.023A12.133 12.133 0 0 1 7.627 9H6v2h2.367l.28-.237c.462-.392 1.27-1.116 1.969-1.997C11.287 7.92 12 6.755 12 5.5 12 2.66 9.515 0 6 0v2ZM6 2C3.519 2 2 3.833 2 5.5c0 .548.344 1.258.951 2.023.467.589 1.008 1.11 1.422 1.477H6v2H3.633l-.28-.237c-.462-.392-1.27-1.116-1.969-1.997C.713 7.92 0 6.755 0 5.5 0 2.66 2.485 0 6 0v2Z" clip-rule="evenodd"/><path d="M9 13H3v1a2 2 0 0 0 2 2h2a2 2 0 0 0 2-2v-1Z"/></svg>