<svg xmlns="http://www.w3.org/2000/svg" preserveAspectRatio="xMidYMin meet" viewBox="0 0 12 12"><g clip-path="url(#clip0_3900_5014)"><path d="M11 6a5 5 0 1 0-5 5v1A6 6 0 1 1 6 0a6 6 0 0 1 0 12v-1a5 5 0 0 0 5-5"/><path d="M3.5 4.321c0-1.183 1.307-1.9 2.306-1.265l2.636 1.678a1.5 1.5 0 0 1 0 2.531L5.806 8.943C4.807 9.578 3.5 8.862 3.5 7.678zm1 3.357a.5.5 0 0 0 .769.422l2.637-1.678.054-.04a.5.5 0 0 0-.054-.804L5.27 3.899a.5.5 0 0 0-.769.422z"/></g><defs><clipPath id="clip0_3900_5014"><path d="M0 0h12v12H0z"/></clipPath></defs></svg>