<svg xmlns="http://www.w3.org/2000/svg" viewBox="0 0 11 15.99"><title>recently-played</title><g id="47c3629c-751b-49f3-b437-0ac8df2beb9d" data-name="Layer 2"><g id="1b854f98-bf36-4f48-9406-82a724dc1ce4" data-name="Icon: New"><path d="M5.5,10.35h0A1.88,1.88,0,0,1,3.62,8.47V1.88A1.88,1.88,0,0,1,5.5,0h0A1.88,1.88,0,0,1,7.38,1.88V8.47A1.88,1.88,0,0,1,5.5,10.35Z"/><rect x="4.56" y="12.31" width="1.88" height="2.82"/><rect x="2.68" y="13.99" width="5.65" height="2"/><path d="M8.8,6v2.2a3.3,3.3,0,0,1-6.6,0V6H0v2.2a5.5,5.5,0,1,0,11,0V6Z"/></g></g></svg>