<svg xmlns="http://www.w3.org/2000/svg" viewBox="0 0 14 10" preserveAspectRatio="xMidYMin meet"><path d="M11 8.5V10H3V8.5zM12.5 7V3A1.5 1.5 0 0 0 11 1.5H3A1.5 1.5 0 0 0 1.5 3v4A1.5 1.5 0 0 0 3 8.5V10l-.154-.004A3 3 0 0 1 .004 7.154L0 7V3A3 3 0 0 1 2.846.004L3 0h8l.154.004A3 3 0 0 1 14 3v4l-.004.154a3 3 0 0 1-2.842 2.842L11 10V8.5A1.5 1.5 0 0 0 12.5 7"/><path d="M12.735 2.298a.75.75 0 0 1 .667 1.334l-.067.039-6 3a.75.75 0 0 1-.67-1.342l6-3z"/><path d="M.33 2.665a.75.75 0 0 1 .935-.367l.07.03 6 3 .067.039A.75.75 0 0 1 6.735 6.7l-.07-.03-6-3-.067-.039a.75.75 0 0 1-.269-.967"/></svg>