<svg xmlns="http://www.w3.org/2000/svg" viewBox="0 0 16 15.281" preserveAspectRatio="xMidYMin meet"><path d="M15.969 5.79a.641.641 0 0 0-.518-.436l-4.751-.69L8.576.358a.643.643 0 0 0-1.151 0L5.3 4.663l-4.751.69a.643.643 0 0 0-.356 1.094l3.438 3.351-.811 4.732a.642.642 0 0 0 .93.677L8 12.973l4.25 2.234a.637.637 0 0 0 .675-.048.642.642 0 0 0 .255-.627L12.369 9.8l3.438-3.351a.647.647 0 0 0 .162-.659zm-4.996 2.578l-.753.734.178 1.036.346 2.017-1.814-.952-.93-.489-.93.489-1.813.953.346-2.019.178-1.037-.754-.734-1.466-1.429 2.026-.294 1.041-.151.465-.943L8 3.712l.906 1.838.465.943 1.041.151 2.027.294-1.466 1.43z"/></svg>