<svg xmlns="http://www.w3.org/2000/svg" width="75" height="17" viewBox="0 0 75 17" preserveAspectRatio="xMidYMin meet"><path d="M17.12 12.17v.49h-6.16v-.49l2.22-.34V.92h-.24L8.23 12.66h-.76L2.84.92h-.23v10.73l1.76.52v.49H0v-.49l1.76-.52V.92L0 .53V0h4.45l.73 2 3.08 8.19h.29L11.65 2l.75-2h4.72v.49l-2.2.34v11l2.2.34zM19.91 7.58a4.64 4.64 0 00.75 3 3.12 3.12 0 002.65 1.09c.446.006.89-.068 1.31-.22.51-.2 1-.452 1.46-.75l.15.43a8.346 8.346 0 01-1.8 1.36 3.88 3.88 0 01-1.86.46 4.381 4.381 0 01-1.75-.34 4.107 4.107 0 01-1.38-.95 4.306 4.306 0 01-.89-1.48 5.613 5.613 0 01-.32-1.93 5.796 5.796 0 01.34-2 4.9 4.9 0 01.92-1.57c.384-.44.853-.798 1.38-1.05a4.066 4.066 0 011.74-.37 3.45 3.45 0 011.61.35c.45.222.843.544 1.15.94.316.408.55.873.69 1.37a5.39 5.39 0 01.24 1.6l-6.39.06zm4.59-.7a4.325 4.325 0 00-.59-2.22 1.671 1.671 0 00-1.48-.77 1.993 1.993 0 00-1 .24 2.544 2.544 0 00-.76.64c-.231.301-.41.639-.53 1a4.84 4.84 0 00-.25 1.26l4.61-.15zM34.99 4.56c.021.313-.087.62-.3.85a.998.998 0 01-.72.3.901.901 0 01-.83-.41 1.228 1.228 0 01-.15-.92.85.85 0 00-.53.07 2.615 2.615 0 00-.55.35 4.412 4.412 0 00-.52.53c-.16.198-.304.409-.43.63v5.92l1.49.36v.42h-4.5v-.42l1.44-.36V5l-1.42-.63V4l2.81-.72.16.14-.16 1.75.2.05a5 5 0 011.27-1.48c.38-.287.844-.441 1.32-.44a1.52 1.52 0 011 .34c.276.224.431.565.42.92zM43.85 5.1c.01.31-.1.612-.31.84a.999.999 0 01-.77.35.998.998 0 01-.82-.37 1.282 1.282 0 01-.3-.82c.002-.207.035-.413.1-.61a1.63 1.63 0 01.26-.45 2.183 2.183 0 00-.42-.11 2.556 2.556 0 00-.51 0 3.115 3.115 0 00-1.19.24 3.001 3.001 0 00-1.06.76c-.34.378-.602.82-.77 1.3a5.354 5.354 0 00-.3 1.89 4.31 4.31 0 00.27 1.57c.17.431.418.828.73 1.17.303.321.67.574 1.08.74.423.169.875.254 1.33.25.24 0 .48-.017.72-.05.217-.039.43-.093.64-.16.21-.08.42-.16.64-.26l.72-.35.19.25A4.62 4.62 0 0140.52 13a4.583 4.583 0 01-1.77-.33 3.945 3.945 0 01-1.38-.94 4.066 4.066 0 01-.89-1.44 5.2 5.2 0 01-.32-1.84c-.006-.7.116-1.394.36-2.05a4.76 4.76 0 011-1.62 4.65 4.65 0 011.56-1.06 5.006 5.006 0 012-.38c.703-.036 1.4.142 2 .51a1.5 1.5 0 01.77 1.25zM55.58 11.9v.36l-2.8.7-.18-.14.14-1.49h-.18a9.608 9.608 0 01-1.62 1.27 3.196 3.196 0 01-1.64.42 2.598 2.598 0 01-1.12-.22 2.203 2.203 0 01-.79-.62 2.929 2.929 0 01-.48-.93 3.859 3.859 0 01-.16-1.14V4.87l-1.43-.6V4l2.81-.72.18.14v6.06c0 1.54.62 2.31 1.86 2.31a3.007 3.007 0 001.2-.26c.43-.188.842-.416 1.23-.68v-6l-1.46-.6V4l2.84-.72.16.14v8.17l1.44.31zM64.08 4.56c.022.314-.091.624-.31.85a.998.998 0 01-.72.3.891.891 0 01-.82-.41 1.228 1.228 0 01-.15-.92.842.842 0 00-.53.07 2.42 2.42 0 00-.55.35 4.412 4.412 0 00-.52.53c-.16.198-.304.409-.43.63v5.92l1.49.36v.42h-4.5v-.42l1.44-.36V5l-1.42-.63V4l2.81-.72.16.14-.16 1.75.2.05a5 5 0 011.27-1.48c.38-.287.844-.441 1.32-.44a1.48 1.48 0 011 .34c.278.222.434.564.42.92zM69.25 14.28a5.747 5.747 0 01-1.22 2 2 2 0 01-1.45.58 1.3 1.3 0 01-1-.35 1.121 1.121 0 01-.31-.75.868.868 0 01.3-.68 1 1 0 01.71-.27c.275-.013.546.076.76.25.23.198.436.42.62.66.213-.201.398-.43.55-.68.187-.295.354-.603.5-.92l.59-1.38-3.46-8.3-1.24-.43v-.4h4.27v.41l-1.21.42 2.4 6.3h.1l2.15-6.14-1.48-.58v-.41h3.71v.4l-1.39.63-3.9 9.64z"/></svg>