<svg xmlns="http://www.w3.org/2000/svg" width="100" height="20" viewBox="0 0 100 20" preserveAspectRatio="xMidYMin meet"><g clip-path="url(#clip0)"><path d="M11.072 10.755c-.67-.484-1.476-.82-2.265-1.094-1.182-.408-2.418-.66-3.603-1.06-.67-.227-1.362-.523-1.912-.956-1.634-1.284-1.267-4.078.65-4.891 1.561-.663 3.05-.34 4.358.709 1.04.835 1.672 1.974 2.217 3.168.065.143.221.318.358.341.302.052.62.016.959.016V1.252c-.251 0-.473.024-.687-.005-.446-.061-.68.09-.762.557-.073.415-.237.814-.369 1.248C8.79 1.92 7.898 1.41 6.423 1.225c-2.14-.268-4.032.25-5.36 2.087C-.633 5.658.12 8.773 2.688 10.087c.46.237.938.434 1.43.59 1.15.362 2.327.64 3.462 1.04.698.246 1.42.555 1.99 1.012 1.637 1.314 1.255 4.168-.674 4.987-1.788.76-3.511.478-5.042-.714-1.137-.886-1.837-2.123-2.504-3.373-.075-.14-.198-.332-.321-.35C.696 13.23.35 13.262 0 13.262V19.3c.237 0 .457-.03.666.007.498.09.693-.145.788-.6.1-.472.264-.932.416-1.453.1.078.152.11.195.153 1.342 1.325 2.972 1.915 4.84 1.95 2.674.048 4.82-1.392 5.524-3.739.589-1.962.132-3.786-1.357-4.862zm30.03 6.15c-.003-2.384.058-4.77-.024-7.15-.109-3.177-2.65-3.941-4.816-3.153-1.29.47-2.136 1.444-2.874 2.538l-.292.44-.106-.04V6.566h-4.084v1.387h2.005v9.593h-1.998v1.373h6.03v-1.364H33.1c0-2.053-.132-4.052.041-6.025.138-1.575 1.138-2.739 2.661-3.305 1.533-.57 2.824.2 3.1 1.798.064.369.096.748.098 1.123.01 1.975.005 3.951.003 5.927 0 .15-.015.3-.026.496H37.11v1.351h6.029v-1.392h-2.036v-.624zm34.985-6.488c0-.407-.029-.814-.085-1.217-.219-1.533-1.104-2.544-2.5-2.812a4.083 4.083 0 00-2.177.172c-1.323.475-2.208 1.447-2.96 2.576-.095.144-.197.284-.295.426l-.094-.04V6.559h-4.074V7.96h1.995v9.596H63.88v1.371h6.02v-1.402H68.04c0-1.95-.105-3.853.031-5.738.125-1.723 1.11-2.98 2.77-3.583 1.23-.447 2.46.07 2.861 1.16.139.377.23.794.234 1.193.022 2.289.011 4.578.01 6.867 0 .026-.027.052-.068.13H72.1v1.371h6.004v-1.403h-2.014c0-2.402.004-4.753-.004-7.105zm14.76-.27c-.5-1.747-1.504-3.139-3.337-3.643-2.166-.595-4.079-.012-5.605 1.627-1.447 1.553-1.914 3.467-1.71 5.535.217 2.181 1.112 3.968 3.19 4.981.777.38 1.604.523 2.458.536 1.569.023 2.981-.378 4.073-1.58a5.129 5.129 0 001.184-2.25c-.987-.122-.992-.125-1.438.659-.368.647-.852 1.174-1.561 1.43-1.445.524-2.86.497-4.09-.512-1.256-1.034-1.491-2.497-1.528-4.072h8.821c-.157-.968-.215-1.866-.457-2.71zm-8.356 1.5c.196-1.493.501-2.886 1.878-3.736 1.5-.924 3.228-.427 4.016 1.141.406.808.562 1.676.627 2.596H82.49zm-56 1.212c-.134-.893-.187-1.723-.391-2.515-1.07-4.155-4.993-4.958-7.79-3.204-2.193 1.375-2.992 3.497-2.947 5.986.063 3.431 2.187 6.006 5.647 6.057 1.642.024 3.101-.407 4.205-1.7.53-.622.878-1.342 1.103-2.174-.208 0-.351.02-.488-.004-.446-.074-.68.102-.895.514-.241.46-.58.91-.982 1.232-1.166.934-3.152.943-4.47.092-1.194-.77-2.062-2.876-1.747-4.284h8.755zM20.829 7.49c1.142-.095 2.07.341 2.632 1.336.487.862.675 1.801.74 2.824h-6.44c-.017-2.073 1.167-4 3.068-4.16zm76.85 10.06V0H93.29v1.458h2.276v16.097h-2.284v1.358H100V17.55h-2.323zm-45.375-1.668c-.17.333-.324.68-.527.993-.481.747-1.167.999-1.983.762-.613-.177-.992-.787-.993-1.647-.005-2.572 0-5.143.003-7.715 0-.104.024-.207.042-.358h3.985V6.602h-4.035V3.017l-2.131.26v3.355h-2.47v1.32h2.477v.616c0 2.43-.02 4.861.009 7.291.014 1.314.344 2.502 1.706 3.086 2.178.934 4.783-.667 4.973-3.068l-.914-.343c-.06.147-.093.252-.142.348zm7.266-9.324h-4.394v1.4h2.259v9.617h-2.262v1.34h6.729V17.55h-2.332V6.558zM58.373 3.7c.876-.005 1.515-.667 1.52-1.573.004-.897-.642-1.554-1.528-1.554-.917 0-1.54.645-1.538 1.59.003.893.655 1.542 1.546 1.537z"/></g><defs><clipPath id="clip0"><path d="M0 0h100v19.357H0V0z"/></clipPath></defs></svg>