<svg xmlns="http://www.w3.org/2000/svg" width="100" height="19" viewBox="0 0 100 19" preserveAspectRatio="xMidYMin meet"><g clip-path="url(#clip0)"><path d="M14.24 3.669v3.47l-.305-.174c-2.231-1.306-5.261-.785-6.88 1.239-1.667 2.082-1.975 4.435-1.038 6.889 1.112 2.913 4.632 3.968 7.228 2.243.377-.25.716-.557 1.116-.872.038.341.052.657.115.963.025.121.153.308.245.315.433.034.87.015 1.262.015V.015L14.24.234v3.435zm-.002 8.167c0 .87.011 1.742-.009 2.612a1.17 1.17 0 01-.186.611c-1.164 1.671-3.496 2.114-5.182.98-.91-.61-1.342-1.532-1.541-2.575a5.642 5.642 0 01.252-3.083c1.094-2.931 4.437-3.247 6.32-1.826.245.185.364.39.354.717-.025.854-.008 1.71-.008 2.564zm48.524-1.973c-.788-.601-1.68-1.066-2.523-1.594-.95-.594-1.97-1.102-2.835-1.801-1.79-1.448-.747-3.833.713-4.471 1.29-.564 2.564-.468 3.832.02.493.19.954.463 1.455.71l.555-1.523c-2.022-1.47-5.032-1.6-7.105-.345-2.137 1.293-3.381 4.998-.465 7.13.764.557 1.603 1.012 2.41 1.509.835.513 1.712.968 2.501 1.543.911.665 1.496 1.543 1.297 2.766-.223 1.378-1.069 2.322-2.448 2.642-1.392.322-2.742.105-4.037-.446-.676-.288-1.316-.66-1.993-1.004-.035.474-.055.96-.114 1.441-.038.302.068.479.338.588.66.266 1.3.597 1.978.795 2.013.586 3.997.619 5.864-.523 2.287-1.4 3.37-5.306.577-7.437zm-33.597.566c-.227-1.369-.7-2.605-1.908-3.42-1.991-1.343-5.162-.843-6.696 1.02-1.205 1.463-1.67 3.154-1.535 5.003.133 1.803.812 3.343 2.424 4.344 1.985 1.232 5.018.979 7.06-.46.071-.05.165-.136.167-.208.015-.523.008-1.047.008-1.59-.165.121-.316.236-.47.344-1.132.794-2.362 1.245-3.773 1.204-2.348-.07-3.707-1.657-3.72-4.09.119-.01.21-.024.303-.026 2.202-.062 4.403-.144 6.605-.169.637-.007 1.111-.327 1.503-.694.187-.175.046-.702.05-1.07 0-.063-.006-.126-.018-.188zm-8.339.825c.037-1.518 1.406-3.622 3.76-3.566 1.722.04 2.945 1.163 3.02 3.405l-6.78.161zm19.086 4.278c.01-.602.046-1.204.055-1.806.02-1.377.107-2.76.023-4.13-.083-1.345-.717-2.45-2.035-2.968-1.961-.773-3.823-.336-5.614.602-.07.037-.137.187-.12.266.092.423.21.84.33 1.295.984-.581 1.947-.986 3.039-1.044 1.272-.068 2.276.412 2.58 1.413.192.634.203 1.322.294 1.972-1.237.068-2.317.068-3.38.2-1.162.145-2.243.541-3.07 1.448-1.364 1.495-.885 4.096.957 4.915 1.486.661 2.938.497 4.275-.448.43-.305.833-.651 1.246-.983l.006.046c.22 1.49 1.319 2.098 2.704 1.49.118-.051.277-.15.3-.254.075-.33.095-.673.14-1.042-.158.04-.25.06-.341.086-1.015.286-1.407-.01-1.39-1.058zm-1.707-1.345c-.388 1.76-2.054 2.807-3.813 2.446-.813-.167-1.404-.786-1.502-1.574-.114-.914.372-1.8 1.23-2.218.94-.456 1.95-.523 2.969-.518.392.003.785.034 1.279.057-.054.648-.038 1.243-.163 1.807zm38.55 2.405c-1.009.29-1.403-.012-1.38-1.063.013-.68.039-1.361.051-2.042.023-1.25.105-2.505.044-3.751-.09-1.828-1.17-3.042-2.957-3.386-1.443-.278-2.831-.009-4.163.591-.745.337-.75.332-.547 1.097.063.239.137.474.207.716.473-.225.905-.454 1.355-.641a4.82 4.82 0 012.513-.321c1.523.199 2.213 1.578 1.892 3.432-.322-.015-.65-.038-.98-.044-1.42-.026-2.814.092-4.125.706-2.087.977-2.655 3.652-1.079 5.239.899.904 2.06 1.056 3.267.89 1.3-.18 2.268-.901 3.056-2.07.034.258.047.396.072.533.208 1.127.875 1.622 2.02 1.502.92-.097 1.212-.51 1.027-1.467l-.273.08zm-5.396-.018c-.491.117-1.04.11-1.544.034a1.733 1.733 0 01-1.461-1.535c-.109-.969.363-1.818 1.249-2.242.939-.45 1.946-.513 2.962-.507.39.002.781.034 1.161.052.363 2.024-.614 3.778-2.367 4.198zm17.752-5.06c-.008-.665.013-1.333-.032-1.995-.12-1.761-1.138-2.955-2.754-3.216-1.211-.195-2.347.07-3.326.806-.635.478-1.195 1.056-1.791 1.591l-.14-2.232-1.585.101v11.173h1.742c0-2.125-.02-4.215.016-6.305.008-.473.114-.992.335-1.404.594-1.105 1.529-1.88 2.751-2.18 1.575-.387 2.86.224 3.056 2.085.021.204.045.41.041.616-.039 2.28-.084 4.56-.125 6.84-.002.12.01.24.016.358h1.858v-.488c-.02-1.917-.041-3.833-.063-5.75zm9.148.582c-.505-.26-1.045-.452-1.562-.69-.689-.315-1.412-.58-2.045-.985-.784-.5-.804-1.518-.095-2.109.235-.196.538-.347.834-.424.902-.233 1.793-.128 2.652.22.33.134.645.302.98.462.057-.135.102-.236.142-.338.49-1.22.496-1.241-.786-1.646-1.498-.473-2.992-.546-4.415.266-1.838 1.049-2.314 3.79-.081 5.027.524.29 1.086.51 1.632.762.674.311 1.368.586 2.017.942.547.3.857.793.784 1.457-.071.65-.446 1.127-1.036 1.297a6.67 6.67 0 01-1.95.262c-1.133-.022-2.151-.477-3.17-1.116-.037.52-.1.975-.085 1.427.006.173.147.424.294.494.44.208.905.384 1.378.502 1.512.374 3.017.442 4.439-.335 1.144-.625 1.782-1.603 1.813-2.92.029-1.25-.707-2.021-1.74-2.555zM0 .377v17.378h1.892V.317C1.56.338 1.249.366.937.375.611.385.285.377 0 .377zM44.035 17.75h1.757V.018l-1.758.223V17.75z"/></g><defs><clipPath id="clip0"><path d="M0 0h100v18.221H0V0z"/></clipPath></defs></svg>