<svg xmlns="http://www.w3.org/2000/svg" width="73" height="14" viewBox="0 0 73 14" preserveAspectRatio="xMidYMin meet"><path d="M1.47 12.94H0c.07-.87.11-2.31.11-4.34v-4c0-2 0-3.47-.11-4.34C.491.267.982.244 1.47.19v10.14c-.05 1.24-.03 2.1 0 2.61zM8.31 4.53a3.228 3.228 0 012.11.69v-2c0-1.32 0-2.33-.09-3 .466-.032.931-.092 1.39-.18-.04.32-.06 1.01-.06 2.07v8.17c0 1 0 1.89.11 2.61h-1.15l-.11-1c-.32.378-.71.69-1.15.92-.468.26-.994.398-1.53.4a3.43 3.43 0 01-2.72-1.17 4.232 4.232 0 01-1-2.9 4.76 4.76 0 011.2-3.31 3.92 3.92 0 013-1.3zm0 1.1a2.71 2.71 0 00-2.18 1 3.541 3.541 0 00-.82 2.39 3.3 3.3 0 00.76 2.31 2.521 2.521 0 002 .84c.488.004.966-.132 1.38-.39a2.818 2.818 0 001-1V6.5a2.758 2.758 0 00-2.12-.87h-.02zM21.36 8.49l-.82.51-5.4.14a3.087 3.087 0 00.79 2.21 2.774 2.774 0 002.09.78 4.568 4.568 0 003-1.21v1.3a5.304 5.304 0 01-3.08 1 3.719 3.719 0 01-2.92-1.17 4.28 4.28 0 01-1.06-3 4.778 4.778 0 011.14-3.26 3.72 3.72 0 013-1.31 2.999 2.999 0 012.53 1.1 4.53 4.53 0 01.73 2.91zm-6.19-.3l5-.13c-.16-1.64-.93-2.47-2.3-2.47a2.492 2.492 0 00-1.81.73 3.34 3.34 0 00-.89 1.87zM25.34 13.15a2.577 2.577 0 01-1.86-.64 2.271 2.271 0 01-.68-1.7 2.29 2.29 0 011.07-1.95 5.42 5.42 0 013.15-.75c.334-.002.668.018 1 .06v-.34c0-1.47-.59-2.2-1.91-2.2a3.997 3.997 0 00-2.34.79l-.29-1.1a5.557 5.557 0 012.81-.79 2.881 2.881 0 012.22.83 3.21 3.21 0 01.73 2.34l-.11 3.56a1.21 1.21 0 00.12.69.501.501 0 00.44.2c.25-.012.494-.073.72-.18l-.13.9a2.205 2.205 0 01-.95.25 1.142 1.142 0 01-.89-.39 1.841 1.841 0 01-.37-1.21 2.72 2.72 0 01-1.08 1.18 3.096 3.096 0 01-1.65.45zm.25-1a2.277 2.277 0 001.65-.67 2.351 2.351 0 00.71-1.67v-.8h-1a4.001 4.001 0 00-2.27.49 1.51 1.51 0 00-.7 1.29c-.01.374.134.737.4 1 .337.28.774.41 1.21.36zM33.44 12.94h-1.38c.06-.65.09-1.65.09-3V3.18c0-1.32 0-2.33-.09-3 .463-.036.923-.096 1.38-.18v11.18c-.05.7-.03 1.29 0 1.76zM46.96 9.54a3.542 3.542 0 01-1.11 2.64 4.07 4.07 0 01-3 1.08 6.56 6.56 0 01-3.51-1l.09-1.43a5.92 5.92 0 001.59.89 5.25 5.25 0 001.91.37 2.882 2.882 0 002-.64 2.219 2.219 0 00.73-1.71 1.87 1.87 0 00-.6-1.36 5.474 5.474 0 00-1.44-1.06l-1.7-.91a5.128 5.128 0 01-1.45-1.2 2.598 2.598 0 01-.59-1.67 3.359 3.359 0 011.08-2.52 3.909 3.909 0 012.81-1 5 5 0 012.88.88l-.44 1.17a4.103 4.103 0 00-2.5-.86 2.57 2.57 0 00-1.83.62c-.454.393-.707.97-.69 1.57.005.413.158.81.43 1.12.304.346.67.63 1.08.84l1.38.77c.5.28 1 .56 1.39.84.43.279.795.647 1.07 1.08.279.446.425.963.42 1.49zM51.15 13.15a2.577 2.577 0 01-1.86-.64 2.258 2.258 0 01-.67-1.7 2.281 2.281 0 011.06-1.95 5.467 5.467 0 013.15-.75c.334-.002.668.018 1 .06v-.34c0-1.47-.59-2.2-1.91-2.2a3.997 3.997 0 00-2.34.79l-.29-1.1a5.557 5.557 0 012.81-.79 2.881 2.881 0 012.22.83c.547.65.81 1.494.73 2.34l-.11 3.56a1.21 1.21 0 00.12.69.501.501 0 00.44.2c.25-.01.495-.071.72-.18l-.12.9a2.29 2.29 0 01-1 .25 1.149 1.149 0 01-.89-.39 1.841 1.841 0 01-.37-1.21 2.72 2.72 0 01-1.08 1.18 3.088 3.088 0 01-1.61.45zm.26-1a2.27 2.27 0 001.64-.67 2.351 2.351 0 00.71-1.67v-.8h-1a4.001 4.001 0 00-2.27.49 1.53 1.53 0 00-.7 1.29c-.01.374.134.737.4 1 .341.28.781.41 1.22.36zM65 12.94h-1.41c.07-.77.11-1.79.11-3.06V7.7c0-1.38-.57-2.07-1.71-2.07a2.749 2.749 0 00-1.88.84 2.269 2.269 0 00-.91 1.61v4.86h-1.38c.06-.873.09-1.893.09-3.06v-2c0-1.18-.03-2.2-.09-3.06.26 0 .67 0 1.22-.08l.09 1.79a4.434 4.434 0 011.36-1.37 3.171 3.171 0 011.79-.58 2.52 2.52 0 011.93.74c.489.602.732 1.366.68 2.14v3.67c.033.267.07.87.11 1.81zM70.16 4.53a4.611 4.611 0 012.41.65l-.43 1.1a3.388 3.388 0 00-2-.63 2.062 2.062 0 00-1.14.3 1 1 0 00-.46.9.921.921 0 00.44.75c.336.226.7.411 1.08.55.43.16.85.32 1.28.5.414.17.784.434 1.08.77.292.331.45.76.44 1.2a2.261 2.261 0 01-.91 1.89 3.386 3.386 0 01-2.15.77 4.78 4.78 0 01-2.7-.69l.07-1.31a4.34 4.34 0 002.66.88c.464.02.923-.099 1.32-.34.344-.212.544-.596.52-1a.997.997 0 00-.44-.83 4.01 4.01 0 00-1.08-.59c-.43-.15-.86-.32-1.28-.5a2.918 2.918 0 01-1.08-.77 1.717 1.717 0 01-.44-1.21 2.12 2.12 0 01.81-1.69 2.996 2.996 0 012-.7z"/></svg>