<svg xmlns="http://www.w3.org/2000/svg" width="74" height="19" viewBox="0 0 74 19" preserveAspectRatio="xMidYMin meet"><path d="M14.24 14.52h-1.19L9.13 3.31 5.22 14.52H4.07L0 1.6l1.37-.31 3.39 11.07L8.48 1.42h1.39l3.78 10.94 3.31-10.94h1.41l-4.13 13.1zM27.45 14.47V7.9A2.137 2.137 0 0027 6.46a1.77 1.77 0 00-1.42-.52 3.343 3.343 0 00-1.61.43 8.297 8.297 0 00-1.63 1.2v6.9h-1.33V.23L22.34 0v6.28a10.374 10.374 0 011.63-1.1 3.876 3.876 0 011.86-.45 2.62 2.62 0 013 2.9v6.84h-1.38zM33.9 1.69a.93.93 0 01-.28.68.94.94 0 01-.69.29.999.999 0 01-.71-.29.93.93 0 01-.28-.68.91.91 0 01.28-.68.999.999 0 01.71-.28.999.999 0 01.69.28.91.91 0 01.28.68zm-1.64 12.78V4.93h1.33v9.54h-1.33zM40.97 14.58c-.27.017-.54.017-.81 0a4.316 4.316 0 01-1.05-.12 2.007 2.007 0 01-.81-.38 1.75 1.75 0 01-.51-.72 3.074 3.074 0 01-.18-1.12V6.01h-1.53V4.88h1.53v-3.3l1.31-.23v3.53h2.32l.16 1.13h-2.48v6a1.41 1.41 0 00.34 1.06c.331.244.74.358 1.15.32.17.01.34.01.51 0 .145-.007.29-.027.43-.06l.18 1.12-.56.13zM50.62 14.47V7.9a2.137 2.137 0 00-.45-1.44 1.77 1.77 0 00-1.42-.52 3.318 3.318 0 00-1.61.43 7.99 7.99 0 00-1.63 1.2v6.9h-1.33V4.93h1l.24 1.4a10.177 10.177 0 011.68-1.14 3.878 3.878 0 011.88-.46 3 3 0 012.23.77c.52.592.785 1.364.74 2.15v6.82h-1.33zM62.88 13.32a6.509 6.509 0 01-1.68 1 5.838 5.838 0 01-2.08.37 5.003 5.003 0 01-1.8-.32 3.84 3.84 0 01-1.41-.94 4.44 4.44 0 01-.92-1.56 6.91 6.91 0 010-4.22c.187-.576.486-1.11.88-1.57.371-.428.832-.77 1.35-1a4.172 4.172 0 011.7-.34 3.905 3.905 0 011.76.37c.488.233.916.575 1.25 1 .345.453.596.969.74 1.52a6.57 6.57 0 01.25 1.86v.32h-6.88a4.3 4.3 0 00.85 2.75 2.87 2.87 0 002.34 1c.633 0 1.26-.129 1.84-.38a6.994 6.994 0 001.63-1l.18 1.14zm-4-7.53a2.5 2.5 0 00-1.86.76 3.766 3.766 0 00-.95 2.19h5.46a3.657 3.657 0 00-.76-2.12 2.279 2.279 0 00-1.89-.81v-.02zM69.09 15.71c-.149.399-.34.781-.57 1.14a2.77 2.77 0 01-.66.73 2.382 2.382 0 01-.78.39 3.469 3.469 0 01-.94.12 2.52 2.52 0 01-.6-.06l-.2-1.19c.118.031.238.051.36.06h.42a1.71 1.71 0 001-.31c.341-.29.591-.672.72-1.1l.42-1-3.77-9.47 1.35-.25 3.08 8.1 3-8h1.39l-4.22 10.84z"/></svg>