<svg xmlns="http://www.w3.org/2000/svg" width="100" height="25" viewBox="0 0 100 25" preserveAspectRatio="xMidYMin meet"><g clip-path="url(#clip0)"><path d="M23.554 1.93c-.341-.021-.486.097-.586.432-.96 3.224-1.94 6.44-2.915 9.66-.477 1.574-.956 3.148-1.463 4.817-.099-.248-.168-.403-.223-.563-1.51-4.367-3.018-8.734-4.526-13.102-.428-1.24-.429-1.222-1.756-1.248-.415-.009-.598.111-.733.512-1.556 4.617-3.132 9.227-4.704 13.838-.05.147-.113.289-.218.558L1.845 1.762 0 2.188l.09.295 5.148 16.37c.301.958.301.933 1.323.97.424.015.593-.127.728-.516 1.634-4.74 3.285-9.473 4.934-14.208.057-.165.127-.326.226-.578l5.352 15.29c.37 0 .72-.033 1.06.008.427.053.595-.12.718-.518 1.744-5.612 3.505-11.22 5.26-16.83.05-.156.087-.316.146-.534-.524 0-.979.02-1.43-.007zM39.227 9.6c-.173-1.5-1.06-2.652-2.462-2.936-.845-.17-1.753-.177-2.614-.084-1.26.136-2.245.93-3.249 1.638-.129.09-.257.181-.462.327V0l-1.76.31v19.395h1.774v-.58c0-2.786-.003-5.572.006-8.358 0-.19.021-.45.14-.559 1.06-.954 2.183-1.814 3.639-2.071 1.759-.312 2.918.432 3.172 2.03.04.247.034.502.034.753.003 2.755.002 5.51.002 8.264v.525h1.836v-.525c0-2.88.001-5.76-.003-8.64 0-.316-.018-.63-.053-.943zm46.646 3.735c-.094-.841-.13-1.625-.278-2.388-.27-1.396-.886-2.603-2.049-3.5-2.298-1.77-7.003-1.432-8.495 2.795-.53 1.502-.626 3.05-.356 4.609.373 2.159 1.381 3.89 3.53 4.7.664.25 1.4.369 2.113.417 1.929.133 3.657-.468 5.199-1.614.104-.078.206-.256.194-.377-.046-.459-.138-.914-.22-1.417-.17.125-.28.21-.394.29-1.36.97-2.816 1.615-4.543 1.584-2.964-.052-4.228-2.567-4.085-5.099h9.384zm-5.822-5.44c2.585-.165 3.794 1.905 3.86 4.007h-7.328c.029-2.158 1.565-3.884 3.468-4.006zm-11.65-1.22c-.842-.181-1.752-.192-2.612-.098-1.292.14-2.305.949-3.33 1.68-.145.104-.285.214-.48.36-.098-.58-.17-1.075-.273-1.564-.026-.123-.147-.311-.239-.32-.382-.036-.77-.015-1.15-.015v12.986h1.766v-.53c0-2.817-.003-5.634.005-8.451 0-.176.02-.417.131-.517.997-.902 2.05-1.727 3.407-2.017 2.23-.476 3.447.51 3.448 2.779V19.708h1.764c.022-.062.041-.09.041-.118 0-3.226.034-6.453-.015-9.678-.025-1.642-.992-2.92-2.464-3.236zm30.297.031c-.427-.042-.626.105-.776.518-1.186 3.264-2.399 6.519-3.604 9.776-.063.17-.135.338-.233.586-.197-.51-.362-.933-.523-1.357-1.172-3.085-2.342-6.17-3.516-9.255-.073-.194-.096-.446-.428-.374-.504.11-1.014.195-1.55.297.071.185.124.33.181.475 1.595 4.016 3.19 8.032 4.78 12.051.064.164.14.383.083.526-.27.686-.554 1.37-.893 2.025-.36.694-.972 1.055-1.761 1.08-.405.013-.81.003-1.277.003.077.467.138.913.231 1.352.02.088.156.206.247.214 1.513.135 2.837-.125 3.777-1.578a8.924 8.924 0 00.785-1.554c1.296-3.273 2.572-6.553 3.853-9.832.634-1.622 1.264-3.245 1.926-4.944-.485 0-.897.03-1.302-.009zM54.783 18.322c-1.115-.047-1.633-.57-1.685-1.675-.005-.11-.005-.22-.005-.33V8.257h3.372l-.217-1.556h-3.165V1.92c-.465.082-.863.195-1.265.211-.459.018-.525.244-.511.632.025.708.007 1.417.007 2.125v1.842h-2.066v1.532c.536 0 1.053.023 1.566-.007.385-.022.516.093.509.496-.024 1.369-.01 2.739-.009 4.108.002 1.448-.023 2.897.017 4.344.038 1.402.792 2.372 2.095 2.588.81.134 1.656.074 2.486.073.238 0 .475-.096.731-.152l-.23-1.386c-.571 0-1.101.019-1.63-.003zm-10.741 1.376h1.744V6.744h-1.744v12.954zm.87-18.682c-.765 0-1.338.548-1.338 1.28s.572 1.296 1.322 1.302c.755.006 1.325-.545 1.331-1.287.007-.745-.551-1.295-1.316-1.295z"/></g><defs><clipPath id="clip0"><path d="M0 0h100v24.655H0V0z"/></clipPath></defs></svg>