<svg xmlns="http://www.w3.org/2000/svg" width="100" height="29" viewBox="0 0 100 29" preserveAspectRatio="xMidYMin meet"><path d="M11.103 13.409c.748.13 1.456.223 2.149.383.634.145 1.107.528 1.121 1.224.027 1.322-.01 2.645.009 3.967.007.512-.266.773-.677.985-1.496.77-3.076.972-4.7.584-2.696-.644-4.111-2.582-4.931-5.049-.61-1.836-.7-3.74-.527-5.647.167-1.836.599-3.6 1.66-5.165 1.882-2.777 5.695-3.462 8.238-1.446.985.78 1.569 1.844 2.005 2.99.27.708.49 1.434.726 2.13h1.004v-7.04c-.455.035-.863-.04-1.136.118-.272.158-.409.548-.61.845-1.387-.75-2.801-1.251-4.353-1.342-3.6-.21-6.621.93-8.843 3.818C.107 7.534-.382 10.7.268 14.051c.937 4.838 4.933 8.006 9.882 7.921 2.382-.04 4.625-.672 6.812-1.559.311-.126.398-.293.388-.627-.044-1.455-.067-2.91-.068-4.366-.001-1.073.381-1.525 1.427-1.761.397-.09.8-.155 1.208-.233v-.947h-8.814v.93zm61.934 5.65c-1.657-.187-3.333-.208-5-.326a3.87 3.87 0 01-1.088-.25c-.465-.177-.684-.557-.672-1.06.017-.657.617-1.171 1.368-1.209.953-.047 1.933-.001 2.851-.213 2.852-.66 4.31-3.428 3.2-5.938-.168-.377-.41-.722-.671-1.176h3.273V7.614c-.089-.025-.142-.053-.195-.052-2.38.022-4.741-.079-7.113-.402-1.726-.235-3.334.394-4.519 1.8-1.328 1.575-1.524 4.702 1.29 6.284.234.133.46.281.801.49-1.213.638-2.36 1.242-2.281 2.726.079 1.506 1.342 1.902 2.51 2.358l-.046.14c-.246.038-.492.073-.738.115-1.306.223-2.498.665-3.067 1.975-.733 1.688.19 3.541 2.074 4.187 2.184.75 4.43.736 6.675.363 1.428-.237 2.765-.746 3.742-1.882 1.052-1.222 1.302-2.646.772-4.141-.517-1.457-1.63-2.344-3.166-2.517zM66.74 9.375c.337-.85 1.057-1.24 1.953-1.264.862-.023 1.568.302 2.04 1.054.507.806.637 1.699.637 2.624l.157.053c-.253.766-.411 1.582-.778 2.29-.762 1.467-2.907 1.494-3.762.078-.942-1.558-.895-3.197-.247-4.835zm7.271 15.026c-.24.9-.807 1.518-1.652 1.848-1.835.715-3.698.717-5.538.02-.99-.374-1.61-1.088-1.602-2.199.007-1.086.507-1.88 1.505-2.353.806-.383 1.388-.454 3.249-.377.673.034 1.35.04 2.02.106 1.74.17 2.47 1.266 2.018 2.955zm25.91-4.012c-.199-.01-.402-.022-.605-.03-1.293-.055-1.732-.51-1.726-1.813.005-1.213.028-2.426.033-3.64.006-1.361.066-2.727-.017-4.084-.126-2.052-1.31-3.314-3.357-3.584-.902-.12-1.846-.143-2.745-.022-1.403.188-2.668.754-3.582 1.905-.508.642-.614 1.35-.282 2.101.295.67.835.883 1.695.701.764-.162 1.208-.637 1.174-1.338-.02-.424-.165-.842-.188-1.267-.013-.226.037-.559.189-.674 1.558-1.186 3.79-.453 4.3 1.424.153.566.103 1.184.199 1.77.098.602-.184.873-.715 1.05-1.314.44-2.628.884-3.922 1.378-.73.279-1.477.58-2.115 1.017-1.297.887-1.632 2.23-1.441 3.709.164 1.274.907 2.148 2.102 2.618 1.02.401 2.068.29 3.102.054 1.196-.273 2.091-1.044 2.946-1.864.04.044.07.068.088.1a.771.771 0 01.064.154c.322 1.111 1.084 1.694 2.226 1.694.645 0 1.291-.15 1.936-.24.624-.087.859-.433.642-1.119zm-4.997-1.902c0 .104-.038.23-.104.306-.888 1.023-1.962 1.697-3.442 1.473-1.326-.201-1.995-1.308-1.724-2.773.165-.892.655-1.572 1.384-2.091 1.177-.839 2.544-1.218 3.89-1.622 0 1.62.003 3.164-.004 4.707zM42.375 7.103c-2.854-.09-5.44 1.534-6.458 4.171-.839 2.174-.867 4.38.026 6.55 1.98 4.811 7.978 5.189 10.906 2.309 1.62-1.594 2.186-3.6 2.215-5.158.007-2.118-.302-3.502-.9-4.522-1.289-2.204-3.242-3.269-5.79-3.35zm3.692 8.692c-.09 1.102-.328 2.173-.868 3.158-.65 1.184-1.586 1.919-3 1.912-1.436-.007-2.383-.76-3.022-1.972-.745-1.412-.875-2.95-.931-4.521.062-1.403.166-2.81.815-4.12.806-1.627 2.403-2.406 4.15-1.94.984.262 1.645.956 2.07 1.847.854 1.791.945 3.702.786 5.636zm-13.982 2.796c-1.449 1.96-4.139 2.382-6.076.881-1.753-1.358-1.921-3.34-2.004-5.412h9.4c-.054-.834-.052-1.563-.158-2.276-.275-1.86-1.099-3.395-2.93-4.14-.73-.296-1.55-.436-2.342-.497-2.075-.159-3.8.615-5.084 2.23-1.689 2.125-2.006 4.567-1.483 7.157.417 2.063 1.433 3.707 3.385 4.683 1.199.599 2.48.752 3.782.627 2.372-.226 3.97-1.574 5.119-3.61l-.96-.589c-.23.336-.43.649-.65.946zm-6.072-9.989c1.57-.993 3.505-.366 4.082 1.384.297.901.38 1.872.57 2.872h-6.659c.128-1.711.456-3.274 2.007-4.256zm34.075-1.415c-.877-.049-1.678.22-2.378.718-.628.447-1.202.968-1.854 1.5v-.903c0-1.15 0-1.15-1.119-1.099-.131.006-.263.007-.394.016l-3.349.24v.856c.14.035.263.077.39.096 1.29.194 1.83.807 1.831 2.098.003 2.78.004 5.56 0 8.34-.001.964-.358 1.355-1.314 1.472-.857.105-.864.113-.675.973h7.283c.117-.893.116-.89-.742-.98-.186-.018-.37-.057-.554-.093-1.054-.21-1.354-.567-1.355-1.644-.004-2.5-.004-5 .002-7.5 0-.201-.008-.446.096-.595.721-1.022 1.642-1.757 2.986-1.932-.035.362-.079.671-.093.981-.029.616.279 1.05.835 1.26.578.218 1.181.268 1.694-.185.503-.444.7-1.576.424-2.31-.297-.79-.85-1.261-1.714-1.31zM82.823 18.66v-2.854c0-2.611-.002-5.223 0-7.834 0-.333.02-.655-.477-.621-1.533.104-3.067.197-4.655.299v.863c.465.115.91.193 1.33.337.688.233 1.117.748 1.124 1.459.028 3.003.021 6.006.006 9.01-.003.658-.301.979-.957 1.132-.342.08-.695.113-1.06.17v.87h6.73v-.886c-.185-.032-.367-.059-.547-.098-1.193-.256-1.493-.628-1.494-1.847zM81.272 3.804c.966.015 1.811-.9 1.818-1.968.007-1.06-.775-1.843-1.835-1.836-.998.006-1.792.852-1.793 1.908 0 1.038.804 1.881 1.81 1.896z"/></svg>