<svg xmlns="http://www.w3.org/2000/svg" width="74" height="15" viewBox="0 0 74 15" preserveAspectRatio="xMidYMin meet"><path d="M0 9.77h.88c.272.566.586 1.111.94 1.63.284.412.62.785 1 1.11.33.28.71.493 1.12.63.417.135.852.203 1.29.2a2.691 2.691 0 001.84-.61c.489-.445.747-1.09.7-1.75a2 2 0 00-.26-1.08 2.185 2.185 0 00-.72-.73 4.157 4.157 0 00-1.1-.5c-.42-.14-.89-.28-1.39-.41a14.758 14.758 0 01-1.51-.46 5.358 5.358 0 01-1.33-.67 3.23 3.23 0 01-.94-1 3.085 3.085 0 01-.36-1.57c-.006-.488.09-.97.28-1.42.18-.44.449-.838.79-1.17a3.746 3.746 0 011.24-.78 4.62 4.62 0 013.47.1 4.261 4.261 0 011.44 1.05L7.77.98h1v4.23h-.89a8.129 8.129 0 00-.81-1.57 5.282 5.282 0 00-.93-1 3.112 3.112 0 00-1-.56 3.362 3.362 0 00-1.09-.17 2.648 2.648 0 00-.9.14 1.995 1.995 0 00-.72.43 2.149 2.149 0 00-.48.69 2.279 2.279 0 00-.18.94 2 2 0 00.27 1.11c.183.294.433.541.73.72.337.207.7.368 1.08.48l1.3.36c.55.15 1.08.3 1.59.46.478.148.933.364 1.35.64.386.256.708.6.94 1 .248.478.369 1.012.35 1.55a3.77 3.77 0 01-.31 1.55 3.567 3.567 0 01-.85 1.24 4.001 4.001 0 01-1.31.82 4.602 4.602 0 01-1.65.29 5.323 5.323 0 01-2.15-.41 4.867 4.867 0 01-1.65-1.17l-.45 1.53H.06L0 9.77zM13.03 9.49c-.05.97.24 1.93.82 2.71a2.64 2.64 0 002.09.9 2.943 2.943 0 001.52-.39 2.782 2.782 0 001.04-1.4h.82a3.67 3.67 0 01-3.78 2.86 4.565 4.565 0 01-1.78-.34 3.775 3.775 0 01-1.35-1 4.123 4.123 0 01-.85-1.47 5.667 5.667 0 01-.3-1.88 5.472 5.472 0 01.33-1.93c.21-.562.522-1.081.92-1.53a4.36 4.36 0 011.38-1 4.102 4.102 0 011.71-.37c.6-.014 1.194.13 1.72.42.478.268.885.645 1.19 1.1.321.467.555.989.69 1.54.143.586.21 1.187.2 1.79l-6.37-.01zm2.55-4a2.17 2.17 0 00-1.71.77 4.003 4.003 0 00-.82 2.3h4.77a4.73 4.73 0 00-.66-2.26 1.78 1.78 0 00-1.58-.77v-.04zM21.25 12.92h1.52V5.87h-1.52V4.82h3v2.36a5.756 5.756 0 011.7-2 3.26 3.26 0 011.77-.56 2.309 2.309 0 011.83.75 3.14 3.14 0 01.66 2.15v5.36h1.51v1h-4.47v-1h1.41V8.31c.006-.38-.035-.76-.12-1.13a1.49 1.49 0 00-1.58-1.19 2.078 2.078 0 00-1 .25 3.176 3.176 0 00-1.46 1.67 2.7 2.7 0 00-.23 1.07v4h1.41v1h-4.47l.04-1.06zM35.89 2.23v2.65h3v1h-3v5.78c-.015.353.079.702.27 1 .216.264.551.4.89.36.336.005.658-.138.88-.39.29-.365.507-.783.64-1.23l.74.29a3.577 3.577 0 01-1.07 1.88 2.538 2.538 0 01-1.6.55 2.158 2.158 0 01-1.72-.66 2.664 2.664 0 01-.58-1.83V5.84H32.5v-1h1.85V2.39l1.54-.16zM40.57 12.92h1.71V5.87h-1.71V4.82h3.26v8.1h1.72v1h-5l.02-1zm2.37-10.17a1.082 1.082 0 01-.81-.31 1.14 1.14 0 01-.32-.84c-.01-.31.102-.61.31-.84a1.06 1.06 0 01.82-.33c.299-.005.587.11.8.32.216.221.33.521.32.83a1.17 1.17 0 01-.31.85 1.061 1.061 0 01-.81.32zM46.98 12.92h1.52V5.87h-1.51V4.82h3v2.36a5.756 5.756 0 011.7-2 3.26 3.26 0 011.77-.56 2.309 2.309 0 011.83.75 3.14 3.14 0 01.66 2.15v5.36h1.55v1h-4.46v-1h1.4V8.31c.006-.38-.035-.76-.12-1.13a1.627 1.627 0 00-.4-.76 1.59 1.59 0 00-1.18-.43 2.01 2.01 0 00-1 .25c-.324.17-.615.397-.86.67a3.335 3.335 0 00-.61 1c-.145.338-.22.702-.22 1.07v4h1.4v1h-4.46l-.01-1.06zM60.69 9.49a4.169 4.169 0 00.83 2.71 2.62 2.62 0 002.08.9 2.943 2.943 0 001.52-.39 2.68 2.68 0 001.08-1.4h.83a3.67 3.67 0 01-3.79 2.86 4.583 4.583 0 01-1.78-.34 3.775 3.775 0 01-1.35-1 4.265 4.265 0 01-.85-1.47 5.667 5.667 0 01-.3-1.88 5.455 5.455 0 01.34-1.93 4.697 4.697 0 01.92-1.53c.384-.423.85-.763 1.37-1a4.102 4.102 0 011.71-.37 3.422 3.422 0 012.92 1.52c.318.468.548.99.68 1.54.148.585.215 1.187.2 1.79l-6.41-.01zm2.55-4a2.152 2.152 0 00-1.7.77 4 4 0 00-.83 2.3h4.79a4.737 4.737 0 00-.65-2.26 1.81 1.81 0 00-1.61-.77v-.04zM68.59 12.92h1.73V1.08h-1.73V0h3.28v12.92h1.73v1h-5l-.01-1z"/></svg>