<svg xmlns="http://www.w3.org/2000/svg" width="100" height="23" viewBox="0 0 100 23" preserveAspectRatio="xMidYMin meet"><g clip-path="url(#clip0)"><path d="M16.43.513c-1.602 4.252-3.202 8.505-4.814 12.753-.066.171-.246.299-.373.447-.114-.142-.276-.266-.337-.428C9.296 9.003 7.694 4.717 6.1.429 5.99.127 5.861-.004 5.516 0 3.813.02 2.11.01.406.01.273.01.139.03 0 .039v.603c.66.15 1.304.307 1.953.437.284.057.412.159.411.48-.01 4.552-.01 9.104-.001 13.655 0 .288-.104.407-.37.48-.67.18-1.332.388-1.984.582v.609h5.778c.175-.495-.052-.675-.47-.77-.466-.107-.915-.294-1.383-.387-.392-.078-.463-.276-.462-.641.012-4.474.008-8.949.008-13.423V1.21l.158-.078c.11.156.255.298.323.47 1.952 4.93 3.897 9.862 5.837 14.796.123.313.196.572.653.543.402-.025.608-.103.771-.513 1.958-4.927 3.943-9.843 5.92-14.762.046-.115.07-.245.143-.34.054-.07.165-.116.257-.128.029-.003.092.134.11.214.02.089.006.185.006.278v14.124l-2.933.469v.604h8.181v-.604l-2.877-.467c-.014-.116-.027-.176-.027-.236-.002-4.707 0-9.413-.009-14.12 0-.305.12-.39.4-.429.838-.114 1.673-.257 2.514-.39V.035h-6.285c-.066.163-.131.319-.191.478zM72.619 15.52V5.118c0-.124.002-.247-.001-.371-.008-.278-.137-.394-.42-.322-1.107.283-2.217.56-3.323.85-.096.025-.171.134-.256.204.079.08.143.193.239.235.466.206.951.372 1.407.598.138.068.288.281.289.429.017 2.492.015 4.984.006 7.476 0 .133-.063.328-.162.39-1.067.672-2.153 1.285-3.497 1.132-.938-.107-1.633-.612-1.885-1.532a5.956 5.956 0 01-.204-1.509c-.02-2.523-.009-5.046-.009-7.569v-.325c-.002-.318-.141-.459-.468-.374-1.093.282-2.186.56-3.277.848-.089.023-.161.11-.241.169.069.086.12.212.21.253.435.2.874.393 1.324.555.283.102.359.266.357.554-.01 2.12-.009 4.241-.002 6.362 0 .37.023.743.07 1.11.19 1.528 1.088 2.656 2.421 2.957 1.124.252 2.23.132 3.21-.514.644-.424 1.232-.933 1.85-1.396.114-.086.253-.139.38-.207.024.153.075.308.066.46-.026.416-.084.83-.116 1.247-.033.436.083.532.512.426 1.035-.256 2.065-.536 3.105-.771.357-.081.419-.244.31-.567l-1.895-.395zm-37.335-5.407c-.04-.42-.06-.774-.111-1.123-.35-2.411-1.87-4.45-4.551-4.578-1.768-.084-3.28.51-4.428 1.831-1.766 2.033-2.127 4.425-1.44 6.966.813 3.006 3.75 4.704 6.775 3.99 1.292-.306 2.29-1.117 3.289-1.933.323-.264.398-.52.122-.86-.394.205-.79.408-1.183.618-1.124.598-2.315.723-3.56.54-1.397-.206-2.403-.929-2.986-2.217-.46-1.02-.572-2.093-.512-3.234h8.585zm-6.409-4.682c1.107-.527 2.7-.364 3.398 1.101.394.825.526 1.698.584 2.65l-6.092.16c-.002-1.795.906-3.339 2.11-3.911zm71.074-.564H95.07c-.148.381.003.55.343.665.534.182 1.052.41 1.594.626l-2.885 8.25-.144-.011-3.213-8.458c.445-.157.83-.32 1.228-.426.362-.097.481-.279.347-.645h-5.632c-.137.372.016.533.343.623.327.09.656.193.96.34.175.083.37.237.441.407 1.481 3.52 2.947 7.045 4.408 10.572.053.128.081.314.028.43a78.17 78.17 0 01-1.416 2.968c-.162.316-.436.574-.645.842-.344-.328-.62-.623-.93-.877-.446-.366-1.222-.407-1.704-.123a1.237 1.237 0 00-.613 1.298c.092.572.54 1.049 1.167 1.176 1.117.228 2.096-.093 2.762-1a11.53 11.53 0 001.34-2.369c1.575-3.78 3.14-7.567 4.617-11.387.43-1.112.969-1.952 2.161-2.255.333-.085.452-.29.32-.646zm-41.393 9.997c-.991.523-2.02.924-3.167.952-1.95.047-3.612-.955-4.3-2.717-.728-1.869-.603-3.737.261-5.535.58-1.206 1.534-2.008 2.862-2.302.695-.154 1.393-.147 1.965.042-.102.596-.268 1.133-.27 1.67 0 .776.674 1.388 1.404 1.393.806.005 1.431-.59 1.487-1.414.045-.645-.179-1.18-.653-1.617-.634-.585-1.411-.818-2.242-.89-2.446-.214-4.528.487-6.053 2.496-1.058 1.394-1.41 3.006-1.328 4.723.083 1.762.688 3.318 2.09 4.436 2.566 2.045 6.431 1.535 8.465-1.069-.093-.3-.257-.307-.52-.168zM84.737 4.488c-.913-.215-1.787-.065-2.486.55-.562.494-1.007 1.12-1.511 1.681-.08.09-.2.146-.302.217-.036-.12-.11-.245-.102-.362.043-.586.11-1.17.165-1.755.028-.312-.072-.48-.427-.387-1.076.28-2.156.547-3.23.837-.116.03-.277.174-.28.27-.005.108.124.268.235.324.413.208.835.405 1.27.564.313.115.403.291.402.619-.013 2.8-.008 5.6-.008 8.402v.432l-1.92.503v.512h5.993v-.513l-1.997-.501v-.579c0-2.135.049-4.272-.024-6.405-.03-.885.292-1.524.873-2.09.318-.309.678-.584 1.053-.823.208-.132.485-.157.797-.25 0 .242-.013.38.002.513.062.547.233 1.033.801 1.255.506.198 1.162.058 1.506-.308.83-.883.37-2.428-.81-2.706zm-39.048-.005c-.915-.206-1.787-.054-2.484.566-.559.497-1.005 1.122-1.506 1.686-.074.083-.177.14-.267.209-.043-.116-.13-.236-.122-.348.04-.587.103-1.171.16-1.756.035-.345-.077-.5-.45-.401-1.077.283-2.157.549-3.232.836-.105.028-.261.162-.257.239a.47.47 0 00.21.339c.413.21.837.404 1.27.564.324.12.434.297.431.649-.016 2.43-.007 4.86-.01 7.29 0 .493.166 1.136-.08 1.44-.26.324-.911.359-1.404.46-.384.078-.552.226-.41.638h5.97v-.51l-1.974-.496c-.011-.104-.027-.18-.027-.256-.001-2.477-.003-4.953.004-7.43 0-.146.024-.332.113-.434.485-.554.964-1.12 1.51-1.613.251-.227.648-.292 1.075-.471 0 .318-.017.473.003.622.075.549.268 1.041.854 1.211.532.154 1.053.1 1.457-.335.822-.885.343-2.434-.834-2.699z"/></g><defs><clipPath id="clip0"><path d="M0 0h100v22.596H0V0z"/></clipPath></defs></svg>