<svg xmlns="http://www.w3.org/2000/svg" viewBox="0 0 15 17" preserveAspectRatio="xMidYMin meet"><path d="M.885 12.355a7.5 7.5 0 0 1 6-11.01.58.58 0 0 1 .615.59h-.568l.052.629-.1.017a6.27 6.27 0 1 0 5.461 2.263c-.216-.263-.218-.652.023-.892a.58.58 0 0 1 .852.017l.18.22A7.5 7.5 0 1 1 .885 12.356M7.5 1.935l-.013.125a.67.67 0 0 1-.503.504l-.052-.628z"/><path d="M9.387 1.989a.1.1 0 0 1 0 .162L6.658 4.12a.1.1 0 0 1-.158-.082V.1a.1.1 0 0 1 .158-.08zM9.785 11.58c-1.251 0-2.014-.988-2.014-2.584 0-1.593.77-2.57 2.014-2.57s2.01.974 2.01 2.567c0 1.592-.76 2.587-2.01 2.587m0-.827c.608 0 .96-.626.96-1.757 0-1.124-.355-1.743-.96-1.743-.602 0-.964.622-.964 1.743 0 1.131.355 1.757.964 1.757M5.28 11.58c-.94 0-1.518-.407-1.75-.893a.74.74 0 0 1-.079-.324c0-.267.171-.434.455-.434.205 0 .335.082.437.27.175.345.441.55.954.55.506 0 .854-.294.854-.704.004-.479-.348-.745-.946-.745h-.216c-.25 0-.393-.147-.393-.37 0-.215.144-.365.393-.365h.202c.516 0 .851-.28.851-.684 0-.396-.267-.66-.766-.66-.417 0-.67.175-.83.524-.113.232-.233.317-.465.317-.287 0-.434-.167-.434-.416a.8.8 0 0 1 .075-.332c.219-.482.78-.885 1.651-.885 1.042 0 1.747.516 1.747 1.305 0 .626-.448 1.036-1.03 1.156v.02c.736.069 1.21.5 1.21 1.18 0 .895-.775 1.49-1.92 1.49"/></svg>