<svg xmlns="http://www.w3.org/2000/svg" preserveAspectRatio="xMidYMin meet" viewBox="0 0 16 16"><g clip-path="url(#clip0_4136_853)"><path d="M12.5 9a3.5 3.5 0 1 1 0 7h-9c1.19 0 2.24-.593 2.872-1.5H12.5a2 2 0 1 0 0-4H7V9zM7.707 3.344a3.5 3.5 0 0 1 4.95 4.95L11.95 9H9.83l1.767-1.768a2 2 0 0 0-2.83-2.828L7 6.173V4.05z"/><path d="M5.5 12.5v-9a2 2 0 1 0-4 0v9a2 2 0 0 0 2 2V16A3.5 3.5 0 0 1 0 12.5v-9a3.5 3.5 0 1 1 7 0v9A3.5 3.5 0 0 1 3.5 16v-1.5a2 2 0 0 0 2-2"/><path d="M4.5 12.5a1 1 0 1 1-2 0 1 1 0 0 1 2 0"/></g><defs><clipPath id="clip0_4136_853"><path d="M0 0h16v16H0z"/></clipPath></defs></svg>