<svg xmlns="http://www.w3.org/2000/svg" viewBox="0 0 18.24 18.24"><title>icon-link</title><g id="fc728077-16c2-4d4c-ba62-e5fafa5ba760" data-name="Layer 2"><g id="3225f0ab-5f85-4c43-984a-f8e928422231" data-name="Icon: New"><path d="M16.19,2.05a7,7,0,0,0-9.9,0l-.71.7A1,1,0,0,0,7,4.17l.7-.71a5,5,0,0,1,7.07,7.07l-.7.71a1,1,0,0,0,1.41,1.41l.71-.7A7,7,0,0,0,16.19,2.05Z"/><path d="M12.65,14.07a1,1,0,0,0-1.41,0l-.71.7A5,5,0,0,1,3.46,7.7L4.17,7A1,1,0,0,0,2.75,5.58l-.7.71a7,7,0,0,0,9.9,9.9l.7-.71A1,1,0,0,0,12.65,14.07Z"/><path d="M7,12.65,12.65,7a1,1,0,0,0,0-1.42,1,1,0,0,0-1.41,0L5.58,11.24a1,1,0,0,0,0,1.41A1,1,0,0,0,7,12.65Z"/></g></g></svg>