<svg xmlns="http://www.w3.org/2000/svg" viewBox="0 0 24.999 20.316" preserveAspectRatio="xMidYMin meet"><path d="M24.999 2.404c-.92.408-1.908.684-2.945.808A5.14 5.14 0 0024.308.375a10.252 10.252 0 01-3.256 1.245 5.13 5.13 0 00-8.74 4.678A14.56 14.56 0 011.74.939a5.097 5.097 0 00-.695 2.578c0 1.78.906 3.35 2.282 4.269a5.102 5.102 0 01-2.323-.641v.064a5.132 5.132 0 004.114 5.029 5.14 5.14 0 01-2.316.088 5.134 5.134 0 004.792 3.562 10.296 10.296 0 01-6.37 2.195c-.414 0-.822-.025-1.224-.072a14.52 14.52 0 007.862 2.305c9.435 0 14.593-7.814 14.593-14.593 0-.223-.004-.444-.014-.664a10.433 10.433 0 002.558-2.655z"/></svg>