<svg xmlns="http://www.w3.org/2000/svg" width="16" height="16" viewBox="0 0 16 16" preserveAspectRatio="xMidYMin meet"><path d="M.328 0h15.235v16H.328V0z"/><path d="M5.406 8h1.016v5H5.406V8z"/><path fill-rule="evenodd" d="M5.406 8v5h1.016V8H5.406z" clip-rule="evenodd"/><path d="M4.39 8h1.016v1H4.391V8z"/><path fill-rule="evenodd" d="M4.39 8v1h1.016V8H4.391z" clip-rule="evenodd"/><path d="M4.39 12h3.048v1H4.39v-1z"/><path fill-rule="evenodd" d="M4.39 12v1h3.048v-1H4.39z" clip-rule="evenodd"/><path d="M9.469 8h1.015v5H9.47V8z"/><path fill-rule="evenodd" d="M9.469 8v5h1.015V8H9.47z" clip-rule="evenodd"/><path d="M8.453 8H9.47v1H8.453V8z"/><path fill-rule="evenodd" d="M8.453 8v1H9.47V8H8.453z" clip-rule="evenodd"/><path d="M8.453 12H11.5v1H8.453v-1z"/><path fill-rule="evenodd" d="M8.453 12v1H11.5v-1H8.453z" clip-rule="evenodd"/><path d="M4.39.508a.508.508 0 1 1 1.016 0v1.984a.508.508 0 1 1-1.016 0V.508z"/><path fill-rule="evenodd" d="M4.898 0a.508.508 0 0 0-.507.508v1.984a.508.508 0 0 0 1.015 0V.508A.508.508 0 0 0 4.898 0z" clip-rule="evenodd"/><path d="M10.484.508a.508.508 0 1 1 1.016 0v1.984a.508.508 0 1 1-1.016 0V.508z"/><path fill-rule="evenodd" d="M10.992 0a.508.508 0 0 0-.508.508v1.984a.508.508 0 1 0 1.016 0V.508A.508.508 0 0 0 10.992 0z" clip-rule="evenodd"/><path fill-rule="evenodd" d="M13.328 2h-11a1 1 0 0 0-1 1v11a1 1 0 0 0 1 1h11a1 1 0 0 0 1-1V3a1 1 0 0 0-1-1zm-11-1a2 2 0 0 0-2 2v11a2 2 0 0 0 2 2h11a2 2 0 0 0 2-2V3a2 2 0 0 0-2-2h-11z" clip-rule="evenodd"/><path fill-rule="evenodd" d="M14.328 6h-14V5h14v1z" clip-rule="evenodd"/></svg>