<svg xmlns="http://www.w3.org/2000/svg" viewBox="0 0 17 19" preserveAspectRatio="xMidYMin meet"><path d="M8.762 3.006a5.5 5.5 0 0 1 3.105 1.145l.176.142a5.5 5.5 0 0 1 1.772 2.794l.054.22a5.5 5.5 0 0 1-.205 3.087l-.082.21a5.5 5.5 0 0 1-2.32 2.653l-.069.035a.75.75 0 0 1-.684-1.333l.276-.176a4 4 0 0 0 1.411-1.753l.113-.308a4 4 0 0 0 .128-1.929l-.07-.32a4 4 0 0 0-1.168-1.925l-.25-.211a4 4 0 0 0-2.096-.821L8.526 4.5a4 4 0 0 0-2.164.62l-.27.186A4 4 0 0 0 4.75 7.11l-.102.312a4 4 0 0 0 .137 2.56l.134.3a4 4 0 0 0 1.254 1.471l.274.18.065.043a.75.75 0 0 1-.767 1.28l-.067-.036-.192-.12a5.5 5.5 0 0 1-2.006-2.355l-.087-.208a5.5 5.5 0 0 1-.189-3.518l.066-.217A5.5 5.5 0 0 1 5.19 4.108l.183-.132A5.5 5.5 0 0 1 8.536 3z"/><path d="M8.893.009a8.5 8.5 0 0 1 5.065 1.975l.28.246a8.5 8.5 0 0 1 2.627 4.76l.058.367a8.5 8.5 0 0 1-5.432 9.1.75.75 0 1 1-.527-1.405 7 7 0 0 0 4.473-7.493l-.048-.303a7 7 0 0 0-2.163-3.92l-.23-.202a7 7 0 0 0-4.173-1.626L8.517 1.5A7 7 0 0 0 4.27 2.922l-.24.19a7 7 0 0 0-2.351 3.81l-.063.302a7 7 0 0 0 .779 4.702l.156.264a7 7 0 0 0 3.453 2.85.75.75 0 0 1-.534 1.401 8.5 8.5 0 0 1-4.194-3.46l-.19-.32a8.5 8.5 0 0 1-.944-5.712l.076-.364a8.5 8.5 0 0 1 2.854-4.627l.292-.231A8.5 8.5 0 0 1 8.521 0z"/><path d="M9.25 8.5a.75.75 0 1 0-.75.75v1.5a2.25 2.25 0 1 1 0-4.5 2.25 2.25 0 0 1 0 4.5v-1.5a.75.75 0 0 0 .75-.75"/><path d="M7.75 17.75V10a.75.75 0 0 1 1.5 0v7.75a.75.75 0 0 1-1.5 0"/></svg>