<svg xmlns="http://www.w3.org/2000/svg" viewBox="0 0 13 16" preserveAspectRatio="xMidYMin meet"><path fill-rule="evenodd" d="M6 8a2 2 0 10.001-3.999A2 2 0 006 8zm0 1a3 3 0 100-6 3 3 0 000 6z" clip-rule="evenodd"/><path fill-rule="evenodd" d="M10.173 8.503C10.721 7.439 11 6.578 11 6A5 5 0 001 6c0 .578.279 1.439.827 2.503.531 1.032 1.25 2.133 1.985 3.156a48.561 48.561 0 002.021 2.606l.167.202.168-.201a49.38 49.38 0 002.021-2.606c.735-1.024 1.453-2.126 1.984-3.157zm-3.514 6.733C8.218 13.388 12 8.631 12 6A6 6 0 100 6c0 2.631 3.782 7.388 5.341 9.236.404.48.659.764.659.764s.255-.284.659-.764z" clip-rule="evenodd"/></svg>