<svg xmlns="http://www.w3.org/2000/svg" width="48" height="48"><path d="M17.973 29.845v-.321c.446-.051.781-.219 1.004-.504.223-.286.606-1.067 1.148-2.345l3.617-8.52h.346l4.326 9.842c.288.651.519 1.056.69 1.21s.463.26.869.316v.321h-4.415v-.321c.507-.046.835-.101.981-.166.146-.064.221-.223.221-.476a2.08 2.08 0 0 0-.086-.447 4.885 4.885 0 0 0-.236-.675l-.695-1.67h-4.575a85.484 85.484 0 0 0-.808 2.079c-.087.25-.131.448-.131.595 0 .293.119.495.356.607.146.067.423.118.829.152v.321h-3.441zm7.476-4.458l-1.989-4.782-1.999 4.782h3.988z"/></svg>