<svg xmlns="http://www.w3.org/2000/svg" viewBox="0 0 12 11.69" preserveAspectRatio="xMidYMin meet"><path d="M11.131 11.052c-.171-.154-.402-.559-.69-1.21L6.115 0h-.346L2.152 8.52c-.542 1.278-.925 2.059-1.148 2.345-.223.285-.558.453-1.004.504v.319h3.441v-.321c-.406-.034-.683-.085-.829-.152-.237-.112-.356-.314-.356-.607 0-.147.044-.345.131-.595.088-.25.357-.943.808-2.079H7.77l.695 1.67c.101.237.18.461.236.675.057.214.086.362.086.447 0 .253-.075.412-.221.476-.146.065-.474.12-.981.166v.321H12v-.321c-.406-.056-.698-.162-.869-.316zm-7.643-3.82L5.487 2.45l1.989 4.782H3.488z"/></svg>