<svg xmlns="http://www.w3.org/2000/svg" viewBox="0 0 13 15" preserveAspectRatio="xMidYMin meet"><path d="M1.5 11.75a1.5 1.5 0 0 0 1.5 1.5h7a1.5 1.5 0 0 0 1.5-1.5v-3H13v3a3 3 0 0 1-3 3H3a3 3 0 0 1-3-3v-3h1.5zM11.5 7.75a.75.75 0 0 1 1.5 0v1h-1.5zM0 7.75a.75.75 0 0 1 1.5 0v1H0z"/><path d="M5.75 9.25V.75a.75.75 0 0 1 1.5 0v8.5a.75.75 0 0 1-1.5 0"/><path d="M5.97.22A.75.75 0 0 1 6.974.168L7.03.22l3 3 .052.056a.75.75 0 0 1-1.056 1.056L8.97 4.28l-3-3-.052-.056A.75.75 0 0 1 5.97.22"/><path d="M5.97.22a.75.75 0 1 1 1.06 1.06l-3 3a.75.75 0 1 1-1.06-1.06z"/></svg>