<svg xmlns="http://www.w3.org/2000/svg" width="25" height="24" viewBox="0 0 25 24" preserveAspectRatio="xMidYMin meet"> <path fill-rule="evenodd" d="M8.43 21.6a4.62 4.62 0 0 1-4.595-1.115 4.45 4.45 0 0 1-1.142-4.49 4.5 4.5 0 0 1 0-7.99 4.45 4.45 0 0 1 1.142-4.49 4.62 4.62 0 0 1 4.594-1.114A4.57 4.57 0 0 1 12.453 0a4.57 4.57 0 0 1 4.024 2.4 4.62 4.62 0 0 1 4.594 1.115 4.45 4.45 0 0 1 1.142 4.49 4.5 4.5 0 0 1 0 7.99 4.45 4.45 0 0 1-1.142 4.49 4.62 4.62 0 0 1-4.595 1.115 4.57 4.57 0 0 1-4.023 2.4 4.57 4.57 0 0 1-4.023-2.4z" clip-rule="evenodd" fill="#1DA1F2"/> <ellipse cx="8.454" cy="12" rx="1.079" ry="1" fill="white" /> <ellipse cx="11.69" cy="15" rx="1.079" ry="1" fill="white" /> <ellipse cx="17.085" cy="10" rx="1.079" ry="1" fill="white" /> <path fill-rule="evenodd" d="M10.928 15.707l-3.237-3 1.526-1.414 3.236 3-1.525 1.414z" clip-rule="evenodd" fill="white" /> <path fill-rule="evenodd" d="M10.928 14.293l5.394-5 1.525 1.414-5.394 5-1.525-1.414z" clip-rule="evenodd" fill="white" /> </svg>