<svg xmlns="http://www.w3.org/2000/svg" xmlns:xlink="http://www.w3.org/1999/xlink" viewBox="0 0 13 9.209" preserveAspectRatio="xMidYMin meet"><defs><path id="a" d="M0 0h13v9.209H0z"/></defs><clipPath id="b"><use overflow="visible" xlink:href="#a"/></clipPath><g clip-path="url(#b)"><path d="M12.854 6.148a.5.5 0 00-.707 0L11 7.295V1.502C11 .674 10.326 0 9.498 0H6.5a.504.504 0 00-.354.146.504.504 0 000 .708A.504.504 0 006.5 1h2.998c.276 0 .502.225.502.502v5.793L8.854 6.148a.501.501 0 00-.707.707l1.999 1.999.001.001.353.354.353-.353.001-.001 1.999-1.999A.492.492 0 0013 6.502a.506.506 0 00-.146-.354zM6.5 8.209H3.502A.503.503 0 013 7.707V1.914L4.146 3.06a.49.49 0 00.355.153.5.5 0 00.353-.859l-2-2-.001-.001L2.5 0l-.353.353-.001.001-2 2a.501.501 0 00.707.707L2 1.914v5.793c0 .828.674 1.502 1.502 1.502H6.5c.133 0 .26-.053.354-.146a.504.504 0 000-.708.504.504 0 00-.354-.146z"/></g></svg>