<svg xmlns="http://www.w3.org/2000/svg" preserveAspectRatio="xMidYMin meet" viewBox="0 0 8 8"><g clip-path="url(#clip0_3900_5036)"><path d="M3.5.5h1v7h-1z"/><path d="M4.5.5a.5.5 0 1 1-1 0 .5.5 0 0 1 1 0m0 7a.5.5 0 1 1-1 0 .5.5 0 0 1 1 0"/><path d="M3.647.147a.5.5 0 0 1 .629-.065l.078.065 3 3 .064.078a.5.5 0 0 1-.693.693l-.078-.064-3-3-.065-.078a.5.5 0 0 1 .065-.63"/><path d="M3.646.146a.5.5 0 1 1 .707.707l-3 3a.5.5 0 1 1-.707-.707z"/></g><defs><clipPath id="clip0_3900_5036"><path d="M0 0h8v8H0z"/></clipPath></defs></svg>