<svg xmlns="http://www.w3.org/2000/svg" width="16" height="16"><path d="M12.793 10.327c.048-.099.097-.196.138-.298.012-.023.018-.049.028-.072.03-.079.06-.158.086-.238.005-.013.01-.023.014-.038l.023-.063L16 8.889V7.111l-2.918-.73c-.009-.024-.019-.047-.027-.071a4.5 4.5 0 0 0-.096-.265c-.011-.025-.018-.05-.028-.075-.044-.107-.095-.208-.144-.312-.011-.02-.02-.04-.029-.06a.576.576 0 0 1-.021-.044l1.55-2.582-1.258-1.258-2.583 1.549a.301.301 0 0 1-.031-.016c-.03-.014-.059-.027-.086-.041-.1-.047-.195-.096-.298-.138-.025-.011-.053-.019-.077-.028a7.584 7.584 0 0 0-.227-.082l-.049-.018-.061-.022L8.889 0H7.111L6.38 2.919c-.019.007-.037.015-.057.021l-.048.017a5.468 5.468 0 0 0-.225.083c-.019.007-.039.01-.058.018-.009.003-.015.008-.024.012-.102.042-.2.09-.299.139l-.077.037c-.012.007-.026.012-.037.018L2.973 1.715 1.715 2.972l1.55 2.581a.477.477 0 0 0-.016.032l-.043.09c-.047.096-.095.192-.136.291-.012.029-.02.058-.031.086a6.383 6.383 0 0 0-.08.218l-.02.053c-.005.02-.014.039-.021.058L0 7.111v1.777l2.918.729.023.063a3.491 3.491 0 0 0 .099.27c.007.019.01.039.017.058.003.008.01.016.013.025.044.104.094.205.144.306a.74.74 0 0 0 .031.063l.02.043-1.549 2.582 1.257 1.258 2.581-1.549c.012.006.023.01.036.018.025.013.053.024.079.037.101.049.2.099.304.141.022.01.046.016.069.026.082.033.166.063.252.093l.021.006.068.026L7.111 16h1.777l.729-2.917.062-.023.04-.015c.082-.027.163-.057.241-.088.022-.01.045-.016.065-.025.109-.045.216-.096.321-.147l.05-.025.048-.022 2.582 1.55 1.258-1.259-1.549-2.581.015-.032.043-.089zm-1.311-1.631c-.019.092-.054.179-.08.269-.037.135-.069.271-.123.398-.037.09-.092.174-.137.26-.062.119-.118.244-.192.354-.087.131-.196.251-.303.373a3.813 3.813 0 0 1-.259.265 3.834 3.834 0 0 1-.417.341c-.089.059-.186.1-.278.151-.112.06-.22.129-.337.177-.094.038-.195.061-.293.092-.125.039-.248.086-.376.11-.103.021-.211.021-.316.032-.25.025-.499.025-.748-.001-.104-.011-.21-.011-.311-.031-.131-.024-.258-.073-.387-.114-.094-.03-.192-.051-.282-.088-.112-.046-.217-.112-.324-.17-.075-.042-.153-.076-.226-.122-.021-.015-.047-.024-.068-.038-.122-.082-.232-.184-.345-.281a3.427 3.427 0 0 1-.379-.383c-.087-.104-.181-.203-.254-.312-.07-.105-.122-.221-.181-.333-.049-.096-.107-.186-.148-.285-.042-.103-.065-.213-.1-.321-.035-.116-.08-.23-.104-.35-.022-.117-.025-.241-.035-.363a3.501 3.501 0 0 1 .001-.679c.012-.112.013-.227.035-.335.026-.135.075-.264.117-.395l.015-.048c.025-.075.04-.154.07-.225.05-.122.121-.236.186-.352.047-.088.086-.181.142-.265a3.729 3.729 0 0 1 .559-.637c.135-.125.273-.246.423-.345.093-.062.197-.107.297-.16.104-.057.207-.122.316-.167.112-.046.232-.073.35-.108.061-.019.121-.04.183-.054.045-.011.089-.03.134-.039.189-.038.386-.053.586-.059.07-.002.14-.002.211 0 .2.006.4.021.591.06.102.02.199.059.298.088.125.036.25.065.37.115.097.039.187.097.282.147.111.058.227.11.332.18.133.089.256.201.379.311.103.091.199.188.289.29.109.122.219.244.308.376.071.104.121.221.181.333.049.094.107.184.147.279.053.126.085.262.122.395.021.074.05.147.066.222l.014.049c.041.206.061.419.064.636 0 .026.005.053.005.08a3.683 3.683 0 0 1-.07.677z"/></svg>