<svg xmlns="http://www.w3.org/2000/svg" xmlns:xlink="http://www.w3.org/1999/xlink" viewBox="0 0 16.753 16" preserveAspectRatio="xMidYMin meet"><defs><path id="a" d="M0 0h16.753v16H0z"/></defs><clipPath id="b"><use overflow="visible" xlink:href="#a"/></clipPath><g clip-path="url(#b)"><path d="M16.72 6.063a.675.675 0 00-.542-.457l-4.975-.722L8.979.375a.673.673 0 00-1.205 0L5.549 4.883l-4.974.722a.678.678 0 00-.542.458.667.667 0 00.17.688l3.6 3.508-.85 4.954a.681.681 0 00.613.783.68.68 0 00.36-.073l4.45-2.338 4.45 2.339a.676.676 0 00.707-.05.674.674 0 00.267-.656l-.85-4.954 3.6-3.508a.673.673 0 00.17-.693z"/></g></svg>