<svg xmlns="http://www.w3.org/2000/svg" viewBox="0 0 17 17" preserveAspectRatio="xMidYMin meet"><g clip-path="url(#clip0_4137_2844)"><path d="M12.75 9.25a3.5 3.5 0 1 1 0 7h-9c1.19 0 2.24-.593 2.872-1.5h6.128a2 2 0 1 0 0-4h-5.5v-1.5z"/><path d="M7.957 3.594a3.5 3.5 0 0 1 4.95 4.95l-.707.707h-2.12l1.767-1.768a2 2 0 0 0-2.83-2.828L7.25 6.423V4.3zM5.75 12.75v-9a2 2 0 1 0-4 0v9a2 2 0 0 0 2 2v1.5a3.5 3.5 0 0 1-3.5-3.5v-9a3.5 3.5 0 1 1 7 0v9a3.5 3.5 0 0 1-3.5 3.5v-1.5a2 2 0 0 0 2-2"/><path d="M4.75 12.75a1 1 0 1 1-2 0 1 1 0 0 1 2 0"/></g><defs><clipPath id="clip0_4137_2844"><path d="M0 0H16V16H0z" transform="translate(.25 .25)"/></clipPath></defs></svg>