<svg xmlns="http://www.w3.org/2000/svg" preserveAspectRatio="xMidYMin meet" viewBox="0 0 14 14"><path d="M6.554.748a.5.5 0 0 1 .863 0l1.984 3.404a.5.5 0 0 0 .326.237l3.85.834a.5.5 0 0 1 .267.821l-2.625 2.938a.5.5 0 0 0-.125.384l.398 3.92a.5.5 0 0 1-.633.53l-.067-.023-3.605-1.589a.5.5 0 0 0-.403 0l-3.605 1.59-.066.023a.5.5 0 0 1-.633-.531l.397-3.92a.5.5 0 0 0-.064-.3l-.06-.084L.126 6.044a.5.5 0 0 1 .268-.821l3.85-.834a.5.5 0 0 0 .264-.153l.062-.084zm-1.12 3.908a1.5 1.5 0 0 1-.826.67l-.152.04-3.011.652 2.053 2.298.098.123c.213.296.312.66.275 1.027l-.31 3.066 2.82-1.243.147-.055a1.5 1.5 0 0 1 .916 0l.146.055 2.82 1.243-.31-3.066a1.5 1.5 0 0 1 .373-1.15l2.053-2.298-3.011-.651a1.5 1.5 0 0 1-.893-.58l-.086-.131-1.55-2.664z"/></svg>