<svg width="34" height="26" xmlns="http://www.w3.org/2000/svg"><g> <polygon points="5.002,5 0.002,5 0.002,6 5.002,6 6.002,6 6.002,5 6.002,0 5.002,0 "/> <polygon points="27.998,20 27.998,21 27.998,26 28.998,26 28.998,21 33.998,21 33.998,20 28.998,20 "/> <polygon points="0.002,20 0.002,21 5.002,21 5.002,26 6.002,26 6.002,21 6.002,20 5.002,20 "/> <polygon points="28.998,5 28.998,0 27.998,0 27.998,5 27.998,6 28.998,6 33.998,6 33.998,5 "/> </g> <rect x="8.002" y="6" width="17.996" height="2"/> <rect x="8.002" y="10" width="17.996" height="2"/> <rect x="8.002" y="14" width="17.996" height="2"/> <rect x="8.002" y="18" width="17.996" height="2"/></svg>