<svg xmlns="http://www.w3.org/2000/svg" viewBox="0 0 14 16" preserveAspectRatio="xMidYMin meet"><path d="M2 12.5A1.5 1.5 0 0 0 3.5 14h7a1.5 1.5 0 0 0 1.5-1.5v-3h1.5v3a3 3 0 0 1-3 3h-7a3 3 0 0 1-3-3v-3H2zM12 8.5a.75.75 0 0 1 1.5 0v1H12zM.5 8.5a.75.75 0 0 1 1.5 0v1H.5z"/><path d="M6.25 10V1.5a.75.75 0 0 1 1.5 0V10a.75.75 0 0 1-1.5 0"/><path d="M6.47.97A.75.75 0 0 1 7.474.918L7.53.97l3 3 .052.056a.75.75 0 0 1-1.056 1.056L9.47 5.03l-3-3-.052-.056A.75.75 0 0 1 6.47.97"/><path d="M6.47.97a.75.75 0 1 1 1.06 1.06l-3 3a.75.75 0 1 1-1.06-1.06z"/></svg>