<svg xmlns="http://www.w3.org/2000/svg" viewBox="0 0 15 17" preserveAspectRatio="xMidYMin meet"><path d="M14.114 12.355a7.5 7.5 0 0 0-5.999-11.01.58.58 0 0 0-.615.59h.567l-.051.629.1.017a6.27 6.27 0 1 1-5.462 2.263c.216-.263.218-.652-.022-.892a.58.58 0 0 0-.853.017l-.18.22a7.5 7.5 0 1 0 12.515 8.166M7.5 1.935l.013.125a.67.67 0 0 0 .503.504l.051-.628z"/><path d="M5.612 1.989a.1.1 0 0 0 0 .162l2.73 1.97a.1.1 0 0 0 .158-.082V.1A.1.1 0 0 0 8.34.02zM9.785 11.58c-1.25 0-2.013-.988-2.013-2.584 0-1.593.769-2.57 2.013-2.57s2.01.974 2.01 2.567c0 1.592-.759 2.587-2.01 2.587m0-.827c.609 0 .96-.626.96-1.757 0-1.124-.355-1.743-.96-1.743-.601 0-.964.622-.964 1.743 0 1.131.356 1.757.964 1.757M5.28 11.58c-.94 0-1.517-.407-1.75-.893a.74.74 0 0 1-.078-.324c0-.267.17-.434.454-.434.205 0 .335.082.438.27.174.345.44.55.953.55.506 0 .855-.294.855-.704.003-.479-.349-.745-.947-.745H4.99c-.25 0-.393-.147-.393-.37 0-.215.143-.365.393-.365h.201c.517 0 .851-.28.851-.684 0-.396-.266-.66-.765-.66-.417 0-.67.175-.83.524-.114.232-.233.317-.466.317-.287 0-.434-.167-.434-.416a.8.8 0 0 1 .076-.332c.218-.482.779-.885 1.65-.885 1.043 0 1.747.516 1.747 1.305 0 .626-.448 1.036-1.029 1.156v.02c.735.069 1.21.5 1.21 1.18 0 .895-.776 1.49-1.92 1.49"/></svg>