<svg xmlns="http://www.w3.org/2000/svg" viewBox="0 0 11 11" preserveAspectRatio="xMidYMin meet"><path fill-rule="evenodd" d="M10.731 1.565 1.565 10.73.269 9.435 9.435.27z" clip-rule="evenodd"/><path d="M10.083 1.833a.917.917 0 1 0 0-1.833.917.917 0 0 0 0 1.833M.917 1.833A.917.917 0 1 0 .917 0a.917.917 0 0 0 0 1.833M.917 11a.917.917 0 1 0 0-1.833.917.917 0 0 0 0 1.833M10.083 11a.917.917 0 1 0 0-1.833.917.917 0 0 0 0 1.833"/><path fill-rule="evenodd" d="M9.435 10.731.27 1.565 1.565.269l9.166 9.166z" clip-rule="evenodd"/></svg>