<svg xmlns="http://www.w3.org/2000/svg" xmlns:xlink="http://www.w3.org/1999/xlink" viewBox="0 0 22.71 23.16" preserveAspectRatio="xMidYMin meet"><defs><path id="a" d="M0 0h22.71v23.16H0z"/></defs><clipPath id="b"><use overflow="visible" xlink:href="#a"/></clipPath><g clip-path="url(#b)"><path d="M19.13 18.47a10.38 10.38 0 003.58-7.78C22.71 4.79 17.63 0 11.36 0S0 4.79 0 10.69s5.08 10.69 11.36 10.69a11.98 11.98 0 003.9-.65 12.323 12.323 0 004.33 2.43c.7 0-.89-3.16-.46-4.69zM14 11.89l.68 4L11.13 14l-3.57 1.87.68-4-2.9-2.81 4-.58 1.79-3.62 1.79 3.62 4 .58L14 11.89z"/></g></svg>