<svg xmlns="http://www.w3.org/2000/svg" preserveAspectRatio="xMinYMin meet" viewBox="0 0 126.354 54.875"><path d="M1.431 32.819c-.264 0-.473.204-.507.495L0 40.332l.924 6.898c.034.291.243.493.507.493.255 0 .463-.201.504-.491v-.001.001l1.095-6.9-1.095-7.02c-.039-.289-.25-.493-.504-.493zm5.196-3.834c-.044-.302-.26-.51-.526-.51-.268 0-.489.215-.526.51L4.333 40.333l1.242 11.096c.035.298.257.512.526.512.265 0 .481-.209.524-.51l1.413-11.099-1.411-11.347zM26.2 18.517c-.51 0-.931.417-.955.947l-.989 20.878.989 13.492c.026.527.446.943.955.943.507 0 .927-.417.957-.946v.004l1.118-13.494-1.118-20.878c-.03-.529-.45-.946-.957-.946zm-10.13 7.257c-.391 0-.711.313-.742.73l-1.114 13.833 1.114 13.383c.03.414.351.727.742.727.387 0 .707-.313.741-.727l1.266-13.383L16.811 26.5c-.035-.414-.354-.726-.741-.726zm20.425 29.002c.632 0 1.145-.51 1.171-1.162l.97-13.265-.969-27.796c-.026-.652-.54-1.162-1.171-1.162-.637 0-1.152.511-1.173 1.163l-.86 27.793.86 13.271a1.181 1.181 0 0 0 1.172 1.158zm21.076.062c.87 0 1.587-.716 1.603-1.597v.009-.009l.677-12.885-.677-32.101c-.015-.879-.734-1.597-1.603-1.597-.871 0-1.59.716-1.603 1.598l-.605 32.09.605 12.904a1.617 1.617 0 0 0 1.603 1.588zm-10.618-.05c.757 0 1.367-.607 1.387-1.382v.009l.823-13.064-.825-27.997c-.02-.775-.63-1.381-1.387-1.381-.762 0-1.372.606-1.389 1.381l-.732 27.999.734 13.061a1.39 1.39 0 0 0 1.389 1.374zm-25.838-.122c.45 0 .814-.36.848-.834l1.193-13.495L21.963 27.5c-.033-.474-.397-.832-.848-.832-.456 0-.821.36-.849.837l-1.051 12.832 1.051 13.494c.03.475.393.835.849.835zm-10.05-.739c.329 0 .595-.26.633-.618l1.34-12.974L11.7 26.87c-.039-.36-.306-.62-.635-.62-.333 0-.599.261-.633.62l-1.18 13.464 1.179 12.972c.034.36.3.621.634.621zm41.177-42.038c-.822 0-1.481.654-1.497 1.491l-.669 26.975.669 12.98c.016.826.674 1.48 1.497 1.48.821 0 1.476-.652 1.495-1.489v.011l.75-12.98-.75-26.979c-.02-.836-.675-1.489-1.495-1.489zM31.329 54.803c.568 0 1.037-.463 1.064-1.055l1.044-13.403-1.044-25.653c-.029-.593-.496-1.054-1.064-1.054-.573 0-1.041.463-1.065 1.054l-.924 25.653.925 13.408c.023.587.49 1.05 1.064 1.05zm11.653-1.265v-.007l.897-13.181-.897-28.732c-.022-.713-.584-1.273-1.279-1.273-.699 0-1.261.558-1.28 1.273l-.796 28.73.798 13.188a1.285 1.285 0 0 0 1.279 1.265c.696 0 1.256-.558 1.279-1.269l-.001.006zm67.832-29.75c-2.129 0-4.161.431-6.012 1.207C103.566 10.988 91.82 0 77.492 0c-3.506 0-6.923.69-9.941 1.858-1.173.454-1.485.921-1.496 1.828v49.327a1.88 1.88 0 0 0 1.678 1.837c.039.004 42.803.026 43.08.026 8.583 0 15.541-6.959 15.541-15.543 0-8.585-6.957-15.545-15.54-15.545zM62.877 3.642c-.934 0-1.7.766-1.714 1.708l-.701 35.011.703 12.707a1.723 1.723 0 0 0 1.712 1.693c.931 0 1.697-.765 1.711-1.707v.015l.762-12.708-.762-35.014c-.014-.939-.78-1.705-1.711-1.705z"/></svg>