<svg xmlns="http://www.w3.org/2000/svg" viewBox="0 0 17.269 17.269" preserveAspectRatio="xMidYMin meet"><path d="M16.402 6.86l-.789-.71a.897.897 0 0 1-.237-.631l.078-1.104c0-.71-.157-1.34-.71-1.892-.552-.552-1.183-.789-1.892-.71l-1.025.079c-.237.079-.473-.079-.631-.237l-.71-.789C10.013.316 9.383 0 8.673 0S7.333.315 6.86.867l-.71.789c-.157.236-.394.316-.63.316l-1.025-.079c-.71 0-1.419.237-1.892.71-.473.473-.789 1.183-.71 1.892l.079 1.025c.079.237-.078.473-.316.632l-.789.71C.316 7.335 0 7.965 0 8.675s.315 1.34.867 1.813l.789.71c.237.157.316.394.316.631l-.078 1.025c0 .71.237 1.419.71 1.892.552.552 1.183.789 1.892.71l1.025-.079c.237-.079.473.079.631.237l.71.789c.473.551 1.104.867 1.813.867s1.34-.316 1.814-.788l.71-.789c.157-.237.394-.316.631-.316l1.025.078c.71 0 1.419-.237 1.892-.71.552-.552.789-1.183.71-1.892l-.079-1.025c-.079-.237.079-.473.237-.631l.789-.71c.551-.473.867-1.104.867-1.813s-.317-1.341-.869-1.814zm-1.026 2.445l-.789.71a2.269 2.269 0 0 0-.789 1.971l.079 1.025a.895.895 0 0 1-.237.631.897.897 0 0 1-.63.237l-1.025-.079c-.71 0-1.498.315-1.971.867l-.71.789a.74.74 0 0 1-1.183 0l-.71-.789c-.473-.551-1.104-.867-1.813-.867h-.236l-1.025.079a.895.895 0 0 1-.631-.237.897.897 0 0 1-.237-.631l.079-1.025c0-.71-.315-1.498-.867-1.971l-.789-.71c-.235-.158-.315-.394-.315-.631s.158-.473.316-.631l.789-.71c.63-.473.946-1.183.867-1.971L3.47 4.337c0-.237.079-.473.237-.631a.894.894 0 0 1 .63-.236l1.025.079c.71.078 1.498-.237 1.971-.789l.71-.789a.74.74 0 0 1 1.183 0l.71.789a2.269 2.269 0 0 0 1.971.789l1.025-.079c.237 0 .473.079.631.237a.89.89 0 0 1 .237.63l-.079 1.025c0 .71.315 1.498.867 1.971l.789.71c.237.157.316.394.316.631s-.159.473-.317.631z"/><path d="M8.674 5.914c-1.498 0-2.759 1.261-2.759 2.76 0 1.498 1.261 2.76 2.759 2.76s2.76-1.261 2.76-2.76c0-1.498-1.262-2.76-2.76-2.76zm0 3.943c-.631 0-1.183-.552-1.183-1.183s.552-1.183 1.183-1.183 1.183.552 1.183 1.183-.552 1.183-1.183 1.183z"/></svg>