<svg xmlns="http://www.w3.org/2000/svg" viewBox="0 0 13 16" preserveAspectRatio="xMidYMin meet"><path d="M4 2h5a.997.997 0 001-1 .997.997 0 00-1-1H4a.997.997 0 00-1 1 .997.997 0 001 1zm2 8V7a.997.997 0 00-1-1 .997.997 0 00-1 1v3a.997.997 0 001 1 .997.997 0 001-1zm3 2V8a.997.997 0 00-1-1 .997.997 0 00-1 1v4a.997.997 0 001 1 .997.997 0 001-1z"/><path d="M11 6a.997.997 0 00-1 1v6.4c0 .283-.428.6-1 .6H4c-.572 0-1-.316-1-.6V7a.997.997 0 00-1-1 .997.997 0 00-1 1v6.4C1 14.834 2.346 16 4 16h5c1.654 0 3-1.166 3-2.6V7a.997.997 0 00-1-1zm1-3H1a.997.997 0 00-1 1 .997.997 0 001 1h11a.997.997 0 001-1 .997.997 0 00-1-1z"/></svg>