<svg xmlns="http://www.w3.org/2000/svg" xmlns:xlink="http://www.w3.org/1999/xlink" viewBox="0 0 14 15" preserveAspectRatio="xMidYMin meet"><defs><path id="a" d="M0 0h14v15H0z"/></defs><clipPath id="b"><use overflow="visible" xlink:href="#a"/></clipPath><g clip-path="url(#b)"><path d="M2.293 6.707l3.999 3.999a1.007 1.007 0 001.09.219c.121-.05.232-.124.325-.217l3.999-3.999a.981.981 0 00.305-.71 1.005 1.005 0 00-.62-.935 1.01 1.01 0 00-.773.006.996.996 0 00-.325.224L8 7.586V1a.997.997 0 00-1-1 .997.997 0 00-1 1v6.586L3.707 5.293a1.002 1.002 0 00-1.402.012 1 1 0 00-.012 1.402z"/><path d="M11 15H3c-1.654 0-3-1.346-3-3v-2h2v2c0 .552.449 1 1 1h8a1 1 0 001-1v-2h2v2c0 1.654-1.346 3-3 3z"/><circle cx="1" cy="10" r="1"/><circle cx="13" cy="10" r="1"/></g></svg>