<svg xmlns="http://www.w3.org/2000/svg" viewBox="0 0 22 22" preserveAspectRatio="xMidYMin meet"><path d="M5 19a2 2 0 10.001-3.999A2 2 0 005 19z"/><path d="M17 12H5c-2.757 0-5 2.243-5 5s2.243 5 5 5h12c2.757 0 5-2.243 5-5s-2.243-5-5-5zm0 8H5c-1.654 0-3-1.346-3-3s1.346-3 3-3h12c1.654 0 3 1.346 3 3s-1.346 3-3 3zM17 7a2 2 0 10.001-3.999A2 2 0 0017 7z"/><path d="M5 10h12c2.757 0 5-2.243 5-5s-2.243-5-5-5H5C2.243 0 0 2.243 0 5s2.243 5 5 5zm0-8h12c1.654 0 3 1.346 3 3s-1.346 3-3 3H5C3.346 8 2 6.654 2 5s1.346-3 3-3z"/></svg>