<?xml version="1.0" encoding="utf-8"?>
<!-- Generator: Adobe Illustrator 16.0.4, SVG Export Plug-In . SVG Version: 6.00 Build 0)  -->
<!DOCTYPE svg PUBLIC "-//W3C//DTD SVG 1.1//EN" "http://www.w3.org/Graphics/SVG/1.1/DTD/svg11.dtd">
<svg version="1.1" id="Layer_1" xmlns="http://www.w3.org/2000/svg" xmlns:xlink="http://www.w3.org/1999/xlink" x="0px" y="0px"
	 width="18px" height="17px" viewBox="0 0 18 17" enable-background="new 0 0 18 17" xml:space="preserve">
<rect y="4" width="5" height="1"/>
<rect x="4" width="1" height="5"/>
<rect x="25" y="42" width="6" height="1"/>
<rect x="25" y="42" width="1" height="6"/>
<rect x="-3" y="42" width="6" height="1"/>
<rect x="2" y="42" width="1" height="6"/>
<rect x="25" y="27" width="6" height="1"/>
<rect x="25" y="22" width="1" height="6"/>
<rect x="5" y="28" width="18" height="2"/>
<rect x="5" y="32" width="18" height="2"/>
<rect x="5" y="36" width="18" height="2"/>
<rect x="5" y="40" width="18" height="2"/>
<rect x="5" y="6" width="8" height="2"/>
<rect x="5" y="9" width="8" height="2"/>
<rect y="3" width="5" height="1"/>
<rect x="3" width="1" height="5"/>
<rect x="13" y="4" width="5" height="1"/>
<rect x="14" width="1" height="5"/>
<rect x="13" y="3" width="5" height="1"/>
<rect x="13" width="1" height="5"/>
<rect x="13" y="13" width="5" height="1"/>
<rect x="14" y="12" width="1" height="5"/>
<rect x="13" y="12" width="5" height="1"/>
<rect x="13" y="12" width="1" height="5"/>
<rect y="13" width="5" height="1"/>
<rect x="4" y="12" width="1" height="5"/>
<rect y="12" width="5" height="1"/>
<rect x="3" y="12" width="1" height="5"/>
</svg>
