<svg xmlns="http://www.w3.org/2000/svg" viewBox="0 0 12 14" preserveAspectRatio="xMidYMin meet"><path d="M10 13v1H2v-1zm1-1V2a1 1 0 0 0-.898-.995L10 1H2a1 1 0 0 0-1 1v10a1 1 0 0 0 1 1v1l-.204-.01A2 2 0 0 1 .01 12.203L0 12V2A2 2 0 0 1 1.796.01L2 0h8l.204.01A2 2 0 0 1 12 2v10l-.01.204a2 2 0 0 1-1.786 1.785L10 14v-1a1 1 0 0 0 1-1"/><path d="M7.468 6.5v1h-5a.5.5 0 0 1 0-1zM4.468 9.5v1h-2a.5.5 0 0 1 0-1zM6.468 3.5v1h-4a.5.5 0 0 1 0-1zM9.468 6.5a.5.5 0 1 1 0 1h-2v-1zM9.468 9.5a.5.5 0 1 1 0 1h-4v-1zM9.468 3.5a.5.5 0 1 1 0 1h-2v-1z"/></svg>