<svg width="34" height="26" xmlns="http://www.w3.org/2000/svg"><g> <polygon points="0.002,0 0.002,1 0.002,6 1.002,6 1.002,1 6.002,1 6.002,0 1.002,0 "/> <polygon points="32.998,24.998 27.998,24.998 27.998,25.998 32.998,25.998 33.998,25.998 33.998,24.998 33.998,19.998 32.998,19.998 "/> <polygon points="1.002,19.998 0.002,19.998 0.002,24.998 0.002,25.998 1.002,25.998 6.002,25.998 6.002,24.998 1.002,24.998 "/> <polygon points="32.998,0 27.998,0 27.998,1 32.998,1 32.998,6 33.998,6 33.998,1 33.998,0 "/> </g> <rect x="8.002" y="6" width="17.996" height="2"/> <rect x="8.002" y="10" width="17.996" height="2"/> <rect x="8.002" y="13.998" width="17.996" height="2"/> <rect x="8.002" y="17.998" width="17.996" height="2"/></svg>