<svg xmlns="http://www.w3.org/2000/svg" preserveAspectRatio="xMidYMin meet" viewBox="0 0 86.719 75"><path d="M86.676 17.35c-.387 8.44-6.281 19.997-17.686 34.668C57.2 67.337 47.224 75 39.067 75c-5.057 0-9.334-4.663-12.828-13.996-2.333-8.555-4.664-17.109-6.998-25.664-2.596-9.327-5.378-13.997-8.355-13.997-.649 0-2.919 1.365-6.806 4.083L0 20.172c4.28-3.759 8.501-7.519 12.654-11.284 5.708-4.93 9.996-7.525 12.852-7.786 6.747-.649 10.901 3.964 12.459 13.837 1.685 10.654 2.852 17.279 3.506 19.872 1.948 8.839 4.089 13.254 6.425 13.254 1.813 0 4.541-2.866 8.177-8.603 3.629-5.732 5.575-10.093 5.837-13.092.519-4.948-1.427-7.427-5.837-7.427-2.077 0-4.218.478-6.419 1.422C53.918 6.408 62.06-.371 74.078.016c8.911.261 13.113 6.039 12.598 17.334z"/></svg>