<svg xmlns="http://www.w3.org/2000/svg" viewBox="0 0 24 25" preserveAspectRatio="xMidYMin meet"><g clip-path="url(#clip0_3_14)"><path fill-rule="evenodd" d="M17.89.322c2.774.41 5.116 2.527 5.477 5.213.157 1.597.08 3.998.041 5.165-.009.29-.016.504-.016.61 0 .157-.023 1.589-.032 1.74-.243 3.838-2.636 5.354-5.151 5.837a.934.934 0 0 1-.09.02l-.024.005c-1.595.311-3.303.394-4.923.44-.388.01-.774.01-1.162.01-1.611 0-3.217-.19-4.783-.568a.054.054 0 0 0-.068.056c.044.51.155 1.011.33 1.493.216.556.974 1.894 3.793 1.894 1.637.003 3.27-.188 4.863-.568a.056.056 0 0 1 .047.01.057.057 0 0 1 .02.043v1.884a.06.06 0 0 1-.023.045c-.498.361-1.168.574-1.754.76l-.08.024c-.266.085-.536.158-.81.222-2.486.566-5.08.43-7.493-.395-2.254-.791-4.554-2.73-5.122-5.06a27.492 27.492 0 0 1-.64-3.833C.16 13.957.118 12.542.075 11.126c-.016-.534-.033-1.068-.053-1.602C-.032 8.163-.001 6.68.286 5.34.884 2.623 3.348.72 6.046.322L6.234.29C6.768.196 7.883 0 11.507 0h.03c4.11 0 5.884.252 6.352.322Zm1.492 14.904V8.553c.001-1.365-.346-2.448-1.042-3.25-.72-.801-1.662-1.212-2.83-1.212-1.352 0-2.375.52-3.057 1.56l-.659 1.104-.658-1.104c-.682-1.04-1.704-1.56-3.058-1.56-1.17 0-2.112.41-2.83 1.212-.696.803-1.044 1.886-1.044 3.25v6.673h2.643V8.749c0-1.363.574-2.059 1.723-2.059 1.27 0 1.908.823 1.908 2.448v3.545h2.629V9.138c0-1.625.636-2.448 1.907-2.448 1.156 0 1.724.696 1.724 2.06v6.476h2.644Z" clip-rule="evenodd"/></g><defs><clipPath id="clip0_3_14"><path d="M0 0H23.462V25H0z"/></clipPath></defs></svg>