<svg xmlns="http://www.w3.org/2000/svg" viewBox="0 0 16 16" preserveAspectRatio="xMidYMin meet"><g clip-path="url(#clip0_3900_5024)"><path d="M14 15v1H2v-1zm1-1V2a1 1 0 0 0-1-1H2a1 1 0 0 0-1 1v12a1 1 0 0 0 1 1v1l-.204-.01A2 2 0 0 1 0 14V2A2 2 0 0 1 1.796.01L2 0h12a2 2 0 0 1 2 2v12a2 2 0 0 1-2 2v-1a1 1 0 0 0 1-1"/><path d="M7.5 12V4a.5.5 0 0 1 1 0v8a.5.5 0 0 1-1 0"/><path d="m12 7.5.1.01a.5.5 0 0 1 0 .98l-.1.01H4a.5.5 0 0 1 0-1z"/></g><defs><clipPath id="clip0_3900_5024"><path d="M0 0H16V16H0z"/></clipPath></defs></svg>