<svg xmlns="http://www.w3.org/2000/svg" width="14" height="16" preserveAspectRatio="xMidYMin meet" viewBox="0 0 14 16"><path d="M2 8a1 1 0 11-2 0 1 1 0 012 0zm6-7a1 1 0 11-2 0 1 1 0 012 0zM5 4a1 1 0 11-2 0 1 1 0 012 0zM4 8a1 1 0 11-2 0 1 1 0 012 0zm4 3a1 1 0 11-2 0 1 1 0 012 0zm3-7a1 1 0 11-2 0 1 1 0 012 0zm1 4a1 1 0 11-2 0 1 1 0 012 0zm2 0a1 1 0 11-2 0 1 1 0 012 0zM2 15a1 1 0 11-2 0 1 1 0 012 0zm12 0a1 1 0 11-2 0 1 1 0 012 0z"/><path d="M1 7h2v2H1V7zm10 0h2v2h-2V7zM1 14h12v2H1v-2z"/><path d="M0 8h2v7H0V8zm12 0h2v7h-2V8zM6 1h2v10H6V1z"/><path fill-rule="evenodd" d="M6.293.293a1 1 0 011.414 0l3 3-1.414 1.414L7 2.414 4.707 4.707 3.293 3.293l3-3z" clip-rule="evenodd"/></svg>