<svg xmlns="http://www.w3.org/2000/svg" width="48" height="48"><path d="M11.654 36v-.661c.916-.104 1.604-.448 2.062-1.034s1.244-2.191 2.356-4.812L23.499 12h.709l8.881 20.207c.592 1.338 1.063 2.166 1.419 2.482.354.317.948.534 1.783.649V36h-9.064v-.661c1.042-.093 1.713-.205 2.016-.339.301-.132.451-.458.451-.978 0-.173-.058-.479-.174-.919a9.874 9.874 0 0 0-.487-1.385l-1.427-3.429h-9.393c-.926 2.332-1.479 3.755-1.659 4.269s-.27.922-.27 1.222c0 .601.244 1.017.73 1.247.301.139.868.242 1.702.312V36h-7.062zm15.35-9.154L22.92 17.03l-4.104 9.816h8.188z"/></svg>