<svg xmlns="http://www.w3.org/2000/svg" viewBox="0 0 17 15.925" preserveAspectRatio="xMidYMin meet"><path d="M2 1.925a1 1 0 11-2 0 1 1 0 012 0zM9 1.925a1 1 0 11-2 0 1 1 0 012 0zM17 6.925a1 1 0 11-2 0 1 1 0 012 0zM2 14.925a1 1 0 11-2 0 1 1 0 012 0zM17 14.925a1 1 0 11-2 0 1 1 0 012 0zM8.268 11.168c-.781.781-3.34 1.538-4.121.757 1.414-1.805.512-2.805 1.293-3.586a2 2 0 112.828 2.829zM16.078.122a.543.543 0 01.73.041c.2.2.218.517.041.73L10.95 8.001a.986.986 0 01-1.457.049l-.573-.572c-.416-.416-.393-1.091.049-1.458L16.078.122z"/><path d="M1 .925h7v2H1v-2zM1 13.925h15v2H1v-2z"/><path d="M0 1.925h2v13H0v-13zM15 6.925h2v8h-2v-8z"/></svg>