<svg xmlns="http://www.w3.org/2000/svg" preserveAspectRatio="xMidYMin meet" viewBox="0 0 121.485 85.039"><path d="M118.946 13.279a15.214 15.214 0 0 0-10.741-10.74C98.732 0 60.742 0 60.742 0S22.753 0 13.279 2.539a15.213 15.213 0 0 0-10.74 10.74C0 22.753 0 42.52 0 42.52s0 19.766 2.539 29.24A15.214 15.214 0 0 0 13.28 82.5c9.474 2.539 47.463 2.539 47.463 2.539s37.989 0 47.463-2.539a15.218 15.218 0 0 0 10.741-10.74c2.539-9.474 2.539-29.241 2.539-29.241s-.001-19.766-2.54-29.24zM48.594 60.742V24.297L80.155 42.52 48.594 60.742z"/></svg>