<svg xmlns="http://www.w3.org/2000/svg" viewBox="0 0 24 21.436" preserveAspectRatio="xMidYMin meet"><path fill-rule="evenodd" d="M23.997 2.037c-.019-.142-.026-.287-.063-.424-.213-.755-.702-1.252-1.438-1.506A2.288 2.288 0 0021.738 0h-9.73C8.777 0 5.546 0 2.316.002c-.131 0-.263.003-.393.021C1.148.129.582.536.225 1.228A2.13 2.13 0 000 2.224v7.105c0 .093.005.187.011.281.018.311.043.623.056.934.01.294.044.586.09.876.17 1.08.483 2.118.948 3.106 1.231 2.615 3.485 4.785 6.175 5.937a11.89 11.89 0 002.946.836c.396.058.794.095 1.193.119.67.042 1.336.008 2.002-.065.447-.051.888-.133 1.326-.243a13.132 13.132 0 001.643-.513 12.167 12.167 0 004.736-3.364 11.432 11.432 0 002.473-4.638c.194-.728.317-1.465.35-2.217.016-.337.047-.674.048-1.011.004-2.405.003-4.812.003-7.218 0-.037.002-.075-.003-.112zm-5.182 6.926c-.226.233-.467.451-.701.676-1.619 1.553-3.236 3.105-4.856 4.657-.036.036-.072.07-.109.103-.326.302-.71.455-1.157.448a1.6 1.6 0 01-1.102-.445c-.215-.2-.425-.405-.637-.609-1.66-1.591-3.318-3.183-4.979-4.773a1.724 1.724 0 01-.492-.804 1.642 1.642 0 011.312-2.043c.543-.09 1.015.06 1.415.431.324.301.641.612.961.92l3.409 3.269.141.129.188-.179a15688.738 15688.738 0 014.357-4.176c.916-.817 2.365-.393 2.684.793.164.613.005 1.151-.434 1.603z" clip-rule="evenodd"/></svg>