<svg xmlns="http://www.w3.org/2000/svg" viewBox="0 0 13 9.209" preserveAspectRatio="xMidYMin meet"><g><path d="M12.854 6.148a.5.5 0 0 0-.707 0L11 7.295V1.502C11 .674 10.326 0 9.498 0H6.5a.5.5 0 0 0 0 1h2.998c.276 0 .502.225.502.502v5.793L8.854 6.148a.5.5 0 0 0-.707.707l1.999 1.999.001.001.353.354.353-.353.001-.001 1.999-1.999a.5.5 0 0 0 .001-.708zM6.5 8.209H3.502A.503.503 0 0 1 3 7.707V1.914L4.146 3.06a.5.5 0 1 0 .708-.706l-2-2-.001-.001L2.5 0l-.353.353-.001.001-2 2a.5.5 0 0 0 .707.707L2 1.914v5.793c0 .828.674 1.502 1.502 1.502H6.5a.5.5 0 0 0 0-1z"/></g></svg>