<svg xmlns="http://www.w3.org/2000/svg" viewBox="0 0 17.784 17.784" preserveAspectRatio="xMidYMin meet"><path d="M16.239 6.164a11.8 11.8 0 0 1-.229-.206c.004-.092.011-.194.016-.275.052-.782.14-2.092-.847-3.078-.876-.876-2.011-.876-2.384-.876-.226 0-.461.014-.694.03-.093.006-.185.013-.275.017a11.8 11.8 0 0 1-.206-.229C11.109.967 10.254 0 8.892 0S6.675.967 6.164 1.545a11.8 11.8 0 0 1-.206.229c-.09-.004-.182-.011-.275-.017-.233-.016-.468-.03-.694-.03-.373 0-1.508 0-2.384.876-.987.988-.899 2.297-.847 3.08.005.081.012.183.016.275-.074.069-.161.145-.229.206C.967 6.675 0 7.53 0 8.892s.967 2.217 1.545 2.728c.068.06.155.137.229.206-.004.092-.011.194-.016.275-.052.782-.14 2.092.847 3.078.876.876 2.011.876 2.384.876.225 0 .46-.014.694-.03.093-.006.185-.013.275-.017.069.074.146.161.206.229.511.578 1.367 1.545 2.728 1.545 1.362 0 2.217-.967 2.728-1.545a11.8 11.8 0 0 1 .206-.229c.09.004.182.011.275.017.233.016.468.03.694.03.373 0 1.508 0 2.384-.876.986-.986.899-2.296.847-3.078-.005-.081-.012-.183-.016-.275a11.8 11.8 0 0 1 .229-.206c.578-.511 1.545-1.367 1.545-2.728 0-1.362-.967-2.217-1.545-2.728zm-2.136 4.887c-.306.739.263 2.114-.338 2.715-.234.234-.585.29-.97.29-.362 0-.754-.05-1.108-.05-.237 0-.456.022-.637.097-.766.317-1.343 1.681-2.159 1.681s-1.393-1.364-2.159-1.681c-.181-.075-.4-.097-.637-.097-.353 0-.746.05-1.108.05-.385 0-.736-.057-.97-.29-.601-.601-.032-1.976-.338-2.715C3.364 10.285 2 9.708 2 8.892s1.364-1.393 1.681-2.159c.306-.739-.263-2.114.338-2.715.234-.234.585-.29.97-.29.362 0 .754.05 1.108.05.237 0 .456-.022.637-.097C7.499 3.364 8.076 2 8.892 2s1.393 1.364 2.159 1.681c.181.075.4.097.637.097.353 0 .746-.05 1.108-.05.385 0 .736.057.97.29.601.601.032 1.976.338 2.715.317.766 1.681 1.343 1.681 2.159s-1.365 1.393-1.682 2.159z"/><path d="M8.892 5.892c-1.654 0-3 1.346-3 3s1.346 3 3 3 3-1.346 3-3-1.346-3-3-3zm0 4c-.551 0-1-.449-1-1s.449-1 1-1a1.001 1.001 0 0 1 0 2z"/></svg>