<svg xmlns="http://www.w3.org/2000/svg" width="15" height="16" viewBox="0 0 15 16" preserveAspectRatio="xMidYMin meet"><path fill-rule="evenodd" d="M13 2H2a1 1 0 00-1 1v11a1 1 0 001 1h11a1 1 0 001-1V3a1 1 0 00-1-1zM2 1a2 2 0 00-2 2v11a2 2 0 002 2h11a2 2 0 002-2V3a2 2 0 00-2-2H2z" clip-rule="evenodd"/><path fill-rule="evenodd" d="M14 6H1V5h13v1zM10 8H9v5h1V8zM9 8H8v1h1V8z" clip-rule="evenodd"/><path fill-rule="evenodd" d="M8 12v1h3v-1H8zM6 8H5v5h1V8zM5 8H4v1h1V8z" clip-rule="evenodd"/><path fill-rule="evenodd" d="M4 12v1h3v-1H4z" clip-rule="evenodd"/><rect width="1" height="3" x="4" rx=".5"/><rect width="1" height="3" x="10" rx=".5"/></svg>