<?xml version="1.0" encoding="iso-8859-1"?>
<!-- Generator: Adobe Illustrator 22.1.0, SVG Export Plug-In . SVG Version: 6.00 Build 0)  -->
<svg version="1.1" id="Layer_1" xmlns="http://www.w3.org/2000/svg" xmlns:xlink="http://www.w3.org/1999/xlink" x="0px" y="0px"
	 viewBox="0 0 167.487 167.487" enable-background="new 0 0 167.487 167.487" xml:space="preserve">
<g>
	<g>
		<path fill="#1A1616" d="M83.743,0C37.494,0,0,37.493,0,83.742c0,46.254,37.494,83.745,83.743,83.745
			c46.251,0,83.743-37.491,83.743-83.745C167.487,37.493,129.994,0,83.743,0z M122.149,120.787c-1.505,2.467-4.718,3.24-7.177,1.737
			c-19.665-12.019-44.417-14.734-73.567-8.075c-2.809,0.644-5.609-1.117-6.249-3.925c-0.643-2.809,1.11-5.609,3.926-6.249
			c31.9-7.293,59.263-4.154,81.336,9.334C122.878,115.112,123.653,118.327,122.149,120.787z M132.396,97.984
			c-1.894,3.073-5.912,4.037-8.981,2.15c-22.505-13.834-56.822-17.841-83.447-9.759c-3.453,1.043-7.1-0.903-8.148-4.35
			c-1.04-3.453,0.907-7.093,4.354-8.143c30.415-9.229,68.226-4.759,94.074,11.125C133.317,90.898,134.283,94.918,132.396,97.984z
			 M133.28,74.24c-26.994-16.031-71.52-17.505-97.289-9.684c-4.138,1.255-8.514-1.081-9.768-5.219
			c-1.254-4.14,1.08-8.513,5.221-9.771c29.581-8.98,78.756-7.245,109.832,11.202c3.722,2.209,4.943,7.016,2.737,10.733
			C141.804,75.223,136.993,76.45,133.28,74.24z"/>
	</g>
</g>
<g>
</g>
<g>
</g>
<g>
</g>
<g>
</g>
<g>
</g>
<g>
</g>
</svg>
