<svg xmlns="http://www.w3.org/2000/svg" viewBox="0 0 16 14" preserveAspectRatio="xMidYMin meet"><path d="M13 1.25a.75.75 0 0 1 0 1.5H5a.75.75 0 0 1 0-1.5zM15 6.25a.75.75 0 0 1 0 1.5H5a.75.75 0 0 1 0-1.5zM10 11.25a.75.75 0 0 1 0 1.5H5a.75.75 0 0 1 0-1.5zM0 2.691V1.31A.5.5 0 0 1 .724.862l1.382.691a.5.5 0 0 1 0 .894l-1.382.691A.5.5 0 0 1 0 2.691"/><path d="M2.105 1.553a.5.5 0 0 1 0 .894L.724 3.14a.5.5 0 0 1-.72-.38L0 2.69V1.31A.5.5 0 0 1 .724.86zM1.224 2a1 1 0 0 0-.315-.222 1 1 0 0 0 0 .443q.179-.08.315-.22M0 7.691V6.31a.5.5 0 0 1 .724-.447l1.382.691a.5.5 0 0 1 0 .894l-1.382.691A.5.5 0 0 1 0 7.691"/><path d="M2.105 6.553a.5.5 0 0 1 0 .894L.724 8.14a.5.5 0 0 1-.72-.38L0 7.69V6.31a.5.5 0 0 1 .724-.448zM1.224 7a1 1 0 0 0-.315-.222 1 1 0 0 0 0 .443q.179-.08.315-.22M0 12.691V11.31a.5.5 0 0 1 .724-.447l1.382.691a.5.5 0 0 1 0 .894l-1.382.691A.5.5 0 0 1 0 12.691"/><path d="M2.105 11.553a.5.5 0 0 1 0 .894l-1.381.692a.5.5 0 0 1-.72-.38L0 12.69V11.31a.5.5 0 0 1 .724-.448zM1.224 12a1 1 0 0 0-.315-.222 1 1 0 0 0 0 .443q.179-.08.315-.22"/></svg>