<svg xmlns="http://www.w3.org/2000/svg" preserveAspectRatio="xMidYMin meet" viewBox="0 0 12 14"><path d="M.708 10.829a6 6 0 0 1 4.8-8.808c.271-.022.492.2.492.473l-.01.098a.54.54 0 0 1-.402.404l-.08.014c-.86.085-1.685.39-2.393.889l-.296.225A5 5 0 0 0 1.13 6.81l-.047.212a5 5 0 0 0 .496 3.343l.107.188A5.014 5.014 0 1 0 9.877 4.82a.534.534 0 0 1 .018-.714.463.463 0 0 1 .681.015l.145.175A6 6 0 1 1 .708 10.83"/><path d="M7.888 2.42a.1.1 0 0 1 0 .162l-2.73 1.97A.1.1 0 0 1 5 4.47V.53a.1.1 0 0 1 .16-.08zm-.513 7.56c-.894 0-1.438-.706-1.438-1.846 0-1.138.55-1.836 1.438-1.836.889 0 1.436.696 1.436 1.833S8.269 9.98 7.375 9.98m0-.591c.435 0 .686-.447.686-1.255 0-.803-.254-1.245-.686-1.245-.43 0-.688.444-.688 1.245 0 .808.253 1.255.688 1.255m-3.218.59c-.671 0-1.084-.29-1.25-.637a.5.5 0 0 1-.056-.232c0-.19.122-.31.325-.31.146 0 .239.058.312.193.125.246.315.393.681.393.362 0 .61-.21.61-.503.003-.342-.248-.532-.675-.532H3.95c-.179 0-.281-.105-.281-.264 0-.154.102-.261.28-.261h.145c.368 0 .608-.2.608-.489 0-.283-.19-.47-.547-.47-.298 0-.479.124-.593.373-.081.166-.166.227-.333.227-.205 0-.31-.12-.31-.298 0-.083.018-.154.054-.237.156-.344.557-.632 1.18-.632.744 0 1.247.368 1.247.932 0 .447-.32.74-.735.826v.014c.525.05.864.357.864.843 0 .64-.554 1.064-1.372 1.064"/></svg>