<svg xmlns="http://www.w3.org/2000/svg" viewBox="0 0 16 17" preserveAspectRatio="xMidYMin meet"><path d="M1.386 13.036a7.5 7.5 0 0 1 5.999-11.01.58.58 0 0 1 .615.59h-.567l.051.629-.1.017a6.269 6.269 0 1 0 5.462 2.263c-.216-.263-.218-.652.022-.893a.58.58 0 0 1 .853.018l.18.22a7.5 7.5 0 1 1-12.515 8.166M8 2.616l-.013.125a.67.67 0 0 1-.503.504l-.051-.628z"/><path d="M9.888 2.67a.1.1 0 0 1 0 .162l-2.73 1.97A.1.1 0 0 1 7 4.72V.78A.1.1 0 0 1 7.16.7zM10.285 12.26c-1.25 0-2.013-.987-2.013-2.583 0-1.593.769-2.57 2.013-2.57s2.01.974 2.01 2.566c0 1.593-.759 2.588-2.01 2.588m0-.826c.609 0 .96-.626.96-1.757 0-1.125-.355-1.743-.96-1.743-.601 0-.964.622-.964 1.743 0 1.131.356 1.757.964 1.757M5.78 12.26c-.94 0-1.517-.406-1.75-.892a.74.74 0 0 1-.078-.325c0-.266.17-.434.454-.434.205 0 .335.082.438.27.174.346.44.55.953.55.506 0 .855-.293.855-.703.003-.479-.349-.746-.947-.746H5.49c-.25 0-.393-.146-.393-.369 0-.215.143-.365.393-.365h.201c.517 0 .851-.28.851-.684 0-.396-.266-.66-.765-.66-.417 0-.67.175-.83.523-.114.233-.233.318-.466.318-.287 0-.434-.167-.434-.417a.8.8 0 0 1 .076-.331c.218-.482.779-.886 1.65-.886 1.043 0 1.747.516 1.747 1.306 0 .626-.448 1.036-1.029 1.155v.02c.735.07 1.21.5 1.21 1.18 0 .896-.776 1.49-1.92 1.49"/></svg>