<svg xmlns="http://www.w3.org/2000/svg" viewBox="0 0 13 15" preserveAspectRatio="xMidYMin meet"><path d="M1.5 12A1.5 1.5 0 0 0 3 13.5h7a1.5 1.5 0 0 0 1.5-1.5v-1H13v1a3 3 0 0 1-3 3H3a3 3 0 0 1-3-3v-1h1.5z"/><path d="M11.5 11.01a.75.75 0 0 1 1.5 0v1h-1.5zM0 11.01a.75.75 0 0 1 1.5 0v1H0zM7.25.75v8.5a.75.75 0 0 1-1.496.077L5.75 9.25V.75l.004-.077a.75.75 0 0 1 1.492 0z"/><path d="M7.03 9.78a.75.75 0 0 1-1.003.052L5.97 9.78l-3-3-.052-.056a.75.75 0 0 1 1.056-1.056l.057.052 3 3 .051.056a.75.75 0 0 1-.051 1.004"/><path d="M7.03 9.78a.75.75 0 1 1-1.06-1.06l3-3a.75.75 0 1 1 1.06 1.06z"/></svg>