<svg xmlns="http://www.w3.org/2000/svg" viewBox="0 0 24.637 24" preserveAspectRatio="xMidYMin meet"><path d="M22.854 22.689c-.356-.316-.827-1.144-1.419-2.482L12.554 0h-.709L4.418 17.493c-1.112 2.621-1.898 4.226-2.356 4.812-.458.586-1.146.93-2.062 1.034V24h7.062v-.661c-.834-.07-1.401-.173-1.702-.312-.486-.23-.73-.646-.73-1.247 0-.3.09-.708.27-1.222.18-.514.733-1.937 1.659-4.269h9.393l1.427 3.429c.209.486.372.947.487 1.385.116.44.174.746.174.919 0 .52-.15.846-.451.978-.303.134-.974.246-2.016.339V24h9.064v-.662c-.835-.115-1.429-.332-1.783-.649zM7.162 14.846l4.104-9.816 4.084 9.816H7.162z"/></svg>