<svg xmlns="http://www.w3.org/2000/svg" viewBox="0 0 24 24" preserveAspectRatio="xMidYMin meet"><path fill-rule="evenodd" d="M8.022 21.605a4.502 4.502 0 01-5.626-5.626 4.5 4.5 0 01-.001-7.957 4.498 4.498 0 011.12-4.506 4.5 4.5 0 014.507-1.12 4.502 4.502 0 017.957-.001 4.5 4.5 0 014.507 1.12 4.5 4.5 0 011.12 4.507 4.5 4.5 0 01-.002 7.957 4.501 4.501 0 01-5.626 5.627A4.499 4.499 0 0112 24a4.497 4.497 0 01-3.978-2.395z" clip-rule="evenodd"/><circle cx="8" cy="12" r="1"/><circle cx="11" cy="15" r="1"/><circle cx="16" cy="10" r="1"/><path fill-rule="evenodd" d="M10.293 15.707l-3-3 1.414-1.414 3 3-1.414 1.414z" clip-rule="evenodd"/><path fill-rule="evenodd" d="M10.293 14.293l5-5 1.414 1.414-5 5-1.414-1.414z" clip-rule="evenodd"/></svg>