<svg xmlns="http://www.w3.org/2000/svg" viewBox="0 0 18 15" preserveAspectRatio="xMidYMin meet"><path d="M15.88 2.37A3.77 3.77 0 0 0 17.5.28a7.343 7.343 0 0 1-2.34.92 3.658 3.658 0 0 0-2.7-1.2 3.74 3.74 0 0 0-3.69 3.789v.001c0 .289.03.577.09.86a10.443 10.443 0 0 1-7.61-4 3.939 3.939 0 0 0-.5 1.95A3.819 3.819 0 0 0 2.4 5.75a3.56 3.56 0 0 1-1.68-.48v.05A3.78 3.78 0 0 0 3.69 9a3.92 3.92 0 0 1-1 .13c-.23.011-.461.001-.69-.03a3.71 3.71 0 0 0 3.45 2.63 7.354 7.354 0 0 1-4.57 1.62 8.61 8.61 0 0 1-.88 0A10.282 10.282 0 0 0 5.66 15c6.79 0 10.51-5.77 10.51-10.78v-.49A7.362 7.362 0 0 0 18 1.77a6.905 6.905 0 0 1-2.12.6z"/></svg>