<svg xmlns="http://www.w3.org/2000/svg" xmlns:xlink="http://www.w3.org/1999/xlink" viewBox="0 0 18 15" preserveAspectRatio="xMidYMin meet"><defs><path id="a" d="M0 0h18v15H0z"/></defs><clipPath id="b"><use overflow="visible" xlink:href="#a"/></clipPath><g clip-path="url(#b)"><path d="M15.88 2.37A3.77 3.77 0 0017.5.28a7.343 7.343 0 01-2.34.92 3.664 3.664 0 00-2.7-1.2 3.742 3.742 0 00-3.69 3.789v.001c0 .289.03.577.09.86a10.431 10.431 0 01-4.236-1.181A10.43 10.43 0 011.25.65a3.939 3.939 0 00-.5 1.95A3.826 3.826 0 002.4 5.75a3.56 3.56 0 01-1.68-.48v.05A3.78 3.78 0 003.69 9a3.92 3.92 0 01-1 .13c-.23.011-.461.001-.69-.03a3.712 3.712 0 003.45 2.63 7.354 7.354 0 01-4.57 1.62 8.61 8.61 0 01-.88 0A10.282 10.282 0 005.66 15c6.79 0 10.51-5.77 10.51-10.78v-.49A7.362 7.362 0 0018 1.77a6.905 6.905 0 01-2.12.6z"/></g></svg>