<svg xmlns="http://www.w3.org/2000/svg" xmlns:xlink="http://www.w3.org/1999/xlink" viewBox="0 0 13.995 14" preserveAspectRatio="xMidYMin meet"><defs><path id="a" d="M0 0h13.995v14H0z"/></defs><clipPath id="b"><use overflow="visible" xlink:href="#a"/></clipPath><g clip-path="url(#b)"><path d="M1 2a1 1 0 100-2 1 1 0 000 2zM1 14a1 1 0 100-2 1 1 0 000 2zM12.995 8a1 1 0 100-2 1 1 0 000 2z"/><path d="M.995 1l12 6-12-6zm-.447.895L1.443.106l12 6-.895 1.79-12-6.001z"/><path d="M1 13V1v12zM0 1h2v12H0V1z"/><path d="M.995 13l12-6-12 6zm-.447-.895l12-6 .894 1.79-12 6-.894-1.79z"/></g></svg>