<svg xmlns="http://www.w3.org/2000/svg" viewBox="0 0 16 16" preserveAspectRatio="xMidYMin meet">
  <circle cx="8.75" cy="8.088" r="8"/>
  <path fill="#ffffff" d="M4.58 12.376c.712.71 1.756.72 2.467-.09.725-.827 1.52-2.334 2.634-3.45.744-.746 1.602-.103 2.734-.926.729-.446 1.183-1.338.987-2.138l-1.608.438c-.182.05-.306-.06-.361-.248l-.114-.4c-.055-.188.012-.344.193-.392l1.62-.442a1.76 1.76 0 0 0-.415-.702c-.96-.977-2.569-.992-3.52-.089-1.402 1.335-.41 2.656-1.173 3.415-1.025 1.023-2.536 1.832-3.36 2.557-.809.714-.795 1.756-.084 2.467Zm.546-.544c-.392-.4-.386-.98.073-1.386.806-.708 2.423-1.6 3.373-2.548 1.063-1.063-.042-2.294 1.175-3.413.663-.611 1.851-.584 2.528.13l.265-.466-1.23.323c-.625.165-.9.658-.714 1.302l.11.378c.2.696.615.93 1.204.771l1.288-.348-.487-.244c-.08.306-.232.589-.47.823-.927.906-2.058.094-3.106 1.136-1.032 1.031-1.915 2.656-2.622 3.467-.414.473-.998.475-1.387.075Zm.675-.248a.427.427 0 1 0 0-.854.427.427 0 0 0 0 .854Z"/>
</svg>