<svg xmlns="http://www.w3.org/2000/svg" viewBox="0 0 18 18.94"><g data-name="Layer 2"><g data-name="Icon: New"><path stroke="currentColor" stroke-miterlimit="10" stroke-width="2" d="M17 9.94a8 8 0 1 1-8-8"/><path d="M15 1.94L11.65 0v3.87L15 1.94zm-4 0L7.65 0v3.87L11 1.94zm-5.47 9.87a2.35 2.35 0 0 0 1.15.33c.9 0 1.18-.58 1.17-1 0-.73-.66-1-1.34-1h-.39v-.58h.39c.51 0 1.16-.26 1.16-.88 0-.42-.26-.78-.91-.78a1.91 1.91 0 0 0-1 .34l-.18-.51a2.48 2.48 0 0 1 1.36-.4c1 0 1.49.61 1.49 1.24a1.29 1.29 0 0 1-1 1.22 1.35 1.35 0 0 1 1.16 1.34c0 .83-.65 1.56-1.89 1.56a2.64 2.64 0 0 1-1.35-.35zM12.92 10c0 1.77-.66 2.74-1.81 2.74s-1.7-1-1.72-2.67.75-2.7 1.81-2.7 1.72.94 1.72 2.63zm-2.82 0c0 1.35.42 2.12 1.05 2.12s1.06-.84 1.06-2.17-.33-2.12-1.06-2.12-1.05.8-1.05 2.17z"/></g></g></svg>