<svg xmlns="http://www.w3.org/2000/svg" width="21" height="21" viewBox="0 0 21 21" preserveAspectRatio="xMidYMin meet"><path d="M2 3a1 1 0 11-2 0 1 1 0 012 0zM9 3a1 1 0 11-2 0 1 1 0 012 0zM19 13a1 1 0 11-2 0 1 1 0 012 0zM2 20a1 1 0 11-2 0 1 1 0 012 0zM19 20a1 1 0 11-2 0 1 1 0 012 0z"/><path d="M1 2h7v2H1V2zM1 19h17v2H1v-2z"/><path d="M0 3h2v17H0V3zM17 13h2v7h-2v-7zM10 15a1 1 0 11-2 0 1 1 0 012 0zM7 12a1 1 0 11-2 0 1 1 0 012 0zM7 15a1 1 0 11-2 0 1 1 0 012 0zM18 1a1 1 0 11-2 0 1 1 0 012 0zM21 4a1 1 0 11-2 0 1 1 0 012 0z"/><path d="M6 14h3v2H6v-2z"/><path d="M5 12h2v3H5v-3z"/><path fill-rule="evenodd" d="M17.707 1.707l-11 11-1.414-1.414 11-11 1.414 1.414zm3 3l-11 11-1.414-1.414 11-11 1.414 1.414z" clip-rule="evenodd"/><path fill-rule="evenodd" d="M19.293 4.707l-3-3L17.707.293l3 3-1.414 1.414z" clip-rule="evenodd"/></svg>