<svg xmlns="http://www.w3.org/2000/svg" data-name="Layer 1" viewBox="0 0 18 15"><g data-name="Feedbin-New-Layout-Copy-12"><g data-name="8800"><path d="M18 1.77a6.89 6.89 0 0 1-2.12.6A3.77 3.77 0 0 0 17.5.28a7.33 7.33 0 0 1-2.34.92 3.66 3.66 0 0 0-2.7-1.2 3.74 3.74 0 0 0-3.69 3.79 4.12 4.12 0 0 0 .09.86 10.44 10.44 0 0 1-7.61-4 3.94 3.94 0 0 0-.5 1.95A3.82 3.82 0 0 0 2.4 5.75a3.56 3.56 0 0 1-1.68-.48v.05A3.78 3.78 0 0 0 3.69 9a3.93 3.93 0 0 1-1 .13A3.84 3.84 0 0 1 2 9.1a3.71 3.71 0 0 0 3.45 2.63 7.35 7.35 0 0 1-4.57 1.62 8.49 8.49 0 0 1-.88 0A10.28 10.28 0 0 0 5.66 15c6.79 0 10.51-5.77 10.51-10.78v-.49A7.35 7.35 0 0 0 18 1.77z" data-name="Shape"/></g></g></svg>