<svg xmlns="http://www.w3.org/2000/svg" viewBox="0 0 16 16" preserveAspectRatio="xMidYMin meet"><g clip-path="url(#clip0_3900_5057)"><path d="M15 8a7 7 0 1 0-7 7v1A8 8 0 1 1 8 0a8 8 0 0 1 0 16v-1a7 7 0 0 0 7-7"/><path d="M4.147 7.647a.5.5 0 0 1 .629-.065l.078.065 2.5 2.5.064.078a.5.5 0 0 1-.693.693l-.078-.064-2.5-2.5-.065-.078a.5.5 0 0 1 .065-.63"/><path d="M10.663 4.63a.5.5 0 0 1 .792.577l-.05.087-4 5.5a.5.5 0 1 1-.81-.588l4-5.5z"/></g><defs><clipPath id="clip0_3900_5057"><path d="M0 0H16V16H0z"/></clipPath></defs></svg>