<svg xmlns="http://www.w3.org/2000/svg" preserveAspectRatio="xMidYMin meet" viewBox="0 0 8 8"><g clip-path="url(#clip0_3900_5033)"><path d="m6.475.818.707.707-5.657 5.657-.707-.707z"/><path d="M7.182 1.526a.5.5 0 1 1-.707-.708.5.5 0 0 1 .707.708M1.525 7.183a.5.5 0 1 1-.707-.707.5.5 0 0 1 .707.707M.818 1.525l.707-.707 5.657 5.657-.707.707z"/><path d="M1.525.818a.5.5 0 1 1-.707.707.5.5 0 0 1 .707-.707m5.657 5.658a.5.5 0 1 1-.707.707.5.5 0 0 1 .707-.707"/></g><defs><clipPath id="clip0_3900_5033"><path d="M0 0h8v8H0z"/></clipPath></defs></svg>