<svg xmlns="http://www.w3.org/2000/svg" viewBox="0 0 16 16" preserveAspectRatio="xMidYMin meet"><path d="M14.5 8A6.5 6.5 0 1 0 8 14.5V16A8 8 0 1 1 8 0a8 8 0 0 1 0 16v-1.5A6.5 6.5 0 0 0 14.5 8"/><path d="M8.25 10.25a.75.75 0 1 1-1.5 0 .75.75 0 0 1 1.5 0"/><path d="M10.712 4.978a.75.75 0 0 1 1.171.924l-.044.063-3.75 4.75a.75.75 0 0 1-1.178-.93l3.75-4.75z"/><path d="M3.9 7.55a.75.75 0 0 1 .987-.193l.063.043 3 2.25.059.05a.75.75 0 0 1-.895 1.193l-.064-.043-3-2.25-.059-.05a.75.75 0 0 1-.09-1"/></svg>