<?xml version="1.0" encoding="iso-8859-1"?>
<!-- Generator: Adobe Illustrator 22.1.0, SVG Export Plug-In . SVG Version: 6.00 Build 0)  -->
<svg version="1.1" id="Layer_1" xmlns="http://www.w3.org/2000/svg" xmlns:xlink="http://www.w3.org/1999/xlink" x="0px" y="0px"
	 viewBox="0 0 126.354 54.875" enable-background="new 0 0 126.354 54.875" xml:space="preserve">
<g>
	<path d="M1.431,32.819c-0.264,0-0.473,0.204-0.507,0.495L0,40.332l0.924,6.898c0.034,0.291,0.243,0.493,0.507,0.493
		c0.255,0,0.463-0.201,0.504-0.491v-0.001v0.001l1.095-6.9l-1.095-7.02C1.896,33.023,1.685,32.819,1.431,32.819L1.431,32.819z
		 M6.627,28.985c-0.044-0.302-0.26-0.51-0.526-0.51c-0.268,0-0.489,0.215-0.526,0.51c0,0.003-1.242,11.348-1.242,11.348
		l1.242,11.096c0.035,0.298,0.257,0.512,0.526,0.512c0.265,0,0.481-0.209,0.524-0.51l1.413-11.099L6.627,28.985L6.627,28.985z
		 M26.2,18.517c-0.51,0-0.931,0.417-0.955,0.947l-0.989,20.878l0.989,13.492c0.026,0.527,0.446,0.943,0.955,0.943
		c0.507,0,0.927-0.417,0.957-0.946v0.004l1.118-13.494l-1.118-20.878C27.127,18.934,26.707,18.517,26.2,18.517z M16.07,25.774
		c-0.391,0-0.711,0.313-0.742,0.73l-1.114,13.833l1.114,13.383c0.03,0.414,0.351,0.727,0.742,0.727c0.387,0,0.707-0.313,0.741-0.727
		l1.266-13.383L16.811,26.5C16.776,26.086,16.457,25.774,16.07,25.774z M36.495,54.776c0.632,0,1.145-0.51,1.171-1.162l0.97-13.265
		l-0.969-27.796c-0.026-0.652-0.54-1.162-1.171-1.162c-0.637,0-1.152,0.511-1.173,1.163l-0.86,27.793l0.86,13.271
		C35.344,54.265,35.859,54.776,36.495,54.776z M57.571,54.838c0.87,0,1.587-0.716,1.603-1.597v0.009v-0.009l0.677-12.885
		L59.174,8.255c-0.015-0.879-0.734-1.597-1.603-1.597c-0.871,0-1.59,0.716-1.603,1.598l-0.605,32.09
		c0,0.02,0.605,12.904,0.605,12.904C55.981,54.122,56.701,54.838,57.571,54.838z M46.953,54.788c0.757,0,1.367-0.607,1.387-1.382
		v0.009l0.823-13.064l-0.825-27.997c-0.02-0.775-0.63-1.381-1.387-1.381c-0.762,0-1.372,0.606-1.389,1.381L44.83,40.353
		l0.734,13.061C45.58,54.181,46.19,54.788,46.953,54.788L46.953,54.788z M21.115,54.666c0.45,0,0.814-0.36,0.848-0.834l1.193-13.495
		l-1.193-12.837c-0.033-0.474-0.397-0.832-0.848-0.832c-0.456,0-0.821,0.36-0.849,0.837l-1.051,12.832l1.051,13.494
		C20.296,54.306,20.659,54.666,21.115,54.666z M11.065,53.927c0.329,0,0.595-0.26,0.633-0.618l1.34-12.974L11.7,26.87
		c-0.039-0.36-0.306-0.62-0.635-0.62c-0.333,0-0.599,0.261-0.633,0.62L9.252,40.334l1.179,12.972
		C10.465,53.666,10.731,53.927,11.065,53.927L11.065,53.927z M52.242,11.889c-0.822,0-1.481,0.654-1.497,1.491l-0.669,26.975
		l0.669,12.98c0.016,0.826,0.674,1.48,1.497,1.48c0.821,0,1.476-0.652,1.495-1.489v0.011l0.75-12.98l-0.75-26.979
		C53.717,12.542,53.062,11.889,52.242,11.889L52.242,11.889z M31.329,54.803c0.568,0,1.037-0.463,1.064-1.055l1.044-13.403
		l-1.044-25.653c-0.029-0.593-0.496-1.054-1.064-1.054c-0.573,0-1.041,0.463-1.065,1.054l-0.924,25.653l0.925,13.408
		C30.288,54.34,30.755,54.803,31.329,54.803z M42.982,53.538v-0.007l0.897-13.181l-0.897-28.732
		c-0.022-0.713-0.584-1.273-1.279-1.273c-0.699,0-1.261,0.558-1.28,1.273l-0.796,28.73l0.798,13.188
		c0.019,0.707,0.582,1.265,1.279,1.265c0.696,0,1.256-0.558,1.279-1.269L42.982,53.538L42.982,53.538z M110.814,23.788
		c-2.129,0-4.161,0.431-6.012,1.207C103.566,10.988,91.82,0,77.492,0c-3.506,0-6.923,0.69-9.941,1.858
		c-1.173,0.454-1.485,0.921-1.496,1.828v49.327c0.012,0.951,0.75,1.743,1.678,1.837c0.039,0.004,42.803,0.026,43.08,0.026
		c8.583,0,15.541-6.959,15.541-15.543C126.354,30.748,119.397,23.788,110.814,23.788L110.814,23.788z M62.877,3.642
		c-0.934,0-1.7,0.766-1.714,1.708l-0.701,35.011l0.703,12.707c0.012,0.928,0.779,1.693,1.712,1.693c0.931,0,1.697-0.765,1.711-1.707
		v0.015l0.762-12.708L64.588,5.347C64.574,4.408,63.808,3.642,62.877,3.642L62.877,3.642z"/>
</g>
<g>
</g>
<g>
</g>
<g>
</g>
<g>
</g>
<g>
</g>
<g>
</g>
</svg>
