<svg xmlns="http://www.w3.org/2000/svg" preserveAspectRatio="xMidYMin meet" viewBox="0 0 12 14"><g clip-path="url(#clip0_3900_5035)"><path d="M8 0a.5.5 0 0 1 0 1H4a.5.5 0 0 1 0-1zm3.5 2a.5.5 0 0 1 0 1H.5a.5.5 0 0 1 0-1zM1 11.5v-7a.5.5 0 0 1 1 0v7A1.5 1.5 0 0 0 3.5 13h5a1.5 1.5 0 0 0 1.5-1.5v-7a.5.5 0 0 1 1 0v7A2.5 2.5 0 0 1 8.5 14h-5A2.5 2.5 0 0 1 1 11.5"/><path d="M3.5 9V5a.5.5 0 0 1 1 0v4a.5.5 0 0 1-1 0m2 2.5v-6a.5.5 0 0 1 1 0v6a.5.5 0 0 1-1 0m2-1.5V4.5a.5.5 0 0 1 1 0V10a.5.5 0 0 1-1 0"/></g><defs><clipPath id="clip0_3900_5035"><path d="M0 0h12v14H0z"/></clipPath></defs></svg>