<svg xmlns="http://www.w3.org/2000/svg" viewBox="0 0 17 17" preserveAspectRatio="xMidYMin meet"><path d="M6 2.145v1.5H3a1.5 1.5 0 0 0-1.5 1.5v8a1.5 1.5 0 0 0 1.5 1.5h8a1.5 1.5 0 0 0 1.5-1.5v-3H14v3l-.004.154a3 3 0 0 1-2.842 2.842l-.154.004H3l-.154-.004a3 3 0 0 1-2.842-2.842L0 13.145v-8a3 3 0 0 1 2.846-2.997L3 2.145z"/><path d="M6.75 2.895a.75.75 0 1 1-1.5 0 .75.75 0 0 1 1.5 0M14 10.145a.75.75 0 1 1-1.5 0 .75.75 0 0 1 1.5 0M5.184 10.96a.75.75 0 1 1-1.061 1.06.75.75 0 0 1 1.06-1.06M5.36 8.309a.75.75 0 1 1-1.06 1.06.75.75 0 0 1 1.06-1.06M13.139.53a.75.75 0 1 1-1.06 1.06.75.75 0 0 1 1.06-1.06M7.836 10.783a.75.75 0 1 1-1.061 1.06.75.75 0 0 1 1.06-1.06M15.614 3.005a.75.75 0 1 1-1.06 1.06.75.75 0 0 1 1.06-1.06"/><path d="m12.078.53 1.06 1.061L5.36 9.37 4.3 8.31z"/><path d="m13.139.53 2.475 2.475-1.061 1.06-2.475-2.474z"/><path d="m14.553 3.005 1.06 1.06-7.777 7.779-1.061-1.06z"/><path d="m7.255 10.565.1 1.497-2.652.177-.1-1.497z"/><path d="m5.579 8.888-.177 2.652-1.497-.1.177-2.651z"/></svg>