<svg width="48" height="48" xmlns="http://www.w3.org/2000/svg"><path d="M17.973,29.845v-0.321c0.446-0.051,0.781-0.219,1.004-0.504c0.223-0.286,0.606-1.067,1.148-2.345l3.617-8.52h0.346 l4.326,9.842c0.288,0.651,0.519,1.056,0.69,1.21s0.463,0.26,0.869,0.316v0.321h-4.415v-0.321c0.507-0.046,0.835-0.101,0.981-0.166 c0.146-0.064,0.221-0.223,0.221-0.476c0-0.085-0.029-0.233-0.086-0.447c-0.056-0.214-0.135-0.438-0.236-0.675l-0.695-1.67h-4.575 c-0.451,1.136-0.72,1.829-0.808,2.079c-0.087,0.25-0.131,0.448-0.131,0.595c0,0.293,0.119,0.495,0.356,0.607 c0.146,0.067,0.423,0.118,0.829,0.152v0.321H17.973z M25.449,25.387l-1.989-4.782l-1.999,4.782H25.449z"/></svg>