<svg xmlns="http://www.w3.org/2000/svg" viewBox="0 0 17 17" preserveAspectRatio="xMidYMin meet"><path d="M6 3v1.5H3A1.5 1.5 0 0 0 1.5 6v8A1.5 1.5 0 0 0 3 15.5h8a1.5 1.5 0 0 0 1.5-1.5v-3H14v3l-.004.154a3 3 0 0 1-2.842 2.842L11 17H3l-.154-.004a3 3 0 0 1-2.842-2.842L0 14V6a3 3 0 0 1 2.846-2.996L3 3z"/><path d="M6.75 3.75a.75.75 0 1 1-1.5 0 .75.75 0 0 1 1.5 0M14 11a.75.75 0 1 1-1.5 0 .75.75 0 0 1 1.5 0M5.184 11.815a.75.75 0 1 1-1.06 1.061.75.75 0 0 1 1.06-1.06M5.36 9.164a.75.75 0 1 1-1.06 1.06.75.75 0 0 1 1.06-1.06M13.139 1.386a.75.75 0 1 1-1.06 1.06.75.75 0 0 1 1.06-1.06M7.836 11.639a.75.75 0 1 1-1.061 1.06.75.75 0 0 1 1.06-1.06M15.614 3.86a.75.75 0 1 1-1.06 1.061.75.75 0 0 1 1.06-1.06"/><path d="m12.078 1.386 1.06 1.06-7.778 7.779-1.06-1.06z"/><path d="m13.139 1.386 2.475 2.475-1.061 1.06-2.475-2.475z"/><path d="m14.553 3.86 1.06 1.061L7.837 12.7l-1.061-1.06z"/><path d="m7.255 11.42.1 1.497-2.652.177-.1-1.497z"/><path d="m5.579 9.744-.177 2.652-1.497-.1.177-2.652z"/></svg>