<svg xmlns="http://www.w3.org/2000/svg" viewBox="0 0 17 17" preserveAspectRatio="xMidYMin meet"><path d="M7.588.533a1 1 0 0 1 1.77 0L11.3 4.215a1 1 0 0 0 .714.519l4.102.71a1 1 0 0 1 .547 1.681l-2.902 2.986a1 1 0 0 0-.272.84l.592 4.12c.108.745-.61 1.319-1.294 1.095l-.137-.056-3.735-1.836a1 1 0 0 0-.883 0L4.296 16.11l-.136.056a1 1 0 0 1-1.295-1.096l.592-4.12a1 1 0 0 0-.197-.752l-.075-.088L.284 7.126A1 1 0 0 1 .83 5.444l4.101-.71a1 1 0 0 0 .654-.42l.06-.099zm-.615 4.382a2.5 2.5 0 0 1-1.785 1.297l-3.169.547L4.26 9.066l.099.106a2.5 2.5 0 0 1 .6 1.848l-.016.143-.458 3.183 2.885-1.418.131-.06a2.5 2.5 0 0 1 1.944 0l.132.06 2.883 1.418-.457-3.183a2.5 2.5 0 0 1 .683-2.097l2.24-2.307-3.168-.547a2.5 2.5 0 0 1-1.785-1.297l-1.5-2.845z"/></svg>