<svg id="053b6e23-c2ca-4aa8-8b36-1aeab302f07f" data-name="Layer 1" xmlns="http://www.w3.org/2000/svg" viewBox="0 0 18 15"><title>Artboard 1</title><g id="51c0b8d7-ef7a-4aa0-ba17-bd40cc25058d" data-name="Feedbin-New-Layout-Copy-12"><g id="34f38965-4e44-4c9c-bf53-acc6e860b697" data-name="8800"><path id="e9f46f6a-0727-42d5-939f-96cf43acf77c" data-name="Shape" d="M18,1.77a6.89,6.89,0,0,1-2.12.6A3.77,3.77,0,0,0,17.5.28a7.33,7.33,0,0,1-2.34.92A3.66,3.66,0,0,0,12.46,0,3.74,3.74,0,0,0,8.77,3.79a4.12,4.12,0,0,0,.09.86,10.44,10.44,0,0,1-7.61-4A3.94,3.94,0,0,0,.75,2.6,3.82,3.82,0,0,0,2.4,5.75,3.56,3.56,0,0,1,.72,5.27v.05A3.78,3.78,0,0,0,3.69,9a3.93,3.93,0,0,1-1,.13A3.84,3.84,0,0,1,2,9.1a3.71,3.71,0,0,0,3.45,2.63A7.35,7.35,0,0,1,.88,13.35a8.49,8.49,0,0,1-.88,0A10.28,10.28,0,0,0,5.66,15c6.79,0,10.51-5.77,10.51-10.78l0-.49A7.35,7.35,0,0,0,18,1.77Z" /></g></g></svg>