<svg xmlns="http://www.w3.org/2000/svg" viewBox="0 0 17 17" preserveAspectRatio="xMidYMin meet"><path d="M7.615 1.177a1 1 0 0 1 1.77 0l1.942 3.682a1 1 0 0 0 .714.518l4.102.71a1 1 0 0 1 .546 1.682l-2.9 2.985a1 1 0 0 0-.273.84l.592 4.12c.108.746-.61 1.32-1.295 1.096l-.136-.056-3.736-1.837a1 1 0 0 0-.882 0l-3.736 1.837-.136.056a1 1 0 0 1-1.295-1.096l.592-4.12a1 1 0 0 0-.197-.752l-.075-.088L.31 7.77a1 1 0 0 1 .546-1.682l4.102-.71a1 1 0 0 0 .654-.42l.06-.098zM7 5.559a2.5 2.5 0 0 1-1.785 1.297l-3.17.547 2.242 2.306.099.107a2.5 2.5 0 0 1 .6 1.847l-.016.144-.458 3.182 2.884-1.418.132-.06a2.5 2.5 0 0 1 1.944 0l.132.06 2.883 1.418-.457-3.182a2.5 2.5 0 0 1 .683-2.098l2.24-2.306-3.168-.547A2.5 2.5 0 0 1 10 5.559L8.5 2.714z"/></svg>