<svg xmlns="http://www.w3.org/2000/svg" viewBox="0 0 24.969 25" preserveAspectRatio="xMidYMin meet"><g><path d="M.561 6.234l11.164 4.931c.427.145 1 .126 1.377 0l11.36-4.931c.675-.238.675-1.091 0-1.378L13.103.12c-.378-.157-1.049-.162-1.377 0L.561 4.856c-.748.318-.748.975 0 1.378zM24.462 18.578l-2.502-1.044-8.858 3.843c-.474.184-.92.169-1.377 0l-8.706-3.843-2.458 1.044c-.748.314-.748 1.025 0 1.374l11.164 4.93a2.07 2.07 0 001.377 0l11.359-4.93c.676-.373.676-.972.001-1.374z"/><path d="M24.462 11.674l-2.502-1.043-8.858 3.845a1.847 1.847 0 01-1.377 0l-8.706-3.845-2.458 1.043c-.748.318-.748 1.03 0 1.378l11.164 4.932a2.07 2.07 0 001.377 0l11.359-4.932c.676-.372.676-.975.001-1.378z"/></g></svg>