<svg xmlns="http://www.w3.org/2000/svg" viewBox="0 0 16 8" preserveAspectRatio="xMidYMin meet"><path d="M12.571 4.906V1.143H6.286a.57.57 0 1 1 0-1.143h6.857a.57.57 0 0 1 .571.571v4.335l1.31-1.31a.572.572 0 0 1 .808.808L13.547 6.69a.572.572 0 0 1-.808 0l-2.286-2.286a.572.572 0 0 1 .808-.808l1.31 1.31zM2.286 3.094l-1.31 1.31a.572.572 0 0 1-.808-.808L2.453 1.31a.572.572 0 0 1 .808 0l2.286 2.286a.572.572 0 0 1-.808.808l-1.31-1.31v3.763h6.286A.57.57 0 1 1 9.714 8H2.857a.571.571 0 0 1-.571-.571V3.094z"/></svg>