<svg xmlns="http://www.w3.org/2000/svg" preserveAspectRatio="xMidYMin meet" viewBox="0 0 7 12"><path d="M1.496 11.408a.5.5 0 1 1-1 0 .5.5 0 0 1 1 0m5 0a.5.5 0 1 1-1 0 .5.5 0 0 1 1 0"/><path d="M5.996 10.908v1h-5v-1z"/><path d="M3.996 7.908v4h-1v-4zm-1.25-2v-5a.75.75 0 1 1 1.5 0v5a.75.75 0 1 1-1.5 0"/><path d="M1.496 5.908a2 2 0 0 0 1.803 1.99l.197.01v1l-.294-.014a3 3 0 0 1-.577-.115l-.278-.1a3 3 0 0 1-.755-.451l-.217-.199a3 3 0 0 1-.525-.707l-.126-.265a3 3 0 0 1-.228-1.149zm5 0a3 3 0 0 1-.229 1.149l-.126.265a3 3 0 0 1-.524.707l-.218.199a3 3 0 0 1-.755.452l-.278.1a3 3 0 0 1-.87.128v-1a2 2 0 0 0 1.268-.454l.146-.132a2 2 0 0 0 .35-.47l.083-.178q.114-.274.143-.57l.01-.196zm-6-1h1v1h-1z"/><path d="M1.496 4.908a.5.5 0 1 1-1 0 .5.5 0 0 1 1 0m4.004 0h1v1h-1z"/><path d="M6.5 4.908a.5.5 0 1 1-1 0 .5.5 0 0 1 1 0"/></svg>