<svg xmlns="http://www.w3.org/2000/svg" viewBox="0 0 14 15" preserveAspectRatio="xMidYMin meet"><path d="M13.5 12a3 3 0 0 1-2.846 2.996L10.5 15h-7l-.154-.004A3 3 0 0 1 .5 12V9H2v3a1.5 1.5 0 0 0 1.5 1.5h7A1.5 1.5 0 0 0 12 12V9h1.5zM12 8a.75.75 0 0 1 1.5 0v1H12zM.5 8A.75.75 0 0 1 2 8v1H.5z"/><path d="M6.25 9.5V1a.75.75 0 0 1 1.5 0v8.5a.75.75 0 0 1-1.5 0"/><path d="M6.43.512a.75.75 0 0 1 .998-.128l.06.047 3.5 3 .056.052a.75.75 0 0 1-.972 1.133l-.06-.047-3.5-3-.056-.052A.75.75 0 0 1 6.431.512"/><path d="M6.512.43a.75.75 0 0 1 .976 1.14l-3.5 3a.75.75 0 0 1-.976-1.14z"/></svg>