<svg xmlns="http://www.w3.org/2000/svg" xmlns:xlink="http://www.w3.org/1999/xlink" viewBox="0 0 16.753 16.002" preserveAspectRatio="xMidYMin meet"><defs><path id="a" d="M0 0h16.753v16H0z"/></defs><clipPath id="b"><use overflow="visible" xlink:href="#a"/></clipPath><g clip-path="url(#b)"><path d="M16.72 6.063a.675.675 0 00-.542-.457l-4.975-.722L8.979.375a.673.673 0 00-1.205 0L5.55 4.883l-4.975.722a.678.678 0 00-.542.458.667.667 0 00.17.688l3.6 3.508-.85 4.954a.681.681 0 00.613.783.68.68 0 00.36-.073l4.45-2.338 4.45 2.339a.667.667 0 00.936-.34.67.67 0 00.038-.368l-.85-4.954 3.6-3.508a.68.68 0 00.17-.691zm-5.165 2.766l-.753.734.178 1.036.395 2.3-2.067-1.086-.93-.489-.93.489L5.379 12.9l.395-2.302.178-1.036-.754-.735-1.671-1.629 2.31-.335 1.041-.151.465-.943 1.033-2.094L9.41 5.769l.465.943 1.041.151 2.311.336-1.672 1.63z"/></g></svg>