<svg width="24" height="24" viewBox="0 0 20 20" version="1.1" xmlns="http://www.w3.org/2000/svg" xmlns:xlink="http://www.w3.org/1999/xlink"><path d="M92,1494.0205 C92,1494.5615 92.439,1495.0005 92.98,1495.0005 L93.02,1495.0005 C93.561,1495.0005 94,1494.5615 94,1494.0205 L94,1491.0005 C94,1489.8955 93.105,1489.0005 92,1489.0005 L88.872,1489.0005 C88.337,1489.0005 88,1489.4305 88,1489.9665 L88,1490.0065 C88,1490.5525 88.325,1491.0005 88.872,1491.0005 L89.423,1491.0005 C89.869,1491.0005 90.092,1491.5405 89.776,1491.8545 L84.696,1496.9105 C84.312,1497.2925 84.311,1497.9145 84.693,1498.2975 L84.698,1498.3025 C85.081,1498.6865 85.704,1498.6855 86.086,1498.3005 L91.145,1493.2105 C91.46,1492.8945 92,1493.1175 92,1493.5635 L92,1494.0205 Z M104,1485.0005 L104,1497.4245 C104,1498.2945 103.294,1499.0005 102.424,1499.0005 L93,1499.0005 C92.448,1499.0005 92,1498.5525 92,1498.0005 C92,1497.4485 92.448,1497.0005 93,1497.0005 L101,1497.0005 C101.552,1497.0005 102,1496.5525 102,1496.0005 L102,1485.5765 C102,1485.2585 101.742,1485.0005 101.424,1485.0005 L94.609,1485.0005 C93.846,1485.0005 93.149,1484.5655 92.813,1483.8795 L91.678,1481.5605 C91.51,1481.2175 91.161,1481.0005 90.779,1481.0005 L87,1481.0005 C86.448,1481.0005 86,1481.4485 86,1482.0005 L86,1490.0005 C86,1490.5525 85.552,1491.0005 85,1491.0005 C84.448,1491.0005 84,1490.5525 84,1490.0005 L84,1481.4245 C84,1480.0915 85.091,1479.0005 86.424,1479.0005 L91.188,1479.0005 C91.946,1479.0005 92.638,1479.4285 92.977,1480.1055 L93.871,1481.8945 C94.21,1482.5725 94.903,1483.0005 95.66,1483.0005 L102,1483.0005 C103.105,1483.0005 104,1483.8955 104,1485.0005 L104,1485.0005 Z" id="directory_arrow_up-[#1669]">
</svg>