<svg xmlns="http://www.w3.org/2000/svg" viewBox="0 0 16.753 16" preserveAspectRatio="xMidYMin meet"><path d="M16.72 6.063a.672.672 0 0 0-.542-.457l-4.975-.722L8.979.375a.672.672 0 0 0-1.205 0L5.55 4.883l-4.975.722a.672.672 0 0 0-.372 1.146l3.6 3.508-.85 4.954a.673.673 0 0 0 .973.709l4.45-2.338 4.45 2.339a.67.67 0 0 0 .975-.708l-.85-4.954 3.6-3.508a.677.677 0 0 0 .169-.69zm-5.165 2.766l-.753.734.178 1.036.395 2.3-2.067-1.086-.93-.489-.93.489L5.379 12.9l.395-2.302.178-1.036-.754-.735-1.671-1.629 2.31-.335 1.041-.151.465-.943 1.033-2.094L9.41 5.769l.465.943 1.041.151 2.311.336-1.672 1.63z"/></svg>