<svg xmlns="http://www.w3.org/2000/svg" viewBox="0 0 18 18.94"><title>Skip-Forward</title><g id="d5c4b89c-030f-4c41-96e8-e22de69279f3" data-name="Layer 2"><g id="bec8eabf-ca79-419a-8447-db1ce8785931" data-name="Icon: New"><path d="M17,9.94a8,8,0,1,1-8-8" fill="none" stroke="currentColor" stroke-miterlimit="10" stroke-width="2"/><path d="M6.69,7.72h0L5.12,8.84V8.07L6.69,6.94h.72v5.9H6.69Z"/><path d="M8.87,11.23H9.6a1.23,1.23,0,0,0,1.31,1.06,1.29,1.29,0,0,0,1.36-1.35,1.3,1.3,0,0,0-1.35-1.36,1.42,1.42,0,0,0-1.26.66H9l.32-3.3h3.38v.65H9.89L9.71,9.51h0A1.63,1.63,0,0,1,11,8.94a1.9,1.9,0,0,1,2,2,2,2,0,0,1-2.1,2A1.88,1.88,0,0,1,8.87,11.23Z"/><polygon points="15 1.94 11.65 0 11.65 3.87 15 1.94"/><polygon points="11 1.94 7.65 0 7.65 3.87 11 1.94"/></g></g></svg>