<svg xmlns="http://www.w3.org/2000/svg" width="13" height="16" viewBox="0 0 13 16" preserveAspectRatio="xMidYMin meet"><path fill-rule="evenodd" d="M6.438 8c1.145 0 2.046-.91 2.046-2 0-1.09-.901-2-2.046-2-1.146 0-2.047.91-2.047 2 0 1.09.901 2 2.046 2zm0 1C8.12 9 9.483 7.657 9.483 6S8.12 3 6.438 3C4.755 3 3.39 4.343 3.39 6s1.364 3 3.046 3z" clip-rule="evenodd"/><path fill-rule="evenodd" d="M10.693 8.497c.556-1.064.838-1.923.838-2.497 0-2.747-2.266-5-5.094-5C3.61 1 1.345 3.253 1.345 6c0 .574.282 1.433.838 2.497.54 1.031 1.27 2.133 2.016 3.156a49.093 49.093 0 0 0 2.24 2.827 49.684 49.684 0 0 0 2.239-2.827c.747-1.023 1.477-2.125 2.016-3.156zM7.1 15.243c1.58-1.844 5.43-6.609 5.43-9.243 0-3.314-2.728-6-6.094-6C3.072 0 .345 2.686.345 6c0 2.634 3.85 7.399 5.43 9.243.407.476.663.757.663.757s.257-.281.664-.757z" clip-rule="evenodd"/></svg>