<svg xmlns="http://www.w3.org/2000/svg" viewBox="0 0 14 16" preserveAspectRatio="xMidYMin meet"><path d="M11 14.5V16H3v-1.5zm1.5-1.5V3A1.5 1.5 0 0 0 11 1.5H3A1.5 1.5 0 0 0 1.5 3v10A1.5 1.5 0 0 0 3 14.5V16l-.154-.004A3 3 0 0 1 0 13V3A3 3 0 0 1 2.846.004L3 0h8l.154.004A3 3 0 0 1 14 3v10a3 3 0 0 1-2.846 2.996L11 16v-1.5a1.5 1.5 0 0 0 1.5-1.5"/><path d="M7 4.25v1.5H3.5a.75.75 0 0 1 0-1.5zM10.5 4.25a.75.75 0 0 1 0 1.5h-2v-1.5zM10.5 7.25a.75.75 0 0 1 0 1.5h-7a.75.75 0 0 1 0-1.5zM5.5 10.25v1.5h-2a.75.75 0 0 1 0-1.5zM10.5 10.25l.077.004a.75.75 0 0 1 0 1.492l-.077.004H7v-1.5z"/></svg>