<svg xmlns="http://www.w3.org/2000/svg" viewBox="0 0 21 21" preserveAspectRatio="xMidYMin meet"><circle cx="8" cy="3" r="1"/><circle cx="18" cy="13" r="1"/><path d="M10 15a1 1 0 11-2 0 1 1 0 012 0zM7 12a1 1 0 11-2 0 1 1 0 012 0zM7 15a1 1 0 11-2 0 1 1 0 012 0zM18 1a1 1 0 11-2 0 1 1 0 012 0zM21 4a1 1 0 11-2 0 1 1 0 012 0z"/><path d="M6 14h3v2H6v-2z"/><path d="M5 12h2v3H5v-3z"/><path fill-rule="evenodd" d="M17.707 1.707l-11 11-1.414-1.414 11-11 1.414 1.414zm3 3l-11 11-1.414-1.414 11-11 1.414 1.414z" clip-rule="evenodd"/><path fill-rule="evenodd" d="M19.293 4.707l-3-3L17.707.293l3 3-1.414 1.414z" clip-rule="evenodd"/><path d="M16 21H3c-1.654 0-3-1.346-3-3V5c0-1.654 1.346-3 3-3h5v2H3c-.551 0-1 .449-1 1v13c0 .552.449 1 1 1h13a1 1 0 001-1v-5h2v5c0 1.654-1.346 3-3 3z"/></svg>