<svg xmlns="http://www.w3.org/2000/svg" viewBox="0 0 16 16" preserveAspectRatio="xMidYMin meet"><g clip-path="url(#clip0_4086_468)"><path d="M8 0C3.589 0 0 3.588 0 8s3.589 8 8 8 8-3.588 8-8-3.589-8-8-8m0 13.713A5.715 5.715 0 0 1 8 2.284a5.718 5.718 0 0 1 3.962 9.713A5.72 5.72 0 0 1 8 13.713"/><path fill-rule="evenodd" d="M5.293 5.293a1 1 0 0 1 1.414 0l4 4a1 1 0 0 1-1.414 1.414l-4-4a1 1 0 0 1 0-1.414" clip-rule="evenodd"/></g><defs><clipPath id="clip0_4086_468"><path d="M0 0H16V16H0z"/></clipPath></defs></svg>