<svg xmlns="http://www.w3.org/2000/svg" viewBox="0 0 18 18.94"><title>30-skip-back</title><g id="6695eee4-4c91-4565-bf1c-76bebe64f655" data-name="Layer 2"><g id="d7ce2bd2-f050-4cd6-ab16-bcea51740496" data-name="Icon: New"><path d="M1,9.94a8,8,0,1,0,8-8" fill="none" stroke="currentColor" stroke-miterlimit="10" stroke-width="2"/><polygon points="3 1.94 6.35 0 6.35 3.87 3 1.94"/><polygon points="7 1.94 10.35 0 10.35 3.87 7 1.94"/><path d="M5.53,11.81a2.35,2.35,0,0,0,1.15.33c.9,0,1.18-.58,1.17-1,0-.73-.66-1-1.34-1H6.12V9.56h.39c.51,0,1.16-.26,1.16-.88,0-.42-.26-.78-.91-.78a1.91,1.91,0,0,0-1,.34l-.18-.51a2.47,2.47,0,0,1,1.36-.4c1,0,1.49.61,1.49,1.24a1.29,1.29,0,0,1-1,1.22v0a1.35,1.35,0,0,1,1.16,1.34c0,.83-.65,1.56-1.89,1.56a2.64,2.64,0,0,1-1.35-.35Z"/><path d="M12.92,10c0,1.77-.66,2.74-1.81,2.74s-1.7-1-1.72-2.67.75-2.7,1.81-2.7S12.92,8.31,12.92,10ZM10.1,10c0,1.35.42,2.12,1.05,2.12s1.06-.84,1.06-2.17-.33-2.12-1.06-2.12S10.1,8.63,10.1,10Z"/></g></g></svg>