<svg xmlns="http://www.w3.org/2000/svg" xmlns:xlink="http://www.w3.org/1999/xlink" viewBox="0 0 22 22" preserveAspectRatio="xMidYMin meet"><defs><path id="a" d="M0 0h22v22H0z"/></defs><clipPath id="b"><use overflow="visible" xlink:href="#a"/></clipPath><g clip-path="url(#b)"><path d="M21.707.293A.998.998 0 0021 0h-5a.997.997 0 00-1 1 .997.997 0 001 1h2.586L9 11.586V9a.997.997 0 00-1-1 .997.997 0 00-1 1v5a1.005 1.005 0 00.292.708A.991.991 0 008 15h5a.997.997 0 001-1 .997.997 0 00-1-1h-2.586L20 3.414V6a.997.997 0 001 1 .997.997 0 001-1V1a1.01 1.01 0 00-.293-.707z"/><path d="M17 21H4c-1.654 0-3-1.346-3-3V5c0-1.654 1.346-3 3-3h8v2H4c-.551 0-1 .449-1 1v13c0 .552.449 1 1 1h13a1 1 0 001-1v-8h2v8c0 1.654-1.346 3-3 3z"/><circle cx="12" cy="3" r="1"/><circle cx="19" cy="10" r="1"/></g></svg>