<svg xmlns="http://www.w3.org/2000/svg" viewBox="0 0 24.837 22.158" preserveAspectRatio="xMidYMin meet"><g><path d="M22.239 17.556c-.086.037-.168.086-.253.126-.721.331-1.43.688-2.163.987a23.638 23.638 0 01-7.324 1.699c-.966.067-1.943.056-2.911.008a28.015 28.015 0 01-3.006-.299 23.518 23.518 0 01-6.075-1.839c-.15-.068-.348-.246-.474-.024-.122.214.128.301.259.397 3.229 2.356 6.851 3.516 10.841 3.546 1.203.01 2.393-.108 3.569-.348 2.584-.529 4.989-1.48 7.124-3.054.273-.202.533-.423.789-.646.134-.116.234-.265.103-.445-.124-.17-.294-.188-.479-.108z"/><path d="M24.834 16.237c-.017-.424-.136-.553-.546-.615-.976-.149-1.922-.01-2.828.349-.364.143-.694.377-1.027.588-.071.044-.091.167-.134.253.096.017.194.057.285.045.205-.027.405-.095.61-.118.645-.074 1.289-.165 1.936-.193.507-.022.685.185.669.689-.01.327-.036.66-.104.979-.117.543-.276 1.076-.409 1.616-.019.08.006.171.011.258.09-.031.198-.039.269-.095.102-.08.186-.188.264-.294.679-.919.977-1.965 1.006-3.095 0-.122.004-.245-.002-.367zM7.22 18.427c.811.293 1.651.338 2.508.308 1.503-.054 2.821-.545 3.943-1.551.287-.256.568-.518.871-.796.102.15.185.298.293.424.441.515.867 1.045 1.341 1.527.417.424.732.398 1.183.006.763-.663 1.527-1.324 2.291-1.986.28-.242.338-.474.159-.799a4.424 4.424 0 00-.401-.582c-.643-.819-.93-1.741-.917-2.788.025-2.023.016-4.045.002-6.068a14.988 14.988 0 00-.114-1.834c-.125-.978-.511-1.844-1.226-2.552C16.317.908 15.285.479 14.162.233c-.457-.1-.924-.156-1.386-.233h-1.418c-.09.019-.18.049-.272.055-.9.063-1.774.246-2.613.576-1.961.771-3.212 2.159-3.665 4.237-.116.532.055.802.588.867.909.11 1.82.199 2.728.31.559.068.775-.068.915-.622.105-.417.271-.805.581-1.116.714-.717 1.587-.915 2.552-.743.953.169 1.493.713 1.628 1.667.071.511.05 1.035.07 1.553.004.118 0 .235 0 .347-.643.067-1.24.1-1.825.195-1.143.185-2.299.334-3.415.628-1.725.456-3.1 1.432-3.862 3.103-.691 1.517-.728 3.091-.208 4.663.438 1.328 1.341 2.231 2.66 2.707zm2.18-6.949a2.81 2.81 0 01.234-.335l.009-.013c.076-.093.165-.183.257-.272.019-.019.034-.039.054-.057l.001-.001c.513-.472 1.153-.714 1.831-.823.674-.108 1.356-.165 2.087-.251-.031 1.254.113 2.433-.306 3.559-.266.713-.663 1.32-1.284 1.723-.143.093-.286.187-.457.255-1.227.493-2.386-.087-2.687-1.373-.203-.871-.162-1.696.261-2.412z"/></g></svg>