<svg xmlns="http://www.w3.org/2000/svg" viewBox="0 0 36 26" preserveAspectRatio="xMidYMin meet"><path d="M0 17c0-4.256 2.955-7.82 6.925-8.758l.388-.082a.1.1 0 0 0 .067-.047l.012-.026C8.669 3.426 12.934 0 18 0c5.758 0 10.479 4.424 10.957 10.058a.1.1 0 0 0 .082.091A8.001 8.001 0 0 1 27.5 26v-1.5a6.5 6.5 0 0 0 1.252-12.879 1.6 1.6 0 0 1-1.29-1.436C27.049 5.32 22.972 1.5 18 1.5c-4.373 0-8.059 2.957-9.162 6.983a1.6 1.6 0 0 1-1.246 1.15A7.501 7.501 0 0 0 9 24.5V26a9 9 0 0 1-9-9m27.5 9a8 8 0 0 1-.491-.017q-.008 0-.009.008a.01.01 0 0 1-.009.009H9v-1.5h17.782q.078-.012.157-.016l.162.001.399.015zm-1.969-.314q-.007.037-.012.077z"/><path d="M17.25 18v-7.19l-2.72 2.72a.75.75 0 1 1-1.06-1.06l4-4 .056-.052a.75.75 0 0 1 1.029.077l3.642 4a.75.75 0 0 1-1.11 1.01l-2.337-2.568V18a.75.75 0 1 1-1.5 0"/></svg>