<svg width="48" height="48" xmlns="http://www.w3.org/2000/svg"><path d="M11.654,36v-0.661c0.916-0.104,1.604-0.448,2.062-1.034s1.244-2.191,2.356-4.812L23.499,12h0.709l8.881,20.207 c0.592,1.338,1.063,2.166,1.419,2.482c0.354,0.317,0.948,0.534,1.783,0.649V36h-9.064v-0.661c1.042-0.093,1.713-0.205,2.016-0.339 c0.301-0.132,0.451-0.458,0.451-0.978c0-0.173-0.058-0.479-0.174-0.919c-0.115-0.438-0.278-0.899-0.487-1.385l-1.427-3.429h-9.393 c-0.926,2.332-1.479,3.755-1.659,4.269s-0.27,0.922-0.27,1.222c0,0.601,0.244,1.017,0.73,1.247 c0.301,0.139,0.868,0.242,1.702,0.312V36H11.654z M27.004,26.846L22.92,17.03l-4.104,9.816H27.004z"/></svg>