<svg xmlns="http://www.w3.org/2000/svg" width="12" height="16" viewBox="0 0 12 16" preserveAspectRatio="xMidYMin meet"><circle cx="1" cy="3" r="1"/><circle cx="11" cy="3" r="1"/><circle cx="1" cy="15" r="1"/><circle cx="11" cy="15" r="1"/><circle cx="4" cy="1" r="1"/><circle cx="4" cy="4" r="1"/><circle cx="8" cy="4" r="1"/><circle cx="8" cy="1" r="1"/><path d="M4 3h4v2H4zM4 0h4v2H4z"/><path d="M3 1h2v3H3zM7 1h2v3H7zM9 2h2v2H9zM1 2h2v2H1z"/><path d="M0 3h2v12H0zM10 3h2v12h-2z"/><path d="M1 14h10v2H1z"/></svg>