<svg xmlns="http://www.w3.org/2000/svg" preserveAspectRatio="xMidYMin meet" viewBox="0 0 15 15"><path d="M3.715 14.776q.125.011.251.012h.953a3 3 0 0 1-1.204-.012m4.163-10.71a3 3 0 0 1 4.243 4.243l-.479.479h-1.414l1.186-1.186a2 2 0 0 0-2.829-2.83l-1.619 1.62V4.978z"/><path d="M11.966 8.787a3 3 0 0 1 3 3l-.004.154a3 3 0 0 1-2.996 2.846h-7.96a3 3 0 0 0 2.193-1h5.767a2 2 0 1 0 0-4h-5v-1z"/><path d="M5.966 11.787v-8a2 2 0 1 0-4 0v8a2 2 0 0 0 2 2v1A3 3 0 0 1 .97 11.941l-.004-.154v-8a3 3 0 1 1 6 0v8l-.004.154a3 3 0 0 1-2.996 2.846v-1a2 2 0 0 0 2-2"/><path d="M4.966 11.787a1 1 0 1 1-2 0 1 1 0 0 1 2 0"/></svg>