<svg xmlns="http://www.w3.org/2000/svg" viewBox="0 0 18 18.94"><title>skip-backward</title><g id="a90c3c09-c853-473c-be01-be37bc7d58d1" data-name="Layer 2"><g id="68bbdc59-9c26-475b-b1b1-879ebffb5c64" data-name="Icon: New"><path d="M6.69,7.72h0L5.12,8.84V8.07L6.69,6.94h.72v5.9H6.69Z"/><path d="M8.87,11.23H9.6a1.23,1.23,0,0,0,1.31,1.06,1.29,1.29,0,0,0,1.36-1.35,1.3,1.3,0,0,0-1.35-1.36,1.42,1.42,0,0,0-1.26.66H9l.32-3.3h3.38v.65H9.89L9.71,9.51h0A1.63,1.63,0,0,1,11,8.94a1.9,1.9,0,0,1,2,2,2,2,0,0,1-2.1,2A1.88,1.88,0,0,1,8.87,11.23Z"/><path d="M1,9.94a8,8,0,1,0,8-8" fill="none" stroke="currentColor" stroke-miterlimit="10" stroke-width="2"/><polygon points="3 1.94 6.35 0 6.35 3.87 3 1.94"/><polygon points="7 1.94 10.35 0 10.35 3.87 7 1.94"/></g></g></svg>