<svg xmlns="http://www.w3.org/2000/svg" viewBox="0 0 16 16" preserveAspectRatio="xMidYMin meet"><g clip-path="url(#clip0_3900_5040)"><path d="M7 2v1H2a1 1 0 0 0-1 1v10a1 1 0 0 0 1 1h10a1 1 0 0 0 1-1V9h1v5l-.01.204a2 2 0 0 1-1.786 1.785L12 16H2l-.204-.01A2 2 0 0 1 .01 14.203L0 14V4a2 2 0 0 1 1.796-1.99L2 2z"/><path d="M7.5 2.5a.5.5 0 1 1-1 0 .5.5 0 0 1 1 0M14 9a.5.5 0 1 1-1 0 .5.5 0 0 1 1 0M3.977 11.772a.5.5 0 1 1-.707.707.5.5 0 0 1 .707-.707M4.684 8.944a.5.5 0 1 1-.707.707.5.5 0 0 1 .707-.707M13.17.459a.5.5 0 1 1-.708.707.5.5 0 0 1 .707-.707M6.805 11.065a.5.5 0 1 1-.707.708.5.5 0 0 1 .707-.708M15.29 2.58a.5.5 0 1 1-.706.707.5.5 0 0 1 .707-.707"/><path d="m12.462.46.707.706-8.485 8.485-.707-.707z"/><path d="M13.169.459 15.29 2.58l-.707.707-2.121-2.121z"/><path d="m14.583 2.58.707.707-8.485 8.486-.707-.708z"/><path d="m6.33 10.935.243.97-2.828.706-.243-.97z"/><path d="m4.815 9.42-.707 2.828-.97-.243.707-2.828z"/></g><defs><clipPath id="clip0_3900_5040"><path d="M0 0H16V16H0z"/></clipPath></defs></svg>