<svg xmlns="http://www.w3.org/2000/svg" viewBox="0 0 35.495 35.496" preserveAspectRatio="xMidYMin meet"><path d="M35.271 30.977l-8.88-8.882a14.254 14.254 0 0 0 2.298-7.752C28.689 6.434 22.251 0 14.343 0 6.432 0 0 6.434 0 14.343c0 7.911 6.433 14.344 14.343 14.344 2.856 0 5.513-.849 7.752-2.294l8.88 8.88a.761.761 0 0 0 1.076 0l3.22-3.221a.756.756 0 0 0 0-1.075zM4.556 14.342c0-5.396 4.391-9.788 9.788-9.788 5.398 0 9.787 4.392 9.787 9.788 0 5.398-4.389 9.789-9.787 9.789s-9.788-4.391-9.788-9.789z"/></svg>