<svg xmlns="http://www.w3.org/2000/svg" viewBox="0 0 21.367 25" preserveAspectRatio="xMidYMin meet"><g><path d="M1.306 6.861c.311-.042.767-.042 1.534-.042h2.653c.249 0 .664-.021.933-.269.249-.27.269-.684.269-.933h-.001V2.861c0-.767 0-1.223.042-1.534.02-.166.103-.374.145-.477.021-.041 0-.041-.021-.021L.808 6.986c-.021.02-.021.041.021.02.103-.042.311-.125.477-.145z"/><path d="M20.644 5.618c-.539-2.839-3.358-3.026-4.498-3.233l-3.586-.622S12.291.478 11.026.167c-.249-.062-.394-.104-.56-.125A7.885 7.885 0 009.783 0h-.497c-1.016 0-1.7.643-1.803 1.41v4.374c0 .56-.083 1.036-.435 1.368-.27.248-.684.434-1.41.434H1.409C.622 7.69 0 8.373 0 9.389c.021.249.042.518.103.871.145.974.393 2.01.518 2.591.539 2.383 1.575 3.233 1.575 3.233 1.534 1.575 3.752 2.239 5.845 2.114.062 0 .27-.021.456-.062.186-.041.352-.103.477-.166 1.285-.788 1.928-3.689 1.928-3.689.145 1.928 2.321 2.612 3.192 2.715.021 0 .311.041.622.103.249.062.519.125.684.208 1.119.497 1.969 1.617 1.969 2.881 0 1.41-1.14 2.55-2.55 2.55a1.977 1.977 0 01-1.41-.58 1.146 1.146 0 01-.332-.808c0-.29.166-.56.373-.725.187-.166.581-.208.684-.228.103-.021.249-.062.352-.125a.93.93 0 00-.456-1.741c-1.741 0-3.15 1.41-3.15 3.13 0 .394.083.788.228 1.14.145.373.518.974 1.223 1.43.56.394 1.409.767 2.55.768 0 0 5.306.31 6.197-6.073.064-.002.831-6.552-.434-13.308zm-2.3 6.383c-.042.062-.083.083-.125.083-.269.041-.684 0-1.285-.062-.601-.062-1.016-.124-1.264-.249-.041-.021-.083-.041-.103-.103s.021-.187.062-.29c.207-.518.787-.788 1.471-.725.684.083 1.182.477 1.265 1.057-.001.103.02.227-.021.289z"/></g></svg>