<svg xmlns="http://www.w3.org/2000/svg" preserveAspectRatio="xMidYMin meet" viewBox="0 0 10 10"><g clip-path="url(#clip0_3900_5034)"><path d="m8.89.403.706.707-8.485 8.486-.707-.707z"/><path d="M9.596 1.11A.5.5 0 1 1 8.89.403a.5.5 0 0 1 .707.707M1.11 9.596a.5.5 0 1 1-.706-.707.5.5 0 0 1 .707.707M.404 1.111 1.11.404 9.596 8.89l-.707.707z"/><path d="M1.111.404a.5.5 0 1 1-.707.707.5.5 0 0 1 .707-.707M9.596 8.89a.5.5 0 1 1-.707.707.5.5 0 0 1 .707-.707"/></g><defs><clipPath id="clip0_3900_5034"><path d="M0 0h10v10H0z"/></clipPath></defs></svg>