<svg xmlns="http://www.w3.org/2000/svg" xmlns:xlink="http://www.w3.org/1999/xlink" viewBox="0 0 18 20" preserveAspectRatio="xMidYMin meet"><defs><path id="a" d="M0 0h18v20H0z"/></defs><clipPath id="b"><use overflow="visible" xlink:href="#a"/></clipPath><g clip-path="url(#b)"><path d="M6.402 8.935c.516 0 .863.313.867.736 0 .453-.351.774-.884.774h-.597v.931h.626c.652 0 1.011.351 1.016.825.004.482-.372.846-1.003.846-.601 0-.969-.343-1.011-.791H4.291C4.312 13.188 4.98 14 6.398 14c1.231 0 2.264-.681 2.251-1.735-.008-.922-.685-1.35-1.223-1.392v-.047c.436-.059 1.054-.499 1.041-1.32C8.454 8.626 7.604 8 6.444 8c-1.303 0-2.022.749-2.052 1.705h1.142c.017-.368.301-.77.868-.77zm7.307 2.255v-.389c0-1.684-.774-2.801-2.204-2.801-1.422 0-2.23 1.126-2.23 2.801v.389c0 1.676.779 2.805 2.209 2.805 1.481.001 2.225-1.209 2.225-2.805zm-3.211-.004v-.381c0-1.206.394-1.811.994-1.811s.994.609.994 1.811v.381c0 1.202-.393 1.815-.994 1.815s-.994-.609-.994-1.815z"/><path d="M9 2V1a.5.5 0 00-.8-.4l-2.667 2a.5.5 0 000 .8l2.667 2A.5.5 0 009 5V4c3.859 0 7 3.14 7 7 0 3.859-3.141 7-7 7-3.86 0-7-3.141-7-7 0-1.87.728-3.627 2.05-4.95a1.002 1.002 0 00-.707-1.707 1 1 0 00-.707.293A8.963 8.963 0 00.68 7.554 8.954 8.954 0 000 11c0 4.963 4.038 9 9 9 4.963 0 9-4.037 9-9 0-4.962-4.037-9-9-9z"/></g></svg>