<svg xmlns="http://www.w3.org/2000/svg" viewBox="0 0 21 21" preserveAspectRatio="xMidYMin meet"><g><path d="M15.207 6.793a.999.999 0 0 0-1.414 0c-.04.04-.059.092-.091.137l-.015-.011-4.314 6.039-2.165-2.165a.999.999 0 1 0-1.414 1.414l2.999 2.999a.999.999 0 0 0 1.414 0c.041-.041.059-.092.091-.137l.016.011 5-7-.016-.01a.986.986 0 0 0-.091-1.277z"/><path d="M10.5 0C4.71 0 0 4.71 0 10.5S4.71 21 10.5 21 21 16.29 21 10.5 16.29 0 10.5 0zm0 19C5.813 19 2 15.187 2 10.5S5.813 2 10.5 2 19 5.813 19 10.5 15.187 19 10.5 19z"/></g></svg>