<svg xmlns="http://www.w3.org/2000/svg" viewBox="0 0 128.538 26.063" preserveAspectRatio="xMidYMin meet"><path d="M59.338 6.31v3.1h-7.2v4.4h6v3.1h-6v6.8h-4.1V6.31h11.3zM65.338 11.11c.8 0 1.6.1 2.3.4.7.3 1.3.6 1.8 1.1s.9 1.1 1.2 1.8c.3.7.4 1.5.4 2.4v.7c0 .2-.1.3-.1.4s-.2.2-.3.2c-.1 0-.2.1-.4.1h-7.2c.1 1 .4 1.8.9 2.3s1.2.7 2 .7c.4 0 .8-.1 1.1-.2.3-.1.6-.2.8-.3s.5-.2.7-.3c.2-.1.4-.2.6-.2.3 0 .5.1.7.3l1.1 1.3c-.4.4-.8.8-1.2 1.1s-.9.5-1.4.6c-.5.2-.9.3-1.4.3-.5.1-.9.1-1.3.1-.9 0-1.7-.1-2.5-.4s-1.4-.7-2-1.3c-.6-.6-1-1.3-1.4-2.1s-.5-1.8-.5-2.9c0-.8.1-1.6.4-2.4.3-.7.7-1.4 1.2-2s1.2-1 1.9-1.3 1.6-.4 2.6-.4zm0 2.6c-.7 0-1.3.2-1.7.6s-.7 1-.8 1.7h4.6c0-.3 0-.6-.1-.9-.1-.3-.2-.5-.4-.8-.2-.2-.4-.4-.7-.5-.1 0-.5-.1-.9-.1zM77.838 11.11c.8 0 1.6.1 2.3.4.7.3 1.3.6 1.8 1.1s.9 1.1 1.2 1.8c.3.7.4 1.5.4 2.4v.7c0 .2-.1.3-.1.4s-.2.2-.3.2c-.1 0-.2.1-.4.1h-7.2c.1 1 .4 1.8.9 2.3s1.2.7 2 .7c.4 0 .8-.1 1.1-.2.3-.1.6-.2.8-.3s.5-.2.7-.3c.2-.1.4-.2.6-.2.3 0 .5.1.7.3l1.1 1.3c-.4.4-.8.8-1.2 1.1s-.9.5-1.4.6c-.5.2-.9.3-1.4.3-.5.1-.9.1-1.3.1-.9 0-1.7-.1-2.5-.4s-1.4-.7-2-1.3c-.6-.6-1-1.3-1.4-2.1s-.5-1.8-.5-2.9c0-.8.1-1.6.4-2.4.3-.7.7-1.4 1.2-2s1.2-1 1.9-1.3 1.6-.4 2.6-.4zm0 2.6c-.7 0-1.3.2-1.7.6s-.7 1-.8 1.7h4.7c0-.3 0-.6-.1-.9-.1-.3-.2-.5-.4-.8-.2-.2-.4-.4-.7-.5-.2 0-.6-.1-1-.1zM93.738 23.81c-.2 0-.4-.1-.6-.2s-.3-.3-.3-.5l-.3-.9c-.2.3-.5.5-.8.7l-.9.6c-.3.2-.7.3-1 .4s-.8.1-1.2.1c-.6 0-1.2-.1-1.8-.4-.6-.3-1-.7-1.4-1.2s-.7-1.2-.9-2c-.2-.8-.3-1.7-.3-2.7 0-.9.1-1.8.4-2.6.3-.8.6-1.5 1.1-2.1s1-1 1.7-1.4 1.4-.5 2.2-.5c.6 0 1.2.1 1.6.3s.8.4 1.2.7v-6.3h3.7v18h-2.4zm-3.8-2.7c.3 0 .5 0 .7-.1s.4-.1.6-.2.4-.2.5-.4c.2-.1.3-.3.5-.5v-5.3c-.3-.3-.6-.5-.9-.7-.3-.1-.7-.2-1-.2s-.7.1-.9.2c-.3.1-.5.4-.8.7s-.4.7-.5 1.2c-.1.5-.1 1.1-.1 1.8s0 1.2.1 1.7c.1.4.2.8.4 1.1.2.3.4.5.6.6s.5.1.8.1zM98.138 23.81v-18h3.7v6.8c.5-.5 1-.8 1.6-1.1s1.3-.4 2.1-.4c.6 0 1.2.1 1.8.4.6.3 1 .7 1.4 1.2s.7 1.2.9 2c.2.8.3 1.7.3 2.7 0 .9-.1 1.8-.4 2.6s-.6 1.5-1.1 2.1-1 1-1.7 1.4-1.4.5-2.2.5c-.4 0-.7 0-1-.1s-.6-.2-.8-.3-.5-.3-.7-.5l-.6-.6-.1.6c-.1.3-.2.4-.3.5-.1.1-.3.1-.6.1l-2.3.1zm6-9.9c-.3 0-.5 0-.7.1s-.4.1-.6.2-.4.2-.5.4c-.2.1-.3.3-.5.5v5.3c.3.3.6.5.9.7.3.1.7.2 1 .2s.7-.1.9-.2.5-.4.8-.7.4-.7.5-1.2.2-1.1.2-1.8 0-1.2-.1-1.7c-.1-.4-.2-.8-.4-1.1s-.4-.5-.6-.6c-.3 0-.6-.1-.9-.1zM115.638 7.91c0 .3-.1.6-.2.8-.1.3-.3.5-.5.7s-.4.4-.7.5c-.3.1-.6.2-.9.2s-.6-.1-.9-.2-.5-.3-.7-.5-.4-.4-.5-.7-.2-.5-.2-.8.1-.6.2-.9c.1-.3.3-.5.5-.7s.4-.4.7-.5c.3-.1.5-.2.9-.2.3 0 .6.1.9.2s.5.3.7.5.4.4.5.7.2.6.2.9zm-.4 3.4v12.4h-3.7v-12.4h3.7zM117.438 23.81v-12.5h2.3c.2 0 .4.1.6.2s.3.3.3.5l.2.7c.2-.2.5-.4.7-.6.3-.2.5-.4.8-.5l.9-.3c.3-.1.7-.1 1.1-.1.7 0 1.3.1 1.8.4s1 .6 1.3 1 .6.9.8 1.5.3 1.2.3 1.9v7.9h-3.7v-7.9c0-.6-.1-1.1-.4-1.4s-.7-.5-1.2-.5c-.4 0-.8.1-1.2.3-.4.2-.7.4-1 .7v8.9c.1-.2-3.6-.2-3.6-.2z"/><path d="M29.938 20.11h-29c-1.3 0-1.2-5.8 0-6 4-.6 15.6 0 15.6 0s4.2 4.2 5.4 4.2 4.1-4.2 4.1-4.2 3.3-.6 3.9 0c1 1 1.3 6 0 6zM28.538 25.61c-4.9.7-21.5.5-26.5 0-1.1-.1-.4-3.5-.4-3.5h27.9c-.1 0 .4 3.3-1 3.5zM14.938.11c-7.1-1-12.9 5-12.9 10.7l26.5.3c-.1-5.8-6.6-10-13.6-11z"/></svg>