<?xml version="1.0" encoding="utf-8"?>
<svg version="1.1" xmlns="http://www.w3.org/2000/svg" xmlns:xlink="http://www.w3.org/1999/xlink" x="0px" y="0px" viewBox="0 0 183.436 170.826" enable-background="new 0 0 183.436 170.826" xml:space="preserve">
    <path class="fill-transparent theme-dusk:fill-white theme-midnight:fill-white" d="M183.432,89.959c-0.048-3.063-0.497-6.082-1.334-8.975c-0.901-3.114-2.23-6.177-3.96-9.13 c1.092-6.758,0.659-13.689-1.293-20.634c-1.09-3.878-2.657-7.671-4.658-11.274c-1.858-3.346-4.149-6.63-6.808-9.762 c-2.993-3.525-6.414-6.812-10.168-9.771c-3.486-2.747-7.374-5.301-11.558-7.591c-7.209-3.946-14.975-7.019-23.083-9.133 c-7.625-1.988-15.79-3.189-24.268-3.569C94.507,0.041,92.693,0,90.909,0c-5.665,0-11.351,0.411-16.901,1.223 c-4.65,0.68-9.204,1.621-13.534,2.798c-4.53,1.231-8.963,2.759-13.178,4.543c-4.808,2.035-9.322,4.378-13.417,6.965 c-4.412,2.787-8.502,5.96-12.158,9.43c-2.899,2.752-5.481,5.651-7.674,8.618c-2.396,3.241-4.419,6.682-6.011,10.228 C3.237,54.494,2.171,65.255,4.855,75.84c-1.278,2-2.296,3.965-3.088,5.95c-0.592,1.485-1.401,3.773-1.596,6.482 c-0.317,4.391-0.128,7.032,0.042,8.637c0.333,3.151,1.017,5.92,2.092,8.466c0.876,2.076,2.015,3.983,3.401,5.698 c-0.004,5.271,0.282,9.628,0.896,13.697c1.658,10.979,6.794,20.282,15.266,27.651c4.024,3.5,8.628,6.417,14.075,8.919 c5.796,2.662,12.181,4.704,19.522,6.243c8.669,1.818,17.734,2.833,27.715,3.104c3.439,0.093,6.638,0.139,9.78,0.139 c9.007,0,17.141-0.382,24.867-1.166c6.781-0.689,12.409-1.619,17.71-2.928c6.693-1.652,12.44-3.876,17.568-6.798 c8.917-5.081,15.441-12.349,19.391-21.602c2.111-4.945,3.553-10.188,4.41-16.029c0.666-4.539,0.908-9.172,0.735-14.094 c0.853-0.902,1.612-1.88,2.272-2.926c1.256-1.991,2.15-4.232,2.657-6.659C183.186,95.673,183.476,92.758,183.432,89.959z"/>
    <path class="fill-700 theme-dusk:fill-base theme-midnight:fill-base" d="M173.954,83.388c-0.899-3.108-2.287-5.99-4.047-8.692c-0.474-0.728-0.658-1.389-0.47-2.279 c1.343-6.341,0.995-12.63-0.755-18.853c-1.889-6.72-5.305-12.61-9.8-17.904c-5.448-6.416-12.031-11.427-19.381-15.45 C125.884,12.754,111.195,9.212,95.77,8.519c-6.929-0.311-13.839,0.017-20.718,1.023c-8.509,1.244-16.751,3.418-24.674,6.771 c-8.536,3.613-16.346,8.365-23.092,14.769c-4.932,4.682-9.028,9.992-11.824,16.221c-4.232,9.425-5.189,19.102-2.002,29.042 c0.265,0.827,0.092,1.412-0.395,2.077c-1.489,2.036-2.795,4.184-3.733,6.539c-0.515,1.291-0.927,2.607-1.027,4.003 c-0.172,2.389-0.234,4.781,0.018,7.165c0.455,4.306,1.817,8.219,5.054,11.288c0.181,0.171,0.324,0.381,0.485,0.573 c0,1.019,0.002,2.025,0,3.03c-0.008,4.218,0.171,8.417,0.803,12.603c1.374,9.101,5.583,16.602,12.502,22.62 c3.637,3.163,7.719,5.63,12.088,7.636c5.688,2.612,11.646,4.38,17.759,5.662c8.651,1.814,17.416,2.691,26.234,2.93 c11.207,0.304,22.41,0.147,33.582-0.988c5.579-0.567,11.112-1.384,16.558-2.728c5.396-1.332,10.595-3.186,15.444-5.95 c7.244-4.128,12.584-9.967,15.861-17.644c1.912-4.478,3.125-9.158,3.831-13.971c0.724-4.938,0.85-9.899,0.54-14.875 c-0.035-0.559-0.005-1.122-0.005-1.68c0.277-0.229,0.509-0.441,0.761-0.624c2.407-1.746,3.853-4.108,4.456-6.994 C175.228,92.451,175.26,87.905,173.954,83.388z M25.87,54.851c1.457-4.008,3.659-7.581,6.39-10.84 c3.801-4.534,8.35-8.186,13.371-11.271c6.978-4.287,14.527-7.192,22.458-9.141c9.052-2.223,18.25-3.033,27.545-2.583 c11.875,0.575,23.304,3.097,34.088,8.223c3.31,1.573,6.398,3.515,9.185,5.907c2.226,1.91,4.011,4.165,5.223,6.852 c1.557,3.45,1.801,7.067,1.137,10.724c-1.438,7.927-5.544,14.206-12.025,18.963c-3.062,2.247-6.396,4.006-9.876,5.495 c-1.966,0.841-3.965,1.606-5.939,2.43c-0.695,0.29-1.378,0.621-2.033,0.992c-0.374,0.212-0.722,0.507-1.007,0.831 c-0.41,0.466-0.342,1.172,0.2,1.477c0.59,0.332,1.246,0.592,1.906,0.742c2.236,0.508,4.515,0.413,6.773,0.244 c6.232-0.464,12.355-1.564,18.35-3.342c4.801-1.424,9.319-3.445,13.369-6.433c0.198-0.146,0.428-0.252,0.649-0.365 c0.036-0.018,0.103,0.026,0.284,0.079c-0.133,0.339-0.239,0.679-0.393,0.995c-1.517,3.097-3.65,5.717-6.226,7.99 c-3.044,2.685-6.469,4.784-10.111,6.547c-5.639,2.73-11.577,4.576-17.678,5.911c-6.961,1.522-14.013,2.365-21.128,2.782 c-7.055,0.413-14.101,0.37-21.142-0.129c-9.633-0.683-19.127-2.177-28.327-5.23c-4.191-1.391-8.239-3.11-12.056-5.342 c-2.673-1.563-5.169-3.365-7.393-5.528c-3.469-3.373-5.944-7.326-6.877-12.122C23.6,64.645,24.112,59.687,25.87,54.851z M157.755,121.076c-0.765,3.911-2.589,7.332-5.152,10.365c-2.382,2.819-5.246,5.059-8.41,6.934c-4.693,2.78-9.76,4.638-15.008,6.032 c-5.789,1.537-11.68,2.494-17.637,3.108c-7.902,0.814-15.822,1.131-23.76,1.008c-6.677-0.103-13.335-0.525-19.946-1.496 c-6.928-1.017-13.722-2.574-20.219-5.257c-4.268-1.763-8.291-3.954-11.869-6.9c-4.679-3.852-8.141-8.547-9.866-14.42 c-0.66-2.245-1.048-4.533-1.006-6.881c0.006-0.362,0.071-0.724,0.115-1.144c0.59,0,1.084-0.05,1.565,0.009 c2.26,0.276,4.527,0.297,6.789,0.133c5.883-0.428,11.207,1.103,16.057,4.416c2.92,1.995,5.599,4.282,8.158,6.709 c2.009,1.906,3.968,3.864,5.939,5.81c2.301,2.271,4.848,4.199,7.756,5.633c3.268,1.612,6.71,2.52,10.369,2.454 c3.388-0.061,6.585-0.933,9.625-2.413c2.448-1.192,4.668-2.727,6.753-4.468c0.724-0.604,1.448-1.214,2.21-1.769 c3.767-2.747,7.981-3.55,12.536-2.84c2.558,0.399,5.01,1.201,7.488,1.914c2.355,0.678,4.713,1.375,7.111,1.867 c2.544,0.522,5.123,0.509,7.676-0.147c2.614-0.671,4.531-2.18,5.556-4.674c0.595-1.447,0.998-2.974,1.466-4.472 c0.393-1.26,0.705-2.546,1.139-3.791c1.144-3.281,3.408-5.363,6.808-6.175c2.739-0.654,5.479-1.301,8.331-1.978 c0.091,0.39,0.214,0.678,0.218,0.967C158.601,113.455,158.495,117.295,157.755,121.076z"/>
</svg>
