<?xml version="1.0" encoding="utf-8"?>
<svg version="1.1" xmlns="http://www.w3.org/2000/svg" xmlns:xlink="http://www.w3.org/1999/xlink" x="0px" y="0px" viewBox="0 0 6646.438 1808.406" enable-background="new 0 0 6646.438 1808.406" xml:space="preserve">
    <path id="logo_background" d="M1941.854,952.33c-0.512-32.421-5.264-64.387-14.122-95.011c-9.537-32.967-23.609-65.392-41.926-96.65 c11.562-71.547,6.978-144.915-13.69-218.44c-11.541-41.057-28.131-81.21-49.311-119.345 c-19.672-35.419-43.919-70.187-72.067-103.338c-31.684-37.315-67.901-72.117-107.644-103.438 c-36.9-29.08-78.065-56.116-122.353-80.358c-76.318-41.774-158.534-74.302-244.365-96.68 c-80.719-21.046-167.156-33.759-256.909-37.786C1000.472,0.432,981.268,0,962.389,0c-59.969,0-120.167,4.356-178.922,12.947 c-49.226,7.197-97.431,17.164-143.274,29.621c-47.951,13.031-94.886,29.212-139.502,48.094 c-50.894,21.539-98.682,46.347-142.038,73.735c-46.704,29.503-90.009,63.091-128.712,99.831 c-30.691,29.134-58.024,59.827-81.24,91.227c-25.369,34.312-46.777,70.74-63.63,108.273C34.264,576.882,22.98,690.81,51.395,802.857 c-13.528,21.175-24.311,41.972-32.686,62.988c-6.265,15.721-14.832,39.938-16.9,68.624c-3.352,46.483-1.35,74.447,0.446,91.438 c3.527,33.355,10.771,62.672,22.147,89.623c9.278,21.98,21.334,42.17,36,60.321c-0.038,55.804,2.98,101.921,9.485,144.999 c17.548,116.225,71.921,214.712,161.608,292.724c42.596,37.051,91.335,67.933,149.001,94.414 c61.356,28.177,128.956,49.795,206.661,66.092c91.77,19.246,187.74,29.994,293.393,32.86c36.408,0.987,70.274,1.467,103.535,1.467 c95.347,0,181.456-4.039,263.248-12.347c71.786-7.292,131.36-17.139,187.483-30.992c70.859-17.49,131.694-41.03,185.98-71.965 c94.394-53.789,163.459-130.731,205.276-228.689c22.346-52.347,37.618-107.851,46.687-169.684 c7.049-48.052,9.616-97.096,7.777-149.204c9.028-9.55,17.068-19.898,24.056-30.978c13.297-21.082,22.762-44.8,28.131-70.495 C1939.25,1012.819,1942.322,981.959,1941.854,952.33z"/>
    <path id="logo_foreground" d="M1841.519,882.767c-9.519-32.904-24.211-63.411-42.839-92.013c-5.019-7.706-6.967-14.699-4.97-24.129 c14.215-67.133,10.532-133.702-7.988-199.588c-19.997-71.141-56.157-133.497-103.742-189.539 c-57.67-67.919-127.362-120.972-205.17-163.561c-144.174-78.916-299.675-116.421-462.965-123.748 c-73.351-3.291-146.507,0.178-219.324,10.825c-90.079,13.171-177.328,36.182-261.21,71.682 c-90.368,38.245-173.043,88.552-244.462,156.349c-52.215,49.566-95.568,105.782-125.177,171.723 c-44.799,99.771-54.933,202.215-21.193,307.444c2.806,8.75,0.969,14.945-4.178,21.984c-15.76,21.55-29.588,44.29-39.522,69.219 c-5.448,13.672-9.811,27.599-10.877,42.378c-1.823,25.289-2.482,50.613,0.187,75.853c4.82,45.579,19.235,87.007,53.508,119.497 c1.912,1.812,3.432,4.037,5.131,6.065c0,10.788,0.016,21.433-0.003,32.079c-0.08,44.657,1.805,89.103,8.496,133.419 c14.547,96.349,59.101,175.753,132.348,239.464c38.498,33.486,81.716,59.599,127.97,80.84c60.211,27.65,123.288,46.365,188,59.937 c91.58,19.206,184.374,28.487,277.715,31.018c118.642,3.217,237.235,1.552,355.504-10.462 c59.061-5.999,117.636-14.649,175.288-28.879c57.127-14.1,112.161-33.731,163.499-62.986 c76.69-43.701,133.218-105.512,167.911-186.781c20.239-47.41,33.079-96.953,40.553-147.905 c7.668-52.278,9.002-104.788,5.718-157.473c-0.369-5.917-0.05-11.877-0.05-17.788c2.937-2.42,5.384-4.666,8.055-6.603 c25.484-18.481,40.785-43.486,47.171-74.041C1855.005,978.714,1855.352,930.582,1841.519,882.767z M273.867,580.67 c15.423-42.429,38.733-80.259,67.65-114.756c40.234-47.999,88.394-86.664,141.548-119.316 c73.876-45.381,153.785-76.141,237.75-96.764c95.823-23.535,193.199-32.104,291.593-27.342 c125.71,6.083,246.702,32.789,360.861,87.046c35.042,16.654,67.728,37.215,97.231,62.528c23.562,20.216,42.46,44.094,55.294,72.539 c16.478,36.523,19.064,74.81,12.038,113.527c-15.228,83.918-58.692,150.389-127.298,200.746 c-32.412,23.79-67.708,42.405-104.55,58.172c-20.812,8.907-41.971,17.004-62.867,25.72c-7.361,3.07-14.59,6.571-21.522,10.505 c-3.959,2.247-7.641,5.372-10.657,8.798c-4.344,4.935-3.62,12.412,2.112,15.637c6.241,3.512,13.196,6.269,20.18,7.856 c23.675,5.38,47.793,4.368,71.702,2.586c65.971-4.916,130.798-16.558,194.256-35.383c50.825-15.077,98.652-36.471,141.532-68.104 c2.101-1.55,4.531-2.67,6.872-3.865c0.376-0.192,1.089,0.274,3.01,0.832c-1.404,3.592-2.525,7.189-4.163,10.534 c-16.054,32.79-38.637,60.526-65.915,84.585c-32.228,28.425-68.48,50.64-107.041,69.312 c-59.692,28.903-122.562,48.447-187.144,62.572c-73.692,16.117-148.341,25.041-223.671,29.451 c-74.688,4.372-149.28,3.915-223.814-1.368c-101.981-7.228-202.484-23.047-299.874-55.364 c-44.368-14.723-87.216-32.925-127.631-56.556c-28.293-16.544-54.72-35.628-78.267-58.519 c-36.726-35.705-62.921-77.555-72.806-128.322C249.839,684.348,255.259,631.864,273.867,580.67z M1670.033,1281.742 c-8.101,41.406-27.413,77.619-54.541,109.731c-25.214,29.846-55.533,53.561-89.028,73.404 c-49.683,29.433-103.323,49.099-158.883,63.855c-61.283,16.276-123.648,26.403-186.707,32.902 c-83.649,8.621-167.494,11.972-251.526,10.673c-70.68-1.093-141.17-5.56-211.156-15.835 c-73.337-10.767-145.27-27.245-214.044-55.647c-45.182-18.658-87.775-41.863-125.646-73.045 c-49.531-40.783-86.178-90.48-104.447-152.657c-6.983-23.767-11.09-47.992-10.655-72.847c0.067-3.835,0.752-7.66,1.215-12.106 c6.243,0,11.477-0.532,16.57,0.091c23.922,2.923,47.923,3.145,71.869,1.405c62.28-4.526,118.645,11.676,169.981,46.75 c30.914,21.121,59.273,45.329,86.364,71.028c21.268,20.174,42.006,40.908,62.869,61.506c24.355,24.045,51.325,44.453,82.109,59.635 c34.598,17.062,71.038,26.674,109.767,25.979c35.863-0.644,69.714-9.88,101.889-25.541c25.92-12.617,49.414-28.871,71.493-47.294 c7.668-6.399,15.33-12.846,23.393-18.726c39.874-29.078,84.492-37.586,132.713-30.067c27.076,4.222,53.037,12.712,79.27,20.262 c24.931,7.175,49.896,14.553,75.274,19.761c26.933,5.527,54.233,5.383,81.262-1.556c27.675-7.105,47.969-23.078,58.815-49.476 c6.295-15.322,10.566-31.488,15.514-47.346c4.161-13.334,7.463-26.955,12.058-40.131c12.111-34.733,36.079-56.777,72.07-65.367 c28.995-6.921,58.004-13.777,88.193-20.943c0.968,4.127,2.269,7.174,2.313,10.24 C1678.987,1201.06,1677.865,1241.711,1670.033,1281.742z"/>
    <path d="M4754.837,846.604c0.25-8.047,0.625-14.539,0.628-21.031c0.04-81.269,0.021-162.538,0.036-243.807 c0.001-5.993-0.217-12.017,0.287-17.974c1.016-11.998,6.368-17.986,18.249-20.347c4.525-0.899,9.262-0.995,13.903-1.006 c33.992-0.079,67.985-0.189,101.976,0.002c26.485,0.149,32.59,6.49,32.909,33.322c0.111,9.325,0.021,18.652,0.021,27.978 c0,271.785,0.005,543.569-0.03,815.354c-0.001,7.311,0.258,14.726-0.819,21.91c-1.931,12.875-8.39,18.499-21.341,19.654 c-4.632,0.413-9.324,0.203-13.988,0.205c-29.327,0.014-58.653,0.019-87.979,0.006c-36.106-0.017-39.074-2.967-39.195-38.232 c-0.028-7.967-0.461-15.933-0.8-23.896c-0.016-0.381-0.924-0.723-2.549-1.912c-2.149,1.495-4.933,2.977-7.167,5.05 c-41.858,38.859-91.688,61.052-147.653,69.94c-48.109,7.64-95.742,4.109-142.536-8.988 c-103.222-28.891-172.573-95.666-209.9-194.566c-36.394-96.426-36.333-194.55-0.391-291.28 c30.077-80.943,84.25-141.18,163.827-176.927c36.188-16.256,74.413-24.861,114.015-27.194c34.112-2.009,67.803,0.272,101.191,8.308 c40.206,9.676,76.457,26.966,108.604,52.922c4.65,3.755,9.325,7.481,14.03,11.167 C4750.643,845.639,4751.414,845.645,4754.837,846.604z M4393.741,1130.314c-0.173,30.822,7.36,70.336,27.476,106.88 c20.781,37.751,51.123,64.76,91.991,78.667c39.561,13.462,79.97,13.83,119.984,2.004c46.643-13.786,80.11-43.782,101.864-86.944 c21.968-43.584,27.306-90.043,23.115-138.06c-2.879-32.98-11.881-64.083-28.619-92.759c-19.105-32.732-46.097-56.384-81.237-70.991 c-27.811-11.56-56.788-13.897-86.308-12.177c-63.634,3.707-111.128,33.439-141.911,89.312 C4400.63,1041.579,4393.819,1079.964,4393.741,1130.314z"/>
    <path d="M5183.233,1395.071c0,14.258,0.08,23.548-0.033,32.836c-0.057,4.647,0.025,9.38-0.813,13.916 c-2.153,11.643-8.463,17.405-20.148,18.746c-3.953,0.454-7.986,0.287-11.982,0.289c-32.654,0.019-65.309,0.01-97.963,0.01 c-1.333,0-2.666,0.021-3.999-0.012c-21.945-0.553-28.016-6.723-28.466-28.99c-0.081-3.995-0.018-7.992-0.018-11.988 c0-278.406-0.001-556.811,0.006-835.217c0-6.659-0.268-13.345,0.218-19.973c0.949-12.948,6.652-19.234,19.457-21.485 c4.549-0.8,9.28-0.765,13.928-0.773c33.321-0.06,66.647,0.352,99.96-0.157c26.292-0.401,34.153,8.085,34.022,34.506 c-0.41,83.253-0.167,166.51-0.116,249.765c0.004,6.422,0.484,12.843,0.724,18.782c5.469,1.846,7.432-1.518,9.729-3.54 c51.161-45.019,111.537-66.156,178.934-69.286c40.306-1.872,79.866,2.643,118.395,14.579 c87.111,26.987,149.418,83.16,188.096,164.788c31.783,67.076,41.916,138.437,34.469,212.261 c-3.761,37.287-11.619,73.69-25.635,108.483c-33.104,82.175-88.385,143.807-171.258,177.541 c-71.232,28.995-144.688,33.748-219.292,13.07c-37.187-10.308-70.279-28.255-99.802-52.96 C5196.719,1406.139,5191.737,1402.083,5183.233,1395.071z M5181.051,1117.906c0.845,11.951,1.496,23.919,2.569,35.85 c3.169,35.191,14.793,67.533,34.244,96.904c16.507,24.926,38.221,44.36,65.325,57.276c44.74,21.319,91.397,23.483,138.339,10.107 c53.661-15.29,88.808-51.756,109.838-102.603c17.813-43.071,19.818-87.972,14.779-133.532 c-3.187-28.814-12.392-55.848-26.863-80.946c-19.275-33.428-46.724-57.529-82.642-72.219 c-26.571-10.867-54.184-13.262-82.354-11.946c-69.49,3.246-119.557,36.389-150.528,98.5 C5187.658,1047.587,5182.071,1082.193,5181.051,1117.906z"/>
    <path d="M2948.944,1173.122c8.583,87.081,69.183,151.718,154.136,160.354c77.035,7.832,146.25-13.263,209.823-55.766 c5.536-3.702,10.771-7.889,16.481-11.288c12.116-7.212,21.544-6.051,29.853,4.981c17.628,23.405,34.835,47.139,51.706,71.096 c6.995,9.933,6.257,18.115-2.09,27.183c-6.735,7.317-14.318,13.951-22.062,20.226c-43.739,35.435-93.71,57.864-148.215,71.082 c-34.466,8.358-69.399,12.919-104.73,14.434c-48.41,2.075-96.027-3.828-141.614-20.143 c-104.308-37.33-169.995-111.189-200.149-216.993c-16.072-56.394-20.834-113.939-11.974-172.086 c18.846-123.689,82.095-215.44,198.391-265.672c83.986-36.277,171.208-39.413,257.572-8.954 c104.928,37.006,168.758,112.427,195.356,219.925c10.362,41.878,11.401,84.315,7.596,127.028 c-0.471,5.292-1.634,10.521-2.434,15.785c-1.64,10.781-8.536,16.375-18.735,17.753c-6.558,0.886-13.296,0.576-19.954,0.577 c-141.28,0.026-282.56,0.013-423.84,0.038C2966.15,1172.684,2958.237,1172.953,2948.944,1173.122z M3277.43,1044.435 c-8.28-41.497-26.153-76.131-57.278-103.364c-36.465-31.904-79.867-40.092-126.724-35.82c-27.156,2.476-51.79,11.941-73.879,27.522 c-26.19,18.474-44.688,43.296-57.236,72.706c-9.208,21.581-10.47,26.546-8.868,39.305 C2970.188,1047.208,3255.855,1047.302,3277.43,1044.435z"/>
    <path d="M3671.839,1172.664c0.664,7.234,0.674,11.912,1.578,16.41c4.089,20.352,10.839,39.803,20.898,58.003 c28.219,51.06,72.311,78.984,129.431,85.972c73.073,8.939,139.932-9.936,201.786-48.51c8.47-5.282,16.463-11.326,24.9-16.665 c14.254-9.021,23.095-8.099,32.856,4.809c16.867,22.305,33.307,44.948,49.368,67.84c8.679,12.37,7.824,21.49-3.229,31.985 c-10.595,10.059-21.917,19.481-33.665,28.178c-43.566,32.254-92.913,51.578-145.519,62.958 c-53.1,11.487-106.75,15.816-160.851,8.874c-159.059-20.407-247.398-125.348-276.889-243.517 c-11.223-44.969-15.71-90.58-12.101-136.688c4.47-57.101,18.94-111.502,49.268-160.762 c46.106-74.886,111.806-123.71,196.784-146.588c63.804-17.177,127.671-17.788,191.408-0.032 c99.319,27.668,167.78,90.008,204.447,186.01c21.771,56.998,26.951,116.428,18.454,176.934c-0.278,1.978-0.413,3.984-0.815,5.936 c-2.432,11.789-8.046,17.173-20.229,18.499c-5.933,0.646-11.978,0.34-17.972,0.341c-141.253,0.014-282.506,0.011-423.759,0.011 C3690.073,1172.664,3682.156,1172.664,3671.839,1172.664z M3998.929,1044.483c-1.975-33.699-25.47-77.185-55.583-103.407 c-36.637-31.902-79.988-40.062-126.854-35.807c-27.17,2.467-51.787,12.042-73.921,27.629 c-25.082,17.664-43.048,41.285-55.614,69.173c-10.364,23.001-12.05,29.357-10.588,42.934c12.757,1.594,292.896,2.91,315.265,1.362 C3994.141,1046.194,3996.585,1045.11,3998.929,1044.483z"/>
    <path d="M6223.843,842.625c4.109-3.728,7.5-6.834,10.922-9.906c41.238-37.018,90.01-56.065,144.893-59.846 c36.82-2.537,73.097,0.957,108.768,11.099c60.244,17.129,102.746,54.494,128.26,111.291c16.279,36.239,23.967,74.746,27.038,114.081 c1.915,24.533,2.505,49.22,2.562,73.84c0.256,112.552,0.122,225.105,0.089,337.657c-0.002,6.65,0.218,13.373-0.639,19.935 c-1.687,12.924-7.828,18.499-20.995,19.844c-3.962,0.405-7.987,0.241-11.984,0.243c-33.984,0.015-67.979-0.488-101.95,0.174 c-24.98,0.487-33.669-6.296-33.419-32.616c0.303-31.965,0.064-63.934,0.062-95.902c-0.004-80.585,0.106-161.169-0.072-241.754 c-0.062-27.958,0.401-56.058-5.418-83.58c-2.733-12.923-6.682-25.758-11.626-38.01c-9.569-23.71-27.542-39.294-51.959-46.052 c-32.908-9.107-65.923-8.574-98.083,3.973c-25.841,10.081-44.88,28.148-58.683,51.956c-15.267,26.334-24.081,54.885-27.214,84.96 c-2.273,21.817-3.682,43.823-3.77,65.751c-0.392,97.899-0.166,195.8-0.186,293.7c-0.001,5.991,0.205,12.021-0.384,17.963 c-1.072,10.811-6.846,16.953-17.442,18.795c-3.904,0.679-7.964,0.616-11.954,0.621c-35.983,0.042-71.978-0.519-107.946,0.213 c-24.449,0.497-30.984-10.844-30.832-31.245c0.497-66.595,0.182-133.196,0.182-199.795c-0.001-135.862-0.008-271.724,0.022-407.585 c0.001-6.652-0.258-13.386,0.65-19.937c1.479-10.661,7.77-16.366,18.461-17.772c3.289-0.432,6.645-0.477,9.971-0.48 c36.65-0.034,73.302,0.215,109.949-0.126c19.333-0.18,30.569,3.383,29.371,29.478c-0.395,8.61,0.218,17.267,0.45,25.9 C6220.948,839.936,6221.703,840.36,6223.843,842.625z"/>
    <path d="M2474.127,691.75c-2.333,21.359-2.048,315.435,0.128,332.306c5.426,4.524,12.336,2.87,18.738,2.887 c50.641,0.132,101.282,0.074,151.923,0.077c8.662,0,17.325-0.039,25.987,0.032c3.992,0.033,8.025-0.024,11.967,0.501 c13.176,1.753,18.807,7.452,20.454,20.465c0.333,2.63,0.297,5.317,0.298,7.978c0.019,29.968,0.012,59.936,0.01,89.905 c0,1.332,0.03,2.666-0.039,3.995c-0.943,18.38-7.121,24.541-25.952,25.635c-4.65,0.27-9.326,0.101-13.99,0.102 c-55.305,0.005-110.611-0.012-165.917,0.023c-7.265,0.005-14.531,0.269-20.9,0.396c-6.386,6.627-4.199,13.63-4.217,19.979 c-0.171,59.27-0.101,118.541-0.103,177.811c0,19.313,0.168,38.628-0.055,57.938c-0.262,22.662-6.077,28.849-28.157,29.008 c-37.979,0.273-75.961,0.088-113.942,0.039c-3.318-0.004-6.707-0.073-9.941-0.721c-9.523-1.908-15.191-7.759-16.547-17.511 c-0.729-5.244-0.658-10.623-0.659-15.942c-0.028-283.033-0.028-566.066-0.005-849.098c0-5.321,0.005-10.673,0.53-15.958 c0.975-9.802,6.646-15.668,16.21-17.707c3.237-0.69,6.548-1.112,9.848-1.4c2.646-0.232,5.326-0.092,7.992-0.092 c161.252-0.002,322.504-0.025,483.756,0.081c6.59,0.004,13.302,0.653,19.739,2.026c8.755,1.867,13.56,8.026,14.614,16.855 c0.471,3.952,0.502,7.972,0.507,11.961c0.039,29.302,0.026,58.605,0.015,87.907c-0.001,2.663,0.054,5.34-0.18,7.987 c-1.26,14.183-6.799,19.93-21.367,21.385c-6.606,0.66-13.307,0.475-19.965,0.477c-105.28,0.025-210.561,0.005-315.841,0.045 C2491.182,691.124,2483.295,691.509,2474.127,691.75z"/>
    <path d="M5786.38,1121.425c-0.003-99.25-0.02-198.5,0.028-297.751c0.003-7.314-0.068-14.695,0.836-21.927 c1.293-10.335,6.592-15.403,16.647-16.876c3.935-0.576,7.971-0.629,11.961-0.634c36.656-0.042,73.313-0.022,109.969-0.014 c1.999,0,4.005-0.041,5.996,0.103c15.1,1.092,21.375,7.053,22.954,22.225c0.48,4.619,0.253,9.316,0.253,13.978 c0.01,201.165,0.02,402.33-0.047,603.494c-0.002,6.622-0.288,13.328-1.356,19.845c-1.596,9.73-8.168,14.959-17.667,16.409 c-3.925,0.599-7.969,0.56-11.959,0.564c-35.324,0.04-70.647,0.129-105.971-0.008c-26.518-0.103-31.559-5.011-31.591-31.668 C5786.311,1326.586,5786.383,1224.006,5786.38,1121.425z"/>
    <path d="M5973.13,633.585c-0.131,56.361-39.766,88.261-76.766,96.267c-23.746,5.138-46.324,3.109-68.545-4.942 c-44.754-16.215-70.072-64.831-58.948-113.307c8.458-36.861,31.512-60.414,67.715-71.337c20.206-6.096,40.432-6.788,60.991-1.871 C5943.207,549.307,5973.004,586.708,5973.13,633.585z"/>
</svg>
