<svg xmlns="http://www.w3.org/2000/svg" viewBox="0 0 14 14" preserveAspectRatio="xMidYMin meet"><g clip-path="url(#a)"><path fill-rule="evenodd" d="M8.255 9.313c3.18-.812 4.808-3.308 4.318-5.226-.49-1.919-3.116-3.327-6.296-2.514-3.18.812-4.809 3.308-4.318 5.226.49 1.919 3.115 3.327 6.296 2.514Zm.247.97c3.466-.887 5.723-3.771 5.04-6.444C12.857 1.167 9.494-.28 6.028.604 2.563 1.49.307 4.374.989 7.047c.684 2.672 4.047 4.121 7.513 3.235Z" clip-rule="evenodd"/><path fill-rule="evenodd" d="M3.664 9.87 4 9.5l.336-.37h.001l.002.002.003.003.007.007a.646.646 0 0 1 .057.062c.029.035.062.08.095.136.067.115.134.27.176.476.085.41.067.995-.202 1.816a13.378 13.378 0 0 0-.422 1.525 3.59 3.59 0 0 0-.053.348v.004-.008l-.5-.001H3v-.021a1.164 1.164 0 0 1 .01-.136c.01-.086.028-.21.062-.38.067-.34.198-.866.453-1.643.23-.703.213-1.106.173-1.303a.559.559 0 0 0-.058-.168l-.006-.01.001.002a.2.2 0 0 0 .01.01l.008.01.006.004.002.003.002.001v.001Z" clip-rule="evenodd"/><path fill-rule="evenodd" d="m3.918 10.157-2.685.195-.072-.998 2.685-.194.072.997Z" clip-rule="evenodd"/><circle cx="4" cy="9" r="1"/></g><defs><clipPath id="a"><path d="M0 0H14V14H0z"/></clipPath></defs></svg>