<svg xmlns="http://www.w3.org/2000/svg" viewBox="0 0 13 16" preserveAspectRatio="xMidYMin meet"><g clip-path="url(#clip0_3900_14854)"><path d="M4 13a1 1 0 1 0-1 1v1.5a2.5 2.5 0 1 1 0-5 2.5 2.5 0 0 1 0 5V14a1 1 0 0 0 1-1M11.5 2.5a1 1 0 1 0-1 1V5a2.5 2.5 0 1 1 0-5 2.5 2.5 0 0 1 0 5V3.5a1 1 0 0 0 1-1M4 5.75a1 1 0 1 0-1 1v1.5a2.5 2.5 0 1 1 0-5 2.5 2.5 0 0 1 0 5v-1.5a1 1 0 0 0 1-1"/><path d="M9.75 11V4h1.5v7a2.75 2.75 0 0 1-2.75 2.75H5.25v-1.5H8.5c.69 0 1.25-.56 1.25-1.25M3.75 7.5V11h-1.5V7.5z"/></g><defs><clipPath id="clip0_3900_14854"><path d="M0 0H13V16H0z"/></clipPath></defs></svg>