<svg xmlns="http://www.w3.org/2000/svg" viewBox="0 0 12.5 14" preserveAspectRatio="xMidYMin meet"><path d="M5 14H2.5A2.503 2.503 0 010 11.5v-9C0 1.122 1.122 0 2.5 0H5a.5.5 0 010 1H2.5C1.673 1 1 1.673 1 2.5v9c0 .827.673 1.5 1.5 1.5H5a.5.5 0 010 1z"/><path d="M12 7.5H5a.5.5 0 010-1h7a.5.5 0 010 1z"/><path d="M12 7.5a.502.502 0 01-.354-.146l-3-3a.5.5 0 01.707-.707l3 3A.5.5 0 0112 7.5z"/><path d="M9 10.5a.5.5 0 01-.354-.853l3-3a.5.5 0 01.707.707l-3 3A.498.498 0 019 10.5z"/><path d="M12 7.5H5a.5.5 0 010-1h7a.5.5 0 010 1z"/><path d="M12 7.5a.502.502 0 01-.354-.146l-3-3a.5.5 0 01.707-.707l3 3A.5.5 0 0112 7.5z"/><path d="M9 10.5a.5.5 0 01-.354-.853l3-3a.5.5 0 01.707.707l-3 3A.498.498 0 019 10.5z"/></svg>