<svg xmlns="http://www.w3.org/2000/svg" viewBox="0 0 14 16" preserveAspectRatio="xMidYMin meet"><g clip-path="url(#clip0_3900_14861)"><path d="M11 14.5V16H3v-1.5zm1.5-1.5V3A1.5 1.5 0 0 0 11 1.5H3A1.5 1.5 0 0 0 1.5 3v10A1.5 1.5 0 0 0 3 14.5V16a3 3 0 0 1-3-3V3a3 3 0 0 1 3-3h8l.154.004A3 3 0 0 1 14 3v10a3 3 0 0 1-2.846 2.996L11 16v-1.5a1.5 1.5 0 0 0 1.5-1.5"/><path d="M7 4.25v1.5H3.5a.75.75 0 0 1 0-1.5zM10.5 4.25a.75.75 0 0 1 0 1.5h-2v-1.5zM10.5 7.25a.75.75 0 0 1 0 1.5h-7a.75.75 0 0 1 0-1.5zM5.5 10.25v1.5h-2a.75.75 0 0 1 0-1.5zM10.5 10.25a.75.75 0 0 1 0 1.5H7v-1.5z"/></g><defs><clipPath id="clip0_3900_14861"><path d="M0 0H14V16H0z"/></clipPath></defs></svg>