<svg xmlns="http://www.w3.org/2000/svg" viewBox="0 0 16 8" preserveAspectRatio="xMidYMin meet"><g clip-path="url(#clip0_3900_14865)"><path d="M14.5 4A2.5 2.5 0 1 0 12 6.5V8a4 4 0 1 1 0-8 4 4 0 0 1 0 8V6.5A2.5 2.5 0 0 0 14.5 4"/><path d="M6.5 4A2.5 2.5 0 1 0 4 6.5V8a4 4 0 1 1 0-8 4 4 0 0 1 0 8V6.5A2.5 2.5 0 0 0 6.5 4M15.5 4a1.5 1.5 0 1 1-3 0 1.5 1.5 0 0 1 3 0"/><path d="M7.5 4a1.5 1.5 0 1 1-3 0 1.5 1.5 0 0 1 3 0"/></g><defs><clipPath id="clip0_3900_14865"><path d="M0 0H16V8H0z"/></clipPath></defs></svg>