<svg xmlns="http://www.w3.org/2000/svg" viewBox="0 0 14 13" preserveAspectRatio="xMidYMin meet"><path fill-rule="evenodd" d="M0 3.354a2.5 2.5 0 0 1 2.5-2.5h4a.5.5 0 0 1 0 1h-4a1.5 1.5 0 0 0-1.5 1.5v7a1.5 1.5 0 0 0 1.5 1.5h7a1.5 1.5 0 0 0 1.5-1.5v-3a.5.5 0 0 1 1 0v3a2.5 2.5 0 0 1-2.5 2.5h-7a2.5 2.5 0 0 1-2.5-2.5v-7Z" clip-rule="evenodd"/><path fill-rule="evenodd" d="M4.207 7.218a.5.5 0 0 1 .147-.354L10.718.5a.5.5 0 0 1 .707 0l1.414 1.414a.5.5 0 0 1 0 .708L6.475 8.985a.5.5 0 0 1-.354.147H4.707a.5.5 0 0 1-.5-.5V7.218Zm1 .207v.707h.707l5.864-5.864-.707-.707-5.864 5.864Z" clip-rule="evenodd"/></svg>