<svg xmlns="http://www.w3.org/2000/svg" viewBox="0 0 11 14" preserveAspectRatio="xMidYMin meet"><path d="M9 4c-1.103 0-2-.897-2-2s.897-2 2-2 2 .897 2 2-.897 2-2 2zm0-3a1.001 1.001 0 000 2 1.001 1.001 0 000-2zM2 14c-1.103 0-2-.897-2-2s.897-2 2-2 2 .897 2 2-.897 2-2 2zm0-3a1.001 1.001 0 000 2 1.001 1.001 0 000-2zM2 8C.897 8 0 7.103 0 6s.897-2 2-2 2 .897 2 2-.897 2-2 2zm0-3c-.551 0-1 .449-1 1s.449 1 1 1 1-.449 1-1-.449-1-1-1z"/><path d="M7 12.5H3.5v-1H7c.827 0 1.5-.673 1.5-1.5V3h1v7c0 1.379-1.121 2.5-2.5 2.5zM1.5 7h1v4h-1z"/></svg>