<svg xmlns="http://www.w3.org/2000/svg" viewBox="0 0 16 16" preserveAspectRatio="xMidYMin meet"><g clip-path="url(#clip0_3900_14873)"><path d="M2.556 11v-.018A7.6 7.6 0 0 1 1.11 8.605l-.115-.304a6.15 6.15 0 0 1-.378-2.688C.843 2.882 2.847.595 5.563.227 6.533.095 7.46 0 8.112 0c.54 0 1.335.081 2.195.198 2.794.38 4.854 2.737 5.088 5.546.07.83-.025 1.664-.28 2.456l-.184.576a6.06 6.06 0 0 1-1.378 2.322A5 5 0 0 1 8.556 16v-1.5c1.91 0 3.46-1.53 3.497-3.43l.012-.583.4-.422c.47-.494.827-1.09 1.037-1.747l.185-.576c.194-.603.266-1.24.213-1.873-.181-2.171-1.759-3.908-3.795-4.184a23 23 0 0 0-1.62-.172L8.112 1.5c-.544 0-1.386.082-2.347.213-1.96.266-3.48 1.933-3.654 4.024a4.7 4.7 0 0 0 .2 1.787l.085.246h.001l.115.305a6.1 6.1 0 0 0 1.161 1.906l.383.427V11a3.5 3.5 0 0 0 3.5 3.5V16a5 5 0 0 1-5-5m6 3.5V16h-1v-1.5z"/><path d="M7.667 5.555a1.778 1.778 0 1 1-3.555 0 1.778 1.778 0 0 1 3.555 0m4.445 0a1.778 1.778 0 1 1-3.556 0 1.778 1.778 0 0 1 3.556 0M6.251 12.166v-1.777a.75.75 0 1 1 1.5 0v1.777a.75.75 0 0 1-1.5 0M8.473 12.166v-1.777a.75.75 0 1 1 1.5 0v1.777a.75.75 0 0 1-1.5 0"/></g><defs><clipPath id="clip0_3900_14873"><path d="M0 0H16V16H0z"/></clipPath></defs></svg>