<svg xmlns="http://www.w3.org/2000/svg" viewBox="0 0 16 12" preserveAspectRatio="xMidYMin meet"><g clip-path="url(#clip0_3900_14867)"><path d="M2.596 7.5a3.5 3.5 0 0 1 2.628 1.187l1.401 1.593a.5.5 0 0 0 .875-.33v-7.9a.5.5 0 0 0-.875-.33L5.224 3.311A3.5 3.5 0 0 1 2.596 4.5H2a.5.5 0 0 0-.5.5v2a.5.5 0 0 0 .5.5V9l-.204-.011A2 2 0 0 1 .01 7.204L0 7V5a2 2 0 0 1 2-2h.596a2 2 0 0 0 1.351-.526l.15-.153L5.5.728C6.717-.655 8.999.206 9 2.05v7.9l-.007.17c-.13 1.67-2.175 2.441-3.377 1.274l-.117-.123-1.401-1.593A2 2 0 0 0 2.596 9zm0 0V9H2V7.5zM10.702 6.738l3.535-3.536a.75.75 0 0 1 1.06 1.06l-3.535 3.536a.75.75 0 0 1-1.06-1.06"/><path d="M15.298 6.738a.75.75 0 1 1-1.06 1.06l-3.536-3.535a.75.75 0 1 1 1.06-1.06z"/></g><defs><clipPath id="clip0_3900_14867"><path d="M0 0H16V12H0z"/></clipPath></defs></svg>