<svg xmlns="http://www.w3.org/2000/svg" viewBox="0 0 16 16" preserveAspectRatio="xMidYMin meet"><g clip-path="url(#clip0_3900_14856)"><path d="M3.25 10.5h-1.5V.75a.75.75 0 0 1 1.5 0zM8.75 5.5h-1.5V.75a.75.75 0 0 1 1.5 0zM14.25 9.5h-1.5V.75a.75.75 0 0 1 1.5 0zM1.75 15.25v-2h1.5v2a.75.75 0 0 1-1.5 0M7.25 15.25v-6.5h1.5v6.5a.75.75 0 0 1-1.5 0M12.75 15.25V13h1.5v2.25a.75.75 0 0 1-1.5 0"/><path d="M3.5 11.5a1 1 0 1 0-1 1V14a2.5 2.5 0 1 1 0-5 2.5 2.5 0 0 1 0 5v-1.5a1 1 0 0 0 1-1M9 7a1 1 0 1 0-1 1v1.5a2.5 2.5 0 1 1 0-5 2.5 2.5 0 0 1 0 5V8a1 1 0 0 0 1-1M14.5 11.25a1 1 0 1 0-1 1v1.5a2.5 2.5 0 1 1 0-5 2.5 2.5 0 0 1 0 5v-1.5a1 1 0 0 0 1-1"/></g><defs><clipPath id="clip0_3900_14856"><path d="M0 0H16V16H0z"/></clipPath></defs></svg>