<svg xmlns="http://www.w3.org/2000/svg" viewBox="0 0 14 15" preserveAspectRatio="xMidYMin meet"><path fill-rule="evenodd" d="M4.5 1A.5.5 0 0 1 5 .5h4a.5.5 0 0 1 0 1H5a.5.5 0 0 1-.5-.5Zm-4 2a.5.5 0 0 1 .5-.5h12a.5.5 0 0 1 0 1H1A.5.5 0 0 1 .5 3Zm2 1.5A.5.5 0 0 1 3 5v8a.5.5 0 0 0 .5.5h7a.5.5 0 0 0 .5-.5V5a.5.5 0 0 1 1 0v8a1.5 1.5 0 0 1-1.5 1.5h-7A1.5 1.5 0 0 1 2 13V5a.5.5 0 0 1 .5-.5Zm6.5 0a.5.5 0 0 1 .5.5v6a.5.5 0 0 1-1 0V5a.5.5 0 0 1 .5-.5Zm-4 1a.5.5 0 0 1 .5.5v4a.5.5 0 0 1-1 0V6a.5.5 0 0 1 .5-.5Zm2 1a.5.5 0 0 1 .5.5v5a.5.5 0 0 1-1 0V7a.5.5 0 0 1 .5-.5Z" clip-rule="evenodd"/></svg>