<svg xmlns="http://www.w3.org/2000/svg" viewBox="0 0 16 16" preserveAspectRatio="xMidYMin meet"><path fill-rule="evenodd" d="M8 15A7 7 0 1 0 8 1a7 7 0 0 0 0 14Zm0 1A8 8 0 1 0 8 0a8 8 0 0 0 0 16Z" clip-rule="evenodd"/><path fill-rule="evenodd" d="M8 12.5a.5.5 0 0 1-.5-.5V5a.5.5 0 0 1 1 0v7a.5.5 0 0 1-.5.5Z" clip-rule="evenodd"/><path fill-rule="evenodd" d="M4.646 8.354a.5.5 0 0 1 0-.708l3-3a.5.5 0 1 1 .708.708l-3 3a.5.5 0 0 1-.708 0Z" clip-rule="evenodd"/><path fill-rule="evenodd" d="M7.646 4.646a.5.5 0 0 0 0 .708l3 3a.5.5 0 0 0 .708-.708l-3-3a.5.5 0 0 0-.708 0Z" clip-rule="evenodd"/></svg>