<svg xmlns="http://www.w3.org/2000/svg" viewBox="0 0 14 13" preserveAspectRatio="xMidYMin meet"><path d="M2 11.5c-1.103 0-2-.897-2-2s.897-2 2-2 2 .897 2 2-.897 2-2 2zm0-3a1.001 1.001 0 000 2 1.001 1.001 0 000-2zM7 6.5c-1.103 0-2-.897-2-2s.897-2 2-2 2 .897 2 2-.897 2-2 2zm0-3c-.551 0-1 .449-1 1s.449 1 1 1 1-.449 1-1-.449-1-1-1zM12 9.5c-1.103 0-2-.897-2-2s.897-2 2-2 2 .897 2 2-.897 2-2 2zm0-3a1 1 0 100 2 1 1 0 000-2z"/><path d="M2 13a.5.5 0 01-.5-.5V11a.5.5 0 011 0v1.5a.5.5 0 01-.5.5zM7 13a.5.5 0 01-.5-.5v-6a.5.5 0 011 0v6a.5.5 0 01-.5.5zM12 13a.5.5 0 01-.5-.5v-3a.5.5 0 011 0v3a.5.5 0 01-.5.5zM2 8a.5.5 0 01-.5-.5v-7a.5.5 0 011 0v7A.5.5 0 012 8zM7 3a.5.5 0 01-.5-.5v-2a.5.5 0 011 0v2A.5.5 0 017 3zM12 6a.5.5 0 01-.5-.5v-5a.5.5 0 011 0v5a.5.5 0 01-.5.5z"/></svg>