<svg xmlns="http://www.w3.org/2000/svg" viewBox="0 0 15 16" preserveAspectRatio="xMidYMin meet"><path fill-rule="evenodd" d="m11 11.158.454-.296C13.04 9.831 14 8.236 14 6.5 14 3.592 11.229 1 7.5 1S1 3.592 1 6.5c0 1.736.96 3.33 2.546 4.362l.454.296v1.024C4 13.59 5.407 15 7.5 15s3.5-1.41 3.5-2.818v-1.024Zm1 .543v.48C12 14.292 9.985 16 7.5 16S3 14.29 3 12.182V11.7c-1.822-1.185-3-3.073-3-5.2C0 2.91 3.358 0 7.5 0 11.642 0 15 2.91 15 6.5c0 2.127-1.178 4.015-3 5.2Z" clip-rule="evenodd"/><path fill-rule="evenodd" d="M8.5 11.063a.5.5 0 0 1 .5.5v1.5a.5.5 0 0 1-1 0v-1.5a.5.5 0 0 1 .5-.5ZM6.5 11.063a.5.5 0 0 1 .5.5v1.5a.5.5 0 0 1-1 0v-1.5a.5.5 0 0 1 .5-.5Z" clip-rule="evenodd"/><path d="M7 6a2 2 0 1 1-4 0 2 2 0 0 1 4 0ZM12 6a2 2 0 1 1-4 0 2 2 0 0 1 4 0Z"/></svg>