<svg xmlns="http://www.w3.org/2000/svg" viewBox="0 0 16 16" preserveAspectRatio="xMidYMin meet"><g fill-rule="evenodd" clip-path="url(#clip0_3900_14876)" clip-rule="evenodd"><path d="M8 15A7 7 0 1 0 8 1a7 7 0 0 0 0 14m0 1A8 8 0 1 0 8-.001 8 8 0 0 0 8 16"/><path d="M8 12.002a.5.5 0 0 1-.5-.5v-7a.5.5 0 0 1 1 0v7a.5.5 0 0 1-.5.5"/><path d="M4.646 7.856a.5.5 0 0 1 0-.708l3-3a.5.5 0 1 1 .708.708l-3 3a.5.5 0 0 1-.708 0"/><path d="M7.646 4.148a.5.5 0 0 0 0 .708l3 3a.5.5 0 1 0 .708-.708l-3-3a.5.5 0 0 0-.708 0"/></g><defs><clipPath id="clip0_3900_14876"><path d="M0 0H16V16H0z"/></clipPath></defs></svg>