<svg xmlns="http://www.w3.org/2000/svg" viewBox="0 0 14 16" preserveAspectRatio="xMidYMin meet"><path fill-rule="evenodd" d="M11 1H3a2 2 0 0 0-2 2v10a2 2 0 0 0 2 2h8a2 2 0 0 0 2-2V3a2 2 0 0 0-2-2ZM3 0a3 3 0 0 0-3 3v10a3 3 0 0 0 3 3h8a3 3 0 0 0 3-3V3a3 3 0 0 0-3-3H3Z" clip-rule="evenodd"/><path fill-rule="evenodd" d="M3.5 5a.5.5 0 0 1 .5-.5h6a.5.5 0 0 1 0 1H4a.5.5 0 0 1-.5-.5ZM3.5 8a.5.5 0 0 1 .5-.5h4a.5.5 0 0 1 0 1H4a.5.5 0 0 1-.5-.5ZM3.5 11a.5.5 0 0 1 .5-.5h6a.5.5 0 0 1 0 1H4a.5.5 0 0 1-.5-.5Z" clip-rule="evenodd"/></svg>