<svg xmlns="http://www.w3.org/2000/svg" viewBox="0 0 14 10" preserveAspectRatio="xMidYMin meet"><g clip-path="url(#clip0_3900_14868)"><path d="M11 8.5V10H3V8.5zM12.5 7V3A1.5 1.5 0 0 0 11 1.5H3A1.5 1.5 0 0 0 1.5 3v4A1.5 1.5 0 0 0 3 8.5V10A3 3 0 0 1 .004 7.154L0 7V3a3 3 0 0 1 3-3h8l.154.004A3 3 0 0 1 14 3v4l-.004.154a3 3 0 0 1-2.842 2.842L11 10V8.5A1.5 1.5 0 0 0 12.5 7"/><path d="M12.665 2.33a.75.75 0 0 1 .67 1.34l-6 3a.75.75 0 0 1-.67-1.34z"/><path d="M.33 2.665a.75.75 0 0 1 1.005-.336l6 3a.75.75 0 0 1-.67 1.342l-6-3a.75.75 0 0 1-.336-1.006"/></g><defs><clipPath id="clip0_3900_14868"><path d="M0 0H14V10H0z"/></clipPath></defs></svg>