<svg xmlns="http://www.w3.org/2000/svg" viewBox="0 0 12 12" preserveAspectRatio="xMidYMin meet"><g clip-path="url(#clip0_3900_14874)"><path d="M8 9v1H2V9zm1-1V2a1 1 0 0 0-1-1H2a1 1 0 0 0-1 1v6a1 1 0 0 0 1 1v1l-.204-.01A2 2 0 0 1 .01 8.203L0 8V2A2 2 0 0 1 1.796.01L2 0h6l.204.01A2 2 0 0 1 10 2v6l-.01.204A2 2 0 0 1 8.203 9.99L8 10V9a1 1 0 0 0 1-1"/><path d="M11 9.5v-3a.5.5 0 0 1 1 0v3A2.5 2.5 0 0 1 9.5 12h-3a.5.5 0 0 1 0-1h3A1.5 1.5 0 0 0 11 9.5"/></g><defs><clipPath id="clip0_3900_14874"><path d="M0 0H12V12H0z"/></clipPath></defs></svg>