<svg xmlns="http://www.w3.org/2000/svg" viewBox="0 0 15.784 15.784" preserveAspectRatio="xMidYMin meet"><path d="M7.892 1c.816 0 1.393 1.364 2.159 1.681.181.075.4.097.637.097.353 0 .746-.05 1.108-.05.385 0 .736.057.97.29.601.601.032 1.976.338 2.715.317.766 1.681 1.343 1.681 2.159s-1.364 1.393-1.681 2.159c-.306.739.263 2.114-.338 2.715-.234.234-.585.29-.97.29-.362 0-.754-.05-1.108-.05-.237 0-.456.022-.637.097-.766.317-1.343 1.681-2.159 1.681s-1.393-1.364-2.159-1.681c-.181-.075-.4-.097-.637-.097-.353 0-.746.05-1.108.05-.385 0-.736-.057-.97-.29-.601-.601-.032-1.976-.338-2.715C2.364 9.285 1 8.708 1 7.892s1.364-1.393 1.681-2.159c.306-.739-.263-2.114.338-2.715.234-.234.585-.29.97-.29.362 0 .754.05 1.108.05.237 0 .456-.022.637-.097C6.499 2.364 7.076 1 7.892 1zm0-1c-.911 0-1.504.67-1.979 1.208-.165.186-.441.498-.562.549-.004.001-.066.021-.254.021-.154 0-.317-.012-.481-.023-.211-.013-.423-.027-.627-.027-.47 0-1.154.06-1.677.583-.666.666-.603 1.613-.556 2.305.016.232.041.621 0 .737-.05.119-.362.395-.548.559C.67 6.389 0 6.981 0 7.892s.67 1.503 1.208 1.979c.186.165.498.441.549.562.04.114.014.503-.001.735-.046.692-.109 1.639.556 2.305.523.523 1.208.583 1.677.583.204 0 .416-.013.627-.027.164-.011.326-.023.481-.023.188 0 .25.02.257.022.119.05.395.362.559.548.476.538 1.068 1.208 1.979 1.208s1.503-.67 1.979-1.208c.165-.186.441-.498.562-.549.004-.001.066-.021.254-.021.154 0 .317.012.481.023.211.014.423.027.627.027.47 0 1.154-.06 1.677-.583.665-.665.602-1.613.556-2.304-.016-.232-.041-.621 0-.737.05-.119.362-.395.548-.559.538-.476 1.208-1.068 1.208-1.979s-.67-1.503-1.208-1.979c-.186-.165-.498-.441-.549-.562-.04-.114-.014-.503.001-.735.046-.692.109-1.639-.556-2.304-.523-.523-1.208-.583-1.677-.583-.204 0-.416.013-.627.027-.164.011-.326.023-.481.023-.188 0-.25-.02-.257-.022-.119-.05-.395-.362-.559-.548C9.395.67 8.803 0 7.892 0z"/><path d="M7.892 10.393c-1.378 0-2.5-1.122-2.5-2.5s1.122-2.5 2.5-2.5c1.379 0 2.5 1.122 2.5 2.5s-1.121 2.5-2.5 2.5zm0-4.001c-.827 0-1.5.673-1.5 1.5s.673 1.5 1.5 1.5 1.5-.673 1.5-1.5-.673-1.5-1.5-1.5z"/></svg>