<svg xmlns="http://www.w3.org/2000/svg" viewBox="0 0 15 13" preserveAspectRatio="xMidYMin meet"><path d="M11.5 8a.5.5 0 01-.5-.5v-7a.5.5 0 011 0v7a.5.5 0 01-.5.5z"/><path d="M8.5 4a.5.5 0 01-.354-.853l3-3a.5.5 0 01.707.707l-3 3A.498.498 0 018.5 4z"/><path d="M14.5 4a.502.502 0 01-.354-.146l-3-3a.5.5 0 01.707-.707l3 3A.5.5 0 0114.5 4zM3.5 13a.5.5 0 01-.5-.5v-7a.5.5 0 011 0v7a.5.5 0 01-.5.5z"/><path d="M3.5 13a.5.5 0 01-.354-.853l3-3a.5.5 0 01.707.707l-3 3A.498.498 0 013.5 13z"/><path d="M3.5 13a.502.502 0 01-.354-.146l-3-3a.5.5 0 01.707-.707l3 3A.5.5 0 013.5 13z"/></svg>