<svg xmlns="http://www.w3.org/2000/svg" viewBox="0 0 16 17" preserveAspectRatio="xMidYMin meet"><g clip-path="url(#clip0_3900_14862)"><path d="M14.05 3.697c.378-.38 1.04-.322 1.323.162l.052.103.124.323c.338.97.892 3.383-1.048 5.324-.961.96-1.9 1.45-2.772 1.62a3.7 3.7 0 0 1-2.157-.221c-.366-.154-.642-.071-.728.015l-4.42 4.42A2.5 2.5 0 0 1 .89 11.907l4.42-4.42c.086-.086.168-.362.015-.727a3.7 3.7 0 0 1-.221-2.158c.17-.872.659-1.81 1.62-2.771C8.94-.387 11.775.655 12.369.906l.103.052c.485.283.542.945.163 1.324L10.788 4.13a1 1 0 0 0 1.415 1.414zm-.787 2.907a2.5 2.5 0 0 1-3.535-3.536l1.065-1.065c-.851-.144-2.03-.09-3.01.888-.793.793-1.105 1.473-1.208 1.998s-.006.962.132 1.29c.274.653.357 1.675-.338 2.37l-4.42 4.419a1 1 0 1 0 1.415 1.414l4.42-4.42c.694-.694 1.715-.611 2.368-.337.329.138.765.233 1.29.131s1.205-.415 1.998-1.208c.98-.98 1.032-2.158.888-3.01z"/></g><defs><clipPath id="clip0_3900_14862"><path d="M0 0H16V16.5H0z"/></clipPath></defs></svg>