<svg xmlns="http://www.w3.org/2000/svg" viewBox="0 0 16 16" preserveAspectRatio="xMidYMin meet"><g clip-path="url(#clip0_3900_14860)"><path d="M14.5 8A6.5 6.5 0 1 0 8 14.5V16A8 8 0 1 1 8 0a8 8 0 0 1 0 16v-1.5A6.5 6.5 0 0 0 14.5 8"/><path d="M7.25 11V5a.75.75 0 0 1 1.5 0v6a.75.75 0 0 1-1.5 0"/><path d="M10.52 7.924a.75.75 0 0 1 .96 1.152l-3 2.5a.75.75 0 0 1-.96-1.152z"/><path d="M4.424 8.02a.75.75 0 0 1 1.057-.096l3 2.5a.75.75 0 0 1-.961 1.152l-3-2.5a.75.75 0 0 1-.096-1.056"/></g><defs><clipPath id="clip0_3900_14860"><path d="M0 0H16V16H0z"/></clipPath></defs></svg>