<svg xmlns="http://www.w3.org/2000/svg" preserveAspectRatio="xMidYMin meet" viewBox="0 0 16.5 16.5"><path d="M15 12.75v-9a2.25 2.25 0 0 0-2.25-2.25h-9A2.25 2.25 0 0 0 1.5 3.75v5.265a.75.75 0 0 1-1.5 0V3.75A3.75 3.75 0 0 1 3.75 0h9a3.75 3.75 0 0 1 3.75 3.75v9a3.75 3.75 0 0 1-3.75 3.75H8.036a.75.75 0 0 1 0-1.5h4.714A2.25 2.25 0 0 0 15 12.75"/><path d="M10 10.75V6.5H5.75a.75.75 0 0 1 0-1.5h5a.75.75 0 0 1 .75.75v5a.75.75 0 0 1-1.5 0"/><path d="M10.22 5.22a.75.75 0 1 1 1.06 1.06l-6 6a.75.75 0 1 1-1.06-1.06z"/></svg>