<svg xmlns="http://www.w3.org/2000/svg" viewBox="0 0 15 15" preserveAspectRatio="xMidYMin meet"><g clip-path="url(#clip0_3900_14875)"><path d="M10 0a5 5 0 0 1 5 5v2h-1.5V5A3.5 3.5 0 0 0 10 1.5H8V0z"/><path d="M10.5 6H12v6h-1.5zM9 4.5H3A1.5 1.5 0 0 0 1.5 6v6A1.5 1.5 0 0 0 3 13.5h6a1.5 1.5 0 0 0 1.5-1.5H12a3 3 0 0 1-3 3H3a3 3 0 0 1-3-3V6a3 3 0 0 1 3-3h6a3 3 0 0 1 3 3h-1.5A1.5 1.5 0 0 0 9 4.5M13.5 6A.75.75 0 0 1 15 6v2a.75.75 0 0 1-1.5 0zM9 1.5H7A.75.75 0 0 1 7 0h2a.75.75 0 0 1 0 1.5"/></g><defs><clipPath id="clip0_3900_14875"><path d="M0 0H15V15H0z"/></clipPath></defs></svg>