<svg xmlns="http://www.w3.org/2000/svg" width="16" height="11" preserveAspectRatio="xMidYMin meet" viewBox="0 0 16 11"><path fill-rule="evenodd" d="M2.5 6.5A1.5 1.5 0 001 8v2a.5.5 0 01-1 0V8a2.5 2.5 0 012.5-2.5H5A2.5 2.5 0 017.5 8v2a.5.5 0 01-1 0V8A1.5 1.5 0 005 6.5H2.5zm8.5 0A1.5 1.5 0 009.5 8v2a.5.5 0 01-1 0V8A2.5 2.5 0 0111 5.5h2.5A2.5 2.5 0 0116 8v2a.5.5 0 01-1 0V8a1.5 1.5 0 00-1.5-1.5H11zM3.75 4a1.5 1.5 0 100-3 1.5 1.5 0 000 3zm0 1a2.5 2.5 0 100-5 2.5 2.5 0 000 5zm8.5-1a1.5 1.5 0 100-3 1.5 1.5 0 000 3zm0 1a2.5 2.5 0 100-5 2.5 2.5 0 000 5z" clip-rule="evenodd"/></svg>