<svg xmlns="http://www.w3.org/2000/svg" viewBox="0 0 14 16" preserveAspectRatio="xMidYMin meet"><g clip-path="url(#clip0_3900_14871)"><path d="M2 12.25a1.5 1.5 0 0 0 1.5 1.5h7a1.5 1.5 0 0 0 1.5-1.5v-3h1.5v3a3 3 0 0 1-3 3h-7a3 3 0 0 1-3-3v-3H2zM12 8.25a.75.75 0 0 1 1.5 0v1H12zM.5 8.25a.75.75 0 0 1 1.5 0v1H.5z"/><path d="M6.25 9.75v-8.5a.75.75 0 0 1 1.5 0v8.5a.75.75 0 0 1-1.5 0"/><path d="M6.47.72a.75.75 0 0 1 1.06 0l3 3a.75.75 0 1 1-1.06 1.06l-3-3a.75.75 0 0 1 0-1.06"/><path d="M6.47.72a.75.75 0 1 1 1.06 1.06l-3 3a.75.75 0 1 1-1.06-1.06z"/></g><defs><clipPath id="clip0_3900_14871"><path d="M0 0H14V16H0z"/></clipPath></defs></svg>