<svg xmlns="http://www.w3.org/2000/svg" viewBox="0 0 14 15" preserveAspectRatio="xMidYMin meet"><g clip-path="url(#clip0_3900_14859)"><path d="M3 12a1.5 1.5 0 0 0 1.5 1.5h5A1.5 1.5 0 0 0 11 12V6h1.5v6a3 3 0 0 1-3 3h-5a3 3 0 0 1-3-3V6H3z"/><path d="M11 7V6a.75.75 0 0 1 1.5 0v1A.75.75 0 0 1 11 7M1.5 7V6A.75.75 0 0 1 3 6v1a.75.75 0 0 1-1.5 0M4.75 9.5v-3a.75.75 0 0 1 1.5 0v3a.75.75 0 0 1-1.5 0M7.75 11V7.75a.75.75 0 0 1 1.5 0V11a.75.75 0 0 1-1.5 0M13 2.75a.75.75 0 0 1 0 1.5H1a.75.75 0 0 1 0-1.5zM10 .25a.75.75 0 0 1 0 1.5H4a.75.75 0 0 1 0-1.5z"/></g><defs><clipPath id="clip0_3900_14859"><path d="M0 0H14V15H0z"/></clipPath></defs></svg>