<svg xmlns="http://www.w3.org/2000/svg" viewBox="0 0 15 16" preserveAspectRatio="xMidYMin meet"><g clip-path="url(#clip0_3900_14872)"><path d="M4.5 3A1.5 1.5 0 1 0 3 4.5V6a3 3 0 1 1 0-6 3 3 0 0 1 0 6V4.5A1.5 1.5 0 0 0 4.5 3"/><path d="M9.53 8.47 8.47 9.53l-4-4 1.06-1.06z"/><path d="M14.876 5.15zl-.004.001-.015.01-.06.034-.226.135c-.192.115-.46.279-.761.469-.61.385-1.327.864-1.833 1.28-1.089.894-1.658 1.302-2.353 2.339-.577.86-.933 2.223-1.138 3.457a21 21 0 0 0-.234 2.116l-.001.03-.001.007v.001l-1.498-.058v-.015l.002-.038.008-.139a21.997 21.997 0 0 1 .245-2.15c.21-1.263.603-2.901 1.371-4.047.842-1.256 1.602-1.803 2.647-2.661.582-.478 1.364-.998 1.983-1.39.313-.198.592-.367.792-.487l.236-.142.066-.037.017-.01.004-.003h.002V3.85zM9.746 2.072v.007l-.002.015-.006.055-.022.202c-.02.168-.052.402-.095.668-.083.517-.217 1.204-.419 1.744-.23.617-.645 1.3-.975 1.8a18 18 0 0 1-.618.875l-.01.013-.004.005-.083.108-4.115 2.572-.794-1.272 3.88-2.426q.037-.049.088-.119a17 17 0 0 0 .405-.583c.32-.483.654-1.05.822-1.499.146-.393.262-.956.342-1.456.039-.242.068-.458.087-.612l.02-.18.005-.048v-.01l.002-.003z"/></g><defs><clipPath id="clip0_3900_14872"><path d="M0 0H15V16H0z"/></clipPath></defs></svg>