<svg xmlns="http://www.w3.org/2000/svg" viewBox="0 0 16 12" preserveAspectRatio="xMidYMin meet"><path fill-rule="evenodd" d="M5.885.602C6.805-.42 8.5.231 8.5 1.606v8.788c0 1.374-1.695 2.025-2.615 1.003L3.426 8.665a.5.5 0 0 0-.371-.165H2A1.5 1.5 0 0 1 .5 7V5A1.5 1.5 0 0 1 2 3.5h1.055a.5.5 0 0 0 .371-.166L5.886.602ZM7.5 1.606a.5.5 0 0 0-.872-.335L4.17 4.003a1.5 1.5 0 0 1-1.115.497H2a.5.5 0 0 0-.5.5v2a.5.5 0 0 0 .5.5h1.055c.425 0 .83.18 1.115.496l2.458 2.732a.5.5 0 0 0 .872-.334V1.606ZM10.146 3.646a.5.5 0 0 1 .708 0l4 4a.5.5 0 0 1-.708.707l-4-4a.5.5 0 0 1 0-.707Z" clip-rule="evenodd"/><path fill-rule="evenodd" d="M10.146 8.353a.5.5 0 0 1 0-.707l4-4a.5.5 0 1 1 .707.707l-4 4a.5.5 0 0 1-.707 0Z" clip-rule="evenodd"/></svg>