<svg xmlns="http://www.w3.org/2000/svg" viewBox="0 0 14 14" preserveAspectRatio="xMidYMin meet"><g clip-path="url(#clip0_3900_14864)"><path d="M12.875 7.875h-7.25a.75.75 0 0 1 0-1.5h7.25a.75.75 0 0 1 0 1.5"/><path d="M9.799 4.605a.75.75 0 0 1 1.152-.96l2.5 3a.75.75 0 0 1-1.152.96z"/><path d="M9.895 10.701a.75.75 0 0 1-.096-1.057l2.5-3a.75.75 0 0 1 1.152.961l-2.5 3a.75.75 0 0 1-1.056.096M.25 11V3A2.75 2.75 0 0 1 3 .25h3a.75.75 0 0 1 0 1.5H3c-.69 0-1.25.56-1.25 1.25v8c0 .69.56 1.25 1.25 1.25h3a.75.75 0 0 1 0 1.5H3A2.75 2.75 0 0 1 .25 11"/></g><defs><clipPath id="clip0_3900_14864"><path d="M0 0H14V14H0z"/></clipPath></defs></svg>