<svg xmlns="http://www.w3.org/2000/svg" viewBox="0 0 16 16" preserveAspectRatio="xMidYMin meet"><g clip-path="url(#clip0_3989_481)"><path d="M14.5 8A6.5 6.5 0 1 0 8 14.5V16A8 8 0 1 1 8 0a8 8 0 0 1 0 16v-1.5A6.5 6.5 0 0 0 14.5 8"/><path d="M8.25 10.25a.75.75 0 1 1-1.5 0 .75.75 0 0 1 1.5 0"/><path d="M10.661 5.035a.75.75 0 0 1 1.178.93l-3.75 4.75a.75.75 0 0 1-1.178-.93z"/><path d="M3.9 7.55a.75.75 0 0 1 1.05-.15l3 2.25a.75.75 0 0 1-.9 1.2l-3-2.25a.75.75 0 0 1-.15-1.05"/></g><defs><clipPath id="clip0_3989_481"><path d="M0 0H16V16H0z"/></clipPath></defs></svg>