<svg xmlns="http://www.w3.org/2000/svg" viewBox="0 0 15 13" preserveAspectRatio="xMidYMin meet"><path fill-rule="evenodd" d="M0 .5A.5.5 0 0 1 .5 0h5a.5.5 0 0 1 0 1h-5A.5.5 0 0 1 0 .5ZM0 12.5a.5.5 0 0 1 .5-.5h4a.5.5 0 0 1 0 1h-4a.5.5 0 0 1-.5-.5ZM0 4.5A.5.5 0 0 1 .5 4h7a.5.5 0 0 1 0 1h-7a.5.5 0 0 1-.5-.5ZM9 .5a.5.5 0 0 1 .5-.5h5a.5.5 0 0 1 0 1h-5A.5.5 0 0 1 9 .5ZM11 4.5a.5.5 0 0 1 .5-.5h3a.5.5 0 0 1 0 1h-3a.5.5 0 0 1-.5-.5ZM8 12.5a.5.5 0 0 1 .5-.5h6a.5.5 0 0 1 0 1h-6a.5.5 0 0 1-.5-.5ZM0 8.5A.5.5 0 0 1 .5 8h14a.5.5 0 0 1 0 1H.5a.5.5 0 0 1-.5-.5Z" clip-rule="evenodd"/></svg>