<svg xmlns="http://www.w3.org/2000/svg" viewBox="0 0 16 16" preserveAspectRatio="xMidYMin meet"><path fill-rule="evenodd" d="M11.522 1.136a3.998 3.998 0 0 0-3.865 1.036 3.997 3.997 0 0 0-1.054 3.792c.16.652.049 1.455-.529 2.032l-4.781 4.782a1 1 0 1 0 1.414 1.414l4.781-4.781c.578-.578 1.38-.69 2.033-.528a3.997 3.997 0 0 0 3.793-1.055 3.998 3.998 0 0 0 1.036-3.864l-1.45 1.45a2 2 0 1 1-2.829-2.828l1.45-1.45ZM11.486 5a1 1 0 0 0 .707-.293l1.6-1.6c.447-.447 1.198-.368 1.408.228a5 5 0 0 1-5.92 6.519c-.386-.096-.805-.017-1.086.264L3.415 14.9a2 2 0 0 1-2.83-2.828l4.782-4.782c.281-.28.36-.7.265-1.086A5 5 0 0 1 12.15.283c.596.211.674.963.227 1.41l-1.6 1.6A1 1 0 0 0 11.486 5Z" clip-rule="evenodd"/></svg>