<svg xmlns="http://www.w3.org/2000/svg" viewBox="0 0 13.777 14.121" preserveAspectRatio="xMidYMin meet"><path d="M3.647 4.354l.707-.707 4 4-.707.707z"/><path d="M6.985 14.121l-.97-.242 1.231-4.925A4.503 4.503 0 018.43 6.863l1.437-1.437c.21-.21.441-.399.688-.563l2.669-1.78.555.832-2.67 1.78a3.438 3.438 0 00-.534.438L9.137 7.57a3.487 3.487 0 00-.92 1.626l-1.232 4.925zM2.5 5C1.122 5 0 3.878 0 2.5S1.122 0 2.5 0 5 1.122 5 2.5 3.878 5 2.5 5zm0-4C1.673 1 1 1.673 1 2.5S1.673 4 2.5 4 4 3.327 4 2.5 3.327 1 2.5 1zM2.265 8.924l-.53-.848 3.27-2.043c.425-.265.78-.611 1.058-1.027l.85-1.275A3.498 3.498 0 007.5 1.789V1h1v.789a4.49 4.49 0 01-.756 2.496l-.85 1.275c-.356.536-.814.98-1.359 1.32l-3.27 2.044z"/></svg>