<svg xmlns="http://www.w3.org/2000/svg" viewBox="0 0 16 14" preserveAspectRatio="xMidYMin meet"><g clip-path="url(#clip0_3900_14863)"><path d="M3 13.25V6a.75.75 0 0 1 1.5 0v7.25a.75.75 0 0 1-1.5 0M12.75.75V8a.75.75 0 0 1-1.5 0V.75a.75.75 0 0 1 1.5 0"/><path d="M6.27 10.174a.75.75 0 0 1 .96 1.152l-3 2.5a.75.75 0 0 1-.96-1.152zM9.48 3.826a.75.75 0 0 1-.96-1.152l3-2.5a.75.75 0 0 1 .96 1.152z"/><path d="M.174 10.27a.75.75 0 0 1 1.057-.096l3 2.5a.75.75 0 0 1-.961 1.152l-3-2.5a.75.75 0 0 1-.096-1.056M15.576 3.73a.75.75 0 0 1-1.056.096l-3-2.5a.75.75 0 0 1 .96-1.152l3 2.5a.75.75 0 0 1 .096 1.056"/></g><defs><clipPath id="clip0_3900_14863"><path d="M0 0H16V14H0z"/></clipPath></defs></svg>