<svg xmlns="http://www.w3.org/2000/svg" viewBox="0 0 17 17" preserveAspectRatio="xMidYMin meet"><g clip-path="url(#clip0_3900_14870)"><path d="M6.89 1.575a2.25 2.25 0 0 1 3.22 0l.66.675a.75.75 0 0 0 .545.227l.944-.012a2.25 2.25 0 0 1 2.276 2.276l-.011.945a.75.75 0 0 0 .226.545l.675.66a2.25 2.25 0 0 1 0 3.219l-.675.66a.75.75 0 0 0-.226.545l.011.944a2.25 2.25 0 0 1-2.276 2.276l-.944-.011a.75.75 0 0 0-.545.226l-.66.675a2.25 2.25 0 0 1-3.22 0l-.66-.675a.75.75 0 0 0-.544-.226l-.945.011a2.25 2.25 0 0 1-2.276-2.276l.012-.944a.75.75 0 0 0-.227-.545l-.675-.66a2.25 2.25 0 0 1 0-3.22l.675-.66a.75.75 0 0 0 .227-.544l-.012-.945a2.25 2.25 0 0 1 2.276-2.276l.945.012a.75.75 0 0 0 .545-.227zm2.146 1.048a.75.75 0 0 0-1.072 0l-.66.675a2.25 2.25 0 0 1-1.637.679l-.943-.012a.75.75 0 0 0-.759.759l.012.943a2.25 2.25 0 0 1-.679 1.637l-.675.66a.75.75 0 0 0 0 1.072l.675.66c.44.43.686 1.022.679 1.637l-.012.944a.75.75 0 0 0 .759.758l.943-.011a2.25 2.25 0 0 1 1.637.678l.66.675a.75.75 0 0 0 1.072 0l.66-.675a2.25 2.25 0 0 1 1.637-.678l.944.011a.75.75 0 0 0 .758-.758l-.011-.944a2.25 2.25 0 0 1 .678-1.637l.675-.66a.75.75 0 0 0 0-1.072l-.675-.66a2.25 2.25 0 0 1-.678-1.637l.011-.943a.75.75 0 0 0-.758-.759l-.944.012a2.25 2.25 0 0 1-1.637-.679z"/><path d="M9.5 8.5a1 1 0 1 0-1 1V11a2.5 2.5 0 1 1 0-5 2.5 2.5 0 0 1 0 5V9.5a1 1 0 0 0 1-1"/></g><defs><clipPath id="clip0_3900_14870"><path d="M0 0H17V17H0z"/></clipPath></defs></svg>