<svg xmlns="http://www.w3.org/2000/svg" viewBox="0 0 15 15" preserveAspectRatio="xMidYMin meet"><g clip-path="url(#clip0_3900_14874)"><path d="M15 10a5 5 0 0 1-5 5H8v-1.5h2a3.5 3.5 0 0 0 3.5-3.5V8H15z"/><path d="M9 10.5V12H3v-1.5zM10.5 9V3A1.5 1.5 0 0 0 9 1.5H3A1.5 1.5 0 0 0 1.5 3v6A1.5 1.5 0 0 0 3 10.5V12a3 3 0 0 1-3-3V3a3 3 0 0 1 3-3h6a3 3 0 0 1 3 3v6a3 3 0 0 1-3 3v-1.5A1.5 1.5 0 0 0 10.5 9M9 13.5A.75.75 0 0 1 9 15H7a.75.75 0 0 1 0-1.5zM13.5 9V7A.75.75 0 0 1 15 7v2a.75.75 0 0 1-1.5 0"/></g><defs><clipPath id="clip0_3900_14874"><path d="M0 0H15V15H0z"/></clipPath></defs></svg>