<svg xmlns="http://www.w3.org/2000/svg" viewBox="0 0 16 16" preserveAspectRatio="xMidYMin meet"><g fill-rule="evenodd" clip-path="url(#clip0_3989_481)" clip-rule="evenodd"><path d="M4.262 8.203a.5.5 0 0 1 .707 0l2.202 2.202a.5.5 0 0 1-.707.707L4.262 8.91a.5.5 0 0 1 0-.707Z"/><path d="M11.78 5.693a.5.5 0 0 1 .007.707l-4.58 4.682a.5.5 0 1 1-.715-.7l4.58-4.681a.5.5 0 0 1 .707-.008Z"/><path d="M8 14.5a6.5 6.5 0 1 0 0-13 6.5 6.5 0 0 0 0 13Zm0 1a7.5 7.5 0 1 0 0-15 7.5 7.5 0 0 0 0 15Z"/></g><defs><clipPath id="clip0_3989_481"><path d="M0 0H16V16H0z"/></clipPath></defs></svg>