<svg xmlns="http://www.w3.org/2000/svg" viewBox="0 0 12 12" preserveAspectRatio="xMidYMin meet"><g clip-path="url(#clip0_3900_14875)"><path d="M9 4h1v6H9zM8 3H2a1 1 0 0 0-1 1v6a1 1 0 0 0 1 1h6a1 1 0 0 0 1-1h1l-.01.204a2 2 0 0 1-1.786 1.785L8 12H2a2 2 0 0 1-1.99-1.796L0 10V4l.01-.204A2 2 0 0 1 2 2h6l.204.01A2 2 0 0 1 9.99 3.797L10 4H9a1 1 0 0 0-1-1"/><path d="M9.5 1h-3a.5.5 0 0 1 0-1h3A2.5 2.5 0 0 1 12 2.5v3a.5.5 0 0 1-1 0v-3A1.5 1.5 0 0 0 9.5 1"/></g><defs><clipPath id="clip0_3900_14875"><path d="M0 0H12V12H0z"/></clipPath></defs></svg>